<svg width="25" height="23" viewBox="0 0 25 23" fill="none" xmlns="http://www.w3.org/2000/svg">
<path d="M7.26349 13.276C7.96605 13.276 8.64515 13.2306 9.28776 13.1461V6.10251C8.64521 6.0181 7.96605 5.97272 7.26349 5.97272C3.25198 5.97272 0 7.44763 0 9.2671V9.98155C0 11.801 3.25198 13.276 7.26349 13.276Z" fill="#F8AE6A"/>
<path d="M7.26349 16.9539C7.96605 16.9539 8.64515 16.9085 9.28776 16.8242V14.7596C8.64502 14.844 7.96624 14.89 7.26349 14.89C3.76188 14.89 0.839266 13.7661 0.152764 12.2703C0.0527887 12.4882 0 12.7138 0 12.9451V13.6595C0 15.479 3.25198 16.9539 7.26349 16.9539Z" fill="#F8AE6A"/>
<path d="M9.28776 18.598V18.4376C8.64502 18.522 7.96624 18.568 7.26349 18.568C3.76188 18.568 0.839266 17.4441 0.152764 15.9483C0.0527887 16.1662 0 16.3917 0 16.623V17.3375C0 19.157 3.25198 20.6319 7.26349 20.6319C8.06572 20.6319 8.83732 20.5728 9.55887 20.4638C9.38002 20.098 9.28776 19.7122 9.28776 19.3124V18.598Z" fill="#F8AE6A"/>
<path d="M17.7361 0.393158C13.7246 0.393158 10.4727 1.86807 10.4727 3.68754V4.402C10.4727 6.22147 13.7246 7.69638 17.7361 7.69638C21.7476 7.69638 24.9996 6.22147 24.9996 4.402V3.68754C24.9996 1.86807 21.7476 0.393158 17.7361 0.393158Z" fill="#F8AE6A"/>
<path d="M17.7361 9.31041C14.2345 9.31041 11.3119 8.18659 10.6254 6.69077C10.5254 6.90858 10.4727 7.13418 10.4727 7.3655V8.07996C10.4727 9.89943 13.7246 11.3743 17.7361 11.3743C21.7476 11.3743 24.9996 9.89943 24.9996 8.07996V7.3655C24.9996 7.13418 24.9468 6.90858 24.8469 6.69077C24.1604 8.18659 21.2378 9.31041 17.7361 9.31041Z" fill="#F8AE6A"/>
<path d="M17.7361 12.9885C14.2345 12.9885 11.3119 11.8646 10.6254 10.3688C10.5254 10.5866 10.4727 10.8122 10.4727 11.0435V11.758C10.4727 13.5775 13.7246 15.0524 17.7361 15.0524C21.7476 15.0524 24.9996 13.5775 24.9996 11.758V11.0435C24.9996 10.8122 24.9468 10.5866 24.8469 10.3688C24.1604 11.8646 21.2378 12.9885 17.7361 12.9885Z" fill="#F8AE6A"/>
<path d="M17.7361 16.865C14.2345 16.865 11.3119 15.7412 10.6254 14.2454C10.5254 14.4633 10.4727 14.6888 10.4727 14.9201V15.6346C10.4727 17.4541 13.7246 18.929 17.7361 18.929C21.7476 18.929 24.9996 17.4541 24.9996 15.6346V14.9201C24.9996 14.6888 24.9468 14.4631 24.8469 14.2454C24.1604 15.7411 21.2378 16.865 17.7361 16.865Z" fill="#F8AE6A"/>
<path d="M17.7361 20.543C14.2345 20.543 11.3119 19.4192 10.6254 17.9234C10.5254 18.1413 10.4727 18.367 10.4727 18.5981V19.3126C10.4727 21.132 13.7246 22.6069 17.7361 22.6069C21.7476 22.6069 24.9996 21.132 24.9996 19.3126V18.598C24.9996 18.3668 24.9468 18.1411 24.8469 17.9234C24.1604 19.4191 21.2378 20.543 17.7361 20.543Z" fill="#F8AE6A"/>
</svg>
