<svg width="35" height="34" viewBox="0 0 35 34" fill="none" xmlns="http://www.w3.org/2000/svg">
<path d="M12.9403 34C7.88005 33.9708 3.69434 23.6412 3.69434 18.3806C3.69434 9.78733 10.1407 7.90604 12.6251 7.90604C13.7447 7.90604 14.9402 8.34572 15.9947 8.73479C16.7321 9.0062 17.4947 9.28636 17.9188 9.28636C18.1727 9.28636 18.7709 9.04803 19.2991 8.83892C20.4256 8.39048 21.8273 7.83313 23.4596 7.83313C23.4625 7.83313 23.4664 7.83313 23.4693 7.83313C24.6881 7.83313 28.3836 8.10061 30.6053 11.4371L31.1258 12.2192L30.3768 12.7844C29.3068 13.5917 27.3544 15.0645 27.3544 17.9818C27.3544 21.437 29.5655 22.7658 30.6277 23.4049C31.0966 23.687 31.582 23.9778 31.582 24.614C31.582 25.0294 28.2668 33.9485 23.4527 33.9485C22.2747 33.9485 21.4421 33.5944 20.7076 33.2821C19.9645 32.966 19.3234 32.6936 18.2641 32.6936C17.7271 32.6936 17.0481 32.9475 16.3293 33.217C15.3469 33.5836 14.235 34 12.9733 34H12.9403Z" fill="currentColor"/>
<path d="M23.9696 0C24.0949 4.52067 20.8619 7.65691 17.6327 7.46021C17.1006 3.85256 20.8616 0 23.9696 0Z" fill="currentColor"/>
</svg>
