<svg width="29" height="29" viewBox="0 0 29 29" fill="none" xmlns="http://www.w3.org/2000/svg">
<path d="M10.4932 29C6.17711 28.9751 2.60693 20.1646 2.60693 15.6776C2.60693 8.34803 8.10532 6.7434 10.2244 6.7434C11.1793 6.7434 12.199 7.11842 13.0984 7.45028C13.7274 7.68177 14.3778 7.92074 14.7396 7.92074C14.9561 7.92074 15.4664 7.71745 15.9169 7.53909C16.8777 7.1566 18.0733 6.68121 19.4655 6.68121C19.468 6.68121 19.4713 6.68121 19.4738 6.68121C20.5134 6.68121 23.6654 6.90936 25.5604 9.75521L26.0043 10.4223L25.3655 10.9043C24.4528 11.593 22.7876 12.8492 22.7876 15.3374C22.7876 18.2845 24.6735 19.4179 25.5795 19.963C25.9795 20.2036 26.3934 20.4517 26.3934 20.9943C26.3934 21.3486 23.5658 28.956 19.4597 28.956C18.4549 28.956 17.7447 28.654 17.1183 28.3877C16.4844 28.118 15.9376 27.8858 15.0341 27.8858C14.5761 27.8858 13.9969 28.1023 13.3838 28.3322C12.5459 28.6449 11.5975 29 10.5214 29H10.4932Z" fill="currentColor"/>
<path d="M19.9003 0C20.0073 3.85587 17.2497 6.53089 14.4954 6.36312C14.0415 3.28601 17.2494 0 19.9003 0Z" fill="currentColor"/>
</svg>
