<svg width="231" height="1789" viewBox="0 0 231 1789" fill="none" xmlns="http://www.w3.org/2000/svg">
<path d="M73.792 122C73.792 163.859 39.8588 197.792 -1.99998 197.792C-43.8587 197.792 -77.792 163.859 -77.792 122C-77.792 80.1413 -43.8587 46.208 -1.99998 46.208C39.8588 46.208 73.792 80.1413 73.792 122ZM-1.99998 198.792C40.4111 198.792 74.792 164.411 74.792 122C74.792 79.589 40.4111 45.208 -1.99998 45.208C-44.411 45.208 -78.792 79.589 -78.792 122C-78.792 164.411 -44.411 198.792 -1.99998 198.792ZM96.646 122C96.646 176.481 52.4807 220.646 -2 220.646C-56.4807 220.646 -100.646 176.481 -100.646 122C-100.646 67.5195 -56.4807 23.3541 -2 23.3541C52.4807 23.3541 96.646 67.5195 96.646 122ZM-2 221.646C53.033 221.646 97.646 177.033 97.646 122C97.646 66.9672 53.033 22.3541 -2 22.3541C-57.033 22.3541 -101.646 66.9672 -101.646 122C-101.646 177.033 -57.033 221.646 -2 221.646ZM119.5 122C119.5 189.103 65.1026 243.5 -2 243.5C-69.1026 243.5 -123.5 189.103 -123.5 122C-123.5 54.8974 -69.1026 0.5 -2 0.5C65.1026 0.5 119.5 54.8974 119.5 122Z" stroke="black" stroke-opacity="0.15"/>
<path d="M-26.3043 1021.85C-26.3043 1025.08 -28.9225 1027.7 -32.1522 1027.7C-35.3818 1027.7 -38 1025.08 -38 1021.85C-38 1018.62 -35.3818 1016 -32.1522 1016C-28.9225 1016 -26.3043 1018.62 -26.3043 1021.85Z" fill="black" fill-opacity="0.05"/>
<path d="M-2.91304 1021.85C-2.91304 1025.08 -5.53121 1027.7 -8.76087 1027.7C-11.9905 1027.7 -14.6087 1025.08 -14.6087 1021.85C-14.6087 1018.62 -11.9905 1016 -8.76087 1016C-5.53121 1016 -2.91304 1018.62 -2.91304 1021.85Z" fill="black" fill-opacity="0.05"/>
<path d="M20.4783 1021.85C20.4783 1025.08 17.8601 1027.7 14.6304 1027.7C11.4008 1027.7 8.78261 1025.08 8.78261 1021.85C8.78261 1018.62 11.4008 1016 14.6304 1016C17.8601 1016 20.4783 1018.62 20.4783 1021.85Z" fill="black" fill-opacity="0.05"/>
<path d="M43.8696 1021.85C43.8696 1025.08 41.2514 1027.7 38.0217 1027.7C34.7921 1027.7 32.1739 1025.08 32.1739 1021.85C32.1739 1018.62 34.7921 1016 38.0217 1016C41.2514 1016 43.8696 1018.62 43.8696 1021.85Z" fill="black" fill-opacity="0.05"/>
<path d="M67.2609 1021.85C67.2609 1025.08 64.6427 1027.7 61.413 1027.7C58.1834 1027.7 55.5652 1025.08 55.5652 1021.85C55.5652 1018.62 58.1834 1016 61.413 1016C64.6427 1016 67.2609 1018.62 67.2609 1021.85Z" fill="black" fill-opacity="0.05"/>
<path d="M90.6522 1021.85C90.6522 1025.08 88.034 1027.7 84.8043 1027.7C81.5747 1027.7 78.9565 1025.08 78.9565 1021.85C78.9565 1018.62 81.5747 1016 84.8043 1016C88.034 1016 90.6522 1018.62 90.6522 1021.85Z" fill="black" fill-opacity="0.05"/>
<path d="M114.043 1021.85C114.043 1025.08 111.425 1027.7 108.196 1027.7C104.966 1027.7 102.348 1025.08 102.348 1021.85C102.348 1018.62 104.966 1016 108.196 1016C111.425 1016 114.043 1018.62 114.043 1021.85Z" fill="black" fill-opacity="0.05"/>
<path d="M137.435 1021.85C137.435 1025.08 134.817 1027.7 131.587 1027.7C128.357 1027.7 125.739 1025.08 125.739 1021.85C125.739 1018.62 128.357 1016 131.587 1016C134.817 1016 137.435 1018.62 137.435 1021.85Z" fill="black" fill-opacity="0.05"/>
<path d="M160.826 1021.85C160.826 1025.08 158.208 1027.7 154.978 1027.7C151.749 1027.7 149.13 1025.08 149.13 1021.85C149.13 1018.62 151.749 1016 154.978 1016C158.208 1016 160.826 1018.62 160.826 1021.85Z" fill="black" fill-opacity="0.05"/>
<path d="M184.217 1021.85C184.217 1025.08 181.599 1027.7 178.37 1027.7C175.14 1027.7 172.522 1025.08 172.522 1021.85C172.522 1018.62 175.14 1016 178.37 1016C181.599 1016 184.217 1018.62 184.217 1021.85Z" fill="black" fill-opacity="0.05"/>
<path d="M207.609 1021.85C207.609 1025.08 204.991 1027.7 201.761 1027.7C198.531 1027.7 195.913 1025.08 195.913 1021.85C195.913 1018.62 198.531 1016 201.761 1016C204.991 1016 207.609 1018.62 207.609 1021.85Z" fill="black" fill-opacity="0.05"/>
<path d="M231 1021.85C231 1025.08 228.382 1027.7 225.152 1027.7C221.923 1027.7 219.304 1025.08 219.304 1021.85C219.304 1018.62 221.923 1016 225.152 1016C228.382 1016 231 1018.62 231 1021.85Z" fill="black" fill-opacity="0.05"/>
<path d="M-26.3043 1042.9C-26.3043 1046.13 -28.9225 1048.75 -32.1522 1048.75C-35.3818 1048.75 -38 1046.13 -38 1042.9C-38 1039.67 -35.3818 1037.05 -32.1522 1037.05C-28.9225 1037.05 -26.3043 1039.67 -26.3043 1042.9Z" fill="black" fill-opacity="0.05"/>
<path d="M-2.91304 1042.9C-2.91304 1046.13 -5.53121 1048.75 -8.76087 1048.75C-11.9905 1048.75 -14.6087 1046.13 -14.6087 1042.9C-14.6087 1039.67 -11.9905 1037.05 -8.76087 1037.05C-5.53121 1037.05 -2.91304 1039.67 -2.91304 1042.9Z" fill="black" fill-opacity="0.05"/>
<path d="M20.4783 1042.9C20.4783 1046.13 17.8601 1048.75 14.6304 1048.75C11.4008 1048.75 8.78261 1046.13 8.78261 1042.9C8.78261 1039.67 11.4008 1037.05 14.6304 1037.05C17.8601 1037.05 20.4783 1039.67 20.4783 1042.9Z" fill="black" fill-opacity="0.05"/>
<path d="M43.8696 1042.9C43.8696 1046.13 41.2514 1048.75 38.0217 1048.75C34.7921 1048.75 32.1739 1046.13 32.1739 1042.9C32.1739 1039.67 34.7921 1037.05 38.0217 1037.05C41.2514 1037.05 43.8696 1039.67 43.8696 1042.9Z" fill="black" fill-opacity="0.05"/>
<path d="M67.2609 1042.9C67.2609 1046.13 64.6427 1048.75 61.413 1048.75C58.1834 1048.75 55.5652 1046.13 55.5652 1042.9C55.5652 1039.67 58.1834 1037.05 61.413 1037.05C64.6427 1037.05 67.2609 1039.67 67.2609 1042.9Z" fill="black" fill-opacity="0.05"/>
<path d="M90.6522 1042.9C90.6522 1046.13 88.034 1048.75 84.8043 1048.75C81.5747 1048.75 78.9565 1046.13 78.9565 1042.9C78.9565 1039.67 81.5747 1037.05 84.8043 1037.05C88.034 1037.05 90.6522 1039.67 90.6522 1042.9Z" fill="black" fill-opacity="0.05"/>
<path d="M114.043 1042.9C114.043 1046.13 111.425 1048.75 108.196 1048.75C104.966 1048.75 102.348 1046.13 102.348 1042.9C102.348 1039.67 104.966 1037.05 108.196 1037.05C111.425 1037.05 114.043 1039.67 114.043 1042.9Z" fill="black" fill-opacity="0.05"/>
<path d="M137.435 1042.9C137.435 1046.13 134.817 1048.75 131.587 1048.75C128.357 1048.75 125.739 1046.13 125.739 1042.9C125.739 1039.67 128.357 1037.05 131.587 1037.05C134.817 1037.05 137.435 1039.67 137.435 1042.9Z" fill="black" fill-opacity="0.05"/>
<path d="M160.826 1042.9C160.826 1046.13 158.208 1048.75 154.978 1048.75C151.749 1048.75 149.13 1046.13 149.13 1042.9C149.13 1039.67 151.749 1037.05 154.978 1037.05C158.208 1037.05 160.826 1039.67 160.826 1042.9Z" fill="black" fill-opacity="0.05"/>
<path d="M184.217 1042.9C184.217 1046.13 181.599 1048.75 178.37 1048.75C175.14 1048.75 172.522 1046.13 172.522 1042.9C172.522 1039.67 175.14 1037.05 178.37 1037.05C181.599 1037.05 184.217 1039.67 184.217 1042.9Z" fill="black" fill-opacity="0.05"/>
<path d="M207.609 1042.9C207.609 1046.13 204.991 1048.75 201.761 1048.75C198.531 1048.75 195.913 1046.13 195.913 1042.9C195.913 1039.67 198.531 1037.05 201.761 1037.05C204.991 1037.05 207.609 1039.67 207.609 1042.9Z" fill="black" fill-opacity="0.05"/>
<path d="M231 1042.9C231 1046.13 228.382 1048.75 225.152 1048.75C221.923 1048.75 219.304 1046.13 219.304 1042.9C219.304 1039.67 221.923 1037.05 225.152 1037.05C228.382 1037.05 231 1039.67 231 1042.9Z" fill="black" fill-opacity="0.05"/>
<path d="M-26.3043 1063.95C-26.3043 1067.18 -28.9225 1069.8 -32.1522 1069.8C-35.3818 1069.8 -38 1067.18 -38 1063.95C-38 1060.72 -35.3818 1058.1 -32.1522 1058.1C-28.9225 1058.1 -26.3043 1060.72 -26.3043 1063.95Z" fill="black" fill-opacity="0.05"/>
<path d="M-2.91304 1063.95C-2.91304 1067.18 -5.53121 1069.8 -8.76087 1069.8C-11.9905 1069.8 -14.6087 1067.18 -14.6087 1063.95C-14.6087 1060.72 -11.9905 1058.1 -8.76087 1058.1C-5.53121 1058.1 -2.91304 1060.72 -2.91304 1063.95Z" fill="black" fill-opacity="0.05"/>
<path d="M20.4783 1063.95C20.4783 1067.18 17.8601 1069.8 14.6304 1069.8C11.4008 1069.8 8.78261 1067.18 8.78261 1063.95C8.78261 1060.72 11.4008 1058.1 14.6304 1058.1C17.8601 1058.1 20.4783 1060.72 20.4783 1063.95Z" fill="black" fill-opacity="0.05"/>
<path d="M43.8696 1063.95C43.8696 1067.18 41.2514 1069.8 38.0217 1069.8C34.7921 1069.8 32.1739 1067.18 32.1739 1063.95C32.1739 1060.72 34.7921 1058.1 38.0217 1058.1C41.2514 1058.1 43.8696 1060.72 43.8696 1063.95Z" fill="black" fill-opacity="0.05"/>
<path d="M67.2609 1063.95C67.2609 1067.18 64.6427 1069.8 61.413 1069.8C58.1834 1069.8 55.5652 1067.18 55.5652 1063.95C55.5652 1060.72 58.1834 1058.1 61.413 1058.1C64.6427 1058.1 67.2609 1060.72 67.2609 1063.95Z" fill="black" fill-opacity="0.05"/>
<path d="M90.6522 1063.95C90.6522 1067.18 88.034 1069.8 84.8043 1069.8C81.5747 1069.8 78.9565 1067.18 78.9565 1063.95C78.9565 1060.72 81.5747 1058.1 84.8043 1058.1C88.034 1058.1 90.6522 1060.72 90.6522 1063.95Z" fill="black" fill-opacity="0.05"/>
<path d="M114.043 1063.95C114.043 1067.18 111.425 1069.8 108.196 1069.8C104.966 1069.8 102.348 1067.18 102.348 1063.95C102.348 1060.72 104.966 1058.1 108.196 1058.1C111.425 1058.1 114.043 1060.72 114.043 1063.95Z" fill="black" fill-opacity="0.05"/>
<path d="M137.435 1063.95C137.435 1067.18 134.817 1069.8 131.587 1069.8C128.357 1069.8 125.739 1067.18 125.739 1063.95C125.739 1060.72 128.357 1058.1 131.587 1058.1C134.817 1058.1 137.435 1060.72 137.435 1063.95Z" fill="black" fill-opacity="0.05"/>
<path d="M160.826 1063.95C160.826 1067.18 158.208 1069.8 154.978 1069.8C151.749 1069.8 149.13 1067.18 149.13 1063.95C149.13 1060.72 151.749 1058.1 154.978 1058.1C158.208 1058.1 160.826 1060.72 160.826 1063.95Z" fill="black" fill-opacity="0.05"/>
<path d="M184.217 1063.95C184.217 1067.18 181.599 1069.8 178.37 1069.8C175.14 1069.8 172.522 1067.18 172.522 1063.95C172.522 1060.72 175.14 1058.1 178.37 1058.1C181.599 1058.1 184.217 1060.72 184.217 1063.95Z" fill="black" fill-opacity="0.05"/>
<path d="M207.609 1063.95C207.609 1067.18 204.991 1069.8 201.761 1069.8C198.531 1069.8 195.913 1067.18 195.913 1063.95C195.913 1060.72 198.531 1058.1 201.761 1058.1C204.991 1058.1 207.609 1060.72 207.609 1063.95Z" fill="black" fill-opacity="0.05"/>
<path d="M231 1063.95C231 1067.18 228.382 1069.8 225.152 1069.8C221.923 1069.8 219.304 1067.18 219.304 1063.95C219.304 1060.72 221.923 1058.1 225.152 1058.1C228.382 1058.1 231 1060.72 231 1063.95Z" fill="black" fill-opacity="0.05"/>
<path d="M-26.3043 1085C-26.3043 1088.23 -28.9225 1090.85 -32.1522 1090.85C-35.3818 1090.85 -38 1088.23 -38 1085C-38 1081.77 -35.3818 1079.16 -32.1522 1079.16C-28.9225 1079.16 -26.3043 1081.77 -26.3043 1085Z" fill="black" fill-opacity="0.05"/>
<path d="M-2.91304 1085C-2.91304 1088.23 -5.53121 1090.85 -8.76087 1090.85C-11.9905 1090.85 -14.6087 1088.23 -14.6087 1085C-14.6087 1081.77 -11.9905 1079.16 -8.76087 1079.16C-5.53121 1079.16 -2.91304 1081.77 -2.91304 1085Z" fill="black" fill-opacity="0.05"/>
<path d="M20.4783 1085C20.4783 1088.23 17.8601 1090.85 14.6304 1090.85C11.4008 1090.85 8.78261 1088.23 8.78261 1085C8.78261 1081.77 11.4008 1079.16 14.6304 1079.16C17.8601 1079.16 20.4783 1081.77 20.4783 1085Z" fill="black" fill-opacity="0.05"/>
<path d="M43.8696 1085C43.8696 1088.23 41.2514 1090.85 38.0217 1090.85C34.7921 1090.85 32.1739 1088.23 32.1739 1085C32.1739 1081.77 34.7921 1079.16 38.0217 1079.16C41.2514 1079.16 43.8696 1081.77 43.8696 1085Z" fill="black" fill-opacity="0.05"/>
<path d="M67.2609 1085C67.2609 1088.23 64.6427 1090.85 61.413 1090.85C58.1834 1090.85 55.5652 1088.23 55.5652 1085C55.5652 1081.77 58.1834 1079.16 61.413 1079.16C64.6427 1079.16 67.2609 1081.77 67.2609 1085Z" fill="black" fill-opacity="0.05"/>
<path d="M90.6522 1085C90.6522 1088.23 88.034 1090.85 84.8043 1090.85C81.5747 1090.85 78.9565 1088.23 78.9565 1085C78.9565 1081.77 81.5747 1079.16 84.8043 1079.16C88.034 1079.16 90.6522 1081.77 90.6522 1085Z" fill="black" fill-opacity="0.05"/>
<path d="M114.043 1085C114.043 1088.23 111.425 1090.85 108.196 1090.85C104.966 1090.85 102.348 1088.23 102.348 1085C102.348 1081.77 104.966 1079.16 108.196 1079.16C111.425 1079.16 114.043 1081.77 114.043 1085Z" fill="black" fill-opacity="0.05"/>
<path d="M137.435 1085C137.435 1088.23 134.817 1090.85 131.587 1090.85C128.357 1090.85 125.739 1088.23 125.739 1085C125.739 1081.77 128.357 1079.16 131.587 1079.16C134.817 1079.16 137.435 1081.77 137.435 1085Z" fill="black" fill-opacity="0.05"/>
<path d="M160.826 1085C160.826 1088.23 158.208 1090.85 154.978 1090.85C151.749 1090.85 149.13 1088.23 149.13 1085C149.13 1081.77 151.749 1079.16 154.978 1079.16C158.208 1079.16 160.826 1081.77 160.826 1085Z" fill="black" fill-opacity="0.05"/>
<path d="M184.217 1085C184.217 1088.23 181.599 1090.85 178.37 1090.85C175.14 1090.85 172.522 1088.23 172.522 1085C172.522 1081.77 175.14 1079.16 178.37 1079.16C181.599 1079.16 184.217 1081.77 184.217 1085Z" fill="black" fill-opacity="0.05"/>
<path d="M207.609 1085C207.609 1088.23 204.991 1090.85 201.761 1090.85C198.531 1090.85 195.913 1088.23 195.913 1085C195.913 1081.77 198.531 1079.16 201.761 1079.16C204.991 1079.16 207.609 1081.77 207.609 1085Z" fill="black" fill-opacity="0.05"/>
<path d="M231 1085C231 1088.23 228.382 1090.85 225.152 1090.85C221.923 1090.85 219.304 1088.23 219.304 1085C219.304 1081.77 221.923 1079.16 225.152 1079.16C228.382 1079.16 231 1081.77 231 1085Z" fill="black" fill-opacity="0.05"/>
<path d="M176.674 1648C176.674 1696.42 137.421 1735.67 89.0005 1735.67C40.5798 1735.67 1.32697 1696.42 1.32697 1648C1.32697 1599.58 40.5798 1560.33 89.0005 1560.33C137.421 1560.33 176.674 1599.58 176.674 1648ZM89.0005 1736.67C137.974 1736.67 177.674 1696.97 177.674 1648C177.674 1599.03 137.974 1559.33 89.0005 1559.33C40.0275 1559.33 0.326965 1599.03 0.326965 1648C0.326965 1696.97 40.0275 1736.67 89.0005 1736.67ZM203.088 1648C203.088 1711.01 152.009 1762.09 89.0011 1762.09C25.9927 1762.09 -25.0857 1711.01 -25.0857 1648C-25.0857 1584.99 25.9927 1533.91 89.0011 1533.91C152.009 1533.91 203.088 1584.99 203.088 1648ZM89.0011 1763.09C152.562 1763.09 204.088 1711.56 204.088 1648C204.088 1584.44 152.562 1532.91 89.0011 1532.91C25.4404 1532.91 -26.0857 1584.44 -26.0857 1648C-26.0857 1711.56 25.4404 1763.09 89.0011 1763.09ZM229.5 1648C229.5 1725.6 166.596 1788.5 89 1788.5C11.404 1788.5 -51.5 1725.6 -51.5 1648C-51.5 1570.4 11.404 1507.5 89 1507.5C166.596 1507.5 229.5 1570.4 229.5 1648Z" stroke="black" stroke-opacity="0.15"/>
</svg>
