<svg width="224" height="1787" viewBox="0 0 224 1787" fill="none" xmlns="http://www.w3.org/2000/svg">
<path d="M90.6957 561.848C90.6957 565.077 88.0775 567.696 84.8478 567.696C81.6182 567.696 79 565.077 79 561.848C79 558.618 81.6182 556 84.8478 556C88.0775 556 90.6957 558.618 90.6957 561.848Z" fill="black" fill-opacity="0.05"/>
<path d="M114.087 561.848C114.087 565.077 111.469 567.696 108.239 567.696C105.009 567.696 102.391 565.077 102.391 561.848C102.391 558.618 105.009 556 108.239 556C111.469 556 114.087 558.618 114.087 561.848Z" fill="black" fill-opacity="0.05"/>
<path d="M137.478 561.848C137.478 565.077 134.86 567.696 131.63 567.696C128.401 567.696 125.783 565.077 125.783 561.848C125.783 558.618 128.401 556 131.63 556C134.86 556 137.478 558.618 137.478 561.848Z" fill="black" fill-opacity="0.05"/>
<path d="M160.87 561.848C160.87 565.077 158.251 567.696 155.022 567.696C151.792 567.696 149.174 565.077 149.174 561.848C149.174 558.618 151.792 556 155.022 556C158.251 556 160.87 558.618 160.87 561.848Z" fill="black" fill-opacity="0.05"/>
<path d="M184.261 561.848C184.261 565.077 181.643 567.696 178.413 567.696C175.183 567.696 172.565 565.077 172.565 561.848C172.565 558.618 175.183 556 178.413 556C181.643 556 184.261 558.618 184.261 561.848Z" fill="black" fill-opacity="0.05"/>
<path d="M207.652 561.848C207.652 565.077 205.034 567.696 201.804 567.696C198.575 567.696 195.957 565.077 195.957 561.848C195.957 558.618 198.575 556 201.804 556C205.034 556 207.652 558.618 207.652 561.848Z" fill="black" fill-opacity="0.05"/>
<path d="M231.043 561.848C231.043 565.077 228.425 567.696 225.196 567.696C221.966 567.696 219.348 565.077 219.348 561.848C219.348 558.618 221.966 556 225.196 556C228.425 556 231.043 558.618 231.043 561.848Z" fill="black" fill-opacity="0.05"/>
<path d="M254.435 561.848C254.435 565.077 251.817 567.696 248.587 567.696C245.357 567.696 242.739 565.077 242.739 561.848C242.739 558.618 245.357 556 248.587 556C251.817 556 254.435 558.618 254.435 561.848Z" fill="black" fill-opacity="0.05"/>
<path d="M277.826 561.848C277.826 565.077 275.208 567.696 271.978 567.696C268.749 567.696 266.13 565.077 266.13 561.848C266.13 558.618 268.749 556 271.978 556C275.208 556 277.826 558.618 277.826 561.848Z" fill="black" fill-opacity="0.05"/>
<path d="M301.217 561.848C301.217 565.077 298.599 567.696 295.37 567.696C292.14 567.696 289.522 565.077 289.522 561.848C289.522 558.618 292.14 556 295.37 556C298.599 556 301.217 558.618 301.217 561.848Z" fill="black" fill-opacity="0.05"/>
<path d="M324.609 561.848C324.609 565.077 321.991 567.696 318.761 567.696C315.531 567.696 312.913 565.077 312.913 561.848C312.913 558.618 315.531 556 318.761 556C321.991 556 324.609 558.618 324.609 561.848Z" fill="black" fill-opacity="0.05"/>
<path d="M348 561.848C348 565.077 345.382 567.696 342.152 567.696C338.923 567.696 336.304 565.077 336.304 561.848C336.304 558.618 338.923 556 342.152 556C345.382 556 348 558.618 348 561.848Z" fill="black" fill-opacity="0.05"/>
<path d="M90.6957 582.9C90.6957 586.13 88.0775 588.748 84.8478 588.748C81.6182 588.748 79 586.13 79 582.9C79 579.67 81.6182 577.052 84.8478 577.052C88.0775 577.052 90.6957 579.67 90.6957 582.9Z" fill="black" fill-opacity="0.05"/>
<path d="M114.087 582.9C114.087 586.13 111.469 588.748 108.239 588.748C105.009 588.748 102.391 586.13 102.391 582.9C102.391 579.67 105.009 577.052 108.239 577.052C111.469 577.052 114.087 579.67 114.087 582.9Z" fill="black" fill-opacity="0.05"/>
<path d="M137.478 582.9C137.478 586.13 134.86 588.748 131.63 588.748C128.401 588.748 125.783 586.13 125.783 582.9C125.783 579.67 128.401 577.052 131.63 577.052C134.86 577.052 137.478 579.67 137.478 582.9Z" fill="black" fill-opacity="0.05"/>
<path d="M160.87 582.9C160.87 586.13 158.251 588.748 155.022 588.748C151.792 588.748 149.174 586.13 149.174 582.9C149.174 579.67 151.792 577.052 155.022 577.052C158.251 577.052 160.87 579.67 160.87 582.9Z" fill="black" fill-opacity="0.05"/>
<path d="M184.261 582.9C184.261 586.13 181.643 588.748 178.413 588.748C175.183 588.748 172.565 586.13 172.565 582.9C172.565 579.67 175.183 577.052 178.413 577.052C181.643 577.052 184.261 579.67 184.261 582.9Z" fill="black" fill-opacity="0.05"/>
<path d="M207.652 582.9C207.652 586.13 205.034 588.748 201.804 588.748C198.575 588.748 195.957 586.13 195.957 582.9C195.957 579.67 198.575 577.052 201.804 577.052C205.034 577.052 207.652 579.67 207.652 582.9Z" fill="black" fill-opacity="0.05"/>
<path d="M231.043 582.9C231.043 586.13 228.425 588.748 225.196 588.748C221.966 588.748 219.348 586.13 219.348 582.9C219.348 579.67 221.966 577.052 225.196 577.052C228.425 577.052 231.043 579.67 231.043 582.9Z" fill="black" fill-opacity="0.05"/>
<path d="M254.435 582.9C254.435 586.13 251.817 588.748 248.587 588.748C245.357 588.748 242.739 586.13 242.739 582.9C242.739 579.67 245.357 577.052 248.587 577.052C251.817 577.052 254.435 579.67 254.435 582.9Z" fill="black" fill-opacity="0.05"/>
<path d="M277.826 582.9C277.826 586.13 275.208 588.748 271.978 588.748C268.749 588.748 266.13 586.13 266.13 582.9C266.13 579.67 268.749 577.052 271.978 577.052C275.208 577.052 277.826 579.67 277.826 582.9Z" fill="black" fill-opacity="0.05"/>
<path d="M301.217 582.9C301.217 586.13 298.599 588.748 295.37 588.748C292.14 588.748 289.522 586.13 289.522 582.9C289.522 579.67 292.14 577.052 295.37 577.052C298.599 577.052 301.217 579.67 301.217 582.9Z" fill="black" fill-opacity="0.05"/>
<path d="M324.609 582.9C324.609 586.13 321.991 588.748 318.761 588.748C315.531 588.748 312.913 586.13 312.913 582.9C312.913 579.67 315.531 577.052 318.761 577.052C321.991 577.052 324.609 579.67 324.609 582.9Z" fill="black" fill-opacity="0.05"/>
<path d="M348 582.9C348 586.13 345.382 588.748 342.152 588.748C338.923 588.748 336.304 586.13 336.304 582.9C336.304 579.67 338.923 577.052 342.152 577.052C345.382 577.052 348 579.67 348 582.9Z" fill="black" fill-opacity="0.05"/>
<path d="M90.6957 603.952C90.6957 607.182 88.0775 609.8 84.8478 609.8C81.6182 609.8 79 607.182 79 603.952C79 600.723 81.6182 598.104 84.8478 598.104C88.0775 598.104 90.6957 600.723 90.6957 603.952Z" fill="black" fill-opacity="0.05"/>
<path d="M114.087 603.952C114.087 607.182 111.469 609.8 108.239 609.8C105.009 609.8 102.391 607.182 102.391 603.952C102.391 600.723 105.009 598.104 108.239 598.104C111.469 598.104 114.087 600.723 114.087 603.952Z" fill="black" fill-opacity="0.05"/>
<path d="M137.478 603.952C137.478 607.182 134.86 609.8 131.63 609.8C128.401 609.8 125.783 607.182 125.783 603.952C125.783 600.723 128.401 598.104 131.63 598.104C134.86 598.104 137.478 600.723 137.478 603.952Z" fill="black" fill-opacity="0.05"/>
<path d="M160.87 603.952C160.87 607.182 158.251 609.8 155.022 609.8C151.792 609.8 149.174 607.182 149.174 603.952C149.174 600.723 151.792 598.104 155.022 598.104C158.251 598.104 160.87 600.723 160.87 603.952Z" fill="black" fill-opacity="0.05"/>
<path d="M184.261 603.952C184.261 607.182 181.643 609.8 178.413 609.8C175.183 609.8 172.565 607.182 172.565 603.952C172.565 600.723 175.183 598.104 178.413 598.104C181.643 598.104 184.261 600.723 184.261 603.952Z" fill="black" fill-opacity="0.05"/>
<path d="M207.652 603.952C207.652 607.182 205.034 609.8 201.804 609.8C198.575 609.8 195.957 607.182 195.957 603.952C195.957 600.723 198.575 598.104 201.804 598.104C205.034 598.104 207.652 600.723 207.652 603.952Z" fill="black" fill-opacity="0.05"/>
<path d="M231.043 603.952C231.043 607.182 228.425 609.8 225.196 609.8C221.966 609.8 219.348 607.182 219.348 603.952C219.348 600.723 221.966 598.104 225.196 598.104C228.425 598.104 231.043 600.723 231.043 603.952Z" fill="black" fill-opacity="0.05"/>
<path d="M254.435 603.952C254.435 607.182 251.817 609.8 248.587 609.8C245.357 609.8 242.739 607.182 242.739 603.952C242.739 600.723 245.357 598.104 248.587 598.104C251.817 598.104 254.435 600.723 254.435 603.952Z" fill="black" fill-opacity="0.05"/>
<path d="M277.826 603.952C277.826 607.182 275.208 609.8 271.978 609.8C268.749 609.8 266.13 607.182 266.13 603.952C266.13 600.723 268.749 598.104 271.978 598.104C275.208 598.104 277.826 600.723 277.826 603.952Z" fill="black" fill-opacity="0.05"/>
<path d="M301.217 603.952C301.217 607.182 298.599 609.8 295.37 609.8C292.14 609.8 289.522 607.182 289.522 603.952C289.522 600.723 292.14 598.104 295.37 598.104C298.599 598.104 301.217 600.723 301.217 603.952Z" fill="black" fill-opacity="0.05"/>
<path d="M324.609 603.952C324.609 607.182 321.991 609.8 318.761 609.8C315.531 609.8 312.913 607.182 312.913 603.952C312.913 600.723 315.531 598.104 318.761 598.104C321.991 598.104 324.609 600.723 324.609 603.952Z" fill="black" fill-opacity="0.05"/>
<path d="M348 603.952C348 607.182 345.382 609.8 342.152 609.8C338.923 609.8 336.304 607.182 336.304 603.952C336.304 600.723 338.923 598.104 342.152 598.104C345.382 598.104 348 600.723 348 603.952Z" fill="black" fill-opacity="0.05"/>
<path d="M90.6957 625.004C90.6957 628.234 88.0775 630.852 84.8478 630.852C81.6182 630.852 79 628.234 79 625.004C79 621.775 81.6182 619.157 84.8478 619.157C88.0775 619.157 90.6957 621.775 90.6957 625.004Z" fill="black" fill-opacity="0.05"/>
<path d="M114.087 625.004C114.087 628.234 111.469 630.852 108.239 630.852C105.009 630.852 102.391 628.234 102.391 625.004C102.391 621.775 105.009 619.157 108.239 619.157C111.469 619.157 114.087 621.775 114.087 625.004Z" fill="black" fill-opacity="0.05"/>
<path d="M137.478 625.004C137.478 628.234 134.86 630.852 131.63 630.852C128.401 630.852 125.783 628.234 125.783 625.004C125.783 621.775 128.401 619.157 131.63 619.157C134.86 619.157 137.478 621.775 137.478 625.004Z" fill="black" fill-opacity="0.05"/>
<path d="M160.87 625.004C160.87 628.234 158.251 630.852 155.022 630.852C151.792 630.852 149.174 628.234 149.174 625.004C149.174 621.775 151.792 619.157 155.022 619.157C158.251 619.157 160.87 621.775 160.87 625.004Z" fill="black" fill-opacity="0.05"/>
<path d="M184.261 625.004C184.261 628.234 181.643 630.852 178.413 630.852C175.183 630.852 172.565 628.234 172.565 625.004C172.565 621.775 175.183 619.157 178.413 619.157C181.643 619.157 184.261 621.775 184.261 625.004Z" fill="black" fill-opacity="0.05"/>
<path d="M207.652 625.004C207.652 628.234 205.034 630.852 201.804 630.852C198.575 630.852 195.957 628.234 195.957 625.004C195.957 621.775 198.575 619.157 201.804 619.157C205.034 619.157 207.652 621.775 207.652 625.004Z" fill="black" fill-opacity="0.05"/>
<path d="M231.043 625.004C231.043 628.234 228.425 630.852 225.196 630.852C221.966 630.852 219.348 628.234 219.348 625.004C219.348 621.775 221.966 619.157 225.196 619.157C228.425 619.157 231.043 621.775 231.043 625.004Z" fill="black" fill-opacity="0.05"/>
<path d="M254.435 625.004C254.435 628.234 251.817 630.852 248.587 630.852C245.357 630.852 242.739 628.234 242.739 625.004C242.739 621.775 245.357 619.157 248.587 619.157C251.817 619.157 254.435 621.775 254.435 625.004Z" fill="black" fill-opacity="0.05"/>
<path d="M277.826 625.004C277.826 628.234 275.208 630.852 271.978 630.852C268.749 630.852 266.13 628.234 266.13 625.004C266.13 621.775 268.749 619.157 271.978 619.157C275.208 619.157 277.826 621.775 277.826 625.004Z" fill="black" fill-opacity="0.05"/>
<path d="M301.217 625.004C301.217 628.234 298.599 630.852 295.37 630.852C292.14 630.852 289.522 628.234 289.522 625.004C289.522 621.775 292.14 619.157 295.37 619.157C298.599 619.157 301.217 621.775 301.217 625.004Z" fill="black" fill-opacity="0.05"/>
<path d="M324.609 625.004C324.609 628.234 321.991 630.852 318.761 630.852C315.531 630.852 312.913 628.234 312.913 625.004C312.913 621.775 315.531 619.157 318.761 619.157C321.991 619.157 324.609 621.775 324.609 625.004Z" fill="black" fill-opacity="0.05"/>
<path d="M348 625.004C348 628.234 345.382 630.852 342.152 630.852C338.923 630.852 336.304 628.234 336.304 625.004C336.304 621.775 338.923 619.157 342.152 619.157C345.382 619.157 348 621.775 348 625.004Z" fill="black" fill-opacity="0.05"/>
<path d="M240.17 129C240.17 173.276 204.276 209.169 160 209.169C115.724 209.169 79.8307 173.276 79.8307 129C79.8307 84.7236 115.724 48.8305 160 48.8305C204.276 48.8305 240.17 84.7236 240.17 129ZM160 210.169C204.829 210.169 241.17 173.829 241.17 129C241.17 84.1713 204.829 47.8305 160 47.8305C115.171 47.8305 78.8307 84.1713 78.8307 129C78.8307 173.829 115.171 210.169 160 210.169ZM264.335 129C264.335 186.623 217.623 233.335 160 233.335C102.378 233.335 55.6653 186.623 55.6653 129C55.6653 71.3776 102.378 24.6653 160 24.6653C217.623 24.6653 264.335 71.3776 264.335 129ZM160 234.335C218.175 234.335 265.335 187.175 265.335 129C265.335 70.8253 218.175 23.6653 160 23.6653C101.825 23.6653 54.6653 70.8253 54.6653 129C54.6653 187.175 101.825 234.335 160 234.335ZM288.5 129C288.5 199.969 230.969 257.5 160 257.5C89.0314 257.5 31.5 199.969 31.5 129C31.5 58.0314 89.0314 0.5 160 0.5C230.969 0.5 288.5 58.0314 288.5 129Z" stroke="black" stroke-opacity="0.15"/>
<path d="M279.059 1023C279.059 1082.13 231.127 1130.06 172 1130.06C112.873 1130.06 64.9409 1082.13 64.9409 1023C64.9409 963.873 112.873 915.941 172 915.941C231.127 915.941 279.059 963.873 279.059 1023ZM172 1131.06C231.68 1131.06 280.059 1082.68 280.059 1023C280.059 963.321 231.68 914.941 172 914.941C112.321 914.941 63.9409 963.321 63.9409 1023C63.9409 1082.68 112.321 1131.06 172 1131.06ZM311.281 1023C311.281 1099.92 248.923 1162.28 172.001 1162.28C95.079 1162.28 32.7214 1099.92 32.7214 1023C32.7214 946.078 95.079 883.721 172.001 883.721C248.923 883.721 311.281 946.078 311.281 1023ZM172.001 1163.28C249.475 1163.28 312.281 1100.47 312.281 1023C312.281 945.526 249.475 882.721 172.001 882.721C94.5267 882.721 31.7214 945.526 31.7214 1023C31.7214 1100.47 94.5267 1163.28 172.001 1163.28ZM343.5 1023C343.5 1117.72 266.717 1194.5 172 1194.5C77.2832 1194.5 0.5 1117.72 0.5 1023C0.5 928.283 77.2832 851.5 172 851.5C266.717 851.5 343.5 928.283 343.5 1023Z" stroke="black" stroke-opacity="0.15"/>
<path d="M50.6957 1717.85C50.6957 1721.08 48.0775 1723.7 44.8478 1723.7C41.6182 1723.7 39 1721.08 39 1717.85C39 1714.62 41.6182 1712 44.8478 1712C48.0775 1712 50.6957 1714.62 50.6957 1717.85Z" fill="black" fill-opacity="0.05"/>
<path d="M74.087 1717.85C74.087 1721.08 71.4688 1723.7 68.2391 1723.7C65.0095 1723.7 62.3913 1721.08 62.3913 1717.85C62.3913 1714.62 65.0095 1712 68.2391 1712C71.4688 1712 74.087 1714.62 74.087 1717.85Z" fill="black" fill-opacity="0.05"/>
<path d="M97.4783 1717.85C97.4783 1721.08 94.8601 1723.7 91.6304 1723.7C88.4008 1723.7 85.7826 1721.08 85.7826 1717.85C85.7826 1714.62 88.4008 1712 91.6304 1712C94.8601 1712 97.4783 1714.62 97.4783 1717.85Z" fill="black" fill-opacity="0.05"/>
<path d="M120.87 1717.85C120.87 1721.08 118.251 1723.7 115.022 1723.7C111.792 1723.7 109.174 1721.08 109.174 1717.85C109.174 1714.62 111.792 1712 115.022 1712C118.251 1712 120.87 1714.62 120.87 1717.85Z" fill="black" fill-opacity="0.05"/>
<path d="M144.261 1717.85C144.261 1721.08 141.643 1723.7 138.413 1723.7C135.183 1723.7 132.565 1721.08 132.565 1717.85C132.565 1714.62 135.183 1712 138.413 1712C141.643 1712 144.261 1714.62 144.261 1717.85Z" fill="black" fill-opacity="0.05"/>
<path d="M167.652 1717.85C167.652 1721.08 165.034 1723.7 161.804 1723.7C158.575 1723.7 155.957 1721.08 155.957 1717.85C155.957 1714.62 158.575 1712 161.804 1712C165.034 1712 167.652 1714.62 167.652 1717.85Z" fill="black" fill-opacity="0.05"/>
<path d="M191.043 1717.85C191.043 1721.08 188.425 1723.7 185.196 1723.7C181.966 1723.7 179.348 1721.08 179.348 1717.85C179.348 1714.62 181.966 1712 185.196 1712C188.425 1712 191.043 1714.62 191.043 1717.85Z" fill="black" fill-opacity="0.05"/>
<path d="M214.435 1717.85C214.435 1721.08 211.817 1723.7 208.587 1723.7C205.357 1723.7 202.739 1721.08 202.739 1717.85C202.739 1714.62 205.357 1712 208.587 1712C211.817 1712 214.435 1714.62 214.435 1717.85Z" fill="black" fill-opacity="0.05"/>
<path d="M237.826 1717.85C237.826 1721.08 235.208 1723.7 231.978 1723.7C228.749 1723.7 226.13 1721.08 226.13 1717.85C226.13 1714.62 228.749 1712 231.978 1712C235.208 1712 237.826 1714.62 237.826 1717.85Z" fill="black" fill-opacity="0.05"/>
<path d="M261.217 1717.85C261.217 1721.08 258.599 1723.7 255.37 1723.7C252.14 1723.7 249.522 1721.08 249.522 1717.85C249.522 1714.62 252.14 1712 255.37 1712C258.599 1712 261.217 1714.62 261.217 1717.85Z" fill="black" fill-opacity="0.05"/>
<path d="M284.609 1717.85C284.609 1721.08 281.991 1723.7 278.761 1723.7C275.531 1723.7 272.913 1721.08 272.913 1717.85C272.913 1714.62 275.531 1712 278.761 1712C281.991 1712 284.609 1714.62 284.609 1717.85Z" fill="black" fill-opacity="0.05"/>
<path d="M308 1717.85C308 1721.08 305.382 1723.7 302.152 1723.7C298.923 1723.7 296.304 1721.08 296.304 1717.85C296.304 1714.62 298.923 1712 302.152 1712C305.382 1712 308 1714.62 308 1717.85Z" fill="black" fill-opacity="0.05"/>
<path d="M50.6957 1738.9C50.6957 1742.13 48.0775 1744.75 44.8478 1744.75C41.6182 1744.75 39 1742.13 39 1738.9C39 1735.67 41.6182 1733.05 44.8478 1733.05C48.0775 1733.05 50.6957 1735.67 50.6957 1738.9Z" fill="black" fill-opacity="0.05"/>
<path d="M74.087 1738.9C74.087 1742.13 71.4688 1744.75 68.2391 1744.75C65.0095 1744.75 62.3913 1742.13 62.3913 1738.9C62.3913 1735.67 65.0095 1733.05 68.2391 1733.05C71.4688 1733.05 74.087 1735.67 74.087 1738.9Z" fill="black" fill-opacity="0.05"/>
<path d="M97.4783 1738.9C97.4783 1742.13 94.8601 1744.75 91.6304 1744.75C88.4008 1744.75 85.7826 1742.13 85.7826 1738.9C85.7826 1735.67 88.4008 1733.05 91.6304 1733.05C94.8601 1733.05 97.4783 1735.67 97.4783 1738.9Z" fill="black" fill-opacity="0.05"/>
<path d="M120.87 1738.9C120.87 1742.13 118.251 1744.75 115.022 1744.75C111.792 1744.75 109.174 1742.13 109.174 1738.9C109.174 1735.67 111.792 1733.05 115.022 1733.05C118.251 1733.05 120.87 1735.67 120.87 1738.9Z" fill="black" fill-opacity="0.05"/>
<path d="M144.261 1738.9C144.261 1742.13 141.643 1744.75 138.413 1744.75C135.183 1744.75 132.565 1742.13 132.565 1738.9C132.565 1735.67 135.183 1733.05 138.413 1733.05C141.643 1733.05 144.261 1735.67 144.261 1738.9Z" fill="black" fill-opacity="0.05"/>
<path d="M167.652 1738.9C167.652 1742.13 165.034 1744.75 161.804 1744.75C158.575 1744.75 155.957 1742.13 155.957 1738.9C155.957 1735.67 158.575 1733.05 161.804 1733.05C165.034 1733.05 167.652 1735.67 167.652 1738.9Z" fill="black" fill-opacity="0.05"/>
<path d="M191.043 1738.9C191.043 1742.13 188.425 1744.75 185.196 1744.75C181.966 1744.75 179.348 1742.13 179.348 1738.9C179.348 1735.67 181.966 1733.05 185.196 1733.05C188.425 1733.05 191.043 1735.67 191.043 1738.9Z" fill="black" fill-opacity="0.05"/>
<path d="M214.435 1738.9C214.435 1742.13 211.817 1744.75 208.587 1744.75C205.357 1744.75 202.739 1742.13 202.739 1738.9C202.739 1735.67 205.357 1733.05 208.587 1733.05C211.817 1733.05 214.435 1735.67 214.435 1738.9Z" fill="black" fill-opacity="0.05"/>
<path d="M237.826 1738.9C237.826 1742.13 235.208 1744.75 231.978 1744.75C228.749 1744.75 226.13 1742.13 226.13 1738.9C226.13 1735.67 228.749 1733.05 231.978 1733.05C235.208 1733.05 237.826 1735.67 237.826 1738.9Z" fill="black" fill-opacity="0.05"/>
<path d="M261.217 1738.9C261.217 1742.13 258.599 1744.75 255.37 1744.75C252.14 1744.75 249.522 1742.13 249.522 1738.9C249.522 1735.67 252.14 1733.05 255.37 1733.05C258.599 1733.05 261.217 1735.67 261.217 1738.9Z" fill="black" fill-opacity="0.05"/>
<path d="M284.609 1738.9C284.609 1742.13 281.991 1744.75 278.761 1744.75C275.531 1744.75 272.913 1742.13 272.913 1738.9C272.913 1735.67 275.531 1733.05 278.761 1733.05C281.991 1733.05 284.609 1735.67 284.609 1738.9Z" fill="black" fill-opacity="0.05"/>
<path d="M308 1738.9C308 1742.13 305.382 1744.75 302.152 1744.75C298.923 1744.75 296.304 1742.13 296.304 1738.9C296.304 1735.67 298.923 1733.05 302.152 1733.05C305.382 1733.05 308 1735.67 308 1738.9Z" fill="black" fill-opacity="0.05"/>
<path d="M50.6957 1759.95C50.6957 1763.18 48.0775 1765.8 44.8478 1765.8C41.6182 1765.8 39 1763.18 39 1759.95C39 1756.72 41.6182 1754.1 44.8478 1754.1C48.0775 1754.1 50.6957 1756.72 50.6957 1759.95Z" fill="black" fill-opacity="0.05"/>
<path d="M74.087 1759.95C74.087 1763.18 71.4688 1765.8 68.2391 1765.8C65.0095 1765.8 62.3913 1763.18 62.3913 1759.95C62.3913 1756.72 65.0095 1754.1 68.2391 1754.1C71.4688 1754.1 74.087 1756.72 74.087 1759.95Z" fill="black" fill-opacity="0.05"/>
<path d="M97.4783 1759.95C97.4783 1763.18 94.8601 1765.8 91.6304 1765.8C88.4008 1765.8 85.7826 1763.18 85.7826 1759.95C85.7826 1756.72 88.4008 1754.1 91.6304 1754.1C94.8601 1754.1 97.4783 1756.72 97.4783 1759.95Z" fill="black" fill-opacity="0.05"/>
<path d="M120.87 1759.95C120.87 1763.18 118.251 1765.8 115.022 1765.8C111.792 1765.8 109.174 1763.18 109.174 1759.95C109.174 1756.72 111.792 1754.1 115.022 1754.1C118.251 1754.1 120.87 1756.72 120.87 1759.95Z" fill="black" fill-opacity="0.05"/>
<path d="M144.261 1759.95C144.261 1763.18 141.643 1765.8 138.413 1765.8C135.183 1765.8 132.565 1763.18 132.565 1759.95C132.565 1756.72 135.183 1754.1 138.413 1754.1C141.643 1754.1 144.261 1756.72 144.261 1759.95Z" fill="black" fill-opacity="0.05"/>
<path d="M167.652 1759.95C167.652 1763.18 165.034 1765.8 161.804 1765.8C158.575 1765.8 155.957 1763.18 155.957 1759.95C155.957 1756.72 158.575 1754.1 161.804 1754.1C165.034 1754.1 167.652 1756.72 167.652 1759.95Z" fill="black" fill-opacity="0.05"/>
<path d="M191.043 1759.95C191.043 1763.18 188.425 1765.8 185.196 1765.8C181.966 1765.8 179.348 1763.18 179.348 1759.95C179.348 1756.72 181.966 1754.1 185.196 1754.1C188.425 1754.1 191.043 1756.72 191.043 1759.95Z" fill="black" fill-opacity="0.05"/>
<path d="M214.435 1759.95C214.435 1763.18 211.817 1765.8 208.587 1765.8C205.357 1765.8 202.739 1763.18 202.739 1759.95C202.739 1756.72 205.357 1754.1 208.587 1754.1C211.817 1754.1 214.435 1756.72 214.435 1759.95Z" fill="black" fill-opacity="0.05"/>
<path d="M237.826 1759.95C237.826 1763.18 235.208 1765.8 231.978 1765.8C228.749 1765.8 226.13 1763.18 226.13 1759.95C226.13 1756.72 228.749 1754.1 231.978 1754.1C235.208 1754.1 237.826 1756.72 237.826 1759.95Z" fill="black" fill-opacity="0.05"/>
<path d="M261.217 1759.95C261.217 1763.18 258.599 1765.8 255.37 1765.8C252.14 1765.8 249.522 1763.18 249.522 1759.95C249.522 1756.72 252.14 1754.1 255.37 1754.1C258.599 1754.1 261.217 1756.72 261.217 1759.95Z" fill="black" fill-opacity="0.05"/>
<path d="M284.609 1759.95C284.609 1763.18 281.991 1765.8 278.761 1765.8C275.531 1765.8 272.913 1763.18 272.913 1759.95C272.913 1756.72 275.531 1754.1 278.761 1754.1C281.991 1754.1 284.609 1756.72 284.609 1759.95Z" fill="black" fill-opacity="0.05"/>
<path d="M308 1759.95C308 1763.18 305.382 1765.8 302.152 1765.8C298.923 1765.8 296.304 1763.18 296.304 1759.95C296.304 1756.72 298.923 1754.1 302.152 1754.1C305.382 1754.1 308 1756.72 308 1759.95Z" fill="black" fill-opacity="0.05"/>
<path d="M50.6957 1781C50.6957 1784.23 48.0775 1786.85 44.8478 1786.85C41.6182 1786.85 39 1784.23 39 1781C39 1777.77 41.6182 1775.16 44.8478 1775.16C48.0775 1775.16 50.6957 1777.77 50.6957 1781Z" fill="black" fill-opacity="0.05"/>
<path d="M74.087 1781C74.087 1784.23 71.4688 1786.85 68.2391 1786.85C65.0095 1786.85 62.3913 1784.23 62.3913 1781C62.3913 1777.77 65.0095 1775.16 68.2391 1775.16C71.4688 1775.16 74.087 1777.77 74.087 1781Z" fill="black" fill-opacity="0.05"/>
<path d="M97.4783 1781C97.4783 1784.23 94.8601 1786.85 91.6304 1786.85C88.4008 1786.85 85.7826 1784.23 85.7826 1781C85.7826 1777.77 88.4008 1775.16 91.6304 1775.16C94.8601 1775.16 97.4783 1777.77 97.4783 1781Z" fill="black" fill-opacity="0.05"/>
<path d="M120.87 1781C120.87 1784.23 118.251 1786.85 115.022 1786.85C111.792 1786.85 109.174 1784.23 109.174 1781C109.174 1777.77 111.792 1775.16 115.022 1775.16C118.251 1775.16 120.87 1777.77 120.87 1781Z" fill="black" fill-opacity="0.05"/>
<path d="M144.261 1781C144.261 1784.23 141.643 1786.85 138.413 1786.85C135.183 1786.85 132.565 1784.23 132.565 1781C132.565 1777.77 135.183 1775.16 138.413 1775.16C141.643 1775.16 144.261 1777.77 144.261 1781Z" fill="black" fill-opacity="0.05"/>
<path d="M167.652 1781C167.652 1784.23 165.034 1786.85 161.804 1786.85C158.575 1786.85 155.957 1784.23 155.957 1781C155.957 1777.77 158.575 1775.16 161.804 1775.16C165.034 1775.16 167.652 1777.77 167.652 1781Z" fill="black" fill-opacity="0.05"/>
<path d="M191.043 1781C191.043 1784.23 188.425 1786.85 185.196 1786.85C181.966 1786.85 179.348 1784.23 179.348 1781C179.348 1777.77 181.966 1775.16 185.196 1775.16C188.425 1775.16 191.043 1777.77 191.043 1781Z" fill="black" fill-opacity="0.05"/>
<path d="M214.435 1781C214.435 1784.23 211.817 1786.85 208.587 1786.85C205.357 1786.85 202.739 1784.23 202.739 1781C202.739 1777.77 205.357 1775.16 208.587 1775.16C211.817 1775.16 214.435 1777.77 214.435 1781Z" fill="black" fill-opacity="0.05"/>
<path d="M237.826 1781C237.826 1784.23 235.208 1786.85 231.978 1786.85C228.749 1786.85 226.13 1784.23 226.13 1781C226.13 1777.77 228.749 1775.16 231.978 1775.16C235.208 1775.16 237.826 1777.77 237.826 1781Z" fill="black" fill-opacity="0.05"/>
<path d="M261.217 1781C261.217 1784.23 258.599 1786.85 255.37 1786.85C252.14 1786.85 249.522 1784.23 249.522 1781C249.522 1777.77 252.14 1775.16 255.37 1775.16C258.599 1775.16 261.217 1777.77 261.217 1781Z" fill="black" fill-opacity="0.05"/>
<path d="M284.609 1781C284.609 1784.23 281.991 1786.85 278.761 1786.85C275.531 1786.85 272.913 1784.23 272.913 1781C272.913 1777.77 275.531 1775.16 278.761 1775.16C281.991 1775.16 284.609 1777.77 284.609 1781Z" fill="black" fill-opacity="0.05"/>
<path d="M308 1781C308 1784.23 305.382 1786.85 302.152 1786.85C298.923 1786.85 296.304 1784.23 296.304 1781C296.304 1777.77 298.923 1775.16 302.152 1775.16C305.382 1775.16 308 1777.77 308 1781Z" fill="black" fill-opacity="0.05"/>
</svg>
