<svg width="162" height="118" viewBox="0 0 162 118" fill="none" xmlns="http://www.w3.org/2000/svg">
<path d="M155.928 36.3181L155.954 36.4411L155.928 36.3181ZM26.1165 0.849399L27.1978 0.735787L27.1341 1.8666L28.9886 2.46163L29.0773 3.45071L30.5631 3.10181L31.8545 5.57686L42.4748 7.25599L44.7883 11.7591L44.2469 16.108L43.2184 17.8634L46.9338 19.488L47.4504 18.946L48.1319 19.7466L49.3096 18.8821L51.3213 20.692L53.6271 21.0316L54.1499 21.7684L53.7998 22.6422L56.8166 23.7076L55.5781 24.8447L61.2212 24.4381L60.616 26.4257L61.6958 28.3587L65.7363 28.9864L68.123 27.1796L69.6228 27.5145L75.518 24.2434L78.7775 27.016L78.709 32.1468L81.4831 34.0253L82.5738 33.7714L82.5349 35.2621L85.7352 33.6375L86.1335 32.2652L88.3537 31.7076L91.9384 33.0767L91.8622 33.8914L93.6887 33.5938L94.5056 34.5487L95.6429 33.5082L98.0762 33.4179L105.078 36.3618L106.008 37.8556L111.242 40.5674L112.356 39.2481L114.573 39.963L116.549 39.1297L116.473 38.2575L117.716 38.1297L117.809 37.1438L120.499 36.5893L121.462 34.5893L122.34 34.6439L122.979 39.5535L125.296 41.2264L128.347 40.971L128.661 42.3198L130.178 42.4101L131.107 43.2637L132.016 41.0831L135.199 39.9132L139.739 42.0659L141.234 41.6095L142.077 40.0924L143.899 41.0924L144.965 40.9257L145.724 38.8681L147.644 40.0534L148.929 38.2341L150.19 40.7139L152.301 41.6453L152.503 42.6407L153.552 42.6438L153.703 41.6624L155.665 40.0067L155.949 36.4506L157.228 37.3431L157.973 36.3868L160.024 35.8572L160.094 36.569L158.324 38.083L158.804 38.7559L159.862 38.6017L159.953 39.6563L161.219 40.5753L159.999 41.5815L160.233 42.2544L161.208 42.0441L162 43.0301L159.472 45.6438L157.199 46.6874L154.767 49.474L153.712 49.4024L152.918 50.7326L151.322 50.3307L151.454 52.8821L150.47 52.77L150.249 53.3292L149.656 52.5333L147.35 54.2124L146.953 58.1454L146.101 58.9865L146.722 60.4523L149.589 61.1625L148.693 61.9974L149.577 62.4943L149.184 64.1173L150.289 64.0612L151.221 65.7419L154.074 66.9693L153.651 68.9039L154.261 69.0472L153.178 70.6983L153.658 72.5035L154.865 73.6827L154.786 74.5238L153.391 74.3213L152.738 73.4506L152.632 74.0378L152.06 73.7294L152.039 72.9319L150.085 72.5223L149.205 73.6687L148.561 73.2481L148.047 75.0658L147.083 75.0954L146.264 76.1872L145.374 75.8119L144.649 77.234L144.865 78.2059L145.618 78.4116L145.46 79.8399L147.822 81.801L146.725 83.3586L147.176 84.6156L145.578 83.8539L145.438 82.9334L142.978 82.5673L142.208 80.6405L139.694 80.5954L138.819 79.2683L137.755 79.8945L137.505 81.6639L135.608 81.1779L136.07 82.3508L135.32 83.125L135.303 84.7807L132.686 83.6031L131.972 84.4084L130.46 83.762L129.405 88.5564L128.084 87.9629L126.808 88.5455L124.705 90.8819L125.073 95.8414L124.842 96.8134L123.651 96.9162L122.481 98.1062L123.071 98.8492L121.567 105.799L117.646 104.513L116.603 106.521L117.028 108.228L115.895 107.207L115.186 107.809L114.613 107.175L113.417 107.306L113.596 106.239L112.661 105.337L111.805 105.4L111.178 106.905L109.12 107.447L106.988 105.862L105.157 108.36L103.822 108.977L103.265 112.281L102.523 112.391L102.079 114.287L100.886 113.911L98.7748 111.614L96.4426 110.961L97.527 109.305L97.2532 107.531L97.8662 106.611L95.9541 106.904L94.4309 105.623L93.7012 106.572L91.6926 105.916L91.4032 102.29L90.1694 100.823L88.6229 101L88.9979 99.6341L85.7321 101.329L83.3688 98.8942L80.0953 98.9425L78.7759 98.0951L77.469 101.995L75.9349 102.936L76.4281 106.687L73.5576 105.935L73.2884 107.284L72.2631 107.282L71.6594 108.734L70.6233 107.799L63.9798 108.656L63.9611 109.706L59.6856 110.93L60.2955 112.12L57.691 113.91L56.91 113.64L57.2585 111.748L56.5132 112.629L54.4657 112.732L53.7531 114.023L51.4567 114.161L50.8748 110.93L49.3843 111.296L49.3268 109.195L48.1116 108.555L44.32 111.161L43.6463 113.391L40.852 112.727L40.6326 113.738L39.1935 114.013L39.3226 115.323L38.2817 117.187L37.0106 115.351L35.8033 115.609L35.9682 114.62L34.655 113.533L33.1459 113.315L32.4675 112.33L32.9669 112.055L31.755 111.355L31.7876 110.288L32.8362 109.505L31.7487 107.251L30.9755 107.313L31.3302 107.752L30.5834 108.506L29.8615 107.707L29.292 108.349L28.3414 107.629L27.8389 107.922L28.0474 109.231L26.966 108.165L26.77 109.43L25.7851 110.265L23.733 105.6L21.9562 104.681L19.8807 107.894L17.911 108.43L12.982 109.425L5.86555 108.639L7.27202 105.103L5.84375 104.193L6.37122 103.14L5.29768 102.263L5.2681 101.12L4.39682 101.282L2.23573 99.4643L2.35244 97.7182L1.16689 96.3771L0.83704 91.3756L0 91.131L1.27581 87.3039L0.558565 85.2557L1.02373 84.6264L2.2824 84.3367L2.96698 82.8211L4.62867 82.7245L7.20669 80.3693L8.01106 80.7105L9.90764 79.9441L10.8147 78.564L12.0781 78.4441L11.63 78.1886L12.2601 77.5531L12.5666 77.9098L13.4939 77.0329L14.4523 77.8475L15.6721 77.0189L15.5103 76.2775L16.9432 76.0874L16.0268 75.0454L17.3586 74.765L19.5057 71.7183L24.6992 68.8756L24.4751 66.7868L25.2826 65.8943L27.0345 65.5127L28.5359 66.5049L28.8159 67.7198L31.5091 68.0127L31.4438 67.4504L32.5826 67.6373L32.9981 65.0236L34.5835 64.8756L35.2961 66.6466L36.8239 66.1061L38.1137 67.4239L39.2931 67.1903L39.6602 65.6731L39.514 66.8849L40.1954 67.2012L40.3028 65.3165L42.7439 65.6077L41.7653 64.4442L42.4063 63.2401L40.3308 61.6763L39.3693 61.7916L39.4237 60.2277L35.9931 59.6982L35.5046 58.2948L33.6515 57.2854L31.8592 57.7309L28.7801 55.7979L27.621 56.1249L27.6537 54.8991L25.1721 52.3337L23.8045 52.2199L22.7979 50.5782L22.5817 47.1249L24.7909 47.829L25.8863 46.357L27.3955 46.9365L28.1251 44.3632L27.7875 42.3026L24.5529 41.9225L22.5645 39.6047L21.6201 40.1063L19.0265 39.5393L19.0234 37.0814L20.9884 37.4256L21.3665 36.5798L23.7641 36.1608L24.8967 34.125L24.8718 32.5565L31.0735 34.1343L35.7053 33.1266L35.3085 31.5284L32.8145 31.0549L31.9152 28.5503L30.2644 29.421L29.8288 29.0487L29.5238 28.4101L30.4247 26.5347L30.0606 24.5814L29.0229 24.2699L27.7097 25.5954L26.4962 24.826L26.7949 23.6655L25.4849 23.1843L25.1394 24.0456L23.901 23.516L23.7594 22.0565L23.0173 21.6609L23.7252 20.9615L23.5354 17.9491L21.9049 17.0784L22.8804 16.1002L20.2323 16.1905L21.5143 12.2746L20.7224 11.0114L18.8818 10.1219L19.7842 8.48955L19.4917 7.71698L17.4707 8.23255L16.6336 7.81042L17.5967 6.78086L19.2225 5.56434L18.1428 5.28552L17.981 3.94909L20.0316 3.18584L23.1635 3.76218L25.3837 1.72169L25.4584 0.72168L26.1165 0.849376V0.849399Z" fill="#CECECE"/>
</svg>
