<svg width="44" height="44" viewBox="0 0 44 44" fill="none" xmlns="http://www.w3.org/2000/svg">
<path d="M11.6016 0C10.8891 0 10.3125 0.576555 10.3125 1.28906V10.3125H7.73438V1.28906C7.73438 0.576555 7.15782 0 6.44531 0C5.7328 0 5.15625 0.576555 5.15625 1.28906V10.3125H2.57812V1.28906C2.57812 0.576555 2.00157 0 1.28906 0C0.576555 0 0 0.576555 0 1.28906C0 7.01963 0 8.44559 0 14.1797C0 16.3121 1.73473 18.1328 3.86719 18.1328H9.02344C11.1559 18.1328 12.8906 16.3121 12.8906 14.1797C12.8906 8.44362 12.8906 7.02281 12.8906 1.28906C12.8906 0.576555 12.3141 0 11.6016 0Z" fill="#F8AE6A"/>
<path d="M31.1094 27.1562V14.7235C31.1094 14.7199 31.11 14.7165 31.11 14.7128C28.9822 12.0527 25.6636 10.3125 22 10.3125C19.6549 10.3125 17.3484 11.0066 15.4688 12.2708V14.1797C15.4688 16.8159 13.8737 19.1672 11.6016 20.1646V27.2035C13.5168 30.981 17.4826 33.6016 22 33.6016C25.867 33.6016 29.3613 31.6816 31.4705 28.7646C31.244 28.2734 31.1094 27.7317 31.1094 27.1562Z" fill="#F8AE6A"/>
<path d="M34.9766 31.0235C34.3777 31.0235 33.8172 30.875 33.3107 30.631C30.7157 33.9978 26.5696 36.1797 22 36.1797C17.9355 36.1797 14.1893 34.4512 11.6016 31.7021V38.4223C14.5885 40.3121 18.2041 41.4219 22 41.4219C27.6107 41.4219 32.7334 38.9317 36.2656 35.1146V31.0235H34.9766Z" fill="#F8AE6A"/>
<path d="M22 2.57812C19.7364 2.57812 17.4875 2.9871 15.4688 3.70184V9.28056C17.4307 8.2769 19.7097 7.73438 22 7.73438C25.5924 7.73438 28.9531 9.08815 31.4545 11.2982C31.7889 9.47788 32.3514 7.71977 33.169 6.08403C30.0291 3.88154 26.1266 2.57812 22 2.57812Z" fill="#F8AE6A"/>
<path d="M43.3189 0.152282C42.9022 -0.0717571 42.3925 -0.0465774 41.9959 0.216477C36.1168 4.13591 33.6875 9.20176 33.6875 14.7235V27.1562C33.6875 27.8688 34.2641 28.4453 34.9766 28.4453H38.8438V41.4219C38.8438 42.8456 39.998 44 41.4219 44C42.8458 44 44 42.8456 44 41.4219C44 20.808 44 21.5155 44 1.28906C44 0.813227 43.7381 0.376407 43.3189 0.152282Z" fill="#F8AE6A"/>
<path d="M3.86719 20.7109V41.4219C3.86719 42.8456 5.02141 44 6.44531 44C7.86921 44 9.02344 42.8456 9.02344 41.4219V20.7109H3.86719Z" fill="#F8AE6A"/>
</svg>
