<svg width="145" height="363" viewBox="0 0 145 363" fill="none" xmlns="http://www.w3.org/2000/svg">
<path d="M294.5 181.5C294.5 243.908 243.908 294.5 181.5 294.5C119.092 294.5 68.5 243.908 68.5 181.5C68.5 119.092 119.092 68.5 181.5 68.5C243.908 68.5 294.5 119.092 294.5 181.5ZM181.5 295.5C244.46 295.5 295.5 244.46 295.5 181.5C295.5 118.54 244.46 67.5 181.5 67.5C118.54 67.5 67.5 118.54 67.5 181.5C67.5 244.46 118.54 295.5 181.5 295.5ZM328.5 181.5C328.5 262.686 262.686 328.5 181.5 328.5C100.314 328.5 34.5 262.686 34.5 181.5C34.5 100.314 100.314 34.5 181.5 34.5C262.686 34.5 328.5 100.314 328.5 181.5ZM181.5 329.5C263.238 329.5 329.5 263.238 329.5 181.5C329.5 99.7619 263.238 33.5 181.5 33.5C99.7619 33.5 33.5 99.7619 33.5 181.5C33.5 263.238 99.7619 329.5 181.5 329.5ZM362.5 181.5C362.5 281.464 281.464 362.5 181.5 362.5C81.5365 362.5 0.5 281.464 0.5 181.5C0.5 81.5365 81.5365 0.5 181.5 0.5C281.464 0.5 362.5 81.5365 362.5 181.5Z" stroke="black" stroke-opacity="0.15"/>
</svg>
