<svg width="208" height="75" viewBox="0 0 208 75" fill="none" xmlns="http://www.w3.org/2000/svg">
<path d="M-49.3043 5.84783C-49.3043 9.07749 -51.9225 11.6957 -55.1522 11.6957C-58.3818 11.6957 -61 9.07749 -61 5.84783C-61 2.61816 -58.3818 0 -55.1522 0C-51.9225 0 -49.3043 2.61816 -49.3043 5.84783Z" fill="black" fill-opacity="0.1"/>
<path d="M-25.913 5.84783C-25.913 9.07749 -28.5312 11.6957 -31.7609 11.6957C-34.9905 11.6957 -37.6087 9.07749 -37.6087 5.84783C-37.6087 2.61816 -34.9905 0 -31.7609 0C-28.5312 0 -25.913 2.61816 -25.913 5.84783Z" fill="black" fill-opacity="0.1"/>
<path d="M-2.52174 5.84783C-2.52174 9.07749 -5.1399 11.6957 -8.36957 11.6957C-11.5992 11.6957 -14.2174 9.07749 -14.2174 5.84783C-14.2174 2.61816 -11.5992 0 -8.36957 0C-5.1399 0 -2.52174 2.61816 -2.52174 5.84783Z" fill="black" fill-opacity="0.1"/>
<path d="M20.8696 5.84783C20.8696 9.07749 18.2514 11.6957 15.0217 11.6957C11.7921 11.6957 9.17391 9.07749 9.17391 5.84783C9.17391 2.61816 11.7921 0 15.0217 0C18.2514 0 20.8696 2.61816 20.8696 5.84783Z" fill="black" fill-opacity="0.1"/>
<path d="M44.2609 5.84783C44.2609 9.07749 41.6427 11.6957 38.413 11.6957C35.1834 11.6957 32.5652 9.07749 32.5652 5.84783C32.5652 2.61816 35.1834 0 38.413 0C41.6427 0 44.2609 2.61816 44.2609 5.84783Z" fill="black" fill-opacity="0.1"/>
<path d="M67.6522 5.84783C67.6522 9.07749 65.034 11.6957 61.8043 11.6957C58.5747 11.6957 55.9565 9.07749 55.9565 5.84783C55.9565 2.61816 58.5747 0 61.8043 0C65.034 0 67.6522 2.61816 67.6522 5.84783Z" fill="black" fill-opacity="0.1"/>
<path d="M91.0435 5.84783C91.0435 9.07749 88.4253 11.6957 85.1956 11.6957C81.966 11.6957 79.3478 9.07749 79.3478 5.84783C79.3478 2.61816 81.966 0 85.1956 0C88.4253 0 91.0435 2.61816 91.0435 5.84783Z" fill="black" fill-opacity="0.1"/>
<path d="M114.435 5.84783C114.435 9.07749 111.817 11.6957 108.587 11.6957C105.357 11.6957 102.739 9.07749 102.739 5.84783C102.739 2.61816 105.357 0 108.587 0C111.817 0 114.435 2.61816 114.435 5.84783Z" fill="black" fill-opacity="0.1"/>
<path d="M137.826 5.84783C137.826 9.07749 135.208 11.6957 131.978 11.6957C128.749 11.6957 126.13 9.07749 126.13 5.84783C126.13 2.61816 128.749 0 131.978 0C135.208 0 137.826 2.61816 137.826 5.84783Z" fill="black" fill-opacity="0.1"/>
<path d="M161.217 5.84783C161.217 9.07749 158.599 11.6957 155.37 11.6957C152.14 11.6957 149.522 9.07749 149.522 5.84783C149.522 2.61816 152.14 0 155.37 0C158.599 0 161.217 2.61816 161.217 5.84783Z" fill="black" fill-opacity="0.1"/>
<path d="M184.609 5.84783C184.609 9.07749 181.991 11.6957 178.761 11.6957C175.531 11.6957 172.913 9.07749 172.913 5.84783C172.913 2.61816 175.531 0 178.761 0C181.991 0 184.609 2.61816 184.609 5.84783Z" fill="black" fill-opacity="0.1"/>
<path d="M208 5.84783C208 9.07749 205.382 11.6957 202.152 11.6957C198.923 11.6957 196.304 9.07749 196.304 5.84783C196.304 2.61816 198.923 0 202.152 0C205.382 0 208 2.61816 208 5.84783Z" fill="black" fill-opacity="0.1"/>
<path d="M-49.3043 26.9C-49.3043 30.1297 -51.9225 32.7478 -55.1522 32.7478C-58.3818 32.7478 -61 30.1297 -61 26.9C-61 23.6703 -58.3818 21.0522 -55.1522 21.0522C-51.9225 21.0522 -49.3043 23.6703 -49.3043 26.9Z" fill="black" fill-opacity="0.1"/>
<path d="M-25.913 26.9C-25.913 30.1297 -28.5312 32.7478 -31.7609 32.7478C-34.9905 32.7478 -37.6087 30.1297 -37.6087 26.9C-37.6087 23.6703 -34.9905 21.0522 -31.7609 21.0522C-28.5312 21.0522 -25.913 23.6703 -25.913 26.9Z" fill="black" fill-opacity="0.1"/>
<path d="M-2.52174 26.9C-2.52174 30.1297 -5.1399 32.7478 -8.36957 32.7478C-11.5992 32.7478 -14.2174 30.1297 -14.2174 26.9C-14.2174 23.6703 -11.5992 21.0522 -8.36957 21.0522C-5.1399 21.0522 -2.52174 23.6703 -2.52174 26.9Z" fill="black" fill-opacity="0.1"/>
<path d="M20.8696 26.9C20.8696 30.1297 18.2514 32.7478 15.0217 32.7478C11.7921 32.7478 9.17391 30.1297 9.17391 26.9C9.17391 23.6703 11.7921 21.0522 15.0217 21.0522C18.2514 21.0522 20.8696 23.6703 20.8696 26.9Z" fill="black" fill-opacity="0.1"/>
<path d="M44.2609 26.9C44.2609 30.1297 41.6427 32.7478 38.413 32.7478C35.1834 32.7478 32.5652 30.1297 32.5652 26.9C32.5652 23.6703 35.1834 21.0522 38.413 21.0522C41.6427 21.0522 44.2609 23.6703 44.2609 26.9Z" fill="black" fill-opacity="0.1"/>
<path d="M67.6522 26.9C67.6522 30.1297 65.034 32.7478 61.8043 32.7478C58.5747 32.7478 55.9565 30.1297 55.9565 26.9C55.9565 23.6703 58.5747 21.0522 61.8043 21.0522C65.034 21.0522 67.6522 23.6703 67.6522 26.9Z" fill="black" fill-opacity="0.1"/>
<path d="M91.0435 26.9C91.0435 30.1297 88.4253 32.7478 85.1956 32.7478C81.966 32.7478 79.3478 30.1297 79.3478 26.9C79.3478 23.6703 81.966 21.0522 85.1956 21.0522C88.4253 21.0522 91.0435 23.6703 91.0435 26.9Z" fill="black" fill-opacity="0.1"/>
<path d="M114.435 26.9C114.435 30.1297 111.817 32.7478 108.587 32.7478C105.357 32.7478 102.739 30.1297 102.739 26.9C102.739 23.6703 105.357 21.0522 108.587 21.0522C111.817 21.0522 114.435 23.6703 114.435 26.9Z" fill="black" fill-opacity="0.1"/>
<path d="M137.826 26.9C137.826 30.1297 135.208 32.7478 131.978 32.7478C128.749 32.7478 126.13 30.1297 126.13 26.9C126.13 23.6703 128.749 21.0522 131.978 21.0522C135.208 21.0522 137.826 23.6703 137.826 26.9Z" fill="black" fill-opacity="0.1"/>
<path d="M161.217 26.9C161.217 30.1297 158.599 32.7478 155.37 32.7478C152.14 32.7478 149.522 30.1297 149.522 26.9C149.522 23.6703 152.14 21.0522 155.37 21.0522C158.599 21.0522 161.217 23.6703 161.217 26.9Z" fill="black" fill-opacity="0.1"/>
<path d="M184.609 26.9C184.609 30.1297 181.991 32.7478 178.761 32.7478C175.531 32.7478 172.913 30.1297 172.913 26.9C172.913 23.6703 175.531 21.0522 178.761 21.0522C181.991 21.0522 184.609 23.6703 184.609 26.9Z" fill="black" fill-opacity="0.1"/>
<path d="M208 26.9C208 30.1297 205.382 32.7478 202.152 32.7478C198.923 32.7478 196.304 30.1297 196.304 26.9C196.304 23.6703 198.923 21.0522 202.152 21.0522C205.382 21.0522 208 23.6703 208 26.9Z" fill="black" fill-opacity="0.1"/>
<path d="M-49.3043 47.9522C-49.3043 51.1818 -51.9225 53.8 -55.1522 53.8C-58.3818 53.8 -61 51.1818 -61 47.9522C-61 44.7225 -58.3818 42.1043 -55.1522 42.1043C-51.9225 42.1043 -49.3043 44.7225 -49.3043 47.9522Z" fill="black" fill-opacity="0.1"/>
<path d="M-25.913 47.9522C-25.913 51.1818 -28.5312 53.8 -31.7609 53.8C-34.9905 53.8 -37.6087 51.1818 -37.6087 47.9522C-37.6087 44.7225 -34.9905 42.1043 -31.7609 42.1043C-28.5312 42.1043 -25.913 44.7225 -25.913 47.9522Z" fill="black" fill-opacity="0.1"/>
<path d="M-2.52174 47.9522C-2.52174 51.1818 -5.1399 53.8 -8.36957 53.8C-11.5992 53.8 -14.2174 51.1818 -14.2174 47.9522C-14.2174 44.7225 -11.5992 42.1043 -8.36957 42.1043C-5.1399 42.1043 -2.52174 44.7225 -2.52174 47.9522Z" fill="black" fill-opacity="0.1"/>
<path d="M20.8696 47.9522C20.8696 51.1818 18.2514 53.8 15.0217 53.8C11.7921 53.8 9.17391 51.1818 9.17391 47.9522C9.17391 44.7225 11.7921 42.1043 15.0217 42.1043C18.2514 42.1043 20.8696 44.7225 20.8696 47.9522Z" fill="black" fill-opacity="0.1"/>
<path d="M44.2609 47.9522C44.2609 51.1818 41.6427 53.8 38.413 53.8C35.1834 53.8 32.5652 51.1818 32.5652 47.9522C32.5652 44.7225 35.1834 42.1043 38.413 42.1043C41.6427 42.1043 44.2609 44.7225 44.2609 47.9522Z" fill="black" fill-opacity="0.1"/>
<path d="M67.6522 47.9522C67.6522 51.1818 65.034 53.8 61.8043 53.8C58.5747 53.8 55.9565 51.1818 55.9565 47.9522C55.9565 44.7225 58.5747 42.1043 61.8043 42.1043C65.034 42.1043 67.6522 44.7225 67.6522 47.9522Z" fill="black" fill-opacity="0.1"/>
<path d="M91.0435 47.9522C91.0435 51.1818 88.4253 53.8 85.1956 53.8C81.966 53.8 79.3478 51.1818 79.3478 47.9522C79.3478 44.7225 81.966 42.1043 85.1956 42.1043C88.4253 42.1043 91.0435 44.7225 91.0435 47.9522Z" fill="black" fill-opacity="0.1"/>
<path d="M114.435 47.9522C114.435 51.1818 111.817 53.8 108.587 53.8C105.357 53.8 102.739 51.1818 102.739 47.9522C102.739 44.7225 105.357 42.1043 108.587 42.1043C111.817 42.1043 114.435 44.7225 114.435 47.9522Z" fill="black" fill-opacity="0.1"/>
<path d="M137.826 47.9522C137.826 51.1818 135.208 53.8 131.978 53.8C128.749 53.8 126.13 51.1818 126.13 47.9522C126.13 44.7225 128.749 42.1043 131.978 42.1043C135.208 42.1043 137.826 44.7225 137.826 47.9522Z" fill="black" fill-opacity="0.1"/>
<path d="M161.217 47.9522C161.217 51.1818 158.599 53.8 155.37 53.8C152.14 53.8 149.522 51.1818 149.522 47.9522C149.522 44.7225 152.14 42.1043 155.37 42.1043C158.599 42.1043 161.217 44.7225 161.217 47.9522Z" fill="black" fill-opacity="0.1"/>
<path d="M184.609 47.9522C184.609 51.1818 181.991 53.8 178.761 53.8C175.531 53.8 172.913 51.1818 172.913 47.9522C172.913 44.7225 175.531 42.1043 178.761 42.1043C181.991 42.1043 184.609 44.7225 184.609 47.9522Z" fill="black" fill-opacity="0.1"/>
<path d="M208 47.9522C208 51.1818 205.382 53.8 202.152 53.8C198.923 53.8 196.304 51.1818 196.304 47.9522C196.304 44.7225 198.923 42.1043 202.152 42.1043C205.382 42.1043 208 44.7225 208 47.9522Z" fill="black" fill-opacity="0.1"/>
<path d="M-49.3043 69.0043C-49.3043 72.234 -51.9225 74.8522 -55.1522 74.8522C-58.3818 74.8522 -61 72.234 -61 69.0043C-61 65.7747 -58.3818 63.1565 -55.1522 63.1565C-51.9225 63.1565 -49.3043 65.7747 -49.3043 69.0043Z" fill="black" fill-opacity="0.1"/>
<path d="M-25.913 69.0043C-25.913 72.234 -28.5312 74.8522 -31.7609 74.8522C-34.9905 74.8522 -37.6087 72.234 -37.6087 69.0043C-37.6087 65.7747 -34.9905 63.1565 -31.7609 63.1565C-28.5312 63.1565 -25.913 65.7747 -25.913 69.0043Z" fill="black" fill-opacity="0.1"/>
<path d="M-2.52174 69.0043C-2.52174 72.234 -5.1399 74.8522 -8.36957 74.8522C-11.5992 74.8522 -14.2174 72.234 -14.2174 69.0043C-14.2174 65.7747 -11.5992 63.1565 -8.36957 63.1565C-5.1399 63.1565 -2.52174 65.7747 -2.52174 69.0043Z" fill="black" fill-opacity="0.1"/>
<path d="M20.8696 69.0043C20.8696 72.234 18.2514 74.8522 15.0217 74.8522C11.7921 74.8522 9.17391 72.234 9.17391 69.0043C9.17391 65.7747 11.7921 63.1565 15.0217 63.1565C18.2514 63.1565 20.8696 65.7747 20.8696 69.0043Z" fill="black" fill-opacity="0.1"/>
<path d="M44.2609 69.0043C44.2609 72.234 41.6427 74.8522 38.413 74.8522C35.1834 74.8522 32.5652 72.234 32.5652 69.0043C32.5652 65.7747 35.1834 63.1565 38.413 63.1565C41.6427 63.1565 44.2609 65.7747 44.2609 69.0043Z" fill="black" fill-opacity="0.1"/>
<path d="M67.6522 69.0043C67.6522 72.234 65.034 74.8522 61.8043 74.8522C58.5747 74.8522 55.9565 72.234 55.9565 69.0043C55.9565 65.7747 58.5747 63.1565 61.8043 63.1565C65.034 63.1565 67.6522 65.7747 67.6522 69.0043Z" fill="black" fill-opacity="0.1"/>
<path d="M91.0435 69.0043C91.0435 72.234 88.4253 74.8522 85.1956 74.8522C81.966 74.8522 79.3478 72.234 79.3478 69.0043C79.3478 65.7747 81.966 63.1565 85.1956 63.1565C88.4253 63.1565 91.0435 65.7747 91.0435 69.0043Z" fill="black" fill-opacity="0.1"/>
<path d="M114.435 69.0043C114.435 72.234 111.817 74.8522 108.587 74.8522C105.357 74.8522 102.739 72.234 102.739 69.0043C102.739 65.7747 105.357 63.1565 108.587 63.1565C111.817 63.1565 114.435 65.7747 114.435 69.0043Z" fill="black" fill-opacity="0.1"/>
<path d="M137.826 69.0043C137.826 72.234 135.208 74.8522 131.978 74.8522C128.749 74.8522 126.13 72.234 126.13 69.0043C126.13 65.7747 128.749 63.1565 131.978 63.1565C135.208 63.1565 137.826 65.7747 137.826 69.0043Z" fill="black" fill-opacity="0.1"/>
<path d="M161.217 69.0043C161.217 72.234 158.599 74.8522 155.37 74.8522C152.14 74.8522 149.522 72.234 149.522 69.0043C149.522 65.7747 152.14 63.1565 155.37 63.1565C158.599 63.1565 161.217 65.7747 161.217 69.0043Z" fill="black" fill-opacity="0.1"/>
<path d="M184.609 69.0043C184.609 72.234 181.991 74.8522 178.761 74.8522C175.531 74.8522 172.913 72.234 172.913 69.0043C172.913 65.7747 175.531 63.1565 178.761 63.1565C181.991 63.1565 184.609 65.7747 184.609 69.0043Z" fill="black" fill-opacity="0.1"/>
<path d="M208 69.0043C208 72.234 205.382 74.8522 202.152 74.8522C198.923 74.8522 196.304 72.234 196.304 69.0043C196.304 65.7747 198.923 63.1565 202.152 63.1565C205.382 63.1565 208 65.7747 208 69.0043Z" fill="black" fill-opacity="0.1"/>
</svg>
