<svg width="25" height="25" viewBox="0 0 25 25" fill="none" xmlns="http://www.w3.org/2000/svg">
<g clip-path="url(#clip0)">
<path d="M22.3107 24.2183C22.3044 24.2015 22.2985 24.1857 22.2939 24.1717C21.7019 22.3647 20.0259 21.1507 18.1235 21.1507C17.4366 21.1507 16.7805 21.312 16.1941 21.6001C16.1331 21.5422 16.0709 21.4855 16.007 21.4302C15.1376 20.6789 14.0536 20.2261 12.9148 20.1301V18.4544C13.2526 18.2914 13.7198 18.2633 14.2551 18.2312C15.3263 18.1672 16.6593 18.0875 17.7912 16.8506C19.2472 15.2592 19.5566 12.3822 19.2358 11.6538C19.1251 11.4025 18.9486 11.3649 18.8532 11.3649C18.7601 11.3649 18.6703 11.3991 18.5864 11.4665C18.2928 11.7021 17.7669 11.7304 17.158 11.7633C16.0902 11.8208 14.7613 11.8925 13.668 13.0871C13.3676 13.4154 13.1186 13.7919 12.9149 14.1896V10.3041C13.1886 10.0183 13.5946 9.77271 14.0503 9.49783C15.1091 8.85903 16.4269 8.06393 16.9186 6.2005C17.4907 4.03094 16.5213 1.24918 15.841 0.366338C15.6511 0.119893 15.4713 0 15.2914 0C15.2131 0 15.0196 0.0264704 14.9128 0.271486C14.7329 0.683779 14.203 0.99926 13.5894 1.36466C12.5306 1.99509 11.2128 2.77964 10.7382 4.57869C10.14 6.84605 11.1673 9.49624 11.8233 10.3478C11.8405 10.3702 11.8576 10.3911 11.8745 10.4115V12.5137C11.6806 11.7922 11.3147 11.0509 10.5275 10.4071C9.33282 9.43039 7.52834 9.08378 6.34608 9.08378C5.20033 9.08378 5.06643 9.38398 5.02248 9.48259C4.99241 9.55008 4.94045 9.72695 5.10732 9.91278C5.35891 10.1928 5.41651 10.7163 5.48318 11.3225C5.60005 12.3854 5.74555 13.7082 6.9991 14.7332C8.17086 15.6915 9.87628 16.0329 11.0815 16.0329C11.3984 16.0329 11.6624 16.011 11.8746 15.9681V20.1433C10.783 20.2615 9.74753 20.7073 8.91093 21.4303C8.84704 21.4855 8.78479 21.5423 8.72376 21.6002C8.13745 21.3121 7.48128 21.1508 6.79436 21.1508C5.89085 21.1508 5.02309 21.4233 4.28498 21.9389C3.56395 22.4425 3.01583 23.1409 2.70002 23.9583C2.58225 24.2631 2.59022 24.5266 2.7229 24.7202C2.85019 24.9058 3.0702 25 3.37682 25H7.0482H11.1607H13.7571H17.8697H21.808C22.0429 25 22.2106 24.9303 22.3064 24.7928C22.4479 24.5894 22.3586 24.348 22.3107 24.2183ZM10.7532 14.304C10.7393 14.2904 10.725 14.277 10.7114 14.2629L10.6907 14.2418L10.6855 14.2365L10.6842 14.2352C10.6827 14.2335 10.6925 14.2456 10.6878 14.24L10.6853 14.2378L10.6752 14.229C10.6487 14.2058 10.6219 14.1822 10.5947 14.1584C10.5376 14.1135 10.4818 14.0661 10.4203 14.022C10.1784 13.843 9.89422 13.6793 9.5896 13.5201C9.28617 13.3595 8.96432 13.2009 8.66616 13.0153C8.51714 12.923 8.3747 12.8231 8.245 12.717C8.11543 12.611 8.00028 12.4949 7.90669 12.3768C7.814 12.2577 7.74019 12.1394 7.69378 12.0256C7.68087 11.9982 7.6707 11.9704 7.66176 11.9434C7.65224 11.9166 7.64391 11.8908 7.63618 11.8662C7.62397 11.8151 7.61298 11.7693 7.60579 11.7272C7.60024 11.6837 7.59615 11.6459 7.59366 11.6134C7.59101 11.5813 7.59362 11.5545 7.59366 11.5323C7.5955 11.4881 7.59652 11.4646 7.59652 11.4646C7.59652 11.4646 7.60963 11.4842 7.63418 11.521C7.64656 11.5391 7.65988 11.5633 7.67826 11.5884C7.69627 11.6124 7.71686 11.6399 7.74006 11.6708C7.76474 11.6997 7.79203 11.7317 7.82172 11.7665C7.85591 11.7979 7.88483 11.8349 7.92491 11.8676C7.99831 11.9372 8.09063 12.0038 8.19317 12.0695C8.29631 12.1351 8.41277 12.1983 8.54272 12.2592C8.67192 12.3209 8.81367 12.3802 8.96342 12.4427C9.26273 12.5673 9.59679 12.7021 9.92894 12.8758C10.0946 12.9629 10.2594 13.0606 10.4157 13.1709C10.5722 13.2808 10.7196 13.4046 10.8502 13.5385C10.916 13.6048 10.9763 13.6755 11.0325 13.7461C11.0593 13.7826 11.0859 13.8187 11.1121 13.8544L11.1219 13.8677L11.1244 13.871C11.1204 13.8663 11.1311 13.8794 11.1303 13.8786L11.1313 13.8802L11.1352 13.8864L11.151 13.9114C11.1617 13.9279 11.1715 13.945 11.1815 13.9616C11.2623 14.0945 11.3361 14.2223 11.4021 14.3418C11.4343 14.4022 11.4662 14.4593 11.4948 14.515C11.5228 14.5712 11.5493 14.6248 11.5728 14.6762C11.6204 14.7784 11.6601 14.8688 11.691 14.9445C11.7535 15.0953 11.7823 15.1865 11.7823 15.1865C11.7823 15.1865 11.7028 15.1346 11.5759 15.0348C11.4472 14.9361 11.2771 14.7868 11.0723 14.6054C10.9713 14.5139 10.8639 14.413 10.7532 14.304ZM12.478 9.59289C12.5076 9.50482 12.5457 9.39918 12.5914 9.27949C12.6381 9.16021 12.6909 9.02561 12.7484 8.8788C12.8076 8.73272 12.8743 8.57594 12.9478 8.41189C12.957 8.39134 12.9663 8.37075 12.9756 8.35L12.99 8.31895L12.9936 8.31119L12.9946 8.30923C12.9957 8.30715 12.9881 8.32067 12.9916 8.31405L12.9929 8.31042L12.9985 8.29579C13.0133 8.25699 13.0284 8.21765 13.0436 8.17794C13.07 8.09657 13.0992 8.01528 13.1224 7.92945C13.2197 7.58861 13.2794 7.20768 13.3231 6.80916C13.3685 6.41124 13.4018 5.99642 13.4717 5.59781C13.5063 5.39875 13.5511 5.20406 13.6076 5.02048C13.6639 4.83707 13.7367 4.66517 13.8206 4.51505C13.9058 4.36546 13.9981 4.23597 14.0973 4.13711C14.1203 4.11142 14.145 4.08842 14.1696 4.06706C14.1935 4.04532 14.217 4.02502 14.2395 4.00582C14.2878 3.9702 14.331 3.93826 14.372 3.91179C14.4151 3.88654 14.4531 3.8653 14.486 3.84786C14.5186 3.8305 14.548 3.82086 14.5712 3.81077C14.6184 3.79234 14.6437 3.78258 14.6437 3.78258C14.6437 3.78258 14.6273 3.80407 14.5966 3.84438C14.5817 3.86456 14.5605 3.88809 14.5401 3.91746C14.5207 3.94618 14.4984 3.97919 14.4734 4.01616C14.4512 4.05419 14.4267 4.09639 14.3999 4.14226C14.3788 4.19152 14.3491 4.23797 14.3287 4.29479C14.3176 4.322 14.306 4.35018 14.2942 4.37923C14.2845 4.40888 14.2743 4.4394 14.264 4.47073C14.253 4.50116 14.2455 4.53486 14.236 4.56758C14.2263 4.6003 14.2177 4.63413 14.2111 4.66991C14.1797 4.80978 14.1567 4.96366 14.1425 5.13098C14.1271 5.29785 14.1198 5.47722 14.1132 5.66607C14.1006 6.0436 14.0938 6.46104 14.0466 6.89053C14.0227 7.10491 13.9875 7.32239 13.9359 7.53571C13.8847 7.74906 13.8156 7.95813 13.7291 8.15376C13.6869 8.2518 13.6376 8.34571 13.587 8.43558C13.5599 8.47966 13.533 8.52324 13.5064 8.5663L13.4965 8.58235L13.494 8.58636L13.489 8.59489L13.4878 8.59665L13.4828 8.60367L13.4628 8.63149C13.4493 8.64984 13.4359 8.66805 13.4225 8.68623C13.3158 8.83108 13.2119 8.96638 13.1138 9.08999C13.0639 9.1513 13.0171 9.21066 12.9707 9.26601C12.9236 9.32103 12.8783 9.37307 12.8345 9.42107C12.7474 9.51748 12.6698 9.6002 12.604 9.66727C12.4731 9.80179 12.3911 9.87397 12.3911 9.87397C12.3911 9.87397 12.4183 9.76874 12.478 9.59289ZM13.8968 16.8346L13.8993 16.8323L13.9091 16.8233C13.9351 16.7995 13.9616 16.7754 13.9882 16.751C14.0392 16.6992 14.0925 16.649 14.143 16.5928C14.3477 16.3721 14.5417 16.1077 14.7336 15.8225C14.9267 15.5386 15.1198 15.2362 15.3372 14.9603C15.4454 14.8224 15.5604 14.6919 15.6801 14.5746C15.7997 14.4576 15.9278 14.3559 16.0555 14.2759C16.1841 14.1968 16.3099 14.1366 16.428 14.1031C16.4567 14.0932 16.4854 14.0862 16.5133 14.0803C16.5409 14.0738 16.5675 14.0684 16.5929 14.0634C16.645 14.0568 16.6917 14.051 16.7344 14.0485C16.7782 14.0477 16.8162 14.0479 16.8488 14.049C16.881 14.0499 16.9074 14.0554 16.9293 14.0579C16.9731 14.0647 16.9964 14.0682 16.9964 14.0682C16.9964 14.0682 16.9755 14.0791 16.9361 14.0994C16.9168 14.1097 16.8913 14.1202 16.8643 14.1357C16.8385 14.151 16.8088 14.1684 16.7756 14.188C16.7442 14.2094 16.7094 14.233 16.6715 14.2587C16.6366 14.2891 16.5965 14.3139 16.5596 14.3502C16.4823 14.4154 16.4059 14.4998 16.3293 14.5945C16.2528 14.6898 16.1771 14.7986 16.1023 14.921C16.0268 15.0426 15.9521 15.1769 15.8735 15.3188C15.7167 15.6026 15.5458 15.9198 15.3365 16.2307C15.2317 16.3857 15.1164 16.5388 14.9896 16.682C14.8631 16.8254 14.7238 16.9583 14.5763 17.0732C14.5032 17.1313 14.4263 17.1835 14.3498 17.2315C14.3106 17.2542 14.2718 17.2766 14.2334 17.2988L14.2191 17.307L14.2155 17.309C14.2207 17.3056 14.2064 17.3148 14.2073 17.3142L14.2057 17.315L14.199 17.3182L14.1724 17.3312C14.1548 17.3399 14.1368 17.3477 14.1192 17.356C13.9782 17.4216 13.843 17.4808 13.7169 17.5333C13.6534 17.5587 13.5931 17.5841 13.5346 17.6063C13.4756 17.628 13.4194 17.6484 13.3658 17.666C13.2589 17.702 13.1647 17.7315 13.0861 17.7539C12.9292 17.7994 12.8355 17.818 12.8355 17.818C12.8355 17.818 12.8958 17.7447 13.009 17.6296C13.1214 17.5126 13.2885 17.3599 13.4914 17.1765C13.5935 17.0861 13.7056 16.9906 13.8261 16.8925C13.8412 16.8802 13.856 16.8674 13.8716 16.8554L13.8948 16.8371L13.9007 16.8325L13.9021 16.8314C13.9039 16.8302 13.8907 16.8386 13.8968 16.8346Z" fill="#F8AE6A"/>
</g>
<defs>
<clipPath id="clip0">
<rect width="25" height="25" fill="white"/>
</clipPath>
</defs>
</svg>
