<svg width="231" height="792" viewBox="0 0 231 792" fill="none" xmlns="http://www.w3.org/2000/svg">
<path d="M176.924 143C176.924 192.112 137.112 231.924 88 231.924C38.8885 231.924 -0.924213 192.112 -0.924213 143C-0.924213 93.8886 38.8885 54.0759 88 54.0759C137.112 54.0759 176.924 93.8886 176.924 143ZM88 232.924C137.664 232.924 177.924 192.664 177.924 143C177.924 93.3363 137.664 53.0759 88 53.0759C38.3362 53.0759 -1.92421 93.3363 -1.92421 143C-1.92421 192.664 38.3362 232.924 88 232.924ZM203.712 143C203.712 206.906 151.906 258.712 88 258.712C24.0939 258.712 -27.7121 206.906 -27.7121 143C-27.7121 79.094 24.0939 27.2879 88 27.2879C151.906 27.2879 203.712 79.094 203.712 143ZM88 259.712C152.458 259.712 204.712 207.458 204.712 143C204.712 78.5417 152.458 26.2879 88 26.2879C23.5416 26.2879 -28.7121 78.5417 -28.7121 143C-28.7121 207.458 23.5416 259.712 88 259.712ZM230.5 143C230.5 221.701 166.701 285.5 88 285.5C9.29942 285.5 -54.5 221.701 -54.5 143C-54.5 64.2994 9.29942 0.5 88 0.5C166.701 0.5 230.5 64.2994 230.5 143Z" stroke="black" stroke-opacity="0.15"/>
<path d="M-34.3043 722.848C-34.3043 726.077 -36.9225 728.696 -40.1522 728.696C-43.3818 728.696 -46 726.077 -46 722.848C-46 719.618 -43.3818 717 -40.1522 717C-36.9225 717 -34.3043 719.618 -34.3043 722.848Z" fill="black" fill-opacity="0.1"/>
<path d="M-10.913 722.848C-10.913 726.077 -13.5312 728.696 -16.7609 728.696C-19.9905 728.696 -22.6087 726.077 -22.6087 722.848C-22.6087 719.618 -19.9905 717 -16.7609 717C-13.5312 717 -10.913 719.618 -10.913 722.848Z" fill="black" fill-opacity="0.1"/>
<path d="M12.4783 722.848C12.4783 726.077 9.8601 728.696 6.63043 728.696C3.40077 728.696 0.782608 726.077 0.782608 722.848C0.782608 719.618 3.40077 717 6.63043 717C9.8601 717 12.4783 719.618 12.4783 722.848Z" fill="black" fill-opacity="0.1"/>
<path d="M35.8696 722.848C35.8696 726.077 33.2514 728.696 30.0217 728.696C26.7921 728.696 24.1739 726.077 24.1739 722.848C24.1739 719.618 26.7921 717 30.0217 717C33.2514 717 35.8696 719.618 35.8696 722.848Z" fill="black" fill-opacity="0.1"/>
<path d="M59.2609 722.848C59.2609 726.077 56.6427 728.696 53.413 728.696C50.1834 728.696 47.5652 726.077 47.5652 722.848C47.5652 719.618 50.1834 717 53.413 717C56.6427 717 59.2609 719.618 59.2609 722.848Z" fill="black" fill-opacity="0.1"/>
<path d="M82.6522 722.848C82.6522 726.077 80.034 728.696 76.8043 728.696C73.5747 728.696 70.9565 726.077 70.9565 722.848C70.9565 719.618 73.5747 717 76.8043 717C80.034 717 82.6522 719.618 82.6522 722.848Z" fill="black" fill-opacity="0.1"/>
<path d="M106.043 722.848C106.043 726.077 103.425 728.696 100.196 728.696C96.966 728.696 94.3478 726.077 94.3478 722.848C94.3478 719.618 96.966 717 100.196 717C103.425 717 106.043 719.618 106.043 722.848Z" fill="black" fill-opacity="0.1"/>
<path d="M129.435 722.848C129.435 726.077 126.817 728.696 123.587 728.696C120.357 728.696 117.739 726.077 117.739 722.848C117.739 719.618 120.357 717 123.587 717C126.817 717 129.435 719.618 129.435 722.848Z" fill="black" fill-opacity="0.1"/>
<path d="M152.826 722.848C152.826 726.077 150.208 728.696 146.978 728.696C143.749 728.696 141.13 726.077 141.13 722.848C141.13 719.618 143.749 717 146.978 717C150.208 717 152.826 719.618 152.826 722.848Z" fill="black" fill-opacity="0.1"/>
<path d="M176.217 722.848C176.217 726.077 173.599 728.696 170.37 728.696C167.14 728.696 164.522 726.077 164.522 722.848C164.522 719.618 167.14 717 170.37 717C173.599 717 176.217 719.618 176.217 722.848Z" fill="black" fill-opacity="0.1"/>
<path d="M199.609 722.848C199.609 726.077 196.991 728.696 193.761 728.696C190.531 728.696 187.913 726.077 187.913 722.848C187.913 719.618 190.531 717 193.761 717C196.991 717 199.609 719.618 199.609 722.848Z" fill="black" fill-opacity="0.1"/>
<path d="M223 722.848C223 726.077 220.382 728.696 217.152 728.696C213.923 728.696 211.304 726.077 211.304 722.848C211.304 719.618 213.923 717 217.152 717C220.382 717 223 719.618 223 722.848Z" fill="black" fill-opacity="0.1"/>
<path d="M-34.3043 743.9C-34.3043 747.13 -36.9225 749.748 -40.1522 749.748C-43.3818 749.748 -46 747.13 -46 743.9C-46 740.67 -43.3818 738.052 -40.1522 738.052C-36.9225 738.052 -34.3043 740.67 -34.3043 743.9Z" fill="black" fill-opacity="0.1"/>
<path d="M-10.913 743.9C-10.913 747.13 -13.5312 749.748 -16.7609 749.748C-19.9905 749.748 -22.6087 747.13 -22.6087 743.9C-22.6087 740.67 -19.9905 738.052 -16.7609 738.052C-13.5312 738.052 -10.913 740.67 -10.913 743.9Z" fill="black" fill-opacity="0.1"/>
<path d="M12.4783 743.9C12.4783 747.13 9.8601 749.748 6.63043 749.748C3.40077 749.748 0.782608 747.13 0.782608 743.9C0.782608 740.67 3.40077 738.052 6.63043 738.052C9.8601 738.052 12.4783 740.67 12.4783 743.9Z" fill="black" fill-opacity="0.1"/>
<path d="M35.8696 743.9C35.8696 747.13 33.2514 749.748 30.0217 749.748C26.7921 749.748 24.1739 747.13 24.1739 743.9C24.1739 740.67 26.7921 738.052 30.0217 738.052C33.2514 738.052 35.8696 740.67 35.8696 743.9Z" fill="black" fill-opacity="0.1"/>
<path d="M59.2609 743.9C59.2609 747.13 56.6427 749.748 53.413 749.748C50.1834 749.748 47.5652 747.13 47.5652 743.9C47.5652 740.67 50.1834 738.052 53.413 738.052C56.6427 738.052 59.2609 740.67 59.2609 743.9Z" fill="black" fill-opacity="0.1"/>
<path d="M82.6522 743.9C82.6522 747.13 80.034 749.748 76.8043 749.748C73.5747 749.748 70.9565 747.13 70.9565 743.9C70.9565 740.67 73.5747 738.052 76.8043 738.052C80.034 738.052 82.6522 740.67 82.6522 743.9Z" fill="black" fill-opacity="0.1"/>
<path d="M106.043 743.9C106.043 747.13 103.425 749.748 100.196 749.748C96.966 749.748 94.3478 747.13 94.3478 743.9C94.3478 740.67 96.966 738.052 100.196 738.052C103.425 738.052 106.043 740.67 106.043 743.9Z" fill="black" fill-opacity="0.1"/>
<path d="M129.435 743.9C129.435 747.13 126.817 749.748 123.587 749.748C120.357 749.748 117.739 747.13 117.739 743.9C117.739 740.67 120.357 738.052 123.587 738.052C126.817 738.052 129.435 740.67 129.435 743.9Z" fill="black" fill-opacity="0.1"/>
<path d="M152.826 743.9C152.826 747.13 150.208 749.748 146.978 749.748C143.749 749.748 141.13 747.13 141.13 743.9C141.13 740.67 143.749 738.052 146.978 738.052C150.208 738.052 152.826 740.67 152.826 743.9Z" fill="black" fill-opacity="0.1"/>
<path d="M176.217 743.9C176.217 747.13 173.599 749.748 170.37 749.748C167.14 749.748 164.522 747.13 164.522 743.9C164.522 740.67 167.14 738.052 170.37 738.052C173.599 738.052 176.217 740.67 176.217 743.9Z" fill="black" fill-opacity="0.1"/>
<path d="M199.609 743.9C199.609 747.13 196.991 749.748 193.761 749.748C190.531 749.748 187.913 747.13 187.913 743.9C187.913 740.67 190.531 738.052 193.761 738.052C196.991 738.052 199.609 740.67 199.609 743.9Z" fill="black" fill-opacity="0.1"/>
<path d="M223 743.9C223 747.13 220.382 749.748 217.152 749.748C213.923 749.748 211.304 747.13 211.304 743.9C211.304 740.67 213.923 738.052 217.152 738.052C220.382 738.052 223 740.67 223 743.9Z" fill="black" fill-opacity="0.1"/>
<path d="M-34.3043 764.952C-34.3043 768.182 -36.9225 770.8 -40.1522 770.8C-43.3818 770.8 -46 768.182 -46 764.952C-46 761.723 -43.3818 759.104 -40.1522 759.104C-36.9225 759.104 -34.3043 761.723 -34.3043 764.952Z" fill="black" fill-opacity="0.1"/>
<path d="M-10.913 764.952C-10.913 768.182 -13.5312 770.8 -16.7609 770.8C-19.9905 770.8 -22.6087 768.182 -22.6087 764.952C-22.6087 761.723 -19.9905 759.104 -16.7609 759.104C-13.5312 759.104 -10.913 761.723 -10.913 764.952Z" fill="black" fill-opacity="0.1"/>
<path d="M12.4783 764.952C12.4783 768.182 9.8601 770.8 6.63043 770.8C3.40077 770.8 0.782608 768.182 0.782608 764.952C0.782608 761.723 3.40077 759.104 6.63043 759.104C9.8601 759.104 12.4783 761.723 12.4783 764.952Z" fill="black" fill-opacity="0.1"/>
<path d="M35.8696 764.952C35.8696 768.182 33.2514 770.8 30.0217 770.8C26.7921 770.8 24.1739 768.182 24.1739 764.952C24.1739 761.723 26.7921 759.104 30.0217 759.104C33.2514 759.104 35.8696 761.723 35.8696 764.952Z" fill="black" fill-opacity="0.1"/>
<path d="M59.2609 764.952C59.2609 768.182 56.6427 770.8 53.413 770.8C50.1834 770.8 47.5652 768.182 47.5652 764.952C47.5652 761.723 50.1834 759.104 53.413 759.104C56.6427 759.104 59.2609 761.723 59.2609 764.952Z" fill="black" fill-opacity="0.1"/>
<path d="M82.6522 764.952C82.6522 768.182 80.034 770.8 76.8043 770.8C73.5747 770.8 70.9565 768.182 70.9565 764.952C70.9565 761.723 73.5747 759.104 76.8043 759.104C80.034 759.104 82.6522 761.723 82.6522 764.952Z" fill="black" fill-opacity="0.1"/>
<path d="M106.043 764.952C106.043 768.182 103.425 770.8 100.196 770.8C96.966 770.8 94.3478 768.182 94.3478 764.952C94.3478 761.723 96.966 759.104 100.196 759.104C103.425 759.104 106.043 761.723 106.043 764.952Z" fill="black" fill-opacity="0.1"/>
<path d="M129.435 764.952C129.435 768.182 126.817 770.8 123.587 770.8C120.357 770.8 117.739 768.182 117.739 764.952C117.739 761.723 120.357 759.104 123.587 759.104C126.817 759.104 129.435 761.723 129.435 764.952Z" fill="black" fill-opacity="0.1"/>
<path d="M152.826 764.952C152.826 768.182 150.208 770.8 146.978 770.8C143.749 770.8 141.13 768.182 141.13 764.952C141.13 761.723 143.749 759.104 146.978 759.104C150.208 759.104 152.826 761.723 152.826 764.952Z" fill="black" fill-opacity="0.1"/>
<path d="M176.217 764.952C176.217 768.182 173.599 770.8 170.37 770.8C167.14 770.8 164.522 768.182 164.522 764.952C164.522 761.723 167.14 759.104 170.37 759.104C173.599 759.104 176.217 761.723 176.217 764.952Z" fill="black" fill-opacity="0.1"/>
<path d="M199.609 764.952C199.609 768.182 196.991 770.8 193.761 770.8C190.531 770.8 187.913 768.182 187.913 764.952C187.913 761.723 190.531 759.104 193.761 759.104C196.991 759.104 199.609 761.723 199.609 764.952Z" fill="black" fill-opacity="0.1"/>
<path d="M223 764.952C223 768.182 220.382 770.8 217.152 770.8C213.923 770.8 211.304 768.182 211.304 764.952C211.304 761.723 213.923 759.104 217.152 759.104C220.382 759.104 223 761.723 223 764.952Z" fill="black" fill-opacity="0.1"/>
<path d="M-34.3043 786.004C-34.3043 789.234 -36.9225 791.852 -40.1522 791.852C-43.3818 791.852 -46 789.234 -46 786.004C-46 782.775 -43.3818 780.157 -40.1522 780.157C-36.9225 780.157 -34.3043 782.775 -34.3043 786.004Z" fill="black" fill-opacity="0.1"/>
<path d="M-10.913 786.004C-10.913 789.234 -13.5312 791.852 -16.7609 791.852C-19.9905 791.852 -22.6087 789.234 -22.6087 786.004C-22.6087 782.775 -19.9905 780.157 -16.7609 780.157C-13.5312 780.157 -10.913 782.775 -10.913 786.004Z" fill="black" fill-opacity="0.1"/>
<path d="M12.4783 786.004C12.4783 789.234 9.8601 791.852 6.63043 791.852C3.40077 791.852 0.782608 789.234 0.782608 786.004C0.782608 782.775 3.40077 780.157 6.63043 780.157C9.8601 780.157 12.4783 782.775 12.4783 786.004Z" fill="black" fill-opacity="0.1"/>
<path d="M35.8696 786.004C35.8696 789.234 33.2514 791.852 30.0217 791.852C26.7921 791.852 24.1739 789.234 24.1739 786.004C24.1739 782.775 26.7921 780.157 30.0217 780.157C33.2514 780.157 35.8696 782.775 35.8696 786.004Z" fill="black" fill-opacity="0.1"/>
<path d="M59.2609 786.004C59.2609 789.234 56.6427 791.852 53.413 791.852C50.1834 791.852 47.5652 789.234 47.5652 786.004C47.5652 782.775 50.1834 780.157 53.413 780.157C56.6427 780.157 59.2609 782.775 59.2609 786.004Z" fill="black" fill-opacity="0.1"/>
<path d="M82.6522 786.004C82.6522 789.234 80.034 791.852 76.8043 791.852C73.5747 791.852 70.9565 789.234 70.9565 786.004C70.9565 782.775 73.5747 780.157 76.8043 780.157C80.034 780.157 82.6522 782.775 82.6522 786.004Z" fill="black" fill-opacity="0.1"/>
<path d="M106.043 786.004C106.043 789.234 103.425 791.852 100.196 791.852C96.966 791.852 94.3478 789.234 94.3478 786.004C94.3478 782.775 96.966 780.157 100.196 780.157C103.425 780.157 106.043 782.775 106.043 786.004Z" fill="black" fill-opacity="0.1"/>
<path d="M129.435 786.004C129.435 789.234 126.817 791.852 123.587 791.852C120.357 791.852 117.739 789.234 117.739 786.004C117.739 782.775 120.357 780.157 123.587 780.157C126.817 780.157 129.435 782.775 129.435 786.004Z" fill="black" fill-opacity="0.1"/>
<path d="M152.826 786.004C152.826 789.234 150.208 791.852 146.978 791.852C143.749 791.852 141.13 789.234 141.13 786.004C141.13 782.775 143.749 780.157 146.978 780.157C150.208 780.157 152.826 782.775 152.826 786.004Z" fill="black" fill-opacity="0.1"/>
<path d="M176.217 786.004C176.217 789.234 173.599 791.852 170.37 791.852C167.14 791.852 164.522 789.234 164.522 786.004C164.522 782.775 167.14 780.157 170.37 780.157C173.599 780.157 176.217 782.775 176.217 786.004Z" fill="black" fill-opacity="0.1"/>
<path d="M199.609 786.004C199.609 789.234 196.991 791.852 193.761 791.852C190.531 791.852 187.913 789.234 187.913 786.004C187.913 782.775 190.531 780.157 193.761 780.157C196.991 780.157 199.609 782.775 199.609 786.004Z" fill="black" fill-opacity="0.1"/>
<path d="M223 786.004C223 789.234 220.382 791.852 217.152 791.852C213.923 791.852 211.304 789.234 211.304 786.004C211.304 782.775 213.923 780.157 217.152 780.157C220.382 780.157 223 782.775 223 786.004Z" fill="black" fill-opacity="0.1"/>
</svg>
