<svg width="62" height="206" viewBox="0 0 62 206" fill="none" xmlns="http://www.w3.org/2000/svg">
<path d="M56.0044 11.6957C52.7747 11.6957 50.1565 9.07749 50.1565 5.84783C50.1565 2.61816 52.7747 2.61949e-06 56.0044 2.76066e-06C59.234 2.90183e-06 61.8522 2.61816 61.8522 5.84783C61.8522 9.07749 59.234 11.6957 56.0044 11.6957Z" fill="black" fill-opacity="0.1"/>
<path d="M56.0044 35.087C52.7747 35.087 50.1565 32.4688 50.1565 29.2391C50.1565 26.0095 52.7747 23.3913 56.0044 23.3913C59.234 23.3913 61.8522 26.0095 61.8522 29.2391C61.8522 32.4688 59.234 35.087 56.0044 35.087Z" fill="black" fill-opacity="0.1"/>
<path d="M56.0044 58.4783C52.7747 58.4783 50.1565 55.8601 50.1565 52.6304C50.1565 49.4008 52.7747 46.7826 56.0044 46.7826C59.234 46.7826 61.8522 49.4008 61.8522 52.6304C61.8522 55.8601 59.234 58.4783 56.0044 58.4783Z" fill="black" fill-opacity="0.1"/>
<path d="M56.0044 81.8696C52.7747 81.8696 50.1565 79.2514 50.1565 76.0217C50.1565 72.7921 52.7747 70.1739 56.0044 70.1739C59.234 70.1739 61.8522 72.7921 61.8522 76.0217C61.8522 79.2514 59.234 81.8696 56.0044 81.8696Z" fill="black" fill-opacity="0.1"/>
<path d="M56.0044 105.261C52.7747 105.261 50.1565 102.643 50.1565 99.413C50.1565 96.1834 52.7747 93.5652 56.0044 93.5652C59.234 93.5652 61.8522 96.1834 61.8522 99.413C61.8522 102.643 59.234 105.261 56.0044 105.261Z" fill="black" fill-opacity="0.1"/>
<path d="M56.0044 128.652C52.7747 128.652 50.1565 126.034 50.1565 122.804C50.1565 119.575 52.7747 116.957 56.0044 116.957C59.234 116.957 61.8522 119.575 61.8522 122.804C61.8522 126.034 59.234 128.652 56.0044 128.652Z" fill="black" fill-opacity="0.1"/>
<path d="M56.0043 152.043C52.7747 152.043 50.1565 149.425 50.1565 146.196C50.1565 142.966 52.7747 140.348 56.0043 140.348C59.234 140.348 61.8522 142.966 61.8522 146.196C61.8522 149.425 59.234 152.043 56.0043 152.043Z" fill="black" fill-opacity="0.1"/>
<path d="M56.0043 175.435C52.7747 175.435 50.1565 172.817 50.1565 169.587C50.1565 166.357 52.7747 163.739 56.0043 163.739C59.234 163.739 61.8522 166.357 61.8522 169.587C61.8522 172.817 59.234 175.435 56.0043 175.435Z" fill="black" fill-opacity="0.1"/>
<path d="M56.0043 198.826C52.7747 198.826 50.1565 196.208 50.1565 192.978C50.1565 189.749 52.7747 187.13 56.0043 187.13C59.234 187.13 61.8522 189.749 61.8522 192.978C61.8522 196.208 59.234 198.826 56.0043 198.826Z" fill="black" fill-opacity="0.1"/>
<path d="M56.0043 222.217C52.7747 222.217 50.1565 219.599 50.1565 216.37C50.1565 213.14 52.7747 210.522 56.0043 210.522C59.234 210.522 61.8522 213.14 61.8522 216.37C61.8522 219.599 59.234 222.217 56.0043 222.217Z" fill="black" fill-opacity="0.1"/>
<path d="M56.0043 245.609C52.7747 245.609 50.1565 242.991 50.1565 239.761C50.1565 236.531 52.7747 233.913 56.0043 233.913C59.234 233.913 61.8522 236.531 61.8522 239.761C61.8522 242.991 59.234 245.609 56.0043 245.609Z" fill="black" fill-opacity="0.1"/>
<path d="M56.0043 269C52.7747 269 50.1565 266.382 50.1565 263.152C50.1565 259.923 52.7747 257.304 56.0043 257.304C59.234 257.304 61.8522 259.923 61.8522 263.152C61.8522 266.382 59.234 269 56.0043 269Z" fill="black" fill-opacity="0.1"/>
<path d="M34.9522 11.6957C31.7225 11.6957 29.1044 9.07749 29.1044 5.84783C29.1044 2.61816 31.7225 1.69927e-06 34.9522 1.84044e-06C38.1819 1.98161e-06 40.8 2.61816 40.8 5.84783C40.8 9.07749 38.1818 11.6957 34.9522 11.6957Z" fill="black" fill-opacity="0.1"/>
<path d="M34.9522 35.087C31.7225 35.087 29.1044 32.4688 29.1044 29.2391C29.1044 26.0095 31.7225 23.3913 34.9522 23.3913C38.1818 23.3913 40.8 26.0095 40.8 29.2391C40.8 32.4688 38.1818 35.087 34.9522 35.087Z" fill="black" fill-opacity="0.1"/>
<path d="M34.9522 58.4783C31.7225 58.4783 29.1044 55.8601 29.1044 52.6304C29.1044 49.4008 31.7225 46.7826 34.9522 46.7826C38.1818 46.7826 40.8 49.4008 40.8 52.6304C40.8 55.8601 38.1818 58.4783 34.9522 58.4783Z" fill="black" fill-opacity="0.1"/>
<path d="M34.9522 81.8696C31.7225 81.8696 29.1044 79.2514 29.1044 76.0217C29.1044 72.7921 31.7225 70.1739 34.9522 70.1739C38.1818 70.1739 40.8 72.7921 40.8 76.0217C40.8 79.2514 38.1818 81.8696 34.9522 81.8696Z" fill="black" fill-opacity="0.1"/>
<path d="M34.9522 105.261C31.7225 105.261 29.1044 102.643 29.1044 99.413C29.1044 96.1834 31.7225 93.5652 34.9522 93.5652C38.1818 93.5652 40.8 96.1834 40.8 99.413C40.8 102.643 38.1818 105.261 34.9522 105.261Z" fill="black" fill-opacity="0.1"/>
<path d="M34.9522 128.652C31.7225 128.652 29.1044 126.034 29.1044 122.804C29.1044 119.575 31.7225 116.957 34.9522 116.957C38.1818 116.957 40.8 119.575 40.8 122.804C40.8 126.034 38.1818 128.652 34.9522 128.652Z" fill="black" fill-opacity="0.1"/>
<path d="M34.9522 152.043C31.7225 152.043 29.1044 149.425 29.1044 146.196C29.1044 142.966 31.7225 140.348 34.9522 140.348C38.1818 140.348 40.8 142.966 40.8 146.196C40.8 149.425 38.1818 152.043 34.9522 152.043Z" fill="black" fill-opacity="0.1"/>
<path d="M34.9522 175.435C31.7225 175.435 29.1044 172.817 29.1044 169.587C29.1044 166.357 31.7225 163.739 34.9522 163.739C38.1818 163.739 40.8 166.357 40.8 169.587C40.8 172.817 38.1818 175.435 34.9522 175.435Z" fill="black" fill-opacity="0.1"/>
<path d="M34.9522 198.826C31.7225 198.826 29.1044 196.208 29.1044 192.978C29.1044 189.749 31.7225 187.13 34.9522 187.13C38.1818 187.13 40.8 189.749 40.8 192.978C40.8 196.208 38.1818 198.826 34.9522 198.826Z" fill="black" fill-opacity="0.1"/>
<path d="M34.9522 222.217C31.7225 222.217 29.1044 219.599 29.1044 216.37C29.1044 213.14 31.7225 210.522 34.9522 210.522C38.1818 210.522 40.8 213.14 40.8 216.37C40.8 219.599 38.1818 222.217 34.9522 222.217Z" fill="black" fill-opacity="0.1"/>
<path d="M34.9522 245.609C31.7225 245.609 29.1043 242.991 29.1043 239.761C29.1043 236.531 31.7225 233.913 34.9522 233.913C38.1818 233.913 40.8 236.531 40.8 239.761C40.8 242.991 38.1818 245.609 34.9522 245.609Z" fill="black" fill-opacity="0.1"/>
<path d="M34.9522 269C31.7225 269 29.1043 266.382 29.1043 263.152C29.1043 259.923 31.7225 257.304 34.9522 257.304C38.1818 257.304 40.8 259.923 40.8 263.152C40.8 266.382 38.1818 269 34.9522 269Z" fill="black" fill-opacity="0.1"/>
<path d="M13.9 11.6957C10.6703 11.6957 8.05218 9.07749 8.05219 5.84783C8.05219 2.61816 10.6703 7.79046e-07 13.9 9.20219e-07C17.1297 1.06139e-06 19.7478 2.61816 19.7478 5.84783C19.7478 9.07749 17.1297 11.6957 13.9 11.6957Z" fill="black" fill-opacity="0.1"/>
<path d="M13.9 35.087C10.6703 35.087 8.05218 32.4688 8.05218 29.2391C8.05218 26.0095 10.6703 23.3913 13.9 23.3913C17.1297 23.3913 19.7478 26.0095 19.7478 29.2391C19.7478 32.4688 17.1297 35.087 13.9 35.087Z" fill="black" fill-opacity="0.1"/>
<path d="M13.9 58.4783C10.6703 58.4783 8.05218 55.8601 8.05218 52.6304C8.05218 49.4008 10.6703 46.7826 13.9 46.7826C17.1297 46.7826 19.7478 49.4008 19.7478 52.6304C19.7478 55.8601 17.1297 58.4783 13.9 58.4783Z" fill="black" fill-opacity="0.1"/>
<path d="M13.9 81.8696C10.6703 81.8696 8.05218 79.2514 8.05218 76.0217C8.05218 72.7921 10.6703 70.1739 13.9 70.1739C17.1297 70.1739 19.7478 72.7921 19.7478 76.0217C19.7478 79.2514 17.1297 81.8696 13.9 81.8696Z" fill="black" fill-opacity="0.1"/>
<path d="M13.9 105.261C10.6703 105.261 8.05218 102.643 8.05218 99.413C8.05218 96.1834 10.6703 93.5652 13.9 93.5652C17.1297 93.5652 19.7478 96.1834 19.7478 99.413C19.7478 102.643 17.1297 105.261 13.9 105.261Z" fill="black" fill-opacity="0.1"/>
<path d="M13.9 128.652C10.6703 128.652 8.05218 126.034 8.05218 122.804C8.05218 119.575 10.6703 116.957 13.9 116.957C17.1297 116.957 19.7478 119.575 19.7478 122.804C19.7478 126.034 17.1297 128.652 13.9 128.652Z" fill="black" fill-opacity="0.1"/>
<path d="M13.9 152.043C10.6703 152.043 8.05218 149.425 8.05218 146.196C8.05218 142.966 10.6703 140.348 13.9 140.348C17.1297 140.348 19.7478 142.966 19.7478 146.196C19.7478 149.425 17.1297 152.043 13.9 152.043Z" fill="black" fill-opacity="0.1"/>
<path d="M13.9 175.435C10.6703 175.435 8.05218 172.817 8.05218 169.587C8.05218 166.357 10.6703 163.739 13.9 163.739C17.1297 163.739 19.7478 166.357 19.7478 169.587C19.7478 172.817 17.1297 175.435 13.9 175.435Z" fill="black" fill-opacity="0.1"/>
<path d="M13.9 198.826C10.6703 198.826 8.05218 196.208 8.05218 192.978C8.05218 189.749 10.6703 187.13 13.9 187.13C17.1297 187.13 19.7478 189.749 19.7478 192.978C19.7478 196.208 17.1297 198.826 13.9 198.826Z" fill="black" fill-opacity="0.1"/>
<path d="M13.9 222.217C10.6703 222.217 8.05218 219.599 8.05218 216.37C8.05218 213.14 10.6703 210.522 13.9 210.522C17.1297 210.522 19.7478 213.14 19.7478 216.37C19.7478 219.599 17.1297 222.217 13.9 222.217Z" fill="black" fill-opacity="0.1"/>
<path d="M13.9 245.609C10.6703 245.609 8.05218 242.991 8.05218 239.761C8.05218 236.531 10.6703 233.913 13.9 233.913C17.1297 233.913 19.7478 236.531 19.7478 239.761C19.7478 242.991 17.1297 245.609 13.9 245.609Z" fill="black" fill-opacity="0.1"/>
<path d="M13.9 269C10.6703 269 8.05217 266.382 8.05217 263.152C8.05217 259.923 10.6703 257.304 13.9 257.304C17.1297 257.304 19.7478 259.923 19.7478 263.152C19.7478 266.382 17.1297 269 13.9 269Z" fill="black" fill-opacity="0.1"/>
<path d="M-7.15216 11.6957C-10.3818 11.6957 -13 9.07749 -13 5.84783C-13 2.61816 -10.3818 -1.41173e-07 -7.15216 0C-3.9225 1.41173e-07 -1.30434 2.61816 -1.30434 5.84783C-1.30434 9.07749 -3.9225 11.6957 -7.15216 11.6957Z" fill="black" fill-opacity="0.1"/>
<path d="M-7.15216 35.087C-10.3818 35.087 -13 32.4688 -13 29.2391C-13 26.0095 -10.3818 23.3913 -7.15216 23.3913C-3.9225 23.3913 -1.30434 26.0095 -1.30434 29.2391C-1.30434 32.4688 -3.9225 35.087 -7.15216 35.087Z" fill="black" fill-opacity="0.1"/>
<path d="M-7.15216 58.4783C-10.3818 58.4783 -13 55.8601 -13 52.6304C-13 49.4008 -10.3818 46.7826 -7.15216 46.7826C-3.9225 46.7826 -1.30434 49.4008 -1.30434 52.6304C-1.30434 55.8601 -3.9225 58.4783 -7.15216 58.4783Z" fill="black" fill-opacity="0.1"/>
<path d="M-7.15217 81.8696C-10.3818 81.8696 -13 79.2514 -13 76.0217C-13 72.7921 -10.3818 70.1739 -7.15217 70.1739C-3.9225 70.1739 -1.30434 72.7921 -1.30434 76.0217C-1.30434 79.2514 -3.9225 81.8696 -7.15217 81.8696Z" fill="black" fill-opacity="0.1"/>
<path d="M-7.15217 105.261C-10.3818 105.261 -13 102.643 -13 99.413C-13 96.1834 -10.3818 93.5652 -7.15217 93.5652C-3.9225 93.5652 -1.30434 96.1834 -1.30434 99.413C-1.30434 102.643 -3.9225 105.261 -7.15217 105.261Z" fill="black" fill-opacity="0.1"/>
<path d="M-7.15217 128.652C-10.3818 128.652 -13 126.034 -13 122.804C-13 119.575 -10.3818 116.957 -7.15217 116.957C-3.9225 116.957 -1.30434 119.575 -1.30434 122.804C-1.30434 126.034 -3.9225 128.652 -7.15217 128.652Z" fill="black" fill-opacity="0.1"/>
<path d="M-7.15217 152.043C-10.3818 152.043 -13 149.425 -13 146.196C-13 142.966 -10.3818 140.348 -7.15217 140.348C-3.9225 140.348 -1.30434 142.966 -1.30434 146.196C-1.30434 149.425 -3.9225 152.043 -7.15217 152.043Z" fill="black" fill-opacity="0.1"/>
<path d="M-7.15217 175.435C-10.3818 175.435 -13 172.817 -13 169.587C-13 166.357 -10.3818 163.739 -7.15217 163.739C-3.9225 163.739 -1.30434 166.357 -1.30434 169.587C-1.30434 172.817 -3.92251 175.435 -7.15217 175.435Z" fill="black" fill-opacity="0.1"/>
<path d="M-7.15217 198.826C-10.3818 198.826 -13 196.208 -13 192.978C-13 189.749 -10.3818 187.13 -7.15217 187.13C-3.92251 187.13 -1.30434 189.749 -1.30435 192.978C-1.30435 196.208 -3.92251 198.826 -7.15217 198.826Z" fill="black" fill-opacity="0.1"/>
<path d="M-7.15217 222.217C-10.3818 222.217 -13 219.599 -13 216.37C-13 213.14 -10.3818 210.522 -7.15217 210.522C-3.92251 210.522 -1.30435 213.14 -1.30435 216.37C-1.30435 219.599 -3.92251 222.217 -7.15217 222.217Z" fill="black" fill-opacity="0.1"/>
<path d="M-7.15217 245.609C-10.3818 245.609 -13 242.991 -13 239.761C-13 236.531 -10.3818 233.913 -7.15217 233.913C-3.92251 233.913 -1.30435 236.531 -1.30435 239.761C-1.30435 242.991 -3.92251 245.609 -7.15217 245.609Z" fill="black" fill-opacity="0.1"/>
<path d="M-7.15217 269C-10.3818 269 -13 266.382 -13 263.152C-13 259.923 -10.3818 257.304 -7.15217 257.304C-3.92251 257.304 -1.30435 259.923 -1.30435 263.152C-1.30435 266.382 -3.92251 269 -7.15217 269Z" fill="black" fill-opacity="0.1"/>
</svg>
