<svg width="79" height="144" viewBox="0 0 79 144" fill="none" xmlns="http://www.w3.org/2000/svg">
<path d="M116.525 72C116.525 96.5904 96.5909 116.525 72.0005 116.525C47.4102 116.525 27.4757 96.5904 27.4757 72C27.4757 47.4096 47.4102 27.4752 72.0005 27.4752C96.5909 27.4752 116.525 47.4096 116.525 72ZM72.0005 117.525C97.1432 117.525 117.525 97.1426 117.525 72C117.525 46.8573 97.1432 26.4752 72.0005 26.4752C46.8579 26.4752 26.4757 46.8573 26.4757 72C26.4757 97.1426 46.8579 117.525 72.0005 117.525ZM130.013 71.9998C130.013 104.039 104.04 130.012 72.0004 130.012C39.9611 130.012 13.9881 104.039 13.9881 71.9998C13.9881 39.9605 39.9611 13.9874 72.0004 13.9874C104.04 13.9874 130.013 39.9605 130.013 71.9998ZM72.0004 131.012C104.592 131.012 131.013 104.591 131.013 71.9998C131.013 39.4082 104.592 12.9874 72.0004 12.9874C39.4088 12.9874 12.9881 39.4082 12.9881 71.9998C12.9881 104.591 39.4088 131.012 72.0004 131.012ZM143.5 72C143.5 111.488 111.489 143.5 72.0005 143.5C32.5121 143.5 0.500488 111.488 0.500488 72C0.500488 32.5116 32.5121 0.5 72.0005 0.5C111.489 0.5 143.5 32.5116 143.5 72Z" stroke="black" stroke-opacity="0.15"/>
</svg>
