<svg width="190" height="149" viewBox="0 0 190 149" fill="none" xmlns="http://www.w3.org/2000/svg">
<path d="M43.5201 73.6376L44.4086 74.6565L43.7883 75.3593L42.3286 74.3679L43.5201 73.6376ZM28.6994 73.0487L29.0009 73.5178L27.1301 74.8903L27.3897 73.5726L28.6994 73.0487ZM55.0362 69.2907L55.5814 70.1133L53.4928 70.7093L53.7106 69.7872L55.0362 69.2907V69.2907ZM11.2291 45.7854L12.8561 46.3482L12.9398 47.1665L11.656 47.5114L11.7065 48.0281L10.6247 47.1737L11.5219 46.8461L11.2291 45.7854V45.7854ZM12.1594 43.8024L13.0321 44.4663L13.0148 45.3307L11.8147 44.5211L11.5204 43.8673L12.1594 43.8024V43.8024ZM8.65151 40.3301L9.31645 41.131L8.98038 42.8686L8.20869 42.3765L8.31831 41.2118L7.10237 42.3043L6.83409 41.9132L8.65151 40.3301V40.3301ZM8.93133 36.5157L8.90537 37.6818L7.37066 39.4381L7.52211 37.8174L8.93133 36.5157V36.5157ZM8.14955 35.5964L8.45967 36.3786L7.67212 36.852L7.49615 35.8778L8.14955 35.5964ZM5.19841 29.6821L6.38983 30.3474L7.24517 30.0184L6.16337 34.6294L3.8815 36.9616L2.6569 36.6802L3.21078 36.4075L2.62372 35.8417L1.68472 36.2068L1.92849 36.7177L1.05728 36.7452L1.20008 36.1896L0.351945 36.5258L0 35.6137L0.553881 34.8502L2.51554 34.7853L4.3272 32.3521L5.19841 29.6822V29.6821ZM4.02141 29.8871L4.16709 32.0057L2.83143 32.9596L2.82277 30.167L4.02141 29.8871V29.8871ZM9.36694 28.8335L9.97996 31.3404L7.58125 31.8411L8.15965 30.7025L7.89858 29.636L9.36694 28.8335V28.8335ZM6.00615 27.793L6.83264 27.8146L7.25382 29.5075L5.46525 29.3878L5.25466 28.6358L6.00615 27.793V27.793ZM7.71828 25.4089L7.7226 27.5376L5.76815 27.3355L4.94599 28.34L5.03253 26.7121L7.71828 25.4089V25.4089ZM10.4545 25.3295L11.1296 26.0121L11.9359 26.2099L9.98861 27.9936L9.19962 27.6733L9.28184 26.9589L10.6088 25.9847L10.4545 25.3295V25.3295ZM8.93133 23.5197L10.0304 25.7654L7.76588 28.2592L8.53179 25.5387L8.1409 24.9975L7.30431 25.3194L7.90002 23.9051L8.93133 23.5197ZM7.362 23.4287L6.75764 25.4189L4.78588 26.5244L4.56952 29.216L4.06612 29.6172L3.54686 29.0428L2.39727 30.0834L2.43044 33.4013L1.5751 33.7577L0.191839 32.1154L1.45105 30.6765L0.804859 28.7152L1.45971 28.6705L2.742 26.0785L4.47865 25.9876L5.24168 24.0161L6.33213 24.4174L7.362 23.4288V23.4287ZM88.1926 0.832642L93.9478 3.24707L95.556 1.74039L96.5239 2.78238L99.7015 1.05778L103.576 1.16317L104.933 2.40001L109.083 1.1675L109.469 2.7767L110.877 3.35973L111.424 1.0131L112.741 1.27141L113.468 2.6136L116.738 0L117.727 0.29005L117.717 1.7549L120.147 3.01914L121.513 3.08262L122.098 2.4115L124.667 3.20528L125.836 2.89932L124.997 3.93261L123.585 3.49826L122.731 4.15346L124.064 5.53171L125.96 5.06698L126.817 6.78297L128.513 6.65891L128.337 8.10352L129.183 9.86568L130.482 9.77471L130.266 8.44118L131.596 6.57371L132.921 7.70807L136.204 8.21316L136.09 9.46586L137.27 11.3795L141.364 11.2295L143.048 12.5312L145.088 11.29L144.238 10.6392L145.356 7.77155L145.733 7.38191L146.888 7.94907L148.196 6.97493L148.618 9.23351L147.912 10.2856L150.48 11.7303L151.717 10.9148L152.336 11.2684L151.72 12.2729L151.174 11.964L150.801 13.351L149.724 13.1402L147.843 17.1898L148.794 18.7168L152.104 20.046L151.352 21.5844L152.769 22.9251L154.133 22.3767L155.385 20.8527L155.466 19.4903L156.623 19.0602L156.506 20.3822L157.839 21.5974L157.576 23.589L158.169 25.5431L156.28 27.8161L156.297 30.2609L156.696 30.9435L158.042 30.5279L159.818 32.837L160.701 33.0217L160.851 35.8605L162.776 34.5963L165.297 35.6599L164.583 38.1133L165.227 39.5522L164.452 41.2465L165.07 41.6376L166.609 41.1368L167.271 42.5497L168.436 41.0459L168.99 41.831L170.471 41.4341L172.348 45.0205L173.695 44.8791L173.949 43.8285L174.666 43.7101L175.263 45.0032L176.527 45.1764L176.884 46.3627L178.611 46.3727L179.58 47.2343L179.377 50.1957L181.067 51.066L181.807 49.7657L182.97 49.8899L184.242 52.1615L184.072 52.935L185.286 53.99L186.736 56.6873L185.856 57.1881L186.472 58.22L187.63 59.3197L189.172 58.5159L190 60.6489L187.711 64.8168L187.14 67.6556L183.552 67.6152L180.169 71.7586L177.555 70.6705L176.586 72.053L176.835 72.6246L178.113 72.0502L177.897 73.4443L178.658 73.3721L179.253 74.9004L179.895 73.7343L180.404 74.5324L181.177 74.1428L181.302 73.0459L181.719 74.3693L183.211 74.5007L184.424 75.7548L183.33 75.5744L182.396 76.9238L181.784 76.628L181.31 78.1116L179.595 77.7753L178.921 76.4981L177.714 76.869L177.326 79.2878L178.305 80.653L177.828 81.3588L179.247 81.6503L179.473 85.3867L180.21 85.1342L180.997 85.7475L178.49 88.0523L180.184 88.9933L179.948 90.0425L169.818 94.2739L170.858 95.3304L170.443 96.2295L172.41 98.2528L172.085 100.037L169.126 100.683L170.239 101.548L171.335 104.858L177.646 102.8L181.165 102.797L181.827 103.712L182.727 103.105L183.694 103.572L184.768 102.617L185.459 103.394L185.432 104.86L183.075 105.921L182.452 105.381L182.257 106.045L179.429 105.899L178.827 106.4L177.565 105.306L177.003 107.32L174.592 108.204L174.113 107.872L173.982 111.253L172.276 112.385L170.468 112.223L170.179 115.301L167.735 115.456L167.585 116.385L165.913 115.938L164.558 116.566L163.857 115.167L163.105 115.431L165.269 117.348L168.065 117.164L167.751 119.049L168.738 120.5L169.73 120.109L169.992 120.963L172.711 121.377L172.367 122.761L173.878 125.977L174.012 129.12L173.147 129.723L172.081 129.527L171.418 130.66L170.181 130.676L170.867 131.534L170.653 133.183L167.933 134.735L166.508 134.382L165.593 134.896L164.569 134.353L163.679 132.522L161.599 131.317L160.393 131.972L159.916 129.925L159.043 130.142L158.628 131.605L157.504 132.32L158.641 133.844L159.863 134.213L159.893 135.506L160.464 135.604L158.321 139.639L157.161 140.414L158.13 141.635L158.326 146.306L156.647 146.74L156.444 146.078L155.998 146.554L154.739 146.275L154.073 148.12L151.876 149L151.261 148.427L152.238 147.141L151.683 146.588L149.746 146.281L149.877 147.373L149.118 147.89L148.168 147.339L147.834 147.893L147.666 145.549L148.681 145.476L150.123 143.607L150.748 143.735L150.22 142.752L148.755 143.144L148.589 141.358L148.091 142.444L146.871 142.568L146.68 143.586L145.946 142.747L145.966 143.594L145.059 143.556L144.867 144.21L143.718 143.514L143.072 143.986L144.455 146.111L141.558 145.679L140.354 146.961L140.376 148.277L139.37 148.154L139.365 148.906L137.426 148.537L137.971 143.558L139.959 141.029L141.87 136.883L142.257 134.103L139.069 124.165L139.119 122.602L138.465 122.916L136.989 119.26L138.414 118.689L136.444 118.456L136.914 116.229L135.294 115.837L135.052 118.009L134.096 118.403L133.827 113.671L132.904 111.461L134.038 108.549L136.193 105.869L134.632 106.863L135.503 104.066L136.435 103.689L135.78 103.34L134.044 104.972L133.188 103.034L134.12 100.953L136.317 99.8317L138.926 100.038L140.368 99.3035L138.698 99.4551L137.381 98.6021L131.384 99.4175L130.469 98.224L131.467 97.1113L132.356 94.2538L130.788 93.1757L130.319 90.0108L131.687 83.6723L132.718 82.0501L134.698 81.519L137.919 82.942L139.571 80.5809L141.659 81.3011L142.398 80.959L142.767 79.5447L142.213 80.565L141.325 80.6892L140.628 79.4005L137.86 81.0674L135.923 80.8234L134.305 79.3283L131.495 80.6719L131.377 79.6805L129.825 82.1584L130.026 80.8682L129.364 80.8148L128.29 78.7798L127.022 78.1925L127.603 76.921L126.605 76.0464L126.051 76.4982L127.058 77.1894L126.419 78.4119L127.645 78.8982L127.729 81.1785L127.218 82.0805L125.908 79.7555L126.084 81.9001L126.966 83.0993L126.504 83.6925L125.89 82.6101L125.523 84.505L124.928 84.3333L123.56 90.7512L122.445 86.9426L123.795 86.1517L124.139 86.5024L124.189 85.026L122.235 86.755L122.176 87.9788L121.782 90.2288L122.763 91.8032L123.139 96.9526L124.39 100.571L121.891 106.697L118.956 110.165L118.444 111.724L117.455 111.087L118.092 111.947L117.631 112.923L118.588 114.508L115.703 115.867L115.385 116.566L115.477 114.848L114.453 116.941L109.715 118.514L109.019 118.997L109.321 119.615L106.553 120.178L102.04 122.448L100.506 122.502L100.54 123.333L98.2577 125.02L96.371 124.884L96.5729 125.43L91.2721 127.198L89.661 127.957L89.4763 128.625H87.7152L87.3041 129.295L83.7817 129.16L81.5936 130.163L80.5637 128.751L80.2753 128.417L80.9532 128.4L80.9561 127.423L81.7552 127.434L81.8258 126.466L79.4329 125.617L81.9485 124.507L81.5475 122.595L80.3099 121.781L78.0468 122.09L77.1597 121.154L75.2687 125.848L75.11 128.439L73.3229 128.232L68.0221 125.571L57.7738 117.469L46.0976 103.785L47.641 102.188L46.8448 99.8634L46.451 100.447L44.9754 100.24L46.2332 101.424L45.5712 101.719L46.4351 102.419L45.864 103.461L31.5813 90.4091L23.2861 80.8464L22.6399 78.4291L24.1083 75.1083L26.6065 72.9695L27.1445 73.2408L25.8954 74.5122L26.6498 75.7044L30.4332 74.8009L30.7433 75.5138L29.3427 78.4017L31.5986 80.1869L34.2325 79.1045L34.6522 77.8518L37.2355 78.3107L39.2232 77.6527L40.3901 75.9829L39.6184 74.4141L41.1964 75.4143L41.5396 77.0104L44.3408 76.9021L44.6264 75.775L45.6822 75.7115L45.649 74.1774L44.8615 73.9248L46.5635 73.1744L47.0583 74.5743L47.5112 74.2221L48.6593 75.5759L49.8248 73.8166L50.8489 74.0605L52.6879 72.0444L53.4813 72.4716L53.3399 71.3589L55.9463 70.2765L56.7353 70.8003L59.6879 70.6474L62.1039 67.0321L62.4054 64.7245L63.9228 63.9379L65.4503 60.2535L67.5475 58.2416L69.6707 53.5816L67.9759 53.9986L66.8941 55.0334L66.4499 57.7235L65.2671 58.3037L61.9453 56.6988L61.4173 57.4436L59.6562 57.9054L58.4907 57.3165L58.759 58.4942L48.6853 60.9043L47.302 61.9088L45.8928 64.4964L43.9975 63.6738L42.7224 63.8903L41.3218 62.8036L38.838 63.4198L35.2998 61.6187L30.5356 61.3012L18.9776 53.8341L17.3088 53.4084L12.2431 49.0442L12.0325 48.4265L14.6663 47.2171L13.7273 47.3268L13.609 44.7002L12.6772 43.5831L11.2594 43.4013L11.3012 42.329L10.5555 42.2655L9.54868 40.792L9.1376 35.3497L9.48954 34.5473L10.0939 34.6296L10.2194 33.4461L13.4821 31.2308L14.4961 29.5726L16.6352 28.4137L16.0236 27.9577L12.6441 28.5956L10.2699 31.2496L9.9338 29.0343L10.8815 28.6778L11.6704 27.2L14.4052 25.9761L13.1244 26.1032L12.3743 25.1911L12.1479 25.8304L11.2493 25.7756L10.6002 25.0078L10.8843 24.4883L16.9972 24.5258L17.704 13.5936L19.3267 13.1231L19.9715 16.4193L21.173 16.8321L22.976 14.1694L24.5857 15.8421L27.3753 14.4191L30.6005 15.5347L33.9368 14.1679L39.7006 14.8823L42.7051 14.1304L46.4467 17.5162L54.7823 17.8019L56.5536 16.9317L58.3566 13.7061L72.1199 9.43137L73.2364 10.0837L72.0363 11.9324L72.4993 13.0654L72.1026 14.9704L74.5489 15.868L79.0925 15.9474L81.7609 14.8145L81.4898 13.7047L83.7428 11.8747L84.9111 11.4027L86.3838 11.84L88.9383 10.0433L88.5503 9.07776L85.1967 8.71697L85.4217 6.04847L84.9068 5.43659L85.5775 2.48958L88.1926 0.832773V0.832642Z" fill="#CECECE"/>
</svg>
