<svg width="145" height="194" viewBox="0 0 145 194" fill="none" xmlns="http://www.w3.org/2000/svg">
<path d="M108.158 97C108.158 130.225 81.2245 157.158 48 157.158C14.7754 157.158 -12.1585 130.225 -12.1585 97C-12.1585 63.7754 14.7754 36.8415 48 36.8415C81.2245 36.8415 108.158 63.7754 108.158 97ZM48 158.158C81.7768 158.158 109.158 130.777 109.158 97C109.158 63.2231 81.7768 35.8415 48 35.8415C14.2231 35.8415 -13.1585 63.2231 -13.1585 97C-13.1585 130.777 14.2231 158.158 48 158.158ZM126.329 97.0001C126.329 140.26 91.26 175.329 48 175.329C4.73995 175.329 -30.3292 140.26 -30.3292 97.0001C-30.3292 53.7401 4.73995 18.6709 48 18.6709C91.26 18.6709 126.329 53.7401 126.329 97.0001ZM48 176.329C91.8123 176.329 127.329 140.812 127.329 97.0001C127.329 53.1878 91.8123 17.6709 48 17.6709C4.18767 17.6709 -31.3292 53.1878 -31.3292 97.0001C-31.3292 140.812 4.18767 176.329 48 176.329ZM144.5 97C144.5 150.295 101.295 193.5 48 193.5C-5.29548 193.5 -48.5 150.295 -48.5 97C-48.5 43.7045 -5.29548 0.5 48 0.5C101.295 0.5 144.5 43.7045 144.5 97Z" stroke="black" stroke-opacity="0.15"/>
</svg>
