<svg width="44" height="44" viewBox="0 0 44 44" fill="none" xmlns="http://www.w3.org/2000/svg">
<path d="M1.29766 28.4453C2.9743 32.4466 6.17719 35.7302 10.3125 37.4541V40.0469C10.3125 40.7584 10.89 41.3359 11.6016 41.3359H32.3984C33.11 41.3359 33.6875 40.7584 33.6875 40.0469V37.4541C37.8228 35.7302 41.0257 32.4466 42.7023 28.4453H1.29766ZM42.7109 20.7109H1.28906C0.5775 20.7109 0 21.2884 0 22C0 23.3217 0.156406 24.6177 0.455469 25.8672H43.5445C43.8436 24.6177 44 23.3217 44 22C44 21.2884 43.4225 20.7109 42.7109 20.7109Z" fill="#F8AE6A"/>
<path d="M13.3543 15.1772C12.8509 14.6738 12.8509 13.8576 13.3543 13.3542C14.2754 12.433 14.2755 10.9422 13.3543 10.0209C11.4301 8.09671 11.4301 4.96592 13.3543 3.04169C13.8576 2.53827 14.6739 2.53827 15.1773 3.04169C15.6807 3.54511 15.6807 4.36126 15.1773 4.86468C14.2562 5.78585 14.2561 7.27669 15.1773 8.19794C17.1015 10.1222 17.1015 13.253 15.1773 15.1772C14.674 15.6805 13.8576 15.6806 13.3543 15.1772Z" fill="#F8AE6A"/>
<path d="M21.0887 15.1772C20.5853 14.6738 20.5853 13.8576 21.0887 13.3542C22.0098 12.433 22.0098 10.9422 21.0887 10.0209C19.1645 8.09671 19.1645 4.96592 21.0887 3.04169C21.592 2.53827 22.4082 2.53827 22.9117 3.04169C23.4151 3.54511 23.4151 4.36126 22.9117 4.86468C21.9906 5.78585 21.9905 7.27669 22.9117 8.19794C24.8359 10.1222 24.8359 13.253 22.9117 15.1772C22.4083 15.6805 21.592 15.6806 21.0887 15.1772Z" fill="#F8AE6A"/>
<path d="M28.8231 15.1772C28.3196 14.6738 28.3196 13.8576 28.8231 13.3542C29.744 12.4331 29.7442 10.9422 28.8231 10.0209C26.8988 8.09671 26.8988 4.96592 28.8231 3.04169C29.3264 2.53827 30.1426 2.53827 30.646 3.04169C31.1495 3.54511 31.1495 4.36126 30.646 4.86468C29.725 5.78576 29.7249 7.27669 30.646 8.19794C32.5703 10.1222 32.5703 13.253 30.646 15.1772C30.1427 15.6805 29.3264 15.6806 28.8231 15.1772Z" fill="#F8AE6A"/>
</svg>
