<svg width="214" height="75" viewBox="0 0 214 75" fill="none" xmlns="http://www.w3.org/2000/svg">
<path d="M-43.3043 5.84783C-43.3043 9.07749 -45.9225 11.6957 -49.1522 11.6957C-52.3818 11.6957 -55 9.07749 -55 5.84783C-55 2.61816 -52.3818 0 -49.1522 0C-45.9225 0 -43.3043 2.61816 -43.3043 5.84783Z" fill="black" fill-opacity="0.1"/>
<path d="M-19.913 5.84783C-19.913 9.07749 -22.5312 11.6957 -25.7609 11.6957C-28.9905 11.6957 -31.6087 9.07749 -31.6087 5.84783C-31.6087 2.61816 -28.9905 0 -25.7609 0C-22.5312 0 -19.913 2.61816 -19.913 5.84783Z" fill="black" fill-opacity="0.1"/>
<path d="M3.47826 5.84783C3.47826 9.07749 0.860097 11.6957 -2.36957 11.6957C-5.59923 11.6957 -8.21739 9.07749 -8.21739 5.84783C-8.21739 2.61816 -5.59923 0 -2.36957 0C0.860097 0 3.47826 2.61816 3.47826 5.84783Z" fill="black" fill-opacity="0.1"/>
<path d="M26.8696 5.84783C26.8696 9.07749 24.2514 11.6957 21.0217 11.6957C17.7921 11.6957 15.1739 9.07749 15.1739 5.84783C15.1739 2.61816 17.7921 0 21.0217 0C24.2514 0 26.8696 2.61816 26.8696 5.84783Z" fill="black" fill-opacity="0.1"/>
<path d="M50.2609 5.84783C50.2609 9.07749 47.6427 11.6957 44.413 11.6957C41.1834 11.6957 38.5652 9.07749 38.5652 5.84783C38.5652 2.61816 41.1834 0 44.413 0C47.6427 0 50.2609 2.61816 50.2609 5.84783Z" fill="black" fill-opacity="0.1"/>
<path d="M73.6522 5.84783C73.6522 9.07749 71.034 11.6957 67.8043 11.6957C64.5747 11.6957 61.9565 9.07749 61.9565 5.84783C61.9565 2.61816 64.5747 0 67.8043 0C71.034 0 73.6522 2.61816 73.6522 5.84783Z" fill="black" fill-opacity="0.1"/>
<path d="M97.0435 5.84783C97.0435 9.07749 94.4253 11.6957 91.1956 11.6957C87.966 11.6957 85.3478 9.07749 85.3478 5.84783C85.3478 2.61816 87.966 0 91.1956 0C94.4253 0 97.0435 2.61816 97.0435 5.84783Z" fill="black" fill-opacity="0.1"/>
<path d="M120.435 5.84783C120.435 9.07749 117.817 11.6957 114.587 11.6957C111.357 11.6957 108.739 9.07749 108.739 5.84783C108.739 2.61816 111.357 0 114.587 0C117.817 0 120.435 2.61816 120.435 5.84783Z" fill="black" fill-opacity="0.1"/>
<path d="M143.826 5.84783C143.826 9.07749 141.208 11.6957 137.978 11.6957C134.749 11.6957 132.13 9.07749 132.13 5.84783C132.13 2.61816 134.749 0 137.978 0C141.208 0 143.826 2.61816 143.826 5.84783Z" fill="black" fill-opacity="0.1"/>
<path d="M167.217 5.84783C167.217 9.07749 164.599 11.6957 161.37 11.6957C158.14 11.6957 155.522 9.07749 155.522 5.84783C155.522 2.61816 158.14 0 161.37 0C164.599 0 167.217 2.61816 167.217 5.84783Z" fill="black" fill-opacity="0.1"/>
<path d="M190.609 5.84783C190.609 9.07749 187.991 11.6957 184.761 11.6957C181.531 11.6957 178.913 9.07749 178.913 5.84783C178.913 2.61816 181.531 0 184.761 0C187.991 0 190.609 2.61816 190.609 5.84783Z" fill="black" fill-opacity="0.1"/>
<path d="M214 5.84783C214 9.07749 211.382 11.6957 208.152 11.6957C204.923 11.6957 202.304 9.07749 202.304 5.84783C202.304 2.61816 204.923 0 208.152 0C211.382 0 214 2.61816 214 5.84783Z" fill="black" fill-opacity="0.1"/>
<path d="M-43.3043 26.9C-43.3043 30.1297 -45.9225 32.7478 -49.1522 32.7478C-52.3818 32.7478 -55 30.1297 -55 26.9C-55 23.6703 -52.3818 21.0522 -49.1522 21.0522C-45.9225 21.0522 -43.3043 23.6703 -43.3043 26.9Z" fill="black" fill-opacity="0.1"/>
<path d="M-19.913 26.9C-19.913 30.1297 -22.5312 32.7478 -25.7609 32.7478C-28.9905 32.7478 -31.6087 30.1297 -31.6087 26.9C-31.6087 23.6703 -28.9905 21.0522 -25.7609 21.0522C-22.5312 21.0522 -19.913 23.6703 -19.913 26.9Z" fill="black" fill-opacity="0.1"/>
<path d="M3.47826 26.9C3.47826 30.1297 0.860097 32.7478 -2.36957 32.7478C-5.59923 32.7478 -8.21739 30.1297 -8.21739 26.9C-8.21739 23.6703 -5.59923 21.0522 -2.36957 21.0522C0.860097 21.0522 3.47826 23.6703 3.47826 26.9Z" fill="black" fill-opacity="0.1"/>
<path d="M26.8696 26.9C26.8696 30.1297 24.2514 32.7478 21.0217 32.7478C17.7921 32.7478 15.1739 30.1297 15.1739 26.9C15.1739 23.6703 17.7921 21.0522 21.0217 21.0522C24.2514 21.0522 26.8696 23.6703 26.8696 26.9Z" fill="black" fill-opacity="0.1"/>
<path d="M50.2609 26.9C50.2609 30.1297 47.6427 32.7478 44.413 32.7478C41.1834 32.7478 38.5652 30.1297 38.5652 26.9C38.5652 23.6703 41.1834 21.0522 44.413 21.0522C47.6427 21.0522 50.2609 23.6703 50.2609 26.9Z" fill="black" fill-opacity="0.1"/>
<path d="M73.6522 26.9C73.6522 30.1297 71.034 32.7478 67.8043 32.7478C64.5747 32.7478 61.9565 30.1297 61.9565 26.9C61.9565 23.6703 64.5747 21.0522 67.8043 21.0522C71.034 21.0522 73.6522 23.6703 73.6522 26.9Z" fill="black" fill-opacity="0.1"/>
<path d="M97.0435 26.9C97.0435 30.1297 94.4253 32.7478 91.1956 32.7478C87.966 32.7478 85.3478 30.1297 85.3478 26.9C85.3478 23.6703 87.966 21.0522 91.1956 21.0522C94.4253 21.0522 97.0435 23.6703 97.0435 26.9Z" fill="black" fill-opacity="0.1"/>
<path d="M120.435 26.9C120.435 30.1297 117.817 32.7478 114.587 32.7478C111.357 32.7478 108.739 30.1297 108.739 26.9C108.739 23.6703 111.357 21.0522 114.587 21.0522C117.817 21.0522 120.435 23.6703 120.435 26.9Z" fill="black" fill-opacity="0.1"/>
<path d="M143.826 26.9C143.826 30.1297 141.208 32.7478 137.978 32.7478C134.749 32.7478 132.13 30.1297 132.13 26.9C132.13 23.6703 134.749 21.0522 137.978 21.0522C141.208 21.0522 143.826 23.6703 143.826 26.9Z" fill="black" fill-opacity="0.1"/>
<path d="M167.217 26.9C167.217 30.1297 164.599 32.7478 161.37 32.7478C158.14 32.7478 155.522 30.1297 155.522 26.9C155.522 23.6703 158.14 21.0522 161.37 21.0522C164.599 21.0522 167.217 23.6703 167.217 26.9Z" fill="black" fill-opacity="0.1"/>
<path d="M190.609 26.9C190.609 30.1297 187.991 32.7478 184.761 32.7478C181.531 32.7478 178.913 30.1297 178.913 26.9C178.913 23.6703 181.531 21.0522 184.761 21.0522C187.991 21.0522 190.609 23.6703 190.609 26.9Z" fill="black" fill-opacity="0.1"/>
<path d="M214 26.9C214 30.1297 211.382 32.7478 208.152 32.7478C204.923 32.7478 202.304 30.1297 202.304 26.9C202.304 23.6703 204.923 21.0522 208.152 21.0522C211.382 21.0522 214 23.6703 214 26.9Z" fill="black" fill-opacity="0.1"/>
<path d="M-43.3043 47.9522C-43.3043 51.1818 -45.9225 53.8 -49.1522 53.8C-52.3818 53.8 -55 51.1818 -55 47.9522C-55 44.7225 -52.3818 42.1043 -49.1522 42.1043C-45.9225 42.1043 -43.3043 44.7225 -43.3043 47.9522Z" fill="black" fill-opacity="0.1"/>
<path d="M-19.913 47.9522C-19.913 51.1818 -22.5312 53.8 -25.7609 53.8C-28.9905 53.8 -31.6087 51.1818 -31.6087 47.9522C-31.6087 44.7225 -28.9905 42.1043 -25.7609 42.1043C-22.5312 42.1043 -19.913 44.7225 -19.913 47.9522Z" fill="black" fill-opacity="0.1"/>
<path d="M3.47826 47.9522C3.47826 51.1818 0.860097 53.8 -2.36957 53.8C-5.59923 53.8 -8.21739 51.1818 -8.21739 47.9522C-8.21739 44.7225 -5.59923 42.1043 -2.36957 42.1043C0.860097 42.1043 3.47826 44.7225 3.47826 47.9522Z" fill="black" fill-opacity="0.1"/>
<path d="M26.8696 47.9522C26.8696 51.1818 24.2514 53.8 21.0217 53.8C17.7921 53.8 15.1739 51.1818 15.1739 47.9522C15.1739 44.7225 17.7921 42.1043 21.0217 42.1043C24.2514 42.1043 26.8696 44.7225 26.8696 47.9522Z" fill="black" fill-opacity="0.1"/>
<path d="M50.2609 47.9522C50.2609 51.1818 47.6427 53.8 44.413 53.8C41.1834 53.8 38.5652 51.1818 38.5652 47.9522C38.5652 44.7225 41.1834 42.1043 44.413 42.1043C47.6427 42.1043 50.2609 44.7225 50.2609 47.9522Z" fill="black" fill-opacity="0.1"/>
<path d="M73.6522 47.9522C73.6522 51.1818 71.034 53.8 67.8043 53.8C64.5747 53.8 61.9565 51.1818 61.9565 47.9522C61.9565 44.7225 64.5747 42.1043 67.8043 42.1043C71.034 42.1043 73.6522 44.7225 73.6522 47.9522Z" fill="black" fill-opacity="0.1"/>
<path d="M97.0435 47.9522C97.0435 51.1818 94.4253 53.8 91.1956 53.8C87.966 53.8 85.3478 51.1818 85.3478 47.9522C85.3478 44.7225 87.966 42.1043 91.1956 42.1043C94.4253 42.1043 97.0435 44.7225 97.0435 47.9522Z" fill="black" fill-opacity="0.1"/>
<path d="M120.435 47.9522C120.435 51.1818 117.817 53.8 114.587 53.8C111.357 53.8 108.739 51.1818 108.739 47.9522C108.739 44.7225 111.357 42.1043 114.587 42.1043C117.817 42.1043 120.435 44.7225 120.435 47.9522Z" fill="black" fill-opacity="0.1"/>
<path d="M143.826 47.9522C143.826 51.1818 141.208 53.8 137.978 53.8C134.749 53.8 132.13 51.1818 132.13 47.9522C132.13 44.7225 134.749 42.1043 137.978 42.1043C141.208 42.1043 143.826 44.7225 143.826 47.9522Z" fill="black" fill-opacity="0.1"/>
<path d="M167.217 47.9522C167.217 51.1818 164.599 53.8 161.37 53.8C158.14 53.8 155.522 51.1818 155.522 47.9522C155.522 44.7225 158.14 42.1043 161.37 42.1043C164.599 42.1043 167.217 44.7225 167.217 47.9522Z" fill="black" fill-opacity="0.1"/>
<path d="M190.609 47.9522C190.609 51.1818 187.991 53.8 184.761 53.8C181.531 53.8 178.913 51.1818 178.913 47.9522C178.913 44.7225 181.531 42.1043 184.761 42.1043C187.991 42.1043 190.609 44.7225 190.609 47.9522Z" fill="black" fill-opacity="0.1"/>
<path d="M214 47.9522C214 51.1818 211.382 53.8 208.152 53.8C204.923 53.8 202.304 51.1818 202.304 47.9522C202.304 44.7225 204.923 42.1043 208.152 42.1043C211.382 42.1043 214 44.7225 214 47.9522Z" fill="black" fill-opacity="0.1"/>
<path d="M-43.3043 69.0043C-43.3043 72.234 -45.9225 74.8522 -49.1522 74.8522C-52.3818 74.8522 -55 72.234 -55 69.0043C-55 65.7747 -52.3818 63.1565 -49.1522 63.1565C-45.9225 63.1565 -43.3043 65.7747 -43.3043 69.0043Z" fill="black" fill-opacity="0.1"/>
<path d="M-19.913 69.0043C-19.913 72.234 -22.5312 74.8522 -25.7609 74.8522C-28.9905 74.8522 -31.6087 72.234 -31.6087 69.0043C-31.6087 65.7747 -28.9905 63.1565 -25.7609 63.1565C-22.5312 63.1565 -19.913 65.7747 -19.913 69.0043Z" fill="black" fill-opacity="0.1"/>
<path d="M3.47826 69.0043C3.47826 72.234 0.860097 74.8522 -2.36957 74.8522C-5.59923 74.8522 -8.21739 72.234 -8.21739 69.0043C-8.21739 65.7747 -5.59923 63.1565 -2.36957 63.1565C0.860097 63.1565 3.47826 65.7747 3.47826 69.0043Z" fill="black" fill-opacity="0.1"/>
<path d="M26.8696 69.0043C26.8696 72.234 24.2514 74.8522 21.0217 74.8522C17.7921 74.8522 15.1739 72.234 15.1739 69.0043C15.1739 65.7747 17.7921 63.1565 21.0217 63.1565C24.2514 63.1565 26.8696 65.7747 26.8696 69.0043Z" fill="black" fill-opacity="0.1"/>
<path d="M50.2609 69.0043C50.2609 72.234 47.6427 74.8522 44.413 74.8522C41.1834 74.8522 38.5652 72.234 38.5652 69.0043C38.5652 65.7747 41.1834 63.1565 44.413 63.1565C47.6427 63.1565 50.2609 65.7747 50.2609 69.0043Z" fill="black" fill-opacity="0.1"/>
<path d="M73.6522 69.0043C73.6522 72.234 71.034 74.8522 67.8043 74.8522C64.5747 74.8522 61.9565 72.234 61.9565 69.0043C61.9565 65.7747 64.5747 63.1565 67.8043 63.1565C71.034 63.1565 73.6522 65.7747 73.6522 69.0043Z" fill="black" fill-opacity="0.1"/>
<path d="M97.0435 69.0043C97.0435 72.234 94.4253 74.8522 91.1956 74.8522C87.966 74.8522 85.3478 72.234 85.3478 69.0043C85.3478 65.7747 87.966 63.1565 91.1956 63.1565C94.4253 63.1565 97.0435 65.7747 97.0435 69.0043Z" fill="black" fill-opacity="0.1"/>
<path d="M120.435 69.0043C120.435 72.234 117.817 74.8522 114.587 74.8522C111.357 74.8522 108.739 72.234 108.739 69.0043C108.739 65.7747 111.357 63.1565 114.587 63.1565C117.817 63.1565 120.435 65.7747 120.435 69.0043Z" fill="black" fill-opacity="0.1"/>
<path d="M143.826 69.0043C143.826 72.234 141.208 74.8522 137.978 74.8522C134.749 74.8522 132.13 72.234 132.13 69.0043C132.13 65.7747 134.749 63.1565 137.978 63.1565C141.208 63.1565 143.826 65.7747 143.826 69.0043Z" fill="black" fill-opacity="0.1"/>
<path d="M167.217 69.0043C167.217 72.234 164.599 74.8522 161.37 74.8522C158.14 74.8522 155.522 72.234 155.522 69.0043C155.522 65.7747 158.14 63.1565 161.37 63.1565C164.599 63.1565 167.217 65.7747 167.217 69.0043Z" fill="black" fill-opacity="0.1"/>
<path d="M190.609 69.0043C190.609 72.234 187.991 74.8522 184.761 74.8522C181.531 74.8522 178.913 72.234 178.913 69.0043C178.913 65.7747 181.531 63.1565 184.761 63.1565C187.991 63.1565 190.609 65.7747 190.609 69.0043Z" fill="black" fill-opacity="0.1"/>
<path d="M214 69.0043C214 72.234 211.382 74.8522 208.152 74.8522C204.923 74.8522 202.304 72.234 202.304 69.0043C202.304 65.7747 204.923 63.1565 208.152 63.1565C211.382 63.1565 214 65.7747 214 69.0043Z" fill="black" fill-opacity="0.1"/>
</svg>
