<svg width="500" height="500" viewBox="0 0 500 500" fill="none" xmlns="http://www.w3.org/2000/svg">
<path d="M404.91 269.55C491.03 318.35 491.49 397.46 405.91 446.25C320.33 495.04 181.2 495 95.08 446.25C8.95999 397.5 8.51 318.35 94.08 269.56C179.65 220.77 318.8 220.76 404.91 269.55Z" fill="#F5F5F5"/>
<path d="M321.69 49.23L326.1 46.67L325.84 137.8L321.44 140.37L321.69 49.23Z" fill="#F0F0F0"/>
<path d="M321.44 140.37L325.84 137.8L452.98 211.2L448.57 213.76L321.44 140.37Z" fill="#F5F5F5"/>
<path d="M316.64 40.48L453.91 119.73L453.62 222.52L316.35 143.26L316.64 40.48ZM448.57 213.76L448.83 122.63L321.69 49.23L321.44 140.36L448.57 213.76Z" fill="#E0E0E0"/>
<path d="M316.64 40.48L321.05 37.91L458.32 117.17L453.91 119.73L316.64 40.48Z" fill="#F5F5F5"/>
<path d="M453.91 119.73L458.32 117.17L458.03 219.96L453.62 222.52L453.91 119.73Z" fill="#F0F0F0"/>
<path d="M382.72 84.4701L382.46 175.6L387.53 178.53L387.79 87.3901L382.72 84.4701Z" fill="#E0E0E0"/>
<path d="M387.79 87.39L387.53 178.53L391.94 175.97L392.19 89.93L387.79 87.39Z" fill="#F0F0F0"/>
<path opacity="0.2" d="M387.79 91.4901L387.8 87.3901L382.73 84.4701L382.71 88.5601L387.79 91.4901Z" fill="black"/>
<path opacity="0.2" d="M387.78 91.49L391.34 89.44L387.79 87.39L387.78 91.49Z" fill="black"/>
<path d="M86.85 87.43L86.92 109.44L89.58 110.99L89.51 85.9L86.85 87.43Z" fill="#F0F0F0"/>
<path d="M58.12 126.07L58.13 129.15L89.58 110.99L86.92 109.44L58.12 126.07Z" fill="#F5F5F5"/>
<path d="M92.72 80.3401L54.82 102.22L54.91 134.72L92.82 112.84L92.72 80.3401ZM58.12 129.15V126.07L58.05 104.07L86.85 87.4401L89.51 85.9101L89.58 111L58.12 129.15Z" fill="#E0E0E0"/>
<path d="M92.72 80.34L90.06 78.79L52.15 100.67L54.82 102.22L92.72 80.34Z" fill="#F5F5F5"/>
<path d="M52.15 100.67L52.24 133.17L54.91 134.72L54.82 102.22L52.15 100.67Z" fill="#F0F0F0"/>
<path d="M86.85 133.3L86.92 155.31L89.58 156.86L89.51 131.76L86.85 133.3Z" fill="#F0F0F0"/>
<path d="M58.12 171.94L58.13 175.02L89.58 156.86L86.92 155.31L58.12 171.94Z" fill="#F5F5F5"/>
<path d="M92.72 126.2L54.82 148.09L54.91 180.59L92.82 158.7L92.72 126.2ZM58.12 175V171.91L58.05 149.91L86.85 133.29L89.51 131.75L89.58 156.85L58.12 175Z" fill="#E0E0E0"/>
<path d="M92.72 126.2L90.06 124.65L52.15 146.54L54.82 148.09L92.72 126.2Z" fill="#F5F5F5"/>
<path d="M52.15 146.54L52.24 179.03L54.91 180.59L54.82 148.09L52.15 146.54Z" fill="#F0F0F0"/>
<path d="M77.7001 95.79L85.5601 101.97L85.5701 108.01L59.4501 123.09L59.4301 117.05L64.4101 107.17L68.8801 110.64L67.3001 115.55L69.6001 111.19L77.7001 95.79Z" fill="#E0E0E0"/>
<path d="M69.12 98.83C70.35 98.12 71.35 98.69 71.36 100.11C71.3258 100.888 71.1066 101.647 70.7205 102.324C70.3344 103 69.7926 103.575 69.14 104C67.91 104.71 66.91 104.14 66.9 102.73C66.9327 101.95 67.1512 101.189 67.5373 100.511C67.9235 99.8326 68.4661 99.2563 69.12 98.83Z" fill="#E0E0E0"/>
<path d="M77.7001 141.66L85.5601 147.84L85.5701 153.88L59.4501 168.96L59.4301 162.92L64.4101 153.03L68.8801 156.5L67.3001 161.41L69.6001 157.05L77.7001 141.66Z" fill="#E0E0E0"/>
<path d="M69.12 144.7C70.35 143.99 71.35 144.56 71.36 145.97C71.3196 146.741 71.0974 147.492 70.7116 148.161C70.3258 148.83 69.7873 149.399 69.14 149.82C67.91 150.53 66.91 149.96 66.9 148.54C66.942 147.77 67.1649 147.022 67.5507 146.354C67.9364 145.687 68.4741 145.12 69.12 144.7Z" fill="#E0E0E0"/>
<path d="M397.11 279.36L397.1 282.77L340.96 250.35L340.97 246.94L397.11 279.36Z" fill="#FFAD4F"/>
<path d="M377.11 273.24L377.1 276.65L340.94 255.77L340.95 252.36L377.11 273.24Z" fill="#FFAD4F"/>
<path d="M360.71 225.93C361.298 226.27 361.817 226.718 362.24 227.25C364.02 229.38 364.46 232.25 364.7 234.74C365.04 238.19 365.39 241.64 365.7 245.09C365.827 246.902 366.163 248.694 366.7 250.43C367.277 252.312 368.368 253.995 369.85 255.29C370.02 255.424 370.201 255.544 370.39 255.65C370.906 255.995 371.514 256.18 372.135 256.18C372.756 256.18 373.364 255.995 373.88 255.65C374.871 254.752 375.656 253.65 376.18 252.42C376.831 250.976 377.901 249.76 379.25 248.93C379.939 248.631 380.692 248.508 381.44 248.571C382.189 248.633 382.91 248.881 383.54 249.29C383.805 249.446 384.059 249.62 384.3 249.81C387.21 252.04 388.93 256.42 390.3 260.22C391.67 264.02 393.42 268.43 396.35 270.56C396.543 270.704 396.743 270.837 396.95 270.96C397.836 271.496 398.869 271.738 399.901 271.654C400.933 271.57 401.912 271.162 402.7 270.49C404.31 269.26 405.61 267.49 407.62 266.95C408.686 266.742 409.792 266.897 410.76 267.39V283.99L341 243.74L341.08 216.15C342.39 218.412 343.316 220.875 343.82 223.44C344.42 226.76 344.28 230.37 346.52 233.3C347.064 234.013 347.744 234.611 348.52 235.06C349.361 235.592 350.37 235.792 351.35 235.62C352.73 235.26 353.6 233.97 354.17 232.45C354.94 230.45 355.29 227.95 356.51 226.45C357.03 225.872 357.741 225.502 358.513 225.406C359.284 225.311 360.065 225.497 360.71 225.93Z" fill="#FFAD4F"/>
<path opacity="0.4" d="M360.71 225.93C361.298 226.27 361.817 226.718 362.24 227.25C364.02 229.38 364.46 232.25 364.7 234.74C365.04 238.19 365.39 241.64 365.7 245.09C365.827 246.902 366.163 248.694 366.7 250.43C367.277 252.312 368.368 253.995 369.85 255.29C370.02 255.424 370.201 255.544 370.39 255.65C370.906 255.995 371.514 256.18 372.135 256.18C372.756 256.18 373.364 255.995 373.88 255.65C374.871 254.752 375.656 253.65 376.18 252.42C376.831 250.976 377.901 249.76 379.25 248.93C379.939 248.631 380.692 248.508 381.44 248.571C382.189 248.633 382.91 248.881 383.54 249.29C383.805 249.446 384.059 249.62 384.3 249.81C387.21 252.04 388.93 256.42 390.3 260.22C391.67 264.02 393.42 268.43 396.35 270.56C396.543 270.704 396.743 270.837 396.95 270.96C397.836 271.496 398.869 271.738 399.901 271.654C400.933 271.57 401.912 271.162 402.7 270.49C404.31 269.26 405.61 267.49 407.62 266.95C408.686 266.742 409.792 266.897 410.76 267.39V283.99L341 243.74L341.08 216.15C342.39 218.412 343.316 220.875 343.82 223.44C344.42 226.76 344.28 230.37 346.52 233.3C347.064 234.013 347.744 234.611 348.52 235.06C349.361 235.592 350.37 235.792 351.35 235.62C352.73 235.26 353.6 233.97 354.17 232.45C354.94 230.45 355.29 227.95 356.51 226.45C357.03 225.872 357.741 225.502 358.513 225.406C359.284 225.311 360.065 225.497 360.71 225.93Z" fill="white"/>
<path d="M421.8 138.77L343.15 93.36C342.852 93.1552 342.51 93.0247 342.152 92.9795C341.793 92.9342 341.429 92.9756 341.09 93.1H341.03L340.91 93.17L337.73 95H337.66H337.61C337.324 95.2288 337.098 95.5245 336.953 95.8612C336.809 96.1978 336.749 96.5649 336.78 96.93L336.72 118.13C336.775 119.2 337.083 120.242 337.618 121.17C338.153 122.099 338.901 122.887 339.8 123.47L418.45 169C418.766 169.23 419.137 169.37 419.526 169.407C419.915 169.444 420.307 169.376 420.66 169.21L423.9 167.34C424.204 167.109 424.444 166.804 424.596 166.454C424.748 166.103 424.808 165.72 424.77 165.34L424.83 144.14C424.781 143.07 424.482 142.027 423.955 141.094C423.429 140.161 422.691 139.365 421.8 138.77Z" fill="#FFAD4F"/>
<path opacity="0.3" d="M421.8 138.77L343.15 93.36C342.852 93.1552 342.51 93.0247 342.152 92.9795C341.793 92.9342 341.429 92.9756 341.09 93.1H341.03L340.91 93.17L337.73 95C338.078 94.85 338.459 94.7924 338.835 94.8327C339.212 94.873 339.572 95.0098 339.88 95.23L418.53 140.64C419.808 141.47 420.77 142.707 421.26 144.15L424.54 142.28C424.049 140.835 423.083 139.598 421.8 138.77Z" fill="white"/>
<path opacity="0.2" d="M421.26 144.17C421.484 144.755 421.602 145.374 421.61 146L421.55 167.21C421.592 167.592 421.532 167.979 421.376 168.331C421.219 168.682 420.972 168.985 420.66 169.21L423.9 167.34C424.204 167.109 424.444 166.804 424.596 166.454C424.748 166.103 424.808 165.72 424.77 165.34L424.83 144.14C424.818 143.518 424.7 142.902 424.48 142.32L421.26 144.17Z" fill="black"/>
<path d="M358.76 114.41C360.47 117.41 360.61 120.56 359.19 121.92L353.57 118.68L353.18 115.28C353.166 115.182 353.132 115.088 353.08 115.004C353.029 114.92 352.96 114.847 352.88 114.79C352.72 114.7 352.59 114.79 352.57 114.92L351.75 119.92L350.69 111.92C350.673 111.823 350.637 111.731 350.584 111.648C350.531 111.566 350.461 111.495 350.38 111.44C350.354 111.417 350.323 111.402 350.289 111.396C350.255 111.391 350.22 111.395 350.188 111.409C350.157 111.423 350.13 111.445 350.111 111.474C350.091 111.502 350.081 111.536 350.08 111.57L349.31 117.06L348.54 112.94C348.501 112.757 348.394 112.596 348.24 112.49C348.09 112.41 347.97 112.49 347.94 112.58L347.24 115.01L342.65 112.36C341.24 109.36 341.4 106.36 343.13 105.36C343.682 105.111 344.29 105.013 344.892 105.074C345.494 105.136 346.07 105.355 346.56 105.71C347.986 106.599 349.16 107.838 349.97 109.31L350.97 110.99L351.97 110.43C352.521 110.184 353.127 110.087 353.727 110.149C354.327 110.21 354.9 110.428 355.39 110.78C356.804 111.683 357.964 112.933 358.76 114.41ZM352.85 117.41L352.05 122.33C352.05 122.48 351.9 122.53 351.75 122.44C351.667 122.389 351.596 122.321 351.542 122.24C351.489 122.158 351.454 122.066 351.44 121.97L350.44 114.09L349.73 119.17C349.73 119.33 349.58 119.38 349.42 119.31C349.341 119.258 349.273 119.191 349.221 119.112C349.17 119.032 349.135 118.943 349.12 118.85L348.25 114.22L347.82 115.75C347.82 115.88 347.66 115.92 347.52 115.84L343.24 113.37L344.12 114.9L350.94 126.71L357.8 122.79L358.68 122.29L353.35 119.21C353.267 119.157 353.196 119.086 353.143 119.004C353.089 118.921 353.054 118.828 353.04 118.73L352.85 117.41Z" fill="#FFAD4F"/>
<path d="M350.38 111.45C350.461 111.505 350.531 111.576 350.584 111.658C350.637 111.741 350.673 111.833 350.69 111.93L351.75 119.93L352.57 114.93C352.57 114.77 352.72 114.71 352.88 114.8C352.96 114.857 353.029 114.93 353.08 115.014C353.132 115.098 353.166 115.192 353.18 115.29L353.57 118.69L359.19 121.93L362.38 123.77C362.47 123.829 362.545 123.909 362.599 124.003C362.653 124.097 362.684 124.202 362.69 124.31C362.69 124.5 362.55 124.58 362.37 124.48L358.64 122.33L353.31 119.25C353.227 119.197 353.156 119.126 353.103 119.044C353.049 118.961 353.014 118.868 353 118.77L352.85 117.45L352.05 122.37C352.05 122.52 351.9 122.57 351.75 122.48C351.667 122.429 351.596 122.361 351.542 122.28C351.489 122.198 351.454 122.106 351.44 122.01L350.44 114.13L349.73 119.21C349.729 119.243 349.72 119.276 349.702 119.304C349.684 119.332 349.658 119.355 349.628 119.37C349.598 119.384 349.565 119.39 349.531 119.387C349.498 119.383 349.466 119.37 349.44 119.35C349.355 119.303 349.282 119.237 349.227 119.157C349.171 119.077 349.135 118.986 349.12 118.89L348.25 114.26L347.82 115.79C347.82 115.92 347.66 115.96 347.52 115.88L343.24 113.41L339.51 111.25C339.421 111.194 339.346 111.118 339.292 111.028C339.238 110.937 339.206 110.835 339.2 110.73C339.2 110.53 339.34 110.45 339.51 110.54L342.69 112.38L347.28 115.03L347.98 112.6C347.98 112.47 348.13 112.43 348.26 112.5C348.341 112.552 348.411 112.619 348.466 112.698C348.521 112.777 348.56 112.866 348.58 112.96L349.35 117.08L350.12 111.59C350.123 111.561 350.134 111.534 350.15 111.51C350.166 111.486 350.188 111.466 350.213 111.452C350.239 111.438 350.267 111.431 350.296 111.431C350.325 111.43 350.354 111.437 350.38 111.45Z" fill="white"/>
<path opacity="0.4" d="M358.76 114.41C360.47 117.41 360.61 120.56 359.19 121.92L353.57 118.68L353.18 115.28C353.166 115.182 353.132 115.088 353.08 115.004C353.029 114.92 352.96 114.847 352.88 114.79C352.72 114.7 352.59 114.79 352.57 114.92L351.75 119.92L350.69 111.92C350.673 111.823 350.637 111.731 350.584 111.648C350.531 111.566 350.461 111.495 350.38 111.44C350.354 111.417 350.323 111.402 350.289 111.396C350.255 111.391 350.22 111.395 350.188 111.409C350.157 111.423 350.13 111.445 350.111 111.474C350.091 111.502 350.081 111.536 350.08 111.57L349.31 117.06L348.54 112.94C348.501 112.757 348.394 112.596 348.24 112.49C348.09 112.41 347.97 112.49 347.94 112.58L347.24 115.01L342.65 112.36C341.24 109.36 341.4 106.36 343.13 105.36C343.682 105.111 344.29 105.013 344.892 105.074C345.494 105.136 346.07 105.355 346.56 105.71C347.986 106.599 349.16 107.838 349.97 109.31L350.97 110.99L351.97 110.43C352.521 110.184 353.127 110.087 353.727 110.149C354.327 110.21 354.9 110.428 355.39 110.78C356.804 111.683 357.964 112.933 358.76 114.41ZM352.85 117.41L352.05 122.33C352.05 122.48 351.9 122.53 351.75 122.44C351.667 122.389 351.596 122.321 351.542 122.24C351.489 122.158 351.454 122.066 351.44 121.97L350.44 114.09L349.73 119.17C349.73 119.33 349.58 119.38 349.42 119.31C349.341 119.258 349.273 119.191 349.221 119.112C349.17 119.032 349.135 118.943 349.12 118.85L348.25 114.22L347.82 115.75C347.82 115.88 347.66 115.92 347.52 115.84L343.24 113.37L344.12 114.9L350.94 126.71L357.8 122.79L358.68 122.29L353.35 119.21C353.267 119.157 353.196 119.086 353.143 119.004C353.089 118.921 353.054 118.828 353.04 118.73L352.85 117.41Z" fill="white"/>
<path d="M405.6 153.57L405.59 157.07L364.82 133.53L364.83 130.03L405.6 153.57Z" fill="white"/>
<path d="M413.45 151.23L413.44 154.74L364.84 126.68L364.85 123.17L413.45 151.23Z" fill="white"/>
<path d="M381.57 125.95L381.56 129.45L364.86 119.81L364.87 116.31L381.57 125.95Z" fill="white"/>
<path d="M421.8 180.11L343.15 134.7C342.852 134.495 342.51 134.365 342.152 134.319C341.793 134.274 341.429 134.316 341.09 134.44H341.03L340.91 134.51L337.73 136.34H337.66H337.61C337.324 136.569 337.098 136.864 336.953 137.201C336.809 137.538 336.749 137.905 336.78 138.27L336.72 159.47C336.775 160.54 337.083 161.582 337.618 162.51C338.153 163.439 338.901 164.227 339.8 164.81L418.45 210.22C418.766 210.45 419.137 210.59 419.526 210.627C419.915 210.664 420.307 210.596 420.66 210.43L423.9 208.56C424.206 208.331 424.448 208.026 424.6 207.675C424.753 207.325 424.811 206.94 424.77 206.56L424.83 185.35C424.762 184.302 424.454 183.284 423.928 182.375C423.403 181.467 422.674 180.691 421.8 180.11Z" fill="#FFAD4F"/>
<path opacity="0.3" d="M421.8 180.11L343.15 134.7C342.852 134.495 342.51 134.365 342.152 134.319C341.793 134.274 341.429 134.316 341.09 134.44H341.03L340.91 134.51L337.73 136.34C338.078 136.19 338.459 136.132 338.835 136.173C339.212 136.213 339.572 136.35 339.88 136.57L418.53 182C419.808 182.83 420.77 184.067 421.26 185.51L424.54 183.64C424.052 182.187 423.086 180.943 421.8 180.11Z" fill="white"/>
<path opacity="0.2" d="M421.26 185.51C421.485 186.094 421.603 186.714 421.61 187.34L421.55 208.55C421.592 208.932 421.532 209.319 421.376 209.67C421.219 210.022 420.972 210.325 420.66 210.55L423.9 208.68C424.206 208.451 424.448 208.146 424.6 207.795C424.753 207.445 424.811 207.06 424.77 206.68L424.83 185.47C424.818 184.851 424.699 184.239 424.48 183.66L421.26 185.51Z" fill="black"/>
<path d="M409.7 197.19L409.69 200.69L387.43 187.84L387.44 184.33L409.7 197.19Z" fill="white"/>
<path d="M412.51 191.93L412.5 195.44L387.44 180.97L387.45 177.47L412.51 191.93Z" fill="white"/>
<path d="M398.61 177.04L398.6 180.54L387.46 174.11L387.47 170.61L398.61 177.04Z" fill="white"/>
<path d="M353.12 156.79C353.481 157.023 353.782 157.339 353.997 157.711C354.213 158.083 354.337 158.501 354.36 158.93V161.3C354.36 162.08 353.79 162.4 353.11 162.01L351.05 160.82C350.692 160.584 350.395 160.267 350.181 159.896C349.968 159.524 349.844 159.108 349.82 158.68V156.31C349.82 155.52 350.38 155.21 351.06 155.6L353.12 156.79Z" fill="white"/>
<path opacity="0.4" d="M352.12 147.73L352.42 147.92V150.77C352.32 150.698 352.217 150.631 352.11 150.57C348.16 148.29 344.94 150.12 344.92 154.67C344.973 156.697 345.472 158.687 346.38 160.5L344.26 160.77C343.128 158.417 342.511 155.85 342.45 153.24C342.46 147.13 346.8 144.66 352.12 147.73Z" fill="white"/>
<path d="M352.42 147.92C357.6 151.1 361.75 158.38 361.73 164.37C361.71 170.36 357.37 172.95 352.06 169.88C348.613 167.685 345.898 164.514 344.26 160.77L346.38 160.5C347.604 163.182 349.576 165.453 352.06 167.04C356.06 169.32 359.24 167.48 359.25 162.94C359.117 160.524 358.432 158.171 357.248 156.062C356.064 153.952 354.413 152.142 352.42 150.77V147.92Z" fill="white"/>
<path opacity="0.4" d="M373.56 160.11L373.87 160.3V163.15C373.77 163.078 373.667 163.011 373.56 162.95C369.61 160.67 366.39 162.5 366.38 167.05C366.43 169.076 366.925 171.067 367.83 172.88L365.72 173.15C364.581 170.799 363.96 168.231 363.9 165.62C363.91 159.51 368.25 157 373.56 160.11Z" fill="white"/>
<path d="M374.57 169.17C374.928 169.406 375.226 169.722 375.44 170.094C375.653 170.465 375.777 170.882 375.8 171.31V173.67C375.8 174.46 375.25 174.78 374.56 174.39L372.5 173.2C372.141 172.965 371.843 172.649 371.629 172.277C371.416 171.905 371.292 171.488 371.27 171.06V168.69C371.27 167.9 371.83 167.59 372.52 167.98L374.57 169.17Z" fill="white"/>
<path d="M373.87 160.3C379.04 163.48 383.19 170.76 383.17 176.75C383.15 182.74 378.82 185.33 373.5 182.26C370.054 180.067 367.342 176.895 365.71 173.15L367.82 172.88C369.047 175.562 371.023 177.833 373.51 179.42C377.46 181.7 380.68 179.86 380.7 175.32C380.567 172.903 379.881 170.55 378.695 168.44C377.509 166.33 375.855 164.52 373.86 163.15L373.87 160.3Z" fill="white"/>
<path d="M346.44 181.29C346.945 181.617 347.365 182.059 347.664 182.581C347.963 183.103 348.133 183.689 348.16 184.29V187.58C348.16 188.67 347.39 189.11 346.43 188.58L343.57 186.93C343.069 186.6 342.653 186.156 342.356 185.635C342.058 185.114 341.889 184.529 341.86 183.93V180.64C341.86 179.55 342.64 179.11 343.58 179.64L346.44 181.29Z" fill="#FFAD4F"/>
<path d="M346.42 190.55C346.924 190.877 347.342 191.32 347.64 191.842C347.937 192.364 348.105 192.95 348.13 193.55V196.84C348.13 197.93 347.36 198.37 346.41 197.84L343.55 196.19C343.046 195.863 342.628 195.42 342.33 194.898C342.033 194.376 341.865 193.79 341.84 193.19V189.89C341.84 188.8 342.61 188.36 343.56 188.89L346.42 190.55Z" fill="#FFAD4F"/>
<path d="M346.39 199.82C346.895 200.147 347.314 200.59 347.613 201.112C347.912 201.634 348.083 202.219 348.11 202.82V206.11C348.11 207.2 347.33 207.64 346.38 207.11L343.52 205.46C343.017 205.132 342.599 204.689 342.301 204.167C342.004 203.645 341.835 203.06 341.81 202.46V199.17C341.81 198.09 342.58 197.65 343.53 198.17L346.39 199.82Z" fill="#FFAD4F"/>
<path d="M394.52 229.59L394.51 232.86L351.05 207.76L351.06 204.49L394.52 229.59Z" fill="#FFAD4F"/>
<path d="M411.85 230.31L411.84 233.59L351.07 198.51L351.08 195.23L411.85 230.31Z" fill="#FFAD4F"/>
<path d="M403.83 216.41L403.82 219.68L351.1 189.25L351.11 185.97L403.83 216.41Z" fill="#FFAD4F"/>
<path d="M244.3 71.51C244.3 63.08 241.3 57.16 236.49 54.37L225.7 48L225.55 47.92C225.119 47.6701 224.671 47.4496 224.21 47.26C224.125 47.2255 224.038 47.1955 223.95 47.17L223.49 47.01C223.26 46.93 223.04 46.83 222.8 46.76C222.56 46.69 222.28 46.64 222.03 46.58L221.55 46.48C221.468 46.4541 221.385 46.4341 221.3 46.42C220.764 46.3259 220.223 46.2625 219.68 46.23H219.19C218.77 46.23 218.35 46.23 217.91 46.23L217.47 46.28L216.67 46.36C216.42 46.36 216.17 46.36 215.92 46.43L215.25 46.58C214.89 46.64 214.53 46.72 214.16 46.81C213.96 46.81 213.77 46.88 213.57 46.94C213.12 47.06 212.67 47.2 212.21 47.35H212.07C211.52 47.53 210.98 47.74 210.42 47.97L209.76 48.27L209.13 48.56C208.32 48.94 207.51 49.35 206.68 49.83L127.8 95.38C126.94 95.88 126.09 96.42 125.25 97L124.45 97.58C123.88 97.99 123.32 98.41 122.76 98.85L121.85 99.61C121.34 100.04 120.85 100.48 120.34 100.93L119.44 101.77L118.87 102.3C118.68 102.49 118.49 102.71 118.3 102.91C117.7 103.52 117.1 104.15 116.52 104.8C116.34 105.01 116.14 105.2 115.95 105.41L115.5 105.96C115.15 106.37 114.81 106.8 114.5 107.22C114.19 107.64 114.04 107.77 113.82 108.05C113.6 108.33 113.47 108.53 113.3 108.77C113.13 109.01 112.8 109.43 112.56 109.77L112.04 110.46C111.76 110.86 111.5 111.27 111.23 111.68L110.71 112.45L110.5 112.77C110.02 113.52 109.56 114.27 109.11 115.04L109.03 115.19L108.77 115.65C108.46 116.19 108.15 116.74 107.86 117.29C107.72 117.54 107.6 117.8 107.47 118.06L107.06 118.86C106.95 119.1 106.82 119.33 106.71 119.56C106.4 120.19 106.12 120.82 105.84 121.46L105.69 121.79L105.64 121.88C105.3 122.68 104.97 123.48 104.64 124.28C104.59 124.43 104.54 124.58 104.48 124.73C104.42 124.88 104.28 125.31 104.17 125.6C104.06 125.89 103.87 126.4 103.74 126.81C103.61 127.22 103.55 127.43 103.45 127.75C103.35 128.07 103.22 128.48 103.12 128.84C103.02 129.2 102.97 129.3 102.91 129.53C102.79 129.94 102.71 130.35 102.61 130.76C102.51 131.17 102.37 131.67 102.27 132.12C102.27 132.28 102.19 132.44 102.15 132.6C102.08 132.93 102.05 133.25 101.99 133.6C101.85 134.31 101.72 135.02 101.62 135.73C101.62 135.93 101.54 136.13 101.52 136.32C101.46 136.77 101.43 137.21 101.39 137.66C101.35 138.11 101.32 138.29 101.3 138.6C101.22 139.6 101.17 140.6 101.18 141.55L101.52 293.76C101.52 302.19 104.52 308.12 109.33 310.91L120.13 317.3C119.827 317.112 119.533 316.908 119.25 316.69C124.17 320.12 131.25 320 139.14 315.44L218 269.88C232.76 261.36 244.7 240.69 244.65 223.71L244.3 71.51Z" fill="#FFAD4F"/>
<path opacity="0.6" d="M244.3 71.51C244.3 63.08 241.3 57.16 236.49 54.37L225.7 48L225.55 47.92C225.119 47.6701 224.671 47.4496 224.21 47.26C224.125 47.2255 224.038 47.1955 223.95 47.17L223.49 47.01C223.26 46.93 223.04 46.83 222.8 46.76C222.56 46.69 222.28 46.64 222.03 46.58L221.55 46.48C221.468 46.4541 221.385 46.4341 221.3 46.42C220.764 46.3259 220.223 46.2625 219.68 46.23H219.19C218.77 46.23 218.35 46.23 217.91 46.23L217.47 46.28L216.67 46.36C216.42 46.36 216.17 46.36 215.92 46.43L215.25 46.58C214.89 46.64 214.53 46.72 214.16 46.81C213.96 46.81 213.77 46.88 213.57 46.94C213.12 47.06 212.67 47.2 212.21 47.35H212.07C211.52 47.53 210.98 47.74 210.42 47.97L209.76 48.27L209.13 48.56C208.32 48.94 207.51 49.35 206.68 49.83L127.8 95.38C126.94 95.88 126.09 96.42 125.25 97L124.45 97.58C123.88 97.99 123.32 98.41 122.76 98.85L121.85 99.61C121.34 100.04 120.85 100.48 120.34 100.93L119.44 101.77L118.87 102.3C118.68 102.49 118.49 102.71 118.3 102.91C117.7 103.52 117.1 104.15 116.52 104.8C116.34 105.01 116.14 105.2 115.95 105.41L115.5 105.96C115.15 106.37 114.81 106.8 114.5 107.22C114.19 107.64 114.04 107.77 113.82 108.05C113.6 108.33 113.47 108.53 113.3 108.77C113.13 109.01 112.8 109.43 112.56 109.77L112.04 110.46C111.76 110.86 111.5 111.27 111.23 111.68L110.71 112.45L110.5 112.77C110.02 113.52 109.56 114.27 109.11 115.04L109.03 115.19L108.77 115.65C108.46 116.19 108.15 116.74 107.86 117.29C107.72 117.54 107.6 117.8 107.47 118.06L107.06 118.86C106.95 119.1 106.82 119.33 106.71 119.56C106.4 120.19 106.12 120.82 105.84 121.46L105.69 121.79L105.64 121.88C105.3 122.68 104.97 123.48 104.64 124.28C104.59 124.43 104.54 124.58 104.48 124.73C104.42 124.88 104.28 125.31 104.17 125.6C104.06 125.89 103.87 126.4 103.74 126.81C103.61 127.22 103.55 127.43 103.45 127.75C103.35 128.07 103.22 128.48 103.12 128.84C103.02 129.2 102.97 129.3 102.91 129.53C102.79 129.94 102.71 130.35 102.61 130.76C102.51 131.17 102.37 131.67 102.27 132.12C102.27 132.28 102.19 132.44 102.15 132.6C102.08 132.93 102.05 133.25 101.99 133.6C101.85 134.31 101.72 135.02 101.62 135.73C101.62 135.93 101.54 136.13 101.52 136.32C101.46 136.77 101.43 137.21 101.39 137.66C101.35 138.11 101.32 138.29 101.3 138.6C101.22 139.6 101.17 140.6 101.18 141.55L101.52 293.76C101.52 302.19 104.52 308.12 109.33 310.91L120.13 317.3C119.827 317.112 119.533 316.908 119.25 316.69C124.17 320.12 131.25 320 139.14 315.44L218 269.88C232.76 261.36 244.7 240.69 244.65 223.71L244.3 71.51Z" fill="white"/>
<path opacity="0.1" d="M112.3 300.12L112 147.92L101.2 141.53L101.54 293.74C101.54 302.17 104.54 308.1 109.35 310.89L120.15 317.28C115.31 314.49 112.33 308.56 112.3 300.12Z" fill="black"/>
<path opacity="0.3" d="M220.56 54.67C221.314 54.3238 222.085 54.0167 222.87 53.75H223.01C223.67 53.53 224.32 53.36 225.01 53.21L226.1 52.97C226.58 52.88 227.05 52.81 227.52 52.76L228.32 52.67C228.893 52.6403 229.467 52.6403 230.04 52.67H230.43C231.101 52.7101 231.769 52.7936 232.43 52.92L232.91 53.03C233.404 53.1461 233.892 53.2897 234.37 53.46L234.83 53.61C235.434 53.8452 236.019 54.126 236.58 54.45L225.7 48L225.55 47.92C225.119 47.6701 224.671 47.4496 224.21 47.26C224.125 47.2255 224.038 47.1955 223.95 47.17L223.49 47.01C223.26 46.93 223.04 46.83 222.8 46.76C222.56 46.69 222.28 46.64 222.03 46.58L221.55 46.48C221.468 46.4541 221.385 46.4341 221.3 46.42C220.764 46.3259 220.223 46.2625 219.68 46.23H219.19C218.77 46.23 218.35 46.23 217.91 46.23L217.47 46.28L216.67 46.36C216.42 46.36 216.17 46.36 215.92 46.43L215.25 46.58C214.89 46.64 214.53 46.72 214.16 46.81C213.96 46.81 213.77 46.88 213.57 46.94C213.12 47.06 212.67 47.2 212.21 47.35H212.07C211.52 47.53 210.98 47.74 210.42 47.97L209.76 48.27L209.13 48.56C208.32 48.94 207.51 49.35 206.68 49.83L127.8 95.38C126.94 95.88 126.09 96.42 125.25 97L124.45 97.59C123.88 97.99 123.32 98.41 122.76 98.85L121.85 99.61C121.34 100.04 120.85 100.48 120.34 100.93L119.44 101.77L118.87 102.3C118.68 102.49 118.49 102.71 118.3 102.91C117.7 103.52 117.1 104.15 116.52 104.8C116.34 105.01 116.14 105.2 115.95 105.41L115.5 105.96C115.15 106.37 114.81 106.8 114.5 107.22C114.19 107.64 114.04 107.77 113.82 108.05C113.6 108.33 113.47 108.53 113.3 108.77C113.13 109.01 112.8 109.43 112.56 109.77L112.04 110.46C111.76 110.86 111.5 111.27 111.23 111.68L110.71 112.45L110.5 112.77C110.02 113.52 109.56 114.27 109.11 115.04L109.03 115.19L108.77 115.65C108.46 116.2 108.15 116.74 107.86 117.29C107.72 117.54 107.6 117.8 107.47 118.06L107.06 118.86C106.95 119.1 106.82 119.33 106.71 119.56C106.4 120.19 106.12 120.82 105.84 121.46L105.69 121.79L105.64 121.88C105.3 122.68 104.97 123.48 104.64 124.28C104.59 124.43 104.54 124.58 104.48 124.73C104.42 124.88 104.28 125.31 104.17 125.6C104.06 125.89 103.87 126.4 103.74 126.81C103.61 127.22 103.55 127.43 103.45 127.75C103.35 128.07 103.22 128.48 103.12 128.84C103.02 129.2 102.97 129.3 102.91 129.53C102.79 129.94 102.71 130.35 102.61 130.76C102.51 131.17 102.37 131.67 102.27 132.12C102.27 132.28 102.19 132.44 102.15 132.6C102.08 132.93 102.05 133.25 101.99 133.6C101.85 134.31 101.72 135.02 101.62 135.73C101.62 135.93 101.54 136.13 101.52 136.32C101.46 136.77 101.43 137.21 101.39 137.66C101.35 138.11 101.32 138.29 101.3 138.6C101.22 139.6 101.17 140.6 101.18 141.55L111.98 147.94C111.98 146.94 111.98 145.94 112.09 144.99C112.09 144.67 112.16 144.36 112.19 144.04C112.25 143.4 112.33 142.76 112.42 142.12C112.51 141.48 112.65 140.7 112.79 139.99C112.88 139.5 112.96 138.99 113.07 138.53C113.18 138.07 113.29 137.62 113.41 137.16C113.57 136.53 113.73 135.89 113.91 135.25C114.02 134.89 114.14 134.52 114.25 134.15C114.48 133.44 114.72 132.72 114.97 132.01C115.07 131.72 115.17 131.42 115.28 131.13C115.65 130.13 116.04 129.13 116.47 128.2L116.62 127.86C117.01 126.99 117.41 126.13 117.84 125.27C117.97 125 118.11 124.73 118.25 124.47C118.66 123.66 119.1 122.86 119.55 122.06L119.81 121.6C120.35 120.67 120.91 119.76 121.49 118.86L122.01 118.08C122.44 117.44 122.88 116.81 123.33 116.18L124.08 115.18C124.47 114.66 124.88 114.18 125.28 113.64L126.28 112.37L127.28 111.22C127.86 110.57 128.46 109.94 129.06 109.33C129.44 108.94 129.81 108.56 130.2 108.19C130.59 107.82 130.8 107.62 131.1 107.35C131.6 106.89 132.1 106.45 132.61 106.03L133.52 105.27C134.08 104.83 134.64 104.41 135.21 104C135.48 103.81 135.74 103.6 136.01 103.42C136.85 102.84 137.7 102.3 138.56 101.8L217.44 56.26C218.27 55.78 219.08 55.37 219.89 54.99L220.56 54.67Z" fill="white"/>
<path d="M125.75 300.08C125.75 303.39 126.48 305.08 126.85 305.6C126.963 305.61 127.077 305.61 127.19 305.6C127.8 305.6 129.52 305.42 132.4 303.76L211.28 258.22C221.93 252.07 231.28 235.96 231.2 223.73L231.12 184.63L125.62 246.2L125.75 300.08Z" fill="#FFAD4F"/>
<path d="M230.86 71.55C230.86 68.2 230.1 66.55 229.74 66.03H229.29H228.98L228.54 66.1L228.12 66.19C227.86 66.25 227.49 66.35 227.22 66.44H227.09C226.82 66.54 226.46 66.68 226.09 66.87L225.72 67.04C225.12 67.32 224.65 67.56 224.24 67.8L145.36 113.34C144.87 113.63 144.36 113.97 143.75 114.34L143.15 114.77C142.76 115.06 142.37 115.35 141.99 115.65L141.45 116.09L141.34 116.19C140.96 116.5 140.6 116.82 140.24 117.14L139.57 117.77L138.85 118.5L138.72 118.63C138.26 119.09 137.81 119.57 137.38 120.06L137.23 120.22L136.59 120.94L135.78 121.94C135.46 122.34 135.14 122.74 134.84 123.15L134.25 123.93C133.9 124.43 133.55 124.93 133.25 125.44L132.83 126.06C132.35 126.81 131.9 127.54 131.51 128.21L131.29 128.6C130.93 129.23 130.59 129.87 130.29 130.51L129.97 131.14C129.63 131.82 129.31 132.5 128.97 133.14C128.91 133.27 128.86 133.4 128.79 133.54C128.51 134.2 128.22 134.92 127.91 135.73L127.67 136.41C127.47 136.96 127.29 137.51 127.12 138.06C127.03 138.34 126.94 138.62 126.86 138.89C126.72 139.37 126.6 139.84 126.48 140.34L126.41 140.61L126.23 141.33L126.11 141.95L126.03 142.39C125.93 142.9 125.84 143.39 125.77 143.91C125.7 144.43 125.65 144.79 125.61 145.23L125.54 145.87C125.48 146.62 125.46 147.24 125.46 147.79L125.67 241.64L231.17 180.07L230.86 71.55Z" fill="#455A64"/>
<path d="M125.61 241.74L125.62 246.22L231.12 184.65L231.1 180.17L125.61 241.74Z" fill="white"/>
<path d="M214.05 124.46L204 130.27L193.22 136.5L204 130.27C207.62 122.27 207.12 114.27 202.5 111.67C199.92 110.2 196.5 110.67 193.18 112.67C189.292 115.087 186.09 118.461 183.88 122.47L181.13 127.23L180.66 121.15C180.66 120.64 180.24 120.44 179.73 120.7C179.489 120.858 179.283 121.063 179.124 121.304C178.966 121.545 178.859 121.816 178.81 122.1L177.95 127.71L176.37 126.81C173.79 125.34 170.37 125.81 167.04 127.76C163.153 130.175 159.954 133.55 157.75 137.56C153.15 145.56 152.7 154.02 156.36 157.83L146.29 163.64C146.016 163.813 145.789 164.05 145.627 164.33C145.465 164.611 145.373 164.926 145.36 165.25C145.36 165.84 145.78 166.08 146.29 165.79L158 159L161.61 161.06L180.3 171.7L182.43 168.01L182.52 169.16C182.52 169.68 182.96 169.88 183.45 169.61C183.703 169.443 183.917 169.223 184.077 168.966C184.238 168.709 184.341 168.421 184.38 168.12L184.75 163.99L198.86 139.55L202.45 133.34L214.11 126.61C214.372 126.428 214.589 126.189 214.744 125.909C214.898 125.63 214.986 125.319 215 125C215 124.4 214.57 124.16 214.05 124.46Z" fill="#FFAD4F"/>
<path d="M179.72 120.65C180.23 120.39 180.61 120.59 180.65 121.1L181.12 127.18L183.51 157.54L186.4 125.91C186.43 125.617 186.524 125.334 186.677 125.082C186.829 124.829 187.035 124.613 187.28 124.45C187.76 124.17 188.15 124.3 188.23 124.77L191.65 143.25L192.29 137.94C192.331 137.648 192.435 137.369 192.594 137.12C192.752 136.872 192.963 136.66 193.21 136.5L204 130.27L214.06 124.46C214.58 124.16 215 124.4 215 125C214.981 125.322 214.887 125.636 214.726 125.915C214.564 126.195 214.34 126.433 214.07 126.61L202.41 133.34L194 138.18L192.67 149.18C192.63 149.469 192.529 149.745 192.374 149.992C192.219 150.239 192.013 150.449 191.77 150.61C191.3 150.88 190.92 150.74 190.83 150.28L187.56 132.53L184.7 164L184.33 168.13C184.291 168.431 184.188 168.719 184.027 168.976C183.867 169.233 183.653 169.453 183.4 169.62C182.91 169.89 182.51 169.69 182.47 169.17L182.38 168.02L179.38 129.7L174.38 162.19C174.33 162.471 174.223 162.739 174.067 162.978C173.91 163.217 173.707 163.422 173.47 163.58C172.95 163.85 172.58 163.65 172.54 163.14L170.54 140.14L168.27 152.27C168.214 152.542 168.105 152.801 167.949 153.031C167.793 153.261 167.592 153.458 167.36 153.61L158 159L146.33 165.74C145.82 166.03 145.4 165.74 145.4 165.2C145.413 164.876 145.505 164.561 145.667 164.28C145.828 164 146.056 163.763 146.33 163.59L156.4 157.78L166.66 151.85L170.06 133.72C170.113 133.445 170.221 133.184 170.377 132.952C170.534 132.72 170.735 132.522 170.97 132.37C171.49 132.11 171.85 132.32 171.9 132.81L173.84 154.81L177.99 127.64L178.85 122.03C178.896 121.754 178.996 121.489 179.145 121.252C179.295 121.015 179.49 120.81 179.72 120.65Z" fill="white"/>
<path d="M167.16 191.19L167.19 204.24L163.36 206.45L163.33 196.72L161.38 197.84V194.53L167.16 191.19Z" fill="white"/>
<path d="M172.79 187.64C175.48 186.09 177.38 186.64 177.39 189.08C177.39 190.36 177.11 191.68 175.45 194.36L173.84 197L177.66 194.8V198.21L168.56 203.47V200.77L172.66 194.03C173.172 193.361 173.481 192.559 173.55 191.72C173.55 191.1 173.17 190.92 172.44 191.34C171.649 191.848 171.059 192.615 170.77 193.51H167.88C168.774 191.036 170.513 188.957 172.79 187.64Z" fill="white"/>
<path d="M183.56 181.42C186.56 179.7 188.71 180.95 188.72 185.27C188.785 187.205 188.347 189.124 187.45 190.839C186.552 192.555 185.226 194.009 183.6 195.06C180.6 196.8 178.44 195.54 178.43 191.21C178.368 189.274 178.808 187.356 179.707 185.64C180.606 183.925 181.933 182.471 183.56 181.42ZM183.56 191.54C184.3 191.11 184.85 190.01 184.84 187.54C184.83 185.07 184.28 184.54 183.54 185C182.8 185.46 182.24 186.53 182.25 189C182.26 191.47 182.82 192 183.56 191.55" fill="white"/>
<path d="M193.67 184.77C194.6 184.23 195.4 184.58 195.4 185.89C195.393 186.513 195.232 187.124 194.932 187.67C194.632 188.216 194.202 188.68 193.68 189.02C193.24 189.27 192.92 189.33 192.68 189.18V189.51L191.28 190.32V184.75L192.75 183.9V185.65C192.968 185.276 193.287 184.971 193.67 184.77ZM193.32 187.91C193.508 187.785 193.659 187.613 193.761 187.411C193.863 187.21 193.911 186.985 193.9 186.76C193.9 186.23 193.64 186.11 193.32 186.3C193.134 186.421 192.983 186.59 192.883 186.788C192.783 186.987 192.737 187.208 192.75 187.43C192.75 187.96 193 188.09 193.32 187.91Z" fill="white"/>
<path d="M198.24 182.12C199.17 181.59 199.96 181.95 199.96 183.27C199.957 183.89 199.798 184.499 199.5 185.042C199.201 185.585 198.772 186.045 198.25 186.38C197.86 186.6 197.56 186.67 197.34 186.55V188.29L195.87 189.14V183.59L197.27 182.78V183.11C197.494 182.696 197.83 182.353 198.24 182.12ZM197.9 185.27C198.087 185.147 198.24 184.977 198.341 184.777C198.443 184.577 198.491 184.354 198.48 184.13C198.48 183.6 198.22 183.47 197.89 183.66C197.702 183.785 197.549 183.957 197.448 184.158C197.346 184.36 197.298 184.584 197.31 184.81C197.31 185.34 197.57 185.46 197.9 185.27Z" fill="white"/>
<path d="M205.15 178.13C205.96 177.67 206.57 177.88 206.57 179.13V181.47L205.1 182.32V180.32C205.1 179.8 204.94 179.7 204.71 179.83C204.551 179.94 204.424 180.091 204.343 180.267C204.262 180.443 204.23 180.637 204.25 180.83V182.83L202.78 183.68V181.68C202.78 181.16 202.62 181.06 202.37 181.2C202.211 181.31 202.084 181.461 202.003 181.637C201.922 181.813 201.89 182.007 201.91 182.2V184.2L200.43 185.05V180.95L201.83 180.15V180.52C202.073 180.107 202.417 179.763 202.83 179.52C203.3 179.25 203.7 179.22 203.95 179.52C204.208 178.951 204.625 178.468 205.15 178.13Z" fill="white"/>
<path d="M144.09 247C147.63 244.95 150.51 246.6 150.53 250.66C150.415 252.881 149.775 255.044 148.662 256.97C147.55 258.896 145.997 260.53 144.13 261.74C140.58 263.79 137.7 262.15 137.69 258.07C137.807 255.851 138.449 253.691 139.561 251.767C140.673 249.843 142.225 248.209 144.09 247Z" fill="white"/>
<path d="M221.34 208.35L221.35 211.12L157.49 247.99L157.48 245.23L221.34 208.35Z" fill="white"/>
<path d="M221.41 229.86V232.63L157.55 269.5L157.54 266.73L221.41 229.86Z" fill="white"/>
<path d="M191.8 252.14L191.81 254.9L157.56 274.67V271.91L191.8 252.14Z" fill="white"/>
<path d="M182.67 247.04V249.81L157.53 264.33V261.56L182.67 247.04Z" fill="white"/>
<path d="M214.39 217.55L214.4 220.31L157.5 253.16V250.4L214.39 217.55Z" fill="white"/>
<path d="M196.69 217.41L196.7 220.17L157.47 242.82V240.05L196.69 217.41Z" fill="white"/>
<path d="M144.15 268.47C147.69 266.42 150.58 268.06 150.59 272.13C150.473 274.351 149.832 276.512 148.719 278.438C147.607 280.363 146.055 281.999 144.19 283.21C140.65 285.26 137.76 283.61 137.75 279.54C137.867 277.321 138.509 275.161 139.621 273.237C140.733 271.312 142.285 269.679 144.15 268.47Z" fill="white"/>
<path d="M289.5 469C319.6 469 344 454.897 344 437.5C344 420.103 319.6 406 289.5 406C259.4 406 235 420.103 235 437.5C235 454.897 259.4 469 289.5 469Z" fill="#E0E0E0"/>
<path d="M303.945 361.07L296.106 392.734C295.025 397.891 294.91 403.204 295.767 408.403C295.767 408.403 289.561 410.083 285.334 408.151C281.753 406.503 280.5 404.784 280.5 404.784L281.233 396.566L283.993 360.621L303.945 361.07Z" fill="#FFE6B6"/>
<path d="M280.515 404.784L281.249 396.566L284.009 360.621L291.438 360.873C291.114 371.125 288.993 397.339 288.425 404.318C288.425 404.318 288.267 406.164 288.086 408.924C287.134 408.791 286.205 408.525 285.326 408.135C281.769 406.503 280.515 404.784 280.515 404.784Z" fill="#FFE6B6"/>
<path d="M291.39 275.473C298.583 297.279 308.929 340.511 306.374 352.293C304.45 361.126 299.9 379.335 299.9 379.335C296.106 380.029 284.916 381.149 281.635 374.603C280.437 363.783 239.515 276.286 239.515 276.286L291.39 275.473Z" fill="#FFAD4F"/>
<path opacity="0.25" d="M290.349 379.65C291.012 370.345 291.588 360.952 291.493 357.861C291.272 350.44 278.228 304.471 278.228 304.471C285.152 296.987 285.831 291.001 285.831 291.001C282.318 295.742 278.433 300.196 274.214 304.321L282.802 376.299C284.727 378.925 288.173 379.548 290.349 379.65Z" fill="black"/>
<path d="M277.921 408.537C277.765 409.481 277.8 410.446 278.023 411.377C278.205 412.354 281.138 415.091 282.061 416.794C282.984 418.498 283.039 419.16 284.033 421.424C285.137 423.955 285.492 426.944 291.611 430.217C297.731 433.49 302.242 433.166 305.428 432.677C308.614 432.188 309.781 430.8 309.781 430.8C309.781 430.8 311.421 427.259 309.513 426.116C307.605 424.972 277.921 408.537 277.921 408.537Z" fill="#263238"/>
<path d="M295.799 402.426C296.209 402.986 296.264 404.405 296.375 405.075C296.761 407.331 298.11 409.571 299.34 411.471C305.168 420.477 311.887 421.368 310.617 428.143C310.168 430.027 306.154 432.307 297.826 431.203C293.567 430.635 287.621 426.723 286.146 423.75C284.671 420.777 284.246 418.332 282.992 416.132C281.738 413.932 278.355 410.959 277.85 408.537C277.649 407.09 277.776 405.616 278.221 404.224C278.504 403.08 279.514 400.975 279.837 399.839C280.161 398.703 280.097 397.844 281.083 397.915L281.265 399.784C281.738 402.899 282.369 402.804 283.347 403.727C284.315 404.825 285.169 406.02 285.894 407.291C285.665 405.194 285.042 403.79 286.241 402.97C287.439 402.15 288.898 401.874 291.714 401.811C294.529 401.747 295.444 401.929 295.799 402.426Z" fill="#FFAD4F"/>
<path opacity="0.4" d="M295.799 402.426C296.209 402.986 296.264 404.405 296.375 405.075C296.761 407.331 298.11 409.571 299.34 411.471C305.168 420.477 311.887 421.368 310.617 428.143C310.168 430.027 306.154 432.307 297.826 431.203C293.567 430.635 287.621 426.723 286.146 423.75C284.671 420.777 284.246 418.332 282.992 416.132C281.738 413.932 278.355 410.959 277.85 408.537C277.649 407.09 277.776 405.616 278.221 404.224C278.504 403.08 279.514 400.975 279.837 399.839C280.161 398.703 280.097 397.844 281.083 397.915L281.265 399.784C281.738 402.899 282.369 402.804 283.347 403.727C284.315 404.825 285.169 406.02 285.894 407.291C285.665 405.194 285.042 403.79 286.241 402.97C287.439 402.15 288.898 401.874 291.714 401.811C294.529 401.747 295.444 401.929 295.799 402.426Z" fill="black"/>
<path opacity="0.3" d="M297.826 431.203C293.567 430.635 287.621 426.723 286.146 423.75C285.667 422.765 285.243 421.754 284.876 420.722C284.995 420.903 285.097 421.108 285.208 421.258C285.444 421.589 285.697 421.92 285.957 422.244C286.912 423.56 288.191 424.606 289.671 425.28C291.012 425.8 294.293 427.181 295.602 425.998C296.351 425.327 296.264 424.034 295.759 422.961C295.539 422.512 294.845 421.384 294.845 421.384C296.264 420.515 297.814 419.879 299.434 419.499C300.943 419.151 302.496 419.031 304.04 419.144C304.449 419.781 304.964 420.344 305.562 420.808C306.235 421.28 307.001 421.6 307.81 421.747C308.091 421.751 308.371 421.722 308.646 421.66C310.27 423.466 311.145 425.272 310.617 428.111C310.168 430.027 306.153 432.307 297.826 431.203Z" fill="black"/>
<path d="M299.34 411.471C300.876 413.83 302.687 415.998 304.734 417.93C305.925 420.525 305.27 421.085 304.206 420.146C303.141 419.208 300.42 413.837 298.062 409.421C298.488 410.131 298.922 410.825 299.34 411.471Z" fill="#37474F"/>
<path d="M281.58 404.027C280.544 403.136 279.852 401.912 279.624 400.565C279.719 400.296 279.806 400.052 279.869 399.839C280.216 398.617 280.129 397.844 281.115 397.915L281.296 399.784C281.769 402.899 282.4 402.804 283.378 403.727C284.346 404.825 285.2 406.02 285.925 407.292C288.354 411.306 288.725 413.072 291.383 416.503C294.04 419.933 296.682 421.4 296.422 422.023C296.162 422.646 294.939 423.135 292.36 420.824C289.782 418.514 286.801 413.309 285.641 410.572C284.482 407.836 283.031 405.186 281.58 404.027Z" fill="#37474F"/>
<path d="M294.845 421.842C294.772 421.842 294.701 421.824 294.638 421.79C294.574 421.755 294.521 421.705 294.482 421.644C294.451 421.597 294.43 421.545 294.42 421.489C294.409 421.434 294.41 421.377 294.422 421.322C294.433 421.267 294.456 421.215 294.488 421.169C294.52 421.123 294.561 421.083 294.608 421.053C297.49 419.244 300.904 418.473 304.284 418.869C304.398 418.879 304.503 418.933 304.577 419.02C304.651 419.107 304.687 419.22 304.679 419.334C304.667 419.447 304.612 419.551 304.525 419.624C304.438 419.698 304.327 419.735 304.213 419.728C301.023 419.348 297.799 420.069 295.073 421.771C295.006 421.817 294.926 421.841 294.845 421.842Z" fill="#EBEBEB"/>
<path d="M292.715 418.892C292.64 418.894 292.565 418.876 292.499 418.84C292.432 418.804 292.377 418.751 292.337 418.687C292.275 418.588 292.256 418.468 292.282 418.354C292.309 418.24 292.38 418.142 292.479 418.08C295.551 416.267 299.131 415.506 302.676 415.911C302.733 415.915 302.79 415.931 302.841 415.957C302.893 415.983 302.939 416.019 302.976 416.063C303.014 416.107 303.042 416.158 303.06 416.213C303.077 416.269 303.083 416.327 303.078 416.384C303.066 416.501 303.009 416.608 302.919 416.683C302.829 416.758 302.714 416.795 302.597 416.787C299.243 416.403 295.855 417.12 292.944 418.829C292.876 418.873 292.796 418.895 292.715 418.892Z" fill="#EBEBEB"/>
<path d="M289.884 416.124C289.801 416.123 289.72 416.101 289.648 416.06C289.576 416.018 289.516 415.959 289.474 415.887C289.44 415.834 289.417 415.774 289.406 415.711C289.396 415.649 289.398 415.585 289.412 415.523C289.427 415.461 289.454 415.403 289.492 415.352C289.53 415.3 289.577 415.257 289.632 415.225C293.023 413.24 296.966 412.41 300.87 412.859C300.989 412.881 301.096 412.946 301.17 413.042C301.244 413.139 301.28 413.259 301.27 413.38C301.26 413.501 301.206 413.614 301.117 413.697C301.029 413.78 300.912 413.827 300.791 413.829C297.094 413.393 293.355 414.168 290.137 416.037C290.062 416.089 289.975 416.119 289.884 416.124Z" fill="#EBEBEB"/>
<path d="M287.928 413.309C287.823 413.313 287.719 413.281 287.633 413.219C287.548 413.156 287.486 413.068 287.457 412.966C287.428 412.864 287.433 412.756 287.473 412.658C287.513 412.56 287.584 412.478 287.676 412.426C291 410.455 294.877 409.624 298.717 410.06C298.843 410.072 298.96 410.133 299.041 410.231C299.122 410.328 299.161 410.454 299.151 410.58C299.146 410.643 299.128 410.704 299.099 410.76C299.07 410.817 299.03 410.866 298.982 410.907C298.933 410.947 298.877 410.977 298.817 410.996C298.756 411.014 298.693 411.02 298.63 411.014C295.002 410.594 291.336 411.369 288.189 413.222C288.113 413.278 288.022 413.308 287.928 413.309Z" fill="#EBEBEB"/>
<path d="M286.509 410.091C286.427 410.09 286.347 410.068 286.275 410.028C286.204 409.988 286.143 409.931 286.099 409.862C286.034 409.754 286.015 409.625 286.044 409.503C286.074 409.381 286.15 409.275 286.257 409.208C289.581 407.237 293.458 406.406 297.297 406.842C297.364 406.842 297.43 406.856 297.491 406.883C297.553 406.91 297.607 406.949 297.652 406.999C297.698 407.048 297.732 407.106 297.753 407.17C297.775 407.233 297.782 407.3 297.776 407.367C297.77 407.433 297.75 407.498 297.718 407.556C297.686 407.615 297.641 407.666 297.588 407.706C297.535 407.747 297.474 407.775 297.409 407.791C297.344 407.806 297.276 407.808 297.211 407.796C293.582 407.376 289.917 408.152 286.769 410.004C286.693 410.059 286.602 410.089 286.509 410.091Z" fill="#EBEBEB"/>
<path d="M287.51 375.431C287.566 378.16 286.383 419.681 286.422 420.911C286.486 423.063 286.75 425.204 287.211 427.307C287.419 428.214 287.715 429.099 288.094 429.949C288.488 430.919 289.253 432.251 288.772 433.182C288.533 433.616 288.211 433.999 287.826 434.31C286.11 435.718 283.92 436.415 281.706 436.258C280.539 436.223 279.403 435.874 278.418 435.248C276.485 433.923 275.76 431.573 274.751 429.586C273.654 427.425 274.34 426.321 274.198 423.987C274.041 421.376 266.36 381.362 265.855 378.799C270.106 374.067 282.242 373.988 287.51 375.431Z" fill="#FFE6B6"/>
<path d="M274.214 304.321C282.952 296.9 289.537 287.807 291.39 275.473L238.774 274.929C237.236 282.027 234.539 289.605 235.99 299.44C236.352 301.884 237.11 307.854 238.947 311.679C245.997 326.395 256.115 344.154 264.435 358.996C264.317 361.851 262.456 364.107 264.333 375.747C265.24 381.346 267.369 389.666 269.183 396.401C273.646 399.555 285.531 397.457 287.148 395.155C287.439 385.076 288.583 370.794 287.865 358.634C287.384 349.698 274.214 304.321 274.214 304.321Z" fill="#FFAD4F"/>
<path d="M271.454 433.939C271.35 434.888 271.439 435.848 271.714 436.762C271.951 437.732 275.042 440.303 276.06 441.944C277.077 443.584 277.172 444.223 278.299 446.447C279.553 448.915 280.074 451.849 286.375 454.79C292.676 457.732 297.163 457.117 300.31 456.438C303.456 455.76 304.553 454.317 304.553 454.317C304.553 454.317 305.98 450.689 304.008 449.648C302.037 448.607 271.454 433.939 271.454 433.939Z" fill="#263238"/>
<path d="M288.962 426.802C289.403 427.33 289.537 428.75 289.687 429.412C290.2 431.644 291.682 433.797 293.015 435.619C299.324 444.294 306.122 444.775 305.239 451.612C304.907 453.521 301.027 456.028 292.621 455.405C288.339 455.09 282.171 451.525 280.531 448.647C278.891 445.768 278.315 443.347 276.967 441.226C275.618 439.105 272.038 436.329 271.399 433.939C271.112 432.506 271.15 431.026 271.509 429.61C271.73 428.458 272.613 426.297 272.874 425.146C273.134 423.995 273.016 423.135 274.009 423.143L274.293 425.004C274.948 428.08 275.571 427.953 276.604 428.837C277.637 429.875 278.557 431.02 279.348 432.251C279.009 430.162 278.291 428.797 279.443 427.906C280.594 427.015 282.037 426.66 284.845 426.431C287.652 426.203 288.591 426.289 288.962 426.802Z" fill="#FFAD4F"/>
<path opacity="0.4" d="M288.962 426.802C289.403 427.33 289.537 428.75 289.687 429.412C290.2 431.644 291.682 433.797 293.015 435.619C299.324 444.294 306.122 444.775 305.239 451.612C304.907 453.521 301.027 456.028 292.621 455.405C288.339 455.09 282.171 451.525 280.531 448.647C278.891 445.768 278.315 443.347 276.967 441.226C275.618 439.105 272.038 436.329 271.399 433.939C271.112 432.506 271.15 431.026 271.509 429.61C271.73 428.458 272.613 426.297 272.874 425.146C273.134 423.995 273.016 423.135 274.009 423.143L274.293 425.004C274.948 428.08 275.571 427.953 276.604 428.837C277.637 429.875 278.557 431.02 279.348 432.251C279.009 430.162 278.291 428.797 279.443 427.906C280.594 427.015 282.037 426.66 284.845 426.431C287.652 426.203 288.591 426.289 288.962 426.802Z" fill="black"/>
<path opacity="0.3" d="M292.676 455.405C288.394 455.09 282.227 451.525 280.586 448.647C280.048 447.693 279.566 446.708 279.143 445.697C279.269 445.879 279.388 446.068 279.498 446.21C279.761 446.536 280.024 446.851 280.287 447.156C281.34 448.409 282.698 449.37 284.23 449.948C285.602 450.39 288.961 451.581 290.2 450.319C290.902 449.601 290.744 448.316 290.2 447.283C289.955 446.841 289.19 445.784 289.19 445.784C291.844 443.937 295.011 442.969 298.244 443.016C298.691 443.628 299.238 444.161 299.86 444.593C300.56 445.024 301.346 445.294 302.163 445.382C302.43 445.37 302.694 445.328 302.952 445.256C304.671 446.959 305.657 448.71 305.318 451.565C304.931 453.521 301.051 456.028 292.676 455.405Z" fill="black"/>
<path d="M293.039 435.619C294.716 437.888 296.659 439.948 298.827 441.754C300.168 444.278 299.537 444.846 298.433 444.002C297.329 443.158 294.277 437.882 291.667 433.647C292.116 434.333 292.581 434.964 293.039 435.619Z" fill="#37474F"/>
<path d="M274.885 429.223C273.795 428.396 273.03 427.213 272.724 425.879C272.803 425.611 272.881 425.359 272.929 425.146C273.205 423.9 273.071 423.135 274.064 423.143L274.348 425.004C275.003 428.08 275.626 427.953 276.659 428.837C277.692 429.875 278.612 431.02 279.403 432.251C282.069 436.108 282.558 437.859 285.389 441.123C288.22 444.388 290.972 445.705 290.744 446.32C290.515 446.936 289.324 447.511 286.619 445.358C283.914 443.205 280.634 438.174 279.317 435.532C278 432.89 276.391 430.296 274.885 429.223Z" fill="#37474F"/>
<path d="M289.143 446.242C289.229 446.237 289.311 446.207 289.379 446.155C292.012 444.288 295.204 443.378 298.425 443.576C298.481 443.578 298.537 443.569 298.589 443.55C298.642 443.53 298.69 443.501 298.731 443.463C298.772 443.425 298.805 443.379 298.828 443.328C298.852 443.277 298.865 443.222 298.867 443.166C298.869 443.051 298.826 442.941 298.748 442.857C298.671 442.773 298.563 442.723 298.449 442.716C295.05 442.517 291.686 443.485 288.914 445.461C288.868 445.494 288.829 445.535 288.8 445.583C288.77 445.632 288.75 445.685 288.741 445.741C288.733 445.797 288.735 445.853 288.748 445.908C288.762 445.963 288.786 446.015 288.82 446.06C288.857 446.112 288.905 446.156 288.961 446.187C289.017 446.219 289.079 446.237 289.143 446.242Z" fill="#EBEBEB"/>
<path d="M286.848 443.418C286.933 443.419 287.017 443.391 287.085 443.339C289.892 441.463 293.232 440.55 296.603 440.737C296.662 440.741 296.721 440.734 296.776 440.714C296.831 440.695 296.882 440.664 296.925 440.624C296.968 440.584 297.002 440.536 297.025 440.482C297.049 440.428 297.061 440.37 297.061 440.311C297.063 440.193 297.019 440.079 296.937 439.994C296.856 439.908 296.745 439.858 296.627 439.854C293.073 439.665 289.553 440.633 286.596 442.614C286.524 442.67 286.471 442.748 286.445 442.835C286.419 442.923 286.421 443.017 286.451 443.103C286.48 443.19 286.536 443.265 286.61 443.319C286.684 443.372 286.772 443.402 286.864 443.403L286.848 443.418Z" fill="#EBEBEB"/>
<path d="M283.867 440.816C283.961 440.814 284.051 440.783 284.127 440.729C287.222 438.659 290.907 437.654 294.624 437.866C294.754 437.866 294.878 437.815 294.97 437.723C295.061 437.631 295.113 437.507 295.113 437.377C295.113 437.248 295.061 437.123 294.97 437.032C294.878 436.94 294.754 436.888 294.624 436.888C290.711 436.684 286.838 437.752 283.583 439.933C283.53 439.969 283.485 440.015 283.45 440.069C283.416 440.123 283.392 440.184 283.381 440.247C283.37 440.31 283.372 440.375 283.386 440.437C283.401 440.5 283.427 440.559 283.465 440.611C283.509 440.676 283.57 440.729 283.64 440.764C283.71 440.8 283.788 440.818 283.867 440.816Z" fill="#EBEBEB"/>
<path d="M281.746 438.119C281.837 438.117 281.925 438.086 281.998 438.032C285.034 436 288.65 435.014 292.297 435.225C292.423 435.225 292.544 435.176 292.635 435.09C292.726 435.003 292.78 434.885 292.786 434.759C292.788 434.633 292.741 434.511 292.654 434.42C292.567 434.328 292.447 434.274 292.321 434.27C288.471 434.055 284.655 435.102 281.454 437.251C281.351 437.324 281.282 437.435 281.26 437.558C281.237 437.682 281.265 437.81 281.336 437.914C281.38 437.98 281.442 438.034 281.514 438.07C281.585 438.106 281.665 438.123 281.746 438.119Z" fill="#EBEBEB"/>
<path d="M280.145 434.964C280.236 434.962 280.324 434.932 280.397 434.878C283.43 432.846 287.044 431.86 290.689 432.07C290.815 432.072 290.937 432.025 291.028 431.938C291.12 431.851 291.173 431.731 291.178 431.605C291.18 431.542 291.169 431.479 291.147 431.421C291.125 431.362 291.091 431.308 291.047 431.263C291.004 431.217 290.952 431.181 290.895 431.156C290.837 431.13 290.775 431.117 290.712 431.116C286.865 430.903 283.053 431.95 279.853 434.097C279.801 434.132 279.756 434.177 279.721 434.229C279.687 434.281 279.663 434.34 279.651 434.402C279.639 434.463 279.64 434.527 279.653 434.588C279.666 434.649 279.691 434.708 279.727 434.759C279.773 434.826 279.836 434.88 279.909 434.916C279.982 434.952 280.063 434.968 280.145 434.964Z" fill="#EBEBEB"/>
<path d="M246.573 175.571C241.486 177.282 239.641 183.236 238.829 193.583C238.198 201.651 234.578 230.427 232.449 239.497C230.32 248.566 250.839 250.372 265.137 250.372C279.435 250.372 286.974 246.279 285.05 236.413C283.126 226.547 273.52 176.62 273.52 176.62L246.573 175.571Z" fill="#37474F"/>
<path d="M312.857 220.814C313.393 219.647 313.196 216.618 313.204 214.189C313.212 211.761 313.559 209.158 313.062 207.573C312.447 205.617 311.832 204.04 314.048 204.963C316.264 205.885 316.997 209.087 317.636 210.649C317.999 211.54 318.306 212.328 319.174 211.563C320.587 210.005 321.785 208.265 322.738 206.39C323.787 204.403 323.724 202.187 324.592 201.146C325.459 200.105 325.743 200.302 325.972 200.507C326.2 200.712 326.666 203.322 326.145 205.767C325.625 208.212 324.205 209.899 324.568 210.049C324.765 210.115 324.978 210.115 325.175 210.049C325.648 209.915 327.202 206.8 328.132 204.923C329.181 202.683 329.97 200.594 330.759 199.955C331.547 199.316 332.549 199.024 332.549 199.766C332.323 201.548 331.908 203.3 331.311 204.994C330.774 206.398 328.203 210.089 328.55 210.27C328.66 210.301 328.776 210.309 328.889 210.291C329.002 210.273 329.11 210.231 329.205 210.168C329.994 209.584 331.098 207.549 331.981 206.406C333.093 204.97 333.881 203.59 334.56 202.865C335.545 201.8 336.137 202.636 336.058 203.062C335.845 205.018 334.071 208.354 332.549 210.412C331.271 212.131 331.594 212.778 332.02 212.936C332.446 213.093 326.697 216.634 326.697 216.634L312.857 220.814Z" fill="#FFE6B6"/>
<path d="M338.148 205.972C336.429 206.469 333.708 211.571 330.971 212.896C327.817 213.992 320.719 213.574 316.965 215.38C313.212 217.186 313.456 218.535 312.163 222.028C310.538 226.074 306.39 234 303.291 240.561C303.291 240.561 286.533 221.547 283.126 218.629C279.719 215.712 276.706 214.442 272.566 215.167L278.15 241.35C278.15 241.35 289.537 250.718 299.143 258.116C307.242 264.354 311.248 262.966 314.332 255.852C314.643 255.16 314.919 254.452 315.16 253.731C317.975 245.506 319.599 237.06 322.163 226.989C322.163 226.989 323.014 222.935 324.426 221.334C326.003 219.528 332.564 217.155 334.055 215.767C335.545 214.379 336.862 212.076 338.337 209.568C339.165 208.157 339.914 207.155 339.914 206.358C339.875 205.87 338.905 205.759 338.148 205.972Z" fill="#FFE6B6"/>
<path d="M303.291 240.561C301.881 244.131 301.038 247.898 300.791 251.728C300.791 251.728 299.3 247.493 301.863 238.992L303.291 240.561Z" fill="#FFE6B6"/>
<path d="M308.543 192.368C308.543 189.853 310.27 187.345 313.724 185.421C320.64 181.572 331.863 181.564 338.787 185.421C342.249 187.329 343.984 189.837 343.992 192.353H345.569C345.569 189.498 343.676 186.643 339.907 184.466C332.359 180.121 320.128 180.137 312.589 184.466C308.819 186.643 306.942 189.506 306.942 192.353H308.519L308.543 192.368Z" fill="#FAFAFA"/>
<path d="M338.787 185.389C331.863 181.564 320.648 181.572 313.724 185.389C310.27 187.313 308.543 189.821 308.543 192.337C308.543 194.852 310.278 197.36 313.748 199.277C320.672 203.094 331.886 203.086 338.81 199.237C342.265 197.313 343.992 194.805 343.992 192.289C343.992 189.774 342.249 187.337 338.787 185.389Z" fill="#E0E0E0"/>
<path d="M335.545 187.037C339.118 187.14 338.369 183.394 340.403 181.966C340.403 181.966 338.921 181.304 336.91 182.629C336.161 183.049 335.602 183.741 335.348 184.561C335.094 185.381 335.165 186.268 335.545 187.037Z" fill="#FFAD4F"/>
<path opacity="0.4" d="M335.545 187.037C339.118 187.14 338.369 183.394 340.403 181.966C340.403 181.966 338.921 181.304 336.91 182.629C336.161 183.049 335.602 183.741 335.348 184.561C335.094 185.381 335.165 186.268 335.545 187.037Z" fill="black"/>
<path d="M335.735 187.226C337.848 184.34 334.339 182.834 334.315 180.342C334.315 180.342 332.935 181.194 332.88 183.599C332.802 184.454 333.055 185.306 333.586 185.981C334.117 186.655 334.886 187.101 335.735 187.226Z" fill="#FFAD4F"/>
<path opacity="0.3" d="M335.735 187.226C337.848 184.34 334.339 182.834 334.315 180.342C334.315 180.342 332.935 181.194 332.88 183.599C332.802 184.454 333.055 185.306 333.586 185.981C334.117 186.655 334.886 187.101 335.735 187.226Z" fill="black"/>
<path d="M345.427 189.443C345.647 189.878 345.73 190.371 345.663 190.854C345.487 191.254 345.174 191.578 344.78 191.769C344.297 191.992 343.859 192.302 343.487 192.684C342.982 193.346 343.1 194.261 342.911 195.05C342.764 195.605 342.465 196.107 342.047 196.5C341.628 196.893 341.108 197.161 340.545 197.274C339.914 197.433 339.264 197.502 338.613 197.479C337.825 197.479 337.123 197.644 336.373 197.723C336.09 197.732 335.815 197.823 335.583 197.985C335.35 198.148 335.17 198.375 335.064 198.638C335.064 198.567 334.418 197.849 334.355 197.66C334.079 197.137 333.953 196.547 333.992 195.957C334.131 195.368 334.19 194.763 334.165 194.159C334.071 193.575 333.7 193.054 333.605 192.471C333.548 192.099 333.598 191.719 333.751 191.375C333.903 191.031 334.151 190.738 334.465 190.531C334.954 190.223 335.577 190.129 335.971 189.742C336.313 189.292 336.466 188.726 336.397 188.165C336.329 187.613 336.369 187.053 336.515 186.517C336.668 186.193 336.887 185.905 337.159 185.673C337.431 185.44 337.749 185.268 338.093 185.168C338.755 184.924 339.465 184.837 340.151 184.648C340.78 184.498 341.353 184.17 341.799 183.701C342.122 183.218 342.576 182.838 343.108 182.605C343.347 182.529 343.599 182.502 343.849 182.526C344.099 182.549 344.342 182.623 344.562 182.742C344.783 182.861 344.978 183.024 345.134 183.22C345.291 183.416 345.407 183.641 345.474 183.883C345.667 184.536 345.636 185.236 345.387 185.87C345.084 186.347 344.893 186.886 344.828 187.447C344.894 188.145 345.097 188.824 345.427 189.443Z" fill="#FFAD4F"/>
<path opacity="0.15" d="M345.427 189.443C345.647 189.878 345.73 190.371 345.663 190.854C345.487 191.254 345.174 191.578 344.78 191.769C344.297 191.992 343.859 192.302 343.487 192.684C342.982 193.346 343.1 194.261 342.911 195.05C342.764 195.605 342.465 196.107 342.047 196.5C341.628 196.893 341.108 197.161 340.545 197.274C339.914 197.433 339.264 197.502 338.613 197.479C337.825 197.479 337.123 197.644 336.373 197.723C336.09 197.732 335.815 197.823 335.583 197.985C335.35 198.148 335.17 198.375 335.064 198.638C335.064 198.567 334.418 197.849 334.355 197.66C334.079 197.137 333.953 196.547 333.992 195.957C334.131 195.368 334.19 194.763 334.165 194.159C334.071 193.575 333.7 193.054 333.605 192.471C333.548 192.099 333.598 191.719 333.751 191.375C333.903 191.031 334.151 190.738 334.465 190.531C334.954 190.223 335.577 190.129 335.971 189.742C336.313 189.292 336.466 188.726 336.397 188.165C336.329 187.613 336.369 187.053 336.515 186.517C336.668 186.193 336.887 185.905 337.159 185.673C337.431 185.44 337.749 185.268 338.093 185.168C338.755 184.924 339.465 184.837 340.151 184.648C340.78 184.498 341.353 184.17 341.799 183.701C342.122 183.218 342.576 182.838 343.108 182.605C343.347 182.529 343.599 182.502 343.849 182.526C344.099 182.549 344.342 182.623 344.562 182.742C344.783 182.861 344.978 183.024 345.134 183.22C345.291 183.416 345.407 183.641 345.474 183.883C345.667 184.536 345.636 185.236 345.387 185.87C345.084 186.347 344.893 186.886 344.828 187.447C344.894 188.145 345.097 188.824 345.427 189.443Z" fill="black"/>
<path d="M343.629 184.317C342.335 185.697 334.812 194.971 335.104 198.662C335.104 198.662 334.315 196.651 337.62 191.627C339.375 188.997 341.388 186.548 343.629 184.317Z" fill="#FAFAFA"/>
<path d="M337.067 198.149C338.424 197.005 338.306 194.845 337.359 193.464C336.864 192.964 336.494 192.353 336.279 191.682C336.168 190.894 336.728 190.16 336.933 189.379C337.086 188.676 336.964 187.941 336.591 187.324C336.219 186.708 335.624 186.258 334.93 186.067C334.142 185.894 333.29 186.012 332.714 185.507C332.139 185.003 332.147 184.395 331.878 183.828C331.658 183.352 331.305 182.951 330.862 182.672C330.418 182.392 329.904 182.247 329.38 182.253C328.856 182.258 328.346 182.415 327.909 182.705C327.472 182.994 327.128 183.403 326.918 183.883C326.665 184.646 326.534 185.444 326.532 186.249C326.469 187.083 326.143 187.875 325.601 188.512C325.343 188.75 325.139 189.041 325.003 189.365C324.867 189.689 324.802 190.038 324.812 190.389C324.907 191.138 325.278 191.824 325.853 192.313C326.484 192.857 327.352 192.999 327.912 193.67C328.472 194.34 328.613 195.381 329.229 196.035C329.589 196.353 330.014 196.587 330.474 196.724C330.935 196.86 331.419 196.894 331.894 196.824C332.845 196.684 333.804 196.61 334.765 196.603C335.257 196.609 335.738 196.758 336.147 197.033C336.556 197.307 336.876 197.695 337.067 198.149Z" fill="#FFAD4F"/>
<path d="M329.11 183.788C330.751 185.752 330.396 188.614 331.421 190.972C332.446 193.33 337.351 195.176 337.036 198.149C337.825 194.576 333.463 193.701 331.965 190.594C330.987 188.575 331.011 185.413 329.11 183.788Z" fill="#FAFAFA"/>
<path d="M328.101 201.579C327.533 199.908 328.748 198.11 330.27 197.416C330.94 197.227 331.558 196.887 332.076 196.422C332.58 195.791 332.478 194.845 332.706 194.111C332.935 193.427 333.418 192.858 334.055 192.522C334.693 192.185 335.436 192.108 336.129 192.305C336.862 192.542 337.556 193.094 338.314 192.96C338.937 192.849 339.37 192.297 339.891 191.95C340.325 191.659 340.834 191.499 341.357 191.489C341.88 191.479 342.395 191.619 342.84 191.893C343.286 192.168 343.643 192.564 343.87 193.036C344.096 193.507 344.182 194.034 344.118 194.553C343.941 195.346 343.638 196.105 343.219 196.8C342.846 197.549 342.716 198.396 342.848 199.221C342.954 199.558 342.986 199.914 342.939 200.265C342.893 200.615 342.77 200.951 342.58 201.248C342.113 201.842 341.441 202.239 340.695 202.36C339.907 202.502 339.055 202.179 338.235 202.463C337.415 202.747 336.752 203.567 335.869 203.827C335.396 203.922 334.908 203.912 334.439 203.797C333.97 203.683 333.532 203.467 333.156 203.165C332.408 202.554 331.618 201.998 330.79 201.501C330.379 201.261 329.909 201.142 329.434 201.156C328.959 201.17 328.497 201.317 328.101 201.579Z" fill="#FFAD4F"/>
<path d="M328.101 201.579C327.533 199.908 328.748 198.11 330.27 197.416C330.94 197.227 331.558 196.887 332.076 196.422C332.58 195.791 332.478 194.845 332.706 194.111C332.935 193.427 333.418 192.858 334.055 192.522C334.693 192.185 335.436 192.108 336.129 192.305C336.862 192.542 337.556 193.094 338.314 192.96C338.937 192.849 339.37 192.297 339.891 191.95C340.325 191.659 340.834 191.499 341.357 191.489C341.88 191.479 342.395 191.619 342.84 191.893C343.286 192.168 343.643 192.564 343.87 193.036C344.096 193.507 344.182 194.034 344.118 194.553C343.941 195.346 343.638 196.105 343.219 196.8C342.846 197.549 342.716 198.396 342.848 199.221C342.954 199.558 342.986 199.914 342.939 200.265C342.893 200.615 342.77 200.951 342.58 201.248C342.113 201.842 341.441 202.239 340.695 202.36C339.907 202.502 339.055 202.179 338.235 202.463C337.415 202.747 336.752 203.567 335.869 203.827C335.396 203.922 334.908 203.912 334.439 203.797C333.97 203.683 333.532 203.467 333.156 203.165C332.408 202.554 331.618 201.998 330.79 201.501C330.379 201.261 329.909 201.142 329.434 201.156C328.959 201.17 328.497 201.317 328.101 201.579Z" fill="#FFAD4F"/>
<path opacity="0.35" d="M328.101 201.579C327.533 199.908 328.748 198.11 330.27 197.416C330.94 197.227 331.558 196.887 332.076 196.422C332.58 195.791 332.478 194.845 332.706 194.111C332.935 193.427 333.418 192.858 334.055 192.522C334.693 192.185 335.436 192.108 336.129 192.305C336.862 192.542 337.556 193.094 338.314 192.96C338.937 192.849 339.37 192.297 339.891 191.95C340.325 191.659 340.834 191.499 341.357 191.489C341.88 191.479 342.395 191.619 342.84 191.893C343.286 192.168 343.643 192.564 343.87 193.036C344.096 193.507 344.182 194.034 344.118 194.553C343.941 195.346 343.638 196.105 343.219 196.8C342.846 197.549 342.716 198.396 342.848 199.221C342.954 199.558 342.986 199.914 342.939 200.265C342.893 200.615 342.77 200.951 342.58 201.248C342.113 201.842 341.441 202.239 340.695 202.36C339.907 202.502 339.055 202.179 338.235 202.463C337.415 202.747 336.752 203.567 335.869 203.827C335.396 203.922 334.908 203.912 334.439 203.797C333.97 203.683 333.532 203.467 333.156 203.165C332.408 202.554 331.618 201.998 330.79 201.501C330.379 201.261 329.909 201.142 329.434 201.156C328.959 201.17 328.497 201.317 328.101 201.579Z" fill="white"/>
<path d="M342.296 193.346C339.875 194.182 338.708 196.824 336.618 198.315C334.528 199.805 329.371 198.867 328.101 201.579C329.244 198.094 333.464 199.6 336.342 197.715C338.219 196.485 339.828 193.764 342.296 193.346Z" fill="#FAFAFA"/>
<path d="M321.342 195.665C322.265 195.42 323.322 195.562 324.11 194.947C324.571 194.566 324.884 194.036 324.994 193.449C325.01 192.863 325.094 192.28 325.246 191.714C325.53 191.122 326.153 191.02 326.642 190.665C327.126 190.312 327.514 189.843 327.77 189.301C327.979 188.73 328.057 188.12 327.998 187.515C327.939 186.911 327.745 186.327 327.431 185.807C327.089 185.167 326.941 184.44 327.005 183.717C327.083 183.108 327.115 182.494 327.099 181.88C326.942 180.058 324.962 179.23 323.33 179.514C322.635 179.656 321.991 179.983 321.466 180.461C320.942 180.938 320.556 181.548 320.349 182.227C320.267 182.902 320.027 183.548 319.647 184.112C319.197 184.585 318.472 184.671 317.896 185.003C317.428 185.281 317.071 185.713 316.884 186.224C316.697 186.735 316.693 187.296 316.871 187.81C317.186 188.654 317.991 189.332 318.014 190.231C317.948 190.817 317.757 191.382 317.454 191.887C317.013 192.873 317.407 193.709 317.896 194.592C318.394 195.412 319.008 196.155 319.718 196.8C319.893 196.507 320.129 196.254 320.409 196.059C320.689 195.863 321.007 195.729 321.342 195.665Z" fill="#FFAD4F"/>
<path opacity="0.2" d="M321.342 195.665C322.265 195.42 323.322 195.562 324.11 194.947C324.571 194.566 324.884 194.036 324.994 193.449C325.01 192.863 325.094 192.28 325.246 191.714C325.53 191.122 326.153 191.02 326.642 190.665C327.126 190.312 327.514 189.843 327.77 189.301C327.979 188.73 328.057 188.12 327.998 187.515C327.939 186.911 327.745 186.327 327.431 185.807C327.089 185.167 326.941 184.44 327.005 183.717C327.083 183.108 327.115 182.494 327.099 181.88C326.942 180.058 324.962 179.23 323.33 179.514C322.635 179.656 321.991 179.983 321.466 180.461C320.942 180.938 320.556 181.548 320.349 182.227C320.267 182.902 320.027 183.548 319.647 184.112C319.197 184.585 318.472 184.671 317.896 185.003C317.428 185.281 317.071 185.713 316.884 186.224C316.697 186.735 316.693 187.296 316.871 187.81C317.186 188.654 317.991 189.332 318.014 190.231C317.948 190.817 317.757 191.382 317.454 191.887C317.013 192.873 317.407 193.709 317.896 194.592C318.394 195.412 319.008 196.155 319.718 196.8C319.893 196.507 320.129 196.254 320.409 196.059C320.689 195.863 321.007 195.729 321.342 195.665Z" fill="black"/>
<path d="M324.245 180.799C321.729 182.826 318.346 191.051 319.694 196.785C319.418 193.559 320.246 186.272 324.245 180.799Z" fill="#FAFAFA"/>
<path d="M307.202 189.379C307.005 189.825 306.95 190.321 307.045 190.799C307.24 191.191 307.57 191.499 307.975 191.666C308.47 191.863 308.924 192.149 309.316 192.51C309.852 193.141 309.781 194.087 310.018 194.876C310.19 195.418 310.508 195.902 310.939 196.273C311.369 196.645 311.893 196.89 312.455 196.982C313.097 197.1 313.752 197.132 314.402 197.076C315.191 197.076 315.893 197.163 316.65 197.203C316.934 197.195 317.214 197.271 317.455 197.421C317.696 197.571 317.888 197.788 318.006 198.046C318.006 197.975 318.606 197.187 318.661 197.029C318.909 196.492 319.004 195.897 318.937 195.31C318.763 194.732 318.673 194.131 318.669 193.528C318.732 192.936 319.063 192.4 319.134 191.808C319.171 191.433 319.1 191.055 318.928 190.719C318.756 190.384 318.491 190.105 318.164 189.916C317.667 189.632 317.036 189.577 316.587 189.174C316.217 188.736 316.036 188.169 316.082 187.597C316.118 187.045 316.049 186.491 315.877 185.965C315.709 185.652 315.477 185.377 315.195 185.16C314.914 184.943 314.59 184.787 314.245 184.703C313.574 184.498 312.857 184.451 312.171 184.293C311.538 184.174 310.954 183.873 310.491 183.425C310.135 182.976 309.663 182.633 309.127 182.432C308.882 182.366 308.626 182.35 308.375 182.386C308.123 182.421 307.882 182.507 307.665 182.638C307.447 182.769 307.259 182.943 307.11 183.149C306.962 183.354 306.856 183.588 306.8 183.835C306.643 184.499 306.712 185.196 306.997 185.815C307.325 186.287 307.546 186.825 307.644 187.392C307.624 188.077 307.475 188.751 307.202 189.379Z" fill="#FFAD4F"/>
<path opacity="0.35" d="M307.202 189.379C307.005 189.825 306.95 190.321 307.045 190.799C307.24 191.191 307.57 191.499 307.975 191.666C308.47 191.863 308.924 192.149 309.316 192.51C309.852 193.141 309.781 194.087 310.018 194.876C310.19 195.418 310.508 195.902 310.939 196.273C311.369 196.645 311.893 196.89 312.455 196.982C313.097 197.1 313.752 197.132 314.402 197.076C315.191 197.076 315.893 197.163 316.65 197.203C316.934 197.195 317.214 197.271 317.455 197.421C317.696 197.571 317.888 197.788 318.006 198.046C318.006 197.975 318.606 197.187 318.661 197.029C318.909 196.492 319.004 195.897 318.937 195.31C318.763 194.732 318.673 194.131 318.669 193.528C318.732 192.936 319.063 192.4 319.134 191.808C319.171 191.433 319.1 191.055 318.928 190.719C318.756 190.384 318.491 190.105 318.164 189.916C317.667 189.632 317.036 189.577 316.587 189.174C316.217 188.736 316.036 188.169 316.082 187.597C316.118 187.045 316.049 186.491 315.877 185.965C315.709 185.652 315.477 185.377 315.195 185.16C314.914 184.943 314.59 184.787 314.245 184.703C313.574 184.498 312.857 184.451 312.171 184.293C311.538 184.174 310.954 183.873 310.491 183.425C310.135 182.976 309.663 182.633 309.127 182.432C308.882 182.366 308.626 182.35 308.375 182.386C308.123 182.421 307.882 182.507 307.665 182.638C307.447 182.769 307.259 182.943 307.11 183.149C306.962 183.354 306.856 183.588 306.8 183.835C306.643 184.499 306.712 185.196 306.997 185.815C307.325 186.287 307.546 186.825 307.644 187.392C307.624 188.077 307.475 188.751 307.202 189.379Z" fill="white"/>
<path d="M308.724 184.182C310.144 185.373 318.101 194.356 318.006 198.054C318.006 198.054 318.653 196.004 315.12 191.17C313.224 188.635 311.082 186.295 308.724 184.182Z" fill="#FAFAFA"/>
<path d="M309.939 199.584C310.522 200.026 310.893 200.696 311.516 201.161C311.813 201.373 312.153 201.516 312.511 201.58C312.87 201.644 313.239 201.628 313.59 201.532C314.095 201.308 314.624 201.144 315.167 201.043C316.035 201.043 316.745 201.745 317.478 202.147C317.91 202.372 318.386 202.499 318.873 202.52C319.359 202.54 319.844 202.453 320.293 202.266C320.696 202.092 321.082 201.84 321.469 201.635C321.854 201.406 322.299 201.299 322.746 201.327C323.052 201.358 323.334 201.505 323.535 201.737C323.535 201.777 323.992 202.36 323.984 202.376C324.341 201.61 324.399 200.738 324.147 199.931C323.895 199.124 323.35 198.441 322.62 198.015C322.25 197.867 321.896 197.682 321.563 197.463C321.246 197.181 320.998 196.83 320.838 196.438C320.612 195.771 320.349 195.118 320.049 194.482C319.892 194.165 319.647 193.901 319.344 193.72C319.04 193.54 318.691 193.451 318.338 193.465C317.652 193.575 317.178 194.253 316.524 194.435C315.942 194.576 315.328 194.485 314.813 194.182C314.292 193.914 313.819 193.551 313.29 193.283C312.771 192.989 312.157 192.91 311.579 193.062C310.791 193.338 310.404 194.158 309.773 194.687C309.142 195.215 308.535 195.357 308.109 195.909C307.885 196.226 307.769 196.607 307.779 196.995C307.789 197.383 307.924 197.757 308.164 198.062C308.665 198.666 309.265 199.181 309.939 199.584Z" fill="#FFAD4F"/>
<path d="M311.524 196.998C314.205 195.941 323.093 197.447 323.921 202.337C324.363 197.826 314.434 195.042 311.524 196.998Z" fill="#FAFAFA"/>
<path d="M330.072 202.818C328.748 203.677 326.721 203.646 325.948 205.183C325.159 203.914 323.677 203.527 322.612 202.573C322.235 202.289 321.974 201.877 321.879 201.414C321.784 200.499 322.833 199.766 322.746 198.851C322.659 197.936 321.571 197.471 321.39 196.595C321.355 196.338 321.379 196.077 321.461 195.831C321.543 195.584 321.681 195.361 321.863 195.176C322.231 194.813 322.638 194.493 323.077 194.222C323.515 193.948 323.883 193.575 324.15 193.133C324.352 192.537 324.518 191.928 324.647 191.312C325.222 189.734 328.148 188.63 329.11 190.468C329.583 191.351 328.953 192.518 329.994 193.031C330.421 193.171 330.831 193.358 331.216 193.591C331.472 193.849 331.655 194.17 331.748 194.522C331.841 194.873 331.84 195.243 331.744 195.594C331.607 196.392 331.268 197.141 330.759 197.77C330.467 198.133 330.104 198.559 330.23 198.985C330.317 199.285 330.601 199.474 330.814 199.703C331.744 200.68 331.042 202.187 330.072 202.818Z" fill="#FFAD4F"/>
<path opacity="0.1" d="M330.072 202.818C328.748 203.677 326.721 203.646 325.948 205.183C325.159 203.914 323.677 203.527 322.612 202.573C322.235 202.289 321.974 201.877 321.879 201.414C321.784 200.499 322.833 199.766 322.746 198.851C322.659 197.936 321.571 197.471 321.39 196.595C321.355 196.338 321.379 196.077 321.461 195.831C321.543 195.584 321.681 195.361 321.863 195.176C322.231 194.813 322.638 194.493 323.077 194.222C323.515 193.948 323.883 193.575 324.15 193.133C324.352 192.537 324.518 191.928 324.647 191.312C325.222 189.734 328.148 188.63 329.11 190.468C329.583 191.351 328.953 192.518 329.994 193.031C330.421 193.171 330.831 193.358 331.216 193.591C331.472 193.849 331.655 194.17 331.748 194.522C331.841 194.873 331.84 195.243 331.744 195.594C331.607 196.392 331.268 197.141 330.759 197.77C330.467 198.133 330.104 198.559 330.23 198.985C330.317 199.285 330.601 199.474 330.814 199.703C331.744 200.68 331.042 202.187 330.072 202.818Z" fill="black"/>
<path d="M327.289 190.208C326.224 191.872 323.882 200.814 325.948 205.191C325.285 201.067 325.569 196.091 327.289 190.208Z" fill="#FAFAFA"/>
<path d="M345.577 192.321C345.577 195.168 343.7 198.031 339.93 200.207C332.399 204.576 320.167 204.592 312.62 200.247C308.851 198.078 306.958 195.223 306.95 192.361C306.95 203.023 315.625 209.15 326.295 209.134C336.965 209.119 345.593 202.967 345.577 192.305V192.321Z" fill="#EBEBEB"/>
<path d="M312.62 200.247C320.167 204.592 332.399 204.576 339.93 200.207C343.7 198.031 345.585 195.168 345.577 192.321H344C344 194.837 342.272 197.344 338.818 199.269C331.902 203.117 320.68 203.125 313.756 199.308C310.286 197.392 308.559 194.884 308.551 192.368H306.974C306.958 195.223 308.851 198.078 312.62 200.247Z" fill="#FAFAFA"/>
<path d="M323.338 195.223C323.445 195.527 323.462 195.854 323.387 196.167C323.312 196.48 323.149 196.765 322.916 196.987C322.684 197.21 322.392 197.36 322.076 197.421C321.76 197.482 321.434 197.45 321.135 197.33C320.837 197.209 320.58 197.005 320.394 196.742C320.209 196.48 320.103 196.169 320.09 195.847C320.077 195.526 320.157 195.207 320.32 194.93C320.484 194.653 320.724 194.429 321.011 194.285C321.445 194.105 321.931 194.103 322.366 194.278C322.801 194.454 323.15 194.793 323.338 195.223Z" fill="#455A64"/>
<path d="M322.707 197.636C323.017 197.453 323.261 197.175 323.403 196.843C323.545 196.511 323.577 196.142 323.495 195.791C323.51 195.968 323.486 196.146 323.424 196.313C323.362 196.479 323.265 196.63 323.139 196.755C323.012 196.88 322.86 196.975 322.693 197.035C322.525 197.095 322.347 197.117 322.17 197.1C321.694 197.089 321.235 196.917 320.868 196.612C320.502 196.307 320.249 195.887 320.152 195.42C320.075 195.855 320.142 196.304 320.341 196.698C320.433 196.916 320.568 197.113 320.738 197.278C320.907 197.443 321.108 197.574 321.328 197.661C321.548 197.748 321.783 197.791 322.02 197.787C322.256 197.782 322.49 197.731 322.707 197.636Z" fill="#37474F"/>
<path opacity="0.1" d="M321.224 194.435C321.168 194.459 321.119 194.496 321.079 194.543C321.04 194.589 321.011 194.644 320.995 194.703C320.989 194.771 321.002 194.839 321.033 194.901C321.064 194.962 321.111 195.014 321.169 195.05C321.292 195.112 321.422 195.163 321.555 195.2C321.976 195.325 322.365 195.538 322.699 195.823C322.756 195.884 322.835 195.921 322.92 195.925C323.038 195.925 323.069 195.744 323.062 195.625C323.044 195.391 322.976 195.163 322.861 194.957C322.747 194.752 322.589 194.573 322.399 194.435C322.223 194.323 322.02 194.264 321.812 194.264C321.604 194.264 321.4 194.323 321.224 194.435Z" fill="white"/>
<path opacity="0.15" d="M321.216 194.703C321.216 194.758 321.279 194.789 321.327 194.813C321.533 194.916 321.759 194.973 321.989 194.979C322.024 194.987 322.061 194.985 322.094 194.973C322.128 194.961 322.158 194.94 322.181 194.912C322.203 194.884 322.217 194.85 322.221 194.814C322.224 194.779 322.218 194.743 322.202 194.711C322.16 194.618 322.09 194.539 322.003 194.486C321.916 194.433 321.815 194.406 321.713 194.411C321.579 194.435 321.185 194.513 321.216 194.703Z" fill="white"/>
<path d="M337.73 191.682C337.577 191.964 337.345 192.195 337.064 192.349C336.783 192.503 336.463 192.573 336.144 192.55C335.824 192.528 335.517 192.413 335.26 192.221C335.004 192.029 334.808 191.768 334.695 191.467C334.583 191.167 334.56 190.841 334.628 190.527C334.696 190.214 334.853 189.927 335.08 189.7C335.306 189.474 335.593 189.317 335.907 189.249C336.22 189.181 336.546 189.204 336.847 189.316C337.277 189.514 337.611 189.874 337.777 190.317C337.942 190.76 337.925 191.251 337.73 191.682Z" fill="#455A64"/>
<path d="M335.49 192.857C335.836 192.972 336.209 192.971 336.555 192.856C336.9 192.741 337.199 192.517 337.407 192.218C337.286 192.349 337.139 192.452 336.975 192.52C336.81 192.587 336.633 192.618 336.456 192.61C336.278 192.602 336.105 192.555 335.948 192.472C335.79 192.389 335.653 192.273 335.545 192.132C335.229 191.773 335.045 191.317 335.024 190.84C335.002 190.362 335.145 189.891 335.427 189.506C335.064 189.747 334.788 190.098 334.639 190.507C334.446 190.933 334.427 191.416 334.586 191.855C334.745 192.295 335.07 192.654 335.49 192.857Z" fill="#37474F"/>
<path opacity="0.1" d="M336.886 189.592C336.832 189.567 336.773 189.554 336.713 189.554C336.653 189.554 336.593 189.567 336.539 189.592C336.484 189.634 336.442 189.69 336.417 189.754C336.392 189.818 336.385 189.887 336.397 189.955C336.427 190.088 336.478 190.216 336.547 190.334C336.735 190.734 336.84 191.169 336.855 191.611C336.851 191.692 336.879 191.772 336.933 191.832C337.028 191.911 337.162 191.832 337.249 191.737C337.397 191.566 337.507 191.367 337.574 191.151C337.64 190.935 337.661 190.708 337.635 190.483C337.607 190.28 337.521 190.088 337.389 189.93C337.256 189.773 337.082 189.656 336.886 189.592Z" fill="white"/>
<path opacity="0.15" d="M336.665 189.774C336.654 189.8 336.648 189.828 336.648 189.857C336.648 189.885 336.654 189.913 336.665 189.939C336.728 190.16 336.838 190.365 336.989 190.539C337.018 190.576 337.056 190.606 337.099 190.625C337.145 190.636 337.193 190.631 337.235 190.609C337.277 190.587 337.31 190.551 337.328 190.507C337.37 190.415 337.383 190.311 337.365 190.211C337.346 190.111 337.298 190.019 337.225 189.947C337.131 189.845 336.784 189.624 336.665 189.774Z" fill="white"/>
<path d="M311.098 194.845C307.699 195.949 307.36 192.148 305.002 191.343C305.002 191.343 306.24 190.294 308.543 190.996C309.38 191.189 310.112 191.696 310.587 192.412C311.062 193.127 311.245 193.998 311.098 194.845Z" fill="#FFAD4F"/>
<path opacity="0.3" d="M311.098 194.845C307.699 195.949 307.36 192.148 305.002 191.343C305.002 191.343 306.24 190.294 308.543 190.996C309.38 191.189 310.112 191.696 310.587 192.412C311.062 193.127 311.245 193.998 311.098 194.845Z" fill="black"/>
<path d="M342.903 195.57C346.428 196.162 346.208 192.353 348.424 191.217C348.424 191.217 347.044 190.357 344.867 191.39C344.067 191.704 343.418 192.312 343.053 193.089C342.688 193.867 342.634 194.755 342.903 195.57Z" fill="#FFAD4F"/>
<path opacity="0.3" d="M342.903 195.57C346.428 196.162 346.208 192.353 348.424 191.217C348.424 191.217 347.044 190.357 344.867 191.39C344.067 191.704 343.418 192.312 343.053 193.089C342.688 193.867 342.634 194.755 342.903 195.57Z" fill="black"/>
<path d="M331.429 195.949C328.542 195.578 329.623 192.66 328.164 191.217C328.664 191.15 329.172 191.204 329.647 191.374C330.122 191.544 330.549 191.826 330.893 192.195C331.449 192.63 331.816 193.264 331.916 193.964C332.016 194.664 331.842 195.375 331.429 195.949Z" fill="#FFAD4F"/>
<path opacity="0.3" d="M331.429 195.949C328.542 195.578 329.623 192.66 328.164 191.217C328.664 191.15 329.172 191.204 329.647 191.374C330.122 191.544 330.549 191.826 330.893 192.195C331.449 192.63 331.816 193.264 331.916 193.964C332.016 194.664 331.842 195.375 331.429 195.949Z" fill="black"/>
<path d="M316.847 188.031C313.906 186.895 315.79 184.088 314.615 182.25C315.159 182.306 315.681 182.491 316.137 182.792C316.593 183.093 316.969 183.5 317.234 183.977C317.701 184.574 317.921 185.327 317.849 186.081C317.777 186.836 317.419 187.533 316.847 188.031Z" fill="#FFAD4F"/>
<path opacity="0.3" d="M316.847 188.031C313.906 186.895 315.79 184.088 314.615 182.25C315.159 182.306 315.681 182.491 316.137 182.792C316.593 183.093 316.969 183.5 317.234 183.977C317.701 184.574 317.921 185.327 317.849 186.081C317.777 186.836 317.419 187.533 316.847 188.031Z" fill="black"/>
<path d="M323.006 201.256C321.114 204.292 318.409 201.603 316.09 202.518C316.09 202.518 316.358 200.941 318.574 199.963C319.339 199.573 320.223 199.49 321.047 199.73C321.871 199.971 322.571 200.517 323.006 201.256Z" fill="#FFAD4F"/>
<path opacity="0.4" d="M323.006 201.256C321.114 204.292 318.409 201.603 316.09 202.518C316.09 202.518 316.358 200.941 318.574 199.963C319.339 199.573 320.223 199.49 321.047 199.73C321.871 199.971 322.571 200.517 323.006 201.256Z" fill="black"/>
<path d="M323.227 202.021C319.655 202.187 320.325 198.433 318.267 197.037C318.267 197.037 319.734 196.351 321.776 197.636C322.531 198.045 323.102 198.726 323.372 199.541C323.641 200.356 323.59 201.243 323.227 202.021Z" fill="#FFAD4F"/>
<path opacity="0.3" d="M323.227 202.021C319.655 202.187 320.325 198.433 318.267 197.037C318.267 197.037 319.734 196.351 321.776 197.636C322.531 198.045 323.102 198.726 323.372 199.541C323.641 200.356 323.59 201.243 323.227 202.021Z" fill="black"/>
<path d="M333.29 196.595C333.173 196.811 332.997 196.988 332.782 197.106C332.568 197.224 332.324 197.278 332.079 197.261C331.835 197.245 331.6 197.158 331.404 197.012C331.207 196.865 331.057 196.665 330.971 196.436C330.885 196.207 330.866 195.957 330.918 195.718C330.969 195.478 331.089 195.259 331.262 195.085C331.435 194.911 331.654 194.791 331.893 194.739C332.133 194.687 332.382 194.704 332.612 194.789C332.94 194.941 333.195 195.215 333.322 195.553C333.449 195.891 333.437 196.266 333.29 196.595Z" fill="#455A64"/>
<path d="M331.587 197.494C331.851 197.58 332.136 197.579 332.401 197.491C332.665 197.403 332.893 197.233 333.053 197.005C332.961 197.104 332.848 197.182 332.723 197.233C332.597 197.283 332.462 197.306 332.327 197.299C332.192 197.293 332.06 197.256 331.94 197.193C331.821 197.13 331.716 197.042 331.634 196.934C331.386 196.663 331.241 196.313 331.224 195.946C331.207 195.579 331.318 195.217 331.539 194.923C331.251 195.111 331.032 195.388 330.916 195.712C330.776 196.038 330.767 196.406 330.892 196.738C331.017 197.071 331.266 197.342 331.587 197.494Z" fill="#37474F"/>
<path opacity="0.1" d="M332.643 194.994C332.602 194.973 332.556 194.962 332.509 194.962C332.463 194.962 332.417 194.973 332.375 194.994C332.334 195.026 332.302 195.069 332.284 195.118C332.266 195.166 332.262 195.219 332.273 195.27C332.294 195.373 332.331 195.471 332.383 195.562C332.528 195.866 332.609 196.196 332.62 196.532C332.62 196.595 332.62 196.674 332.683 196.706C332.746 196.737 332.856 196.706 332.919 196.635C333.034 196.504 333.119 196.351 333.171 196.185C333.222 196.02 333.239 195.845 333.219 195.673C333.196 195.517 333.13 195.371 333.028 195.251C332.926 195.132 332.793 195.043 332.643 194.994Z" fill="white"/>
<path opacity="0.15" d="M332.478 195.136C332.467 195.154 332.461 195.175 332.461 195.195C332.461 195.216 332.467 195.237 332.478 195.255C332.525 195.425 332.609 195.584 332.722 195.72C332.746 195.748 332.775 195.769 332.809 195.783C332.845 195.79 332.882 195.786 332.914 195.77C332.947 195.755 332.974 195.729 332.99 195.696C333.021 195.624 333.029 195.543 333.014 195.466C332.998 195.389 332.96 195.318 332.904 195.262C332.825 195.223 332.565 195.018 332.478 195.136Z" fill="white"/>
<path d="M317.77 187.581C317.989 187.727 318.162 187.933 318.267 188.175C318.373 188.416 318.406 188.683 318.364 188.943C318.322 189.203 318.206 189.445 318.03 189.641C317.854 189.837 317.625 189.978 317.371 190.048C317.117 190.117 316.848 190.112 316.597 190.032C316.345 189.953 316.122 189.803 315.954 189.6C315.786 189.398 315.679 189.151 315.647 188.889C315.616 188.628 315.66 188.363 315.775 188.126C315.87 187.958 315.997 187.812 316.148 187.694C316.3 187.576 316.474 187.489 316.659 187.439C316.845 187.388 317.038 187.375 317.229 187.399C317.419 187.424 317.603 187.486 317.77 187.581Z" fill="#455A64"/>
<path d="M318.519 189.498C318.634 189.232 318.663 188.938 318.602 188.655C318.541 188.372 318.394 188.115 318.18 187.921C318.274 188.032 318.342 188.162 318.381 188.302C318.419 188.442 318.426 188.589 318.402 188.732C318.378 188.875 318.324 189.012 318.242 189.132C318.16 189.252 318.052 189.352 317.928 189.427C317.607 189.65 317.22 189.758 316.83 189.732C316.44 189.707 316.071 189.549 315.783 189.285C315.938 189.621 316.198 189.898 316.524 190.073C316.693 190.167 316.878 190.226 317.07 190.248C317.262 190.269 317.456 190.253 317.641 190.199C317.826 190.146 317.999 190.056 318.15 189.936C318.301 189.816 318.426 189.667 318.519 189.498Z" fill="#37474F"/>
<path opacity="0.1" d="M315.988 188.07C315.968 188.117 315.958 188.166 315.958 188.216C315.958 188.266 315.968 188.316 315.988 188.362C316.016 188.411 316.058 188.45 316.109 188.475C316.159 188.5 316.216 188.51 316.272 188.504C316.383 188.494 316.492 188.467 316.595 188.425C316.937 188.307 317.299 188.259 317.66 188.283C317.689 188.297 317.721 188.304 317.754 188.304C317.787 188.304 317.819 188.297 317.849 188.283C317.92 188.212 317.849 188.094 317.801 188.023C317.676 187.886 317.524 187.777 317.354 187.702C317.185 187.628 317.001 187.589 316.816 187.589C316.646 187.582 316.478 187.624 316.332 187.709C316.185 187.794 316.066 187.92 315.988 188.07Z" fill="white"/>
<path opacity="0.15" d="M316.122 188.275C316.141 188.285 316.163 188.29 316.185 188.29C316.207 188.29 316.228 188.285 316.248 188.275C316.434 188.244 316.611 188.174 316.768 188.07C316.802 188.049 316.83 188.019 316.847 187.984C316.859 187.948 316.858 187.909 316.845 187.873C316.832 187.838 316.808 187.807 316.776 187.787C316.708 187.738 316.627 187.712 316.544 187.712C316.46 187.712 316.379 187.738 316.311 187.787C316.216 187.905 316.011 188.165 316.122 188.275Z" fill="white"/>
<path d="M243.505 217.951L256.273 215.585L272.566 215.152C274.932 215.049 283.552 221.871 289.506 230.135C292.81 234.741 293.599 241.752 286.903 249.062C287.069 250.797 286.17 260.947 285.925 262.863L292.739 278.73C287.897 290.962 250.082 295.765 235.588 285.3C237.015 277.248 242.685 266.191 244.688 260.466C244.136 258.1 242.157 250.529 241.218 247.256C239.207 240.222 238.466 227.659 238.805 225.546C239.554 220.877 243.505 217.951 243.505 217.951Z" fill="#FFAD4F"/>
<path opacity="0.65" d="M243.505 217.951L256.273 215.585L272.566 215.152C274.932 215.049 283.552 221.871 289.506 230.135C292.81 234.741 293.599 241.752 286.903 249.062C287.069 250.797 286.17 260.947 285.925 262.863L292.739 278.73C287.897 290.962 250.082 295.765 235.588 285.3C237.015 277.248 242.685 266.191 244.688 260.466C244.136 258.1 242.157 250.529 241.218 247.256C239.207 240.222 238.466 227.659 238.805 225.546C239.554 220.877 243.505 217.951 243.505 217.951Z" fill="#A55B07"/>
<path d="M253.276 208.062C253.529 206.974 251.431 202.857 250.216 201.169C246.589 196.146 244.759 194.766 243.355 188.504C242.833 186.248 242.852 183.9 243.41 181.653C243.967 179.405 245.049 177.321 246.565 175.571C249.294 165.949 260.342 164.972 268.773 166.691C275.705 168.11 283.465 173.883 282.629 182.463L253.276 208.062Z" fill="#37474F"/>
<path d="M274.522 174.088C278.56 176.123 282.132 179.041 281.864 193.725C281.659 205.042 278.323 207.92 276.501 208.795C274.68 209.671 271.77 209.955 268.268 209.474V216.374C268.268 216.374 278.615 226.035 275.113 232.722C258.032 227.399 253.584 216.626 253.584 216.626L253.008 200.065C252.36 200.572 251.567 200.859 250.744 200.884C249.922 200.91 249.113 200.673 248.434 200.207C244.491 197.841 244.444 192.802 246.597 190.491C247.047 189.97 247.621 189.569 248.266 189.326C248.91 189.083 249.606 189.005 250.288 189.099C250.971 189.193 251.619 189.456 252.174 189.865C252.729 190.273 253.173 190.814 253.466 191.438C253.466 191.438 251.825 180.649 257.85 176.186C264.909 170.942 269.79 171.699 274.522 174.088Z" fill="#FFE6B6"/>
<path d="M267.511 199.955C267.419 200.679 267.61 201.411 268.043 202C268.476 202.588 269.119 202.987 269.838 203.114C270.557 203.242 271.298 203.088 271.907 202.685C272.516 202.282 272.947 201.66 273.11 200.948L267.511 199.955Z" fill="#D8A74A"/>
<path d="M270.681 203.228C270.669 202.596 270.409 201.994 269.958 201.552C269.507 201.109 268.9 200.862 268.268 200.862C268.015 200.867 267.765 200.912 267.527 200.996C267.637 201.556 267.915 202.07 268.323 202.47C268.732 202.87 269.251 203.137 269.814 203.236C270.101 203.28 270.394 203.278 270.681 203.228Z" fill="#FFE6B6"/>
<path d="M265.839 191.832C266.68 191.832 267.361 191.151 267.361 190.31C267.361 189.47 266.68 188.788 265.839 188.788C264.999 188.788 264.317 189.47 264.317 190.31C264.317 191.151 264.999 191.832 265.839 191.832Z" fill="#263238"/>
<path d="M278.623 189.561C278.624 189.864 278.535 190.16 278.368 190.412C278.2 190.664 277.961 190.86 277.681 190.975C277.401 191.091 277.093 191.12 276.797 191.06C276.5 190.999 276.228 190.852 276.016 190.636C275.804 190.42 275.66 190.146 275.605 189.849C275.549 189.551 275.583 189.244 275.703 188.966C275.823 188.688 276.023 188.452 276.277 188.288C276.532 188.125 276.83 188.04 277.132 188.047C277.53 188.053 277.909 188.215 278.188 188.498C278.466 188.782 278.623 189.163 278.623 189.561Z" fill="#263238"/>
<path d="M271.415 188.047L272.282 196.879L277.558 195.649L271.415 188.047Z" fill="#CCA04B"/>
<path d="M268.268 209.474C265.114 208.929 258.142 207.242 255.153 201.84C255.5 203.845 256.376 205.721 257.693 207.273C260.713 210.428 268.268 212.131 268.268 212.131V209.474Z" fill="#FFE6B6"/>
<path d="M265.776 185.01L262.464 187.589C262.129 187.132 261.983 186.563 262.057 186C262.13 185.438 262.417 184.925 262.858 184.569C263.076 184.4 263.327 184.278 263.594 184.209C263.86 184.14 264.139 184.125 264.411 184.167C264.684 184.208 264.945 184.304 265.18 184.449C265.415 184.594 265.617 184.785 265.776 185.01Z" fill="#263238"/>
<path d="M279.451 185.862L275.508 184.285C275.597 184.024 275.738 183.784 275.924 183.579C276.109 183.375 276.334 183.21 276.585 183.096C276.836 182.981 277.108 182.92 277.383 182.914C277.659 182.908 277.933 182.959 278.189 183.063C278.72 183.276 279.148 183.687 279.383 184.208C279.619 184.73 279.643 185.323 279.451 185.862Z" fill="#263238"/>
<path d="M270.736 178.347C268.962 178.654 266.864 175.713 263.331 176.967C259.53 178.315 260.737 182.589 258.008 184.94C255.942 186.722 258.008 191.643 255.776 192.636C254.783 193.078 253.458 191.43 253.458 191.43C253.458 191.43 251.549 188.567 252.007 181.966C252.464 175.366 261.218 171.028 267.535 170.776C273.851 170.523 279.364 176.099 280.397 180.594C280.397 180.594 278.82 176.951 275.855 176.493C272.889 176.036 272.329 178.071 270.736 178.347Z" fill="#37474F"/>
<path d="M270.736 178.347C268.189 175.192 262.133 174.309 258.189 179.971C254.246 185.633 255.469 192.715 253.032 200.846C250.595 208.977 244.215 209.907 244.215 209.907C244.215 209.907 250.366 205.893 250.216 196.737C250.067 187.581 250.09 180.413 256.06 175.571C262.03 170.729 269.782 172.353 270.736 178.347Z" fill="#455A64"/>
<path d="M270.736 178.347C270.839 176.533 273.016 172.038 277.558 172.921C282.692 173.883 286.335 184.017 281.769 190.35C281.769 190.35 282.227 179.995 277.101 176.446C273.52 173.93 270.736 178.347 270.736 178.347Z" fill="#455A64"/>
<path d="M243.505 217.951C238.072 218.417 233.837 219.008 231.361 227.005C228.884 235.001 222.386 261.665 222.804 267.666C223.222 273.667 240.248 258.707 240.248 258.707C240.248 258.707 246.321 236.981 246.321 236.681C246.321 236.381 247.874 224.639 243.505 217.951Z" fill="#F0D297"/>
<path d="M249.885 236.965C250.887 235.443 250.587 227.154 250.082 225.427C249.563 223.515 249.27 221.548 249.207 219.568C249.144 217.667 248.332 215.995 247.448 215.798C246.565 215.601 245.871 215.743 245.737 217.036C245.63 218.885 245.184 220.697 244.42 222.383C243.284 225.009 242.054 227.714 243.576 230.893C245.098 234.071 249.885 236.965 249.885 236.965Z" fill="#FFE6B6"/>
<path d="M261.005 224.205L262.401 226.658C263.293 226.605 264.179 226.462 265.043 226.232C268.986 225.443 269.222 224.844 269.222 224.844C266.951 225.372 262.724 225.885 261.005 224.205Z" fill="#BFBFBF"/>
<path d="M260.09 223.527L261.494 225.979C262.384 225.927 263.266 225.784 264.128 225.554C268.071 224.765 268.315 224.166 268.315 224.166C266.044 224.694 261.809 225.191 260.09 223.527Z" fill="#BFBFBF"/>
<path d="M259.183 222.825L260.579 225.278C261.47 225.229 262.352 225.086 263.213 224.852C267.156 224.063 267.401 223.464 267.401 223.464C265.129 224.016 260.902 224.528 259.183 222.825Z" fill="#BFBFBF"/>
<path d="M232.969 220.254C237.843 219.931 255.287 220.869 257.669 221.555C260.051 222.241 260.319 223.219 261.991 224.844C263.662 226.468 267.937 226.003 270.208 225.475C270.208 225.475 270.058 226.263 266.091 227.052C262.424 227.746 261.604 226.989 260.335 225.766C259.065 224.544 258.868 222.935 256.644 222.47C254.42 222.005 235.517 221.114 232.78 221.208C230.044 221.303 231.29 220.309 232.969 220.254Z" fill="#DBDBDB"/>
<path d="M244.799 226.942C244.799 226.942 247.551 224.339 248.742 223.44C249.933 222.541 252.551 222.084 253.474 221.287C254.396 220.491 254.578 219.126 253.474 218.756C252.369 218.385 248.592 219.158 247.433 219.615C245.909 220.217 244.504 221.084 243.285 222.178C241.621 223.614 239.61 225.136 239.341 225.987C238.963 227.028 239.491 228.826 239.767 229.804C240.043 230.782 240.808 234.228 241.218 236.184C241.55 237.761 241.778 238.589 240.745 240.182C239.491 242.091 234.2 249.583 230.627 254.125C227.977 257.501 223.317 261.878 222.276 267.138C221.235 272.398 223.324 276.98 225.501 278.336C227.678 279.692 234.704 279.795 238.482 274.551C244.002 266.846 244.436 261.562 246.439 256.483C248.442 251.405 250.485 245.443 251.344 244.299C252.551 242.722 253.923 240.766 253.71 238.582C253.458 235.743 253.923 234.638 255.421 232.493C256.245 231.49 256.971 230.41 257.59 229.268C258.134 228.046 258.119 226.989 257.59 226.547C257.062 226.106 256.431 226.721 256.431 226.721C256.382 226.459 256.265 226.214 256.092 226.011C255.866 225.714 255.6 225.448 255.303 225.222C255.577 225.024 255.819 224.784 256.021 224.513C256.344 224.071 255.966 223.077 255.642 222.644C255.319 222.21 253.686 222.226 252.961 222.486C252.235 222.746 249.956 223.456 249.349 223.771C248.742 224.087 244.799 226.942 244.799 226.942Z" fill="#FFE6B6"/>
<path d="M256.029 224.544C256.093 224.425 256.134 224.293 256.147 224.158C256.161 224.022 256.147 223.886 256.107 223.756C255.85 224.201 255.481 224.571 255.035 224.828C254.144 225.443 251.384 226.634 250.019 227.785C248.655 228.937 247.291 230.38 246.478 230.617C247.086 230.538 248.726 229.434 250.374 228.14C251.939 227.049 253.59 226.086 255.311 225.262C255.586 225.061 255.828 224.819 256.029 224.544Z" fill="#FFE6B6"/>
<path d="M255.114 228.44C254.688 228.96 252.33 230.869 251.486 231.594C250.642 232.32 249.12 233.385 249.12 233.385C249.87 233.052 250.584 232.642 251.25 232.162C252.621 231.088 253.937 229.946 255.193 228.74C255.768 228.194 256.171 227.493 256.352 226.721C256.303 226.459 256.186 226.214 256.013 226.011C256.265 226.926 255.54 227.927 255.114 228.44Z" fill="#FFE6B6"/>
</svg>
