<svg width="484" height="484" viewBox="0 0 484 484" fill="none" xmlns="http://www.w3.org/2000/svg">
<path d="M99.5297 406.56C185.256 444.486 324.261 444.496 409.996 406.56C495.732 368.624 495.732 307.146 409.996 269.22C324.261 231.294 185.256 231.284 99.5201 269.22C13.7843 307.156 13.794 368.653 99.5297 406.56Z" fill="#FAFAFA"/>
<path d="M91.7664 334.386C112.039 334.386 128.473 326.555 128.473 316.894C128.473 307.234 112.039 299.402 91.7664 299.402C71.4939 299.402 55.0598 307.234 55.0598 316.894C55.0598 326.555 71.4939 334.386 91.7664 334.386Z" fill="#EBEBEB"/>
<path d="M404.14 363.436C425.289 363.436 442.434 355.266 442.434 345.189C442.434 335.111 425.289 326.942 404.14 326.942C382.991 326.942 365.846 335.111 365.846 345.189C365.846 355.266 382.991 363.436 404.14 363.436Z" fill="#EBEBEB"/>
<path d="M172.362 256.307C171.772 249.589 165.702 236.105 157.968 227.993C150.234 219.881 138.724 214.441 131.174 217.8C124.136 220.917 125.753 230.384 135.104 235.892C144.455 241.4 158.336 248.186 163.176 258.746L172.459 271.408L172.362 256.307Z" fill="#FFAD4F"/>
<path opacity="0.1" d="M172.362 256.307C171.772 249.589 165.702 236.105 157.968 227.993C150.234 219.881 138.724 214.441 131.174 217.8C124.136 220.917 125.753 230.384 135.104 235.892C144.455 241.4 158.336 248.186 163.176 258.746L172.459 271.408L172.362 256.307Z" fill="black"/>
<path d="M173.659 265.455C173.552 265.456 173.447 265.422 173.361 265.357C173.275 265.292 173.213 265.2 173.185 265.096C166.68 242.561 146.507 225.554 135.046 222.398C134.917 222.363 134.808 222.279 134.742 222.164C134.675 222.049 134.658 221.912 134.692 221.783C134.727 221.655 134.811 221.546 134.927 221.479C135.042 221.413 135.179 221.395 135.307 221.43C146.991 224.644 167.532 241.932 174.134 264.806C174.169 264.932 174.154 265.067 174.09 265.181C174.027 265.295 173.92 265.38 173.795 265.416L173.659 265.455Z" fill="white"/>
<path d="M171.52 280.43C170.116 276.751 164.957 270.924 157.048 266.423C148.336 261.457 137.63 259.743 134.842 255.523C131.483 250.46 135.53 245.04 144.096 245.349C152.663 245.659 168.577 255.92 172.478 273.121L171.52 280.43Z" fill="#FFAD4F"/>
<path d="M172.817 276.325C172.721 276.325 172.628 276.298 172.547 276.246C172.467 276.195 172.403 276.122 172.362 276.035C163.65 257.014 148.036 251.428 141.009 251.128C140.944 251.126 140.881 251.11 140.822 251.083C140.764 251.056 140.712 251.017 140.668 250.969C140.625 250.922 140.592 250.866 140.57 250.805C140.549 250.744 140.54 250.68 140.544 250.615C140.545 250.55 140.559 250.486 140.586 250.427C140.613 250.368 140.652 250.315 140.7 250.272C140.748 250.228 140.804 250.195 140.866 250.174C140.927 250.153 140.992 250.145 141.057 250.151C148.801 250.47 164.337 256.201 173.262 275.628C173.315 275.747 173.319 275.881 173.274 276.002C173.229 276.123 173.138 276.222 173.02 276.277C172.957 276.307 172.887 276.323 172.817 276.325Z" fill="white"/>
<path d="M343.456 302.306V271.737H155.848V302.364C155.848 316.226 165.005 330.088 183.32 340.659C219.949 361.809 279.336 361.809 315.936 340.659C334.328 330.088 343.475 316.188 343.456 302.306Z" fill="#E0E0E0"/>
<path d="M315.984 310.031C279.355 331.172 219.968 331.172 183.368 310.031C146.768 288.89 146.739 254.594 183.368 233.443C197.211 225.447 214.344 220.481 232.194 218.526C232.851 218.456 233.512 218.623 234.058 218.995C234.604 219.367 235 219.922 235.176 220.559L249.696 271.737L339.642 262.415C340.317 262.343 340.996 262.519 341.55 262.911C342.104 263.303 342.496 263.884 342.653 264.545C346.36 280.72 337.474 297.621 315.984 310.031Z" fill="#F0F0F0"/>
<path d="M348.625 217.403C344.821 207.849 336.458 198.769 323.564 191.267C302.093 178.886 272.811 173.746 244.875 175.876C244.118 175.952 243.416 176.304 242.902 176.864C242.388 177.425 242.098 178.155 242.087 178.915V203.958C242.129 205.811 242.386 207.652 242.852 209.446L256.52 257.556C256.755 258.297 257.234 258.938 257.879 259.374C258.524 259.809 259.297 260.015 260.073 259.956L346.834 250.973C347.591 250.878 348.288 250.514 348.799 249.947C349.309 249.38 349.598 248.648 349.613 247.885V222.843C349.572 220.989 349.239 219.153 348.625 217.403Z" fill="#FFAD4F"/>
<path opacity="0.3" d="M349.303 220.075L257.236 229.619L242.474 177.531C242.709 177.085 243.052 176.704 243.471 176.423C243.89 176.143 244.373 175.971 244.875 175.924C272.811 173.795 302.093 178.935 323.564 191.316C336.457 198.769 344.811 207.839 348.625 217.452C348.933 218.303 349.16 219.181 349.303 220.075Z" fill="white"/>
<path opacity="0.1" d="M242.087 178.964V204.006C242.129 205.859 242.386 207.701 242.852 209.495L256.52 257.556C256.671 258.042 256.932 258.486 257.285 258.853V229.619L242.474 177.531C242.223 177.967 242.09 178.461 242.087 178.964Z" fill="black"/>
<path d="M426.907 332.798H419.531V343.534H426.907V332.798Z" fill="#FFE6B6"/>
<path d="M400.971 319.507L393.599 319.76L393.968 330.489L401.34 330.235L400.971 319.507Z" fill="#FFE6B6"/>
<path d="M426.414 228.003C426.414 235.04 427.323 280.575 427.323 280.575C427.498 282.608 429.395 286.383 428.988 294.127C428.427 304.697 427.517 334.057 427.517 334.057C427.517 334.057 424.061 337.484 419.173 334.057C419.173 334.057 412.503 294.166 411.177 283.721C410.025 274.583 408.07 249.754 408.07 249.754L401.246 278.978C401.246 278.978 402.446 285.85 402.707 290.7C402.969 295.55 401.459 323.554 401.459 323.554C400.265 324.303 398.896 324.726 397.488 324.78C396.079 324.835 394.682 324.519 393.434 323.864C393.434 323.864 387.51 282.937 386.755 278.561C386 274.186 391.933 228.041 391.933 228.041L426.414 228.003Z" fill="#37474F"/>
<path d="M419.531 339.894V338.8C418.824 339.11 417.179 345.363 414.256 348.035C411.932 350.155 408.757 352.604 407.954 354.966C407.15 357.328 412.368 358.78 414.546 358.392C417.072 357.947 421.448 356.176 422.542 354.52C423.635 352.865 424.158 350.445 425.049 349.235C425.939 348.025 427.953 346.68 428.475 345.286C428.746 344.521 428.427 342.837 428.059 341.414C427.691 339.991 427.343 338.684 426.898 338.8V339.603C425.849 340.432 424.546 340.873 423.21 340.852C422.135 340.93 419.521 340.736 419.531 339.894Z" fill="#263238"/>
<path d="M393.899 328.22C393.511 328.22 393.202 328.772 392.359 329.691C391.096 330.963 389.631 332.016 388.023 332.808C385.264 334.192 379.892 336.312 377.462 337.406C375.952 338.093 376.02 339.923 377.588 340.968C379.156 342.014 382.941 342.769 387.49 341.743C389.968 341.191 393.192 338.906 395.234 339.032C397.277 339.158 401.091 339.119 402.601 338.064C404.111 337.009 403.501 334.812 403.075 332.905C402.611 330.824 401.943 327.639 401.255 327.784V328.442C400.365 329.778 395.854 330.33 393.908 329.343L393.899 328.22Z" fill="#263238"/>
<path d="M445.919 221.111C445.754 220.143 441.156 209.495 439.269 205.322L429.724 209.795L433.383 218.168L443.276 225.815C444.242 225.529 445.058 224.877 445.552 223.999C446.045 223.121 446.177 222.084 445.919 221.111Z" fill="#FFE6B6"/>
<path d="M402.785 179.022C398.225 179.39 393.676 180.638 389.601 186.688C385.525 192.738 378.391 203.144 378.391 203.144L391.827 207.404L402.785 179.022Z" fill="#FFAD4F"/>
<path opacity="0.1" d="M402.785 179.022C398.225 179.39 393.676 180.638 389.601 186.688C385.525 192.738 378.391 203.144 378.391 203.144L391.827 207.404L402.785 179.022Z" fill="black"/>
<path d="M415.32 179.254C421.932 180.842 430.315 183.513 433.248 189.602C436.181 195.691 440.721 205.564 440.721 205.564L429.792 212.04L426.433 206.232V228.041C421.264 233.666 403.201 236.289 391.953 228.041V192.071C391.953 186.33 395.147 179.428 403.956 178.915L415.32 179.254Z" fill="#FFAD4F"/>
<path opacity="0.1" d="M426.414 206.184C426.414 206.184 423.103 200.434 422.387 199.05L426.414 208.875V206.184Z" fill="black"/>
<path d="M417.798 149.866C418.396 149.793 419.003 149.858 419.572 150.056C420.141 150.254 420.657 150.579 421.08 151.008C422.474 152.441 422.183 155.083 421.08 161.153L416.763 161.646L417.798 149.866Z" fill="#263238"/>
<path d="M392.64 148.104C391.715 148.108 390.798 147.92 389.949 147.552C388.623 146.788 388.274 148.298 388.981 149.604C389.459 150.541 390.169 151.34 391.043 151.925C391.918 152.51 392.927 152.86 393.976 152.944C393.976 152.76 395.215 149.575 395.215 149.575L392.64 148.104Z" fill="#263238"/>
<path d="M415.775 161.656C416.414 162.043 417.334 160.814 418.118 159.981C418.902 159.149 421.486 158.045 422.774 160.736C424.061 163.427 421.109 167.174 419.367 168.384C418.877 168.808 418.267 169.067 417.623 169.124C416.978 169.181 416.331 169.034 415.775 168.703L415.32 179.264C414.546 180.956 413.364 182.431 411.881 183.556C410.398 184.681 408.66 185.421 406.821 185.711C400.626 186.553 401.894 181.432 403.917 178.935V175.063C403.917 175.063 400.713 175.702 399.203 175.305C398.39 175.082 396.464 172.749 395.215 170.145C393.821 167.241 391.488 162.004 393.56 153.205C395.786 143.748 405.94 143.458 411.952 147.272C417.963 151.085 415.775 161.656 415.775 161.656Z" fill="#FFE6B6"/>
<path d="M415.775 162.73C416.095 162.73 417.324 160.698 418.118 159.972C419.221 159.004 417.799 149.866 417.799 149.866C417.799 149.866 418.921 146.41 416.734 144.126C414.546 141.841 410.316 142.19 407.228 142.112C403.426 142.137 399.66 141.379 396.164 139.886C391.769 137.95 391.44 137.756 390.898 139.682C390.356 141.609 390.143 146.032 392.766 148.995L394.954 149.798C394.954 149.798 396.125 150.843 400.229 151.337C404.012 151.622 407.814 151.551 411.584 151.124C412.775 150.96 413.026 152.092 413.665 155.258C414.227 158.026 414.691 162.701 415.775 162.73Z" fill="#263238"/>
<path d="M417.798 150.572L421.67 148.491C421.545 148.236 421.37 148.007 421.155 147.82C420.941 147.633 420.691 147.49 420.421 147.4C420.151 147.31 419.865 147.274 419.581 147.295C419.297 147.316 419.02 147.394 418.766 147.523C418.242 147.807 417.847 148.284 417.667 148.852C417.486 149.421 417.533 150.038 417.798 150.572Z" fill="#263238"/>
<path d="M403.946 175.082C403.946 175.082 409.687 173.921 411.69 172.856C412.871 172.241 413.836 171.282 414.459 170.107C414.161 171.282 413.627 172.386 412.891 173.349C411.419 175.227 403.937 176.602 403.937 176.602L403.946 175.082Z" fill="#F28F8F"/>
<path d="M405.331 160.214C405.34 160.44 405.416 160.658 405.548 160.841C405.681 161.024 405.865 161.164 406.076 161.244C406.288 161.323 406.519 161.339 406.739 161.288C406.959 161.237 407.16 161.123 407.316 160.959C407.472 160.796 407.576 160.589 407.616 160.367C407.655 160.144 407.628 159.915 407.538 159.707C407.449 159.5 407.3 159.323 407.11 159.2C406.921 159.077 406.699 159.012 406.473 159.013C406.319 159.017 406.167 159.051 406.027 159.114C405.886 159.176 405.759 159.265 405.653 159.377C405.547 159.488 405.464 159.62 405.408 159.763C405.353 159.907 405.327 160.06 405.331 160.214Z" fill="#263238"/>
<path d="M406.56 155.848L409.019 157.203C409.188 156.869 409.224 156.482 409.117 156.122C409.011 155.762 408.772 155.456 408.448 155.267C408.286 155.177 408.109 155.12 407.925 155.101C407.742 155.081 407.556 155.099 407.379 155.154C407.203 155.208 407.039 155.297 406.899 155.417C406.758 155.536 406.642 155.683 406.56 155.848Z" fill="#263238"/>
<path d="M405.408 168.016L402.785 168.984C402.841 169.16 402.933 169.323 403.054 169.463C403.175 169.603 403.323 169.717 403.49 169.799C403.656 169.88 403.837 169.927 404.022 169.937C404.207 169.946 404.392 169.919 404.566 169.855C404.915 169.714 405.196 169.445 405.353 169.103C405.51 168.761 405.529 168.372 405.408 168.016Z" fill="#F28F8F"/>
<path d="M395.06 156.816L397.306 155.083C397.201 154.933 397.067 154.806 396.912 154.709C396.756 154.612 396.583 154.548 396.402 154.519C396.221 154.491 396.036 154.5 395.859 154.546C395.682 154.591 395.515 154.672 395.37 154.783C395.069 155.019 394.87 155.36 394.812 155.738C394.754 156.116 394.843 156.501 395.06 156.816Z" fill="#263238"/>
<path d="M395.757 159.885C395.767 160.11 395.842 160.328 395.974 160.511C396.106 160.694 396.29 160.834 396.501 160.914C396.712 160.993 396.942 161.01 397.162 160.96C397.382 160.91 397.583 160.797 397.739 160.634C397.895 160.471 398 160.266 398.041 160.044C398.082 159.822 398.056 159.593 397.968 159.385C397.879 159.177 397.732 159 397.544 158.876C397.355 158.751 397.135 158.684 396.909 158.684C396.754 158.687 396.602 158.72 396.46 158.782C396.318 158.843 396.19 158.933 396.083 159.044C395.976 159.156 395.892 159.288 395.836 159.432C395.78 159.576 395.753 159.73 395.757 159.885Z" fill="#263238"/>
<path d="M401.613 158.791L401.236 165.712L397.625 164.483L401.613 158.791Z" fill="#F28F8F"/>
<path d="M371.538 200.492L400.984 208.246L409.677 244.788L381.682 236.657L371.538 200.492Z" fill="#EBEBEB"/>
<path d="M384.373 224.673C384.102 225.418 382.495 227.49 379.069 227.325L378.643 225.815L384.373 224.673Z" fill="#E0E0E0"/>
<path d="M390.956 225.815C391.091 226.783 393.085 228.593 396.473 229.687C400.345 230.965 406.241 230.287 406.241 230.287L405.708 228.467L390.956 225.815Z" fill="#E0E0E0"/>
<path d="M380.163 205.787L379.921 204.664C379.785 204.045 381.508 204.016 383.793 204.606L388.139 205.729C390.404 206.32 392.35 207.297 392.476 207.917L392.727 209.04L380.163 205.787Z" fill="#E0E0E0"/>
<path d="M389.039 206.184C389.039 206.116 389.039 206.058 389.039 206C388.942 205.477 389.165 205.158 390.152 205.41L393.482 206.281L393.269 205.584C393.153 205.197 392.234 204.616 391.217 204.364L389.388 203.841C389.388 203.841 388.555 201.083 384.741 200.24C380.927 199.398 381.44 201.818 381.44 201.818L379.717 201.344C378.749 201.083 378.072 201.179 378.159 201.567L378.323 202.293L381.286 203.067C381.56 203.138 381.807 203.288 381.998 203.498C382.189 203.708 382.315 203.968 382.36 204.248C382.381 204.321 382.397 204.395 382.408 204.471C380.753 204.171 379.601 204.267 379.717 204.78L379.959 205.903L392.543 209.156L392.301 208.033C392.166 207.51 390.801 206.745 389.039 206.184Z" fill="#37474F"/>
<path d="M443.276 225.815L433.383 218.168C433.383 218.168 413.433 221.411 411.119 221.595C409.884 221.625 408.669 221.282 407.633 220.61C406.596 219.938 405.787 218.969 405.311 217.829C404.421 215.525 402.843 215.816 402.843 215.816L403.762 219.688C403.975 220.656 398.361 221.382 395.254 220.326C392.146 219.271 387.626 220.81 390.414 225.05C393.202 229.29 398.632 229.774 402.407 229.774C403.983 229.768 405.558 229.664 407.121 229.464C408.341 229.31 409.561 229.184 410.78 229.097C418.457 228.516 439.762 226.919 443.276 225.815Z" fill="#FFE6B6"/>
<path d="M374.539 211.179L375.845 215.835C376.097 216.735 379.514 218.361 381.653 218.962C383.793 219.562 386.184 220.259 385.157 223.289C384.189 226.076 380.656 226.715 378.846 226.638C377.036 226.56 374.548 224.818 373.571 222.03C372.322 218.468 372.99 214.654 372.496 212.573C372.002 210.492 373.454 209.94 374.539 211.179Z" fill="#FFE6B6"/>
<path d="M90.8468 108.474H96.0546C99.9056 108.474 103.599 110.004 106.322 112.727C109.045 115.45 110.575 119.143 110.575 122.994V159.885H76.3655V122.936C76.3808 119.102 77.912 115.429 80.625 112.72C83.338 110.011 87.0126 108.484 90.8468 108.474Z" fill="#263238"/>
<path d="M111.039 310.012C113.029 312.105 115.214 314.004 117.564 315.684C117.938 315.929 118.247 316.261 118.464 316.652C118.774 317.291 119.248 318.879 116.334 319.895C114.862 320.408 113.296 320.597 111.744 320.448C110.191 320.3 108.69 319.817 107.342 319.033C104.951 317.533 104.834 314.416 102.579 312.635C100.904 311.318 98.8134 310.98 97.4679 309.266C96.4999 308.066 96.7709 306.469 97.2549 304.494C97.797 302.335 98.039 300.709 98.7553 300.874L98.6392 301.842C99.5297 303.265 104.137 303.681 106.19 302.703C107.679 305.222 109.297 307.661 111.039 310.012Z" fill="#263238"/>
<path d="M113.062 312.025C112.375 311.396 111.688 310.738 111.039 310.031C109.679 308.253 108.421 306.397 107.274 304.475C106.488 303.307 106.117 301.91 106.219 300.506L106.799 295.192L99.491 294.679L98.6392 301.842C98.465 303.468 99.8008 304.91 102.182 306.962C104.563 309.015 107.584 313.787 109.732 314.987C111.881 316.187 113.43 316.149 114.34 315.539C115.25 314.929 115.386 314.397 113.062 312.025Z" fill="#FFE6B6"/>
<path d="M83.248 310.66V309.566C83.6836 310.854 85.6873 316.4 88.7365 319.179C91.1565 321.395 94.4671 323.941 95.3093 326.41C96.1514 328.878 90.7016 329.827 88.4461 329.43C85.8132 328.965 82.4058 327.494 80.5569 325.2C79.2501 323.593 78.4273 321.695 77.4981 320.437C76.5688 319.179 74.4198 317.775 73.9165 316.323C73.6454 315.52 73.9745 313.768 74.3617 312.286C74.7489 310.805 75.0974 309.441 75.5621 309.566V310.399C76.6471 311.256 77.9936 311.714 79.376 311.696C80.5279 311.744 83.248 311.522 83.248 310.66Z" fill="#263238"/>
<path d="M90.9339 321.124C90.1789 320.456 89.4238 319.798 88.7365 319.188C86.6069 317.252 84.9807 313.951 84.0514 311.706C83.52 310.426 83.247 309.054 83.248 307.669V303.284H75.5621V310.418V310.602C75.9299 312.199 79.4341 316.41 81.4669 319.217C82.8027 321.076 85.3389 323.438 88.4074 323.844C91.3308 324.222 92.8118 323.312 90.9339 321.124Z" fill="#FFE6B6"/>
<path d="M77.0915 191.286C71.1383 204.296 77.3045 250.112 77.3045 250.112C77.1303 252.222 74.7199 256.375 73.8197 265.668C72.7549 276.635 75.504 304.204 75.504 304.204C76.6732 304.88 77.9895 305.26 79.3389 305.312C80.6883 305.365 82.0301 305.087 83.248 304.504C83.248 304.504 90.5661 262.996 91.96 252.087C93.1603 242.561 95.4739 220.143 95.4739 220.143L102.027 252.009C102.027 252.009 99.5104 257.488 99.1232 261.554C98.5037 267.971 99.1232 295.763 99.1232 295.763C99.1232 295.763 101.746 297.766 106.78 297.021C106.78 297.021 115.299 258.301 115.966 250.557C116.373 245.94 111.126 189.36 111.126 189.36L77.0915 191.286Z" fill="#37474F"/>
<path d="M95.4545 220.172L97.3905 209.524C97.3905 209.524 105.57 207.83 109.287 204.335C106.724 207.339 103.37 209.565 99.6072 210.763L97.4389 220.065L101.233 248.224L95.4545 220.172Z" fill="#263238"/>
<path d="M67.3825 185.633C67.4502 184.782 69.0474 175.673 70.1413 170.571L80.857 173.853L78.921 183.233L69.8993 190.473C67.1017 189.912 67.3244 186.485 67.3825 185.633Z" fill="#FFE6B6"/>
<path d="M119.17 166.428L124.233 175.711L116.354 182.458L109.142 171.026L119.17 166.428Z" fill="#F28F8F"/>
<path d="M100.178 145.752C105.202 145.8 110.729 147.63 112.627 151.56C114.524 155.49 120.477 167.754 120.477 167.754C120.477 167.754 116.034 174.25 108.997 173.795L100.178 145.752Z" fill="#EBEBEB"/>
<path d="M87.5943 146.1C85.4046 146.633 83.3625 147.651 81.6185 149.079C79.8745 150.506 78.4731 152.307 77.5174 154.348C76.119 157.453 75.9904 160.983 77.1592 164.182L82.4736 179.574C82.4736 179.574 79.9858 185.595 77.0915 191.287C90.4402 198.74 107.099 194.82 111.126 189.351C111.301 188.199 111.068 183 111.397 177.086C111.736 170.775 112.607 163.65 111.61 159.759C109.771 152.518 106.325 145.723 99.462 145.723L87.5943 146.1Z" fill="#F5F5F5"/>
<path d="M85.6099 146.1C81.0603 146.739 74.3617 147.659 72.0579 158.491C69.696 169.468 69.0474 173.272 69.0474 173.272C69.0474 173.272 72.7839 177.628 80.344 177.589L82.6962 169.264L85.6099 146.1Z" fill="#F5F5F5"/>
<path d="M80.9926 175.295C80.9926 175.295 82.5414 170.397 83.4706 166.428C83.5028 170.608 83.1038 174.779 82.28 178.877L80.9926 175.295Z" fill="#EBEBEB"/>
<path d="M88.1945 155.228C86.6095 155.228 85.0894 154.6 83.9678 153.48C82.8462 152.36 82.2148 150.841 82.2122 149.256V131.832H88.1945V155.228Z" fill="#263238"/>
<path d="M104.931 115.386C106.732 116.45 108.968 120.99 108.745 130.506C108.561 138.569 105.948 140.563 104.631 141.154C103.315 141.744 100.759 141.376 98.3294 140.96V145.8C98.3294 145.8 101.727 149.759 101.514 151.976C101.301 154.193 96.6064 154.715 93.4217 152.547C91.3568 151.062 89.5846 149.208 88.1945 147.078V135.375C87.9361 135.692 87.6173 135.954 87.2567 136.147C86.8961 136.339 86.5008 136.459 86.0938 136.497C85.6867 136.536 85.2761 136.494 84.8856 136.372C84.4951 136.251 84.1326 136.053 83.8191 135.791C81.099 133.981 80.9925 129.518 82.5704 127.912C84.1482 126.305 87.5556 126.818 88.1945 129.034C88.1945 129.034 92.1245 129.17 97.3517 126.305C99.3828 125.206 101.127 123.646 102.444 121.749C103.76 119.852 104.612 117.672 104.931 115.386Z" fill="#FFE6B6"/>
<path d="M99.704 128.483C99.7132 128.619 99.6955 128.755 99.6517 128.884C99.608 129.014 99.5392 129.133 99.4493 129.236C99.3593 129.338 99.25 129.422 99.1276 129.482C99.0052 129.542 98.8721 129.578 98.736 129.586C98.4673 129.592 98.2065 129.495 98.0069 129.315C97.8072 129.135 97.6837 128.886 97.6616 128.618C97.6552 128.485 97.6752 128.351 97.7204 128.226C97.7656 128.1 97.8351 127.984 97.925 127.885C98.0149 127.786 98.1234 127.706 98.2443 127.649C98.3652 127.592 98.4961 127.56 98.6295 127.553C98.763 127.547 98.8964 127.567 99.0222 127.612C99.1479 127.657 99.2636 127.727 99.3624 127.817C99.4613 127.907 99.5415 128.015 99.5985 128.136C99.6554 128.257 99.688 128.388 99.6943 128.521L99.704 128.483Z" fill="#263238"/>
<path d="M100.014 135.317L102.366 136.072C102.325 136.23 102.252 136.378 102.152 136.507C102.052 136.637 101.926 136.744 101.783 136.823C101.64 136.902 101.482 136.95 101.319 136.966C101.156 136.982 100.992 136.964 100.837 136.914C100.518 136.807 100.254 136.581 100.1 136.283C99.9468 135.984 99.9156 135.638 100.014 135.317Z" fill="#F28F8F"/>
<path d="M108.058 125.366L106.006 123.904C106.092 123.766 106.205 123.647 106.339 123.554C106.472 123.462 106.623 123.397 106.783 123.364C106.942 123.332 107.106 123.332 107.266 123.365C107.425 123.398 107.576 123.463 107.709 123.556C107.991 123.753 108.185 124.052 108.25 124.39C108.315 124.728 108.246 125.078 108.058 125.366Z" fill="#263238"/>
<path d="M107.584 127.776C107.583 127.963 107.527 128.146 107.425 128.302C107.322 128.459 107.176 128.582 107.005 128.657C106.834 128.733 106.644 128.757 106.459 128.726C106.275 128.696 106.103 128.613 105.964 128.487C105.826 128.362 105.727 128.198 105.679 128.017C105.632 127.836 105.638 127.645 105.696 127.468C105.755 127.29 105.864 127.133 106.01 127.016C106.156 126.899 106.333 126.827 106.519 126.808C106.787 126.8 107.048 126.896 107.247 127.077C107.445 127.257 107.566 127.508 107.584 127.776Z" fill="#263238"/>
<path d="M102.802 127.166L102.956 133.274L106.17 132.277L102.802 127.166Z" fill="#F28F8F"/>
<path d="M98.3294 140.95C95.7352 140.612 90.3918 139.082 89.6174 136.972C89.9472 138.04 90.5998 138.981 91.4857 139.663C93.0732 141.028 98.3778 142.567 98.3778 142.567L98.3294 140.95Z" fill="#F28F8F"/>
<path d="M140.776 165.857L111.33 173.611L102.637 210.153L130.632 202.022L140.776 165.857Z" fill="#FFAD4F"/>
<path opacity="0.15" d="M127.941 190.038C128.212 190.783 129.818 192.855 133.245 192.69L133.671 191.18L127.941 190.038Z" fill="black"/>
<path opacity="0.15" d="M121.358 191.18C121.232 192.148 119.229 193.958 115.841 195.052C111.969 196.33 106.083 195.652 106.083 195.652L106.606 193.832L121.358 191.18Z" fill="black"/>
<path opacity="0.15" d="M132.151 171.152C132.151 171.152 132.267 170.649 132.393 170.029C132.519 169.41 130.806 169.381 128.521 169.971L124.185 171.094C121.91 171.684 119.974 172.662 119.838 173.282L119.596 174.405L132.151 171.152Z" fill="black"/>
<path d="M134.194 166.912C134.281 166.525 133.584 166.428 132.635 166.69L130.912 167.164C130.912 167.164 131.425 164.734 127.611 165.586C123.797 166.438 122.965 169.187 122.965 169.187L121.135 169.71C120.167 170 119.199 170.542 119.083 170.929L118.87 171.626L134.029 167.638L134.194 166.912Z" fill="#37474F"/>
<path d="M132.103 168.132C130.719 168.461 130.167 168.645 129.935 169.603C129.702 170.562 129.596 171.539 129.596 171.539L122.936 173.272C122.936 173.272 123.255 171.888 123.362 171.336C123.468 170.784 123.236 170.474 122.171 170.755L122.074 170.329L132.597 167.648L132.103 168.132Z" fill="#37474F"/>
<path d="M132.335 171.259L132.577 170.136C132.713 169.516 130.99 169.487 128.705 170.078L124.359 171.2C122.094 171.791 120.148 172.769 120.022 173.388L119.771 174.511L132.335 171.259Z" fill="#37474F"/>
<path d="M69.9283 190.473L78.95 183.233C78.95 183.233 98.8812 186.776 101.214 186.96C102.449 186.992 103.665 186.649 104.702 185.977C105.739 185.305 106.547 184.335 107.022 183.194C107.922 180.89 109.49 181.181 109.49 181.181C109.49 181.181 108.793 184.085 108.581 185.053C108.368 186.021 113.972 186.747 117.08 185.691C120.187 184.636 124.707 186.175 121.92 190.415C119.132 194.655 113.701 195.139 109.926 195.149C108.35 195.133 106.776 195.027 105.212 194.829C103.992 194.674 102.773 194.549 101.553 194.462C93.896 193.881 73.4421 191.567 69.9283 190.473Z" fill="#FFE6B6"/>
<path d="M137.775 176.544L136.488 181.2C136.236 182.1 132.819 183.726 130.68 184.327C128.541 184.927 126.15 185.624 127.176 188.653C128.144 191.441 131.677 192.08 133.497 192.003C135.317 191.925 137.785 190.183 138.763 187.395C140.012 183.833 139.344 180.029 139.837 177.938C140.331 175.847 138.86 175.305 137.775 176.544Z" fill="#FFE6B6"/>
</svg>
