<svg width="380" height="380" viewBox="0 0 380 380" fill="none" xmlns="http://www.w3.org/2000/svg">
<path d="M190.22 359.1C290.269 359.1 371.374 317.254 371.374 265.635C371.374 214.016 290.269 172.17 190.22 172.17C90.172 172.17 9.06682 214.016 9.06682 265.635C9.06682 317.254 90.172 359.1 190.22 359.1Z" fill="#F5F5F5"/>
<path d="M49.4001 294.31L20.8697 277.886C19.8665 277.301 19.8665 276.366 20.8697 275.774L204.44 169.83C205.006 169.541 205.633 169.391 206.268 169.391C206.903 169.391 207.53 169.541 208.096 169.83L236.626 186.253C237.637 186.831 237.637 187.773 236.626 188.358L53.0557 294.31C52.4896 294.598 51.8633 294.749 51.2279 294.749C50.5926 294.749 49.9663 294.598 49.4001 294.31Z" fill="#E0E0E0"/>
<path d="M291.05 321.792C316.914 321.792 337.881 309.685 337.881 294.751C337.881 279.817 316.914 267.71 291.05 267.71C265.186 267.71 244.219 279.817 244.219 294.751C244.219 309.685 265.186 321.792 291.05 321.792Z" fill="#E0E0E0"/>
<path d="M95.456 315.734L85.8116 310.171C82.7716 308.416 82.7716 305.573 85.8116 303.818L216.228 228.76C217.934 227.894 219.82 227.442 221.734 227.442C223.647 227.442 225.534 227.894 227.24 228.76L236.877 234.323C239.917 236.079 239.917 238.929 236.877 240.677L106.461 315.734C104.756 316.6 102.87 317.051 100.958 317.051C99.0463 317.051 97.1611 316.6 95.456 315.734Z" fill="#E0E0E0"/>
<path d="M45.5466 253.08C45.5466 253.08 46.6487 240.662 42.5522 230.006C38.4559 219.351 31.3726 211.766 23.7802 209.562C16.1878 207.358 8.49665 213.203 15.7546 219.792C23.0126 226.381 36.6774 234.392 39.6946 254.068L45.5466 253.08Z" fill="#FFAD4F"/>
<path opacity="0.15" d="M45.5466 253.08C45.5466 253.08 46.6487 240.662 42.5522 230.006C38.4559 219.351 31.3726 211.766 23.7802 209.562C16.1878 207.358 8.49665 213.203 15.7546 219.792C23.0126 226.381 36.6774 234.392 39.6946 254.068L45.5466 253.08Z" fill="black"/>
<path d="M43.9276 249.447H44.0112C44.1206 249.425 44.2169 249.361 44.2794 249.269C44.342 249.176 44.3657 249.063 44.3456 248.953C40.2796 227.156 26.516 215.566 19.7596 212.481C19.6565 212.437 19.5404 212.434 19.4355 212.474C19.3306 212.513 19.2452 212.592 19.1972 212.694C19.1744 212.744 19.1619 212.798 19.1603 212.854C19.1587 212.909 19.1681 212.964 19.1878 213.015C19.2076 213.067 19.2375 213.114 19.2756 213.154C19.3137 213.194 19.3594 213.226 19.41 213.248C25.9992 216.288 39.5196 227.688 43.502 249.098C43.5185 249.198 43.5708 249.288 43.6491 249.352C43.7274 249.417 43.8263 249.45 43.9276 249.447Z" fill="white"/>
<path d="M46.2002 273.273C46.2002 272.65 46.2002 272.034 46.2002 271.411C46.2165 269.665 46.4566 267.928 46.9146 266.243C47.3934 264.594 48.5106 263.279 48.9058 261.638C49.1934 259.779 48.7314 257.882 47.6214 256.363C46.5954 254.919 45.0906 253.756 44.5358 252.069C43.8366 249.949 45.159 247.813 44.589 245.86C44.019 243.907 41.853 242.698 40.0822 242.22C37.7186 241.574 35.1954 241.741 32.809 241.178C29.7158 240.456 27.0482 238.579 24.2514 237.09C21.4546 235.6 18.1714 234.452 15.1314 235.357C14.1404 235.648 13.222 236.144 12.436 236.814C11.6501 237.484 11.0144 238.313 10.5704 239.245C10.1264 240.178 9.88411 241.193 9.8594 242.226C9.83469 243.258 10.0281 244.284 10.427 245.237C11.1034 246.886 12.3574 248.224 13.2694 249.751C14.1814 251.279 14.683 253.034 13.9914 254.699C13.4746 255.938 12.555 256.88 12.1294 258.164C11.0426 261.463 11.6506 264.427 14.9414 266.114C17.3734 267.36 20.1702 267.003 22.6022 268.105C24.3654 268.903 25.855 270.545 25.7182 272.559C25.6498 273.608 25.3534 274.618 25.2546 275.66C24.601 282.5 29.1002 286.816 34.9142 287.66C37.9586 287.996 41.0384 287.546 43.8594 286.353C46.793 284.924 46.2002 282.636 46.2914 279.748C46.3598 277.582 46.2382 275.432 46.2002 273.273Z" fill="#FFAD4F"/>
<path d="M21.0747 258.772C21.1517 258.795 21.2333 258.795 21.3103 258.772C24.2014 257.653 27.3046 257.189 30.3966 257.412C33.4887 257.636 36.4929 258.541 39.1931 260.064C39.2859 260.113 39.3939 260.122 39.4936 260.091C39.5933 260.059 39.6765 259.99 39.7251 259.897C39.7742 259.804 39.785 259.696 39.7551 259.595C39.7253 259.494 39.6573 259.409 39.5655 259.358C36.754 257.782 33.6285 256.847 30.4133 256.621C27.1981 256.395 23.9727 256.883 20.9683 258.05C20.8732 258.096 20.7999 258.178 20.7644 258.278C20.7289 258.377 20.7339 258.487 20.7783 258.582C20.8109 258.634 20.8543 258.677 20.9055 258.71C20.9567 258.743 21.0144 258.764 21.0747 258.772Z" fill="white"/>
<path d="M46.7548 279.786C46.6579 279.787 46.5645 279.75 46.4939 279.683C46.4232 279.617 46.3807 279.526 46.3748 279.429C45.6984 262.808 29.0088 245.229 17.8216 240.434C17.7762 240.415 17.7348 240.388 17.7001 240.354C17.6654 240.319 17.638 240.278 17.6196 240.232C17.6011 240.187 17.592 240.138 17.5928 240.089C17.5935 240.04 17.6042 239.992 17.624 239.947C17.6626 239.857 17.7354 239.785 17.8265 239.748C17.9176 239.711 18.0197 239.712 18.1104 239.75C29.5104 244.629 46.428 262.496 47.1196 279.399C47.1217 279.448 47.114 279.497 47.0972 279.543C47.0803 279.589 47.0546 279.631 47.0214 279.667C46.9882 279.703 46.9483 279.732 46.9038 279.752C46.8594 279.773 46.8114 279.785 46.7624 279.786H46.7548Z" fill="white"/>
<path d="M55.2446 277.263L221.707 181.161V40.0216L55.2446 136.131V277.263Z" fill="#FFAD4F"/>
<path d="M48.4577 132.217L55.2445 136.131L221.707 40.0216L228.494 28.272L48.4577 132.217Z" fill="#37474F"/>
<path d="M228.494 185.075V28.2416L221.707 40.0216V181.161L228.494 185.075Z" fill="#37474F"/>
<path d="M48.4577 132.217L55.2445 136.131V277.263L48.4577 289.02V132.217Z" fill="#37474F"/>
<path d="M55.2445 277.263L221.707 181.161L228.494 185.075L48.4577 289.02L55.2445 277.263Z" fill="#37474F"/>
<g opacity="0.5">
<path opacity="0.5" d="M48.4577 132.217L55.2445 136.131L221.707 40.0216L228.494 28.272L48.4577 132.217Z" fill="#455A64"/>
</g>
<g opacity="0.5">
<path opacity="0.5" d="M55.2445 277.263L221.707 181.161L228.494 185.075L48.4577 289.02L55.2445 277.263Z" fill="#455A64"/>
</g>
<path d="M228.494 28.272L223.965 25.6576L43.9281 129.603L48.4577 132.217L228.494 28.272Z" fill="#455A64"/>
<path d="M43.9281 129.603L48.4577 132.217V289.02L43.9281 286.414V129.603Z" fill="#263238"/>
<g style="mix-blend-mode:multiply" opacity="0.1">
<g style="mix-blend-mode:multiply" opacity="0.1">
<path d="M221.707 40.0216L219.443 41.3288V179.854L55.2446 274.656V277.263L221.707 181.161V40.0216Z" fill="black"/>
</g>
</g>
<path opacity="0.2" d="M136.549 96.52V214.115C136.549 215.688 137.651 216.326 139.012 215.536L207.944 175.727C208.66 175.259 209.255 174.629 209.683 173.889C210.111 173.148 210.359 172.317 210.406 171.464V53.8384L136.549 96.52ZM145.768 100.943C144.727 101.544 143.883 101.057 143.883 99.8564C143.918 99.2016 144.106 98.5642 144.434 97.9963C144.761 97.4283 145.219 96.9459 145.768 96.5884C146.809 95.988 147.653 96.4744 147.653 97.6752C147.613 98.3244 147.422 98.9553 147.094 99.5174C146.767 100.08 146.313 100.557 145.768 100.913V100.943ZM154.888 95.6232C153.847 96.2236 153.003 95.7372 153.003 94.5364C153.039 93.8819 153.228 93.245 153.555 92.6772C153.883 92.1094 154.339 91.6268 154.888 91.2684C155.929 90.668 156.773 91.1544 156.773 92.3552C156.743 93.0066 156.56 93.6418 156.239 94.2095C155.919 94.7772 155.469 95.2615 154.926 95.6232H154.888ZM164.046 90.3032C163.005 90.9036 162.161 90.4172 162.161 89.2164C162.197 88.5619 162.386 87.925 162.713 87.3572C163.041 86.7894 163.497 86.3068 164.046 85.9484C165.087 85.348 165.931 85.8344 165.931 87.0352C165.906 87.6918 165.725 88.3331 165.404 88.9064C165.083 89.4798 164.631 89.9689 164.084 90.3336L164.046 90.3032ZM173.212 84.9832C172.171 85.5912 171.327 85.0972 171.327 83.8964C171.364 83.2422 171.553 82.6057 171.88 82.0381C172.208 81.4705 172.664 80.9877 173.212 80.6284C174.253 80.028 175.097 80.5144 175.097 81.7228C175.078 82.3806 174.904 83.0247 174.588 83.6021C174.273 84.1795 173.824 84.6737 173.28 85.044L173.212 84.9832ZM182.332 79.6632C181.291 80.2636 180.447 79.7772 180.447 78.5688C180.505 77.9264 180.712 77.3063 181.051 76.7576C181.39 76.2088 181.852 75.7465 182.4 75.4072C183.441 74.7992 184.285 75.2856 184.285 76.494C184.255 77.155 184.069 77.7995 183.741 78.3744C183.414 78.9492 182.954 79.4379 182.4 79.8L182.332 79.6632ZM191.49 74.3432C190.449 74.9436 189.605 74.4572 189.605 73.2564C189.639 72.6016 189.828 71.9642 190.155 71.3963C190.483 70.8283 190.94 70.3459 191.49 69.9884C192.531 69.388 193.375 69.8744 193.375 71.0752C193.369 71.7463 193.202 72.4063 192.887 72.999C192.572 73.5918 192.119 74.0998 191.566 74.48L191.49 74.3432ZM200.648 69.0232C199.607 69.6236 198.763 69.1372 198.763 67.9364C198.798 67.2819 198.987 66.645 199.315 66.0772C199.642 65.5094 200.099 65.0268 200.648 64.6684C201.689 64.068 202.533 64.5544 202.533 65.7552C202.527 66.4263 202.36 67.0863 202.045 67.679C201.73 68.2718 201.277 68.7798 200.724 69.16L200.648 69.0232Z" fill="black"/>
<path d="M139.331 98.078V215.703C139.331 217.269 140.433 217.907 141.793 217.124L210.725 177.308C211.442 176.841 212.039 176.212 212.467 175.471C212.895 174.73 213.142 173.899 213.188 173.044V55.4192L139.331 98.078ZM148.55 102.494C147.509 103.094 146.665 102.608 146.665 101.407C146.702 100.753 146.891 100.116 147.218 99.5485C147.546 98.9809 148.002 98.4981 148.55 98.1388C149.591 97.5384 150.435 98.0248 150.435 99.2332C150.399 99.8866 150.21 100.523 149.882 101.089C149.555 101.656 149.098 102.137 148.55 102.494ZM157.67 97.1736C156.629 97.774 155.785 97.2876 155.785 96.0792C155.82 95.4257 156.009 94.7899 156.337 94.2233C156.664 93.6568 157.121 93.1755 157.67 92.8188C158.711 92.2108 159.555 92.6972 159.555 93.9056C159.528 94.563 159.347 95.2049 159.026 95.7793C158.705 96.3537 158.254 96.8444 157.708 97.2116L157.67 97.1736ZM166.828 91.8536C165.787 92.454 164.943 91.9676 164.943 90.7668C164.977 90.112 165.166 89.4746 165.493 88.9067C165.821 88.3387 166.278 87.8563 166.828 87.4988C167.869 86.8908 168.713 87.3848 168.713 88.5856C168.698 89.255 168.523 89.911 168.201 90.4983C167.88 91.0856 167.422 91.587 166.866 91.96L166.828 91.8536ZM175.993 86.5336C174.952 87.134 174.109 86.6476 174.109 85.4468C174.144 84.7923 174.333 84.1554 174.66 83.5876C174.988 83.0198 175.445 82.5372 175.993 82.1788C177.035 81.5784 177.878 82.0648 177.878 83.2656C177.864 83.935 177.688 84.591 177.367 85.1783C177.045 85.7656 176.587 86.267 176.031 86.64L175.993 86.5336ZM185.113 81.2136C184.072 81.814 183.229 81.3276 183.229 80.1268C183.264 79.4723 183.453 78.8354 183.78 78.2676C184.108 77.6998 184.565 77.2172 185.113 76.8588C186.155 76.2584 186.998 76.7448 186.998 77.9456C186.989 78.6118 186.82 79.2662 186.505 79.8534C186.191 80.4407 185.739 80.9437 185.189 81.32L185.113 81.2136ZM194.271 75.8936C193.23 76.494 192.387 76.0076 192.387 74.8068C192.422 74.1523 192.611 73.5154 192.938 72.9476C193.266 72.3798 193.723 71.8972 194.271 71.5388C195.313 70.9384 196.156 71.4248 196.156 72.6256C196.156 73.3009 195.991 73.9659 195.676 74.5631C195.36 75.1603 194.905 75.6717 194.347 76.0532L194.271 75.8936ZM203.391 70.5736C202.35 71.1816 201.507 70.6876 201.507 69.4868C201.543 68.8326 201.733 68.1961 202.06 67.6285C202.387 67.0609 202.843 66.5781 203.391 66.2188C204.433 65.6184 205.276 66.1048 205.276 67.3132C205.284 67.9889 205.126 68.6563 204.818 69.2575C204.509 69.8588 204.059 70.3757 203.505 70.7636L203.391 70.5736Z" fill="#FAFAFA"/>
<g opacity="0.24">
<path opacity="0.24" d="M147.615 119.913C147.35 119.91 147.089 119.842 146.855 119.715C146.562 119.513 146.327 119.236 146.176 118.912C146.025 118.589 145.963 118.231 145.997 117.876V112.898C146.045 111.995 146.306 111.117 146.758 110.334C147.209 109.551 147.839 108.885 148.596 108.391L205.353 75.6048C205.632 75.3735 205.975 75.2331 206.337 75.2026C206.698 75.172 207.061 75.2527 207.375 75.4338C207.689 75.6149 207.94 75.8878 208.095 76.2159C208.25 76.544 208.301 76.9115 208.241 77.2692V82.2472C208.192 83.1498 207.931 84.0282 207.48 84.8112C207.028 85.5942 206.398 86.2598 205.641 86.754L148.885 119.54C148.502 119.776 148.064 119.904 147.615 119.913ZM206.576 75.8328C206.237 75.8466 205.907 75.9488 205.619 76.1292L148.862 108.916C148.186 109.356 147.623 109.949 147.221 110.648C146.818 111.347 146.586 112.131 146.544 112.936V117.914C146.484 118.17 146.508 118.438 146.613 118.679C146.717 118.92 146.896 119.121 147.124 119.252C147.352 119.384 147.615 119.438 147.876 119.408C148.137 119.378 148.382 119.264 148.573 119.084L205.33 86.298C206.005 85.8589 206.567 85.2665 206.969 84.5692C207.372 83.8719 207.605 83.0893 207.648 82.2852V77.3072C207.679 77.052 207.641 76.7932 207.54 76.5569C207.439 76.3207 207.276 76.1155 207.07 75.962C206.924 75.8627 206.753 75.8049 206.576 75.7948V75.8328Z" fill="#FFAD4F"/>
<path opacity="0.24" d="M207.664 79.6022L146.111 115.154L146.396 115.648L207.949 80.0958L207.664 79.6022Z" fill="#FFAD4F"/>
<path opacity="0.24" d="M147.615 205.2C147.348 205.2 147.086 205.129 146.855 204.995C146.56 204.793 146.325 204.516 146.174 204.193C146.023 203.869 145.961 203.511 145.996 203.156V128.888C146.046 127.985 146.307 127.106 146.758 126.322C147.21 125.537 147.839 124.87 148.596 124.374L205.352 91.5952C205.632 91.3639 205.975 91.2235 206.337 91.193C206.698 91.1624 207.06 91.2431 207.374 91.4242C207.689 91.6053 207.94 91.8782 208.095 92.2063C208.25 92.5344 208.3 92.9019 208.24 93.2596V167.527C208.192 168.429 207.931 169.308 207.479 170.091C207.028 170.874 206.398 171.539 205.641 172.034L148.862 204.82C148.485 205.051 148.056 205.182 147.615 205.2ZM206.576 91.7928C206.236 91.8067 205.906 91.9088 205.618 92.0892L148.862 124.868C148.186 125.308 147.623 125.902 147.22 126.6C146.818 127.299 146.586 128.083 146.544 128.888V203.148C146.517 203.404 146.557 203.662 146.658 203.899C146.759 204.136 146.918 204.343 147.121 204.501C147.357 204.601 147.616 204.638 147.87 204.607C148.125 204.577 148.367 204.48 148.573 204.326L205.33 171.54C206.005 171.1 206.566 170.508 206.969 169.811C207.372 169.114 207.604 168.331 207.648 167.527V93.2596C207.678 93.0044 207.641 92.7456 207.54 92.5094C207.438 92.2731 207.276 92.0679 207.07 91.9144C206.92 91.8285 206.749 91.7839 206.576 91.7852V91.7928Z" fill="#FFAD4F"/>
<path opacity="0.24" d="M207.789 95.5212L146.111 131.146L146.396 131.639L208.074 96.0148L207.789 95.5212Z" fill="#FFAD4F"/>
<path opacity="0.24" d="M207.794 100.849L146.116 136.473L146.401 136.967L208.079 101.343L207.794 100.849Z" fill="#FFAD4F"/>
<path opacity="0.24" d="M207.791 106.177L146.112 141.801L146.398 142.295L208.076 106.67L207.791 106.177Z" fill="#FFAD4F"/>
<path opacity="0.24" d="M207.792 111.511L146.113 147.135L146.398 147.629L208.077 112.005L207.792 111.511Z" fill="#FFAD4F"/>
<path opacity="0.24" d="M207.789 116.839L146.11 152.463L146.395 152.957L208.074 117.332L207.789 116.839Z" fill="#FFAD4F"/>
<path opacity="0.24" d="M207.793 122.167L146.115 157.791L146.4 158.285L208.078 122.66L207.793 122.167Z" fill="#FFAD4F"/>
<path opacity="0.24" d="M207.79 127.494L146.112 163.119L146.397 163.612L208.076 127.988L207.79 127.494Z" fill="#FFAD4F"/>
<path opacity="0.24" d="M207.791 132.829L146.112 168.453L146.398 168.947L208.076 133.322L207.791 132.829Z" fill="#FFAD4F"/>
<path opacity="0.24" d="M207.788 138.157L146.11 173.781L146.395 174.274L208.073 138.65L207.788 138.157Z" fill="#FFAD4F"/>
<path opacity="0.24" d="M207.785 143.484L146.107 179.109L146.392 179.602L208.07 143.978L207.785 143.484Z" fill="#FFAD4F"/>
<path opacity="0.24" d="M207.793 148.819L146.115 184.443L146.4 184.937L208.078 149.312L207.793 148.819Z" fill="#FFAD4F"/>
<path opacity="0.24" d="M207.79 154.146L146.112 189.771L146.397 190.264L208.075 154.64L207.79 154.146Z" fill="#FFAD4F"/>
<path opacity="0.24" d="M207.787 159.474L146.109 195.099L146.394 195.592L208.072 159.968L207.787 159.474Z" fill="#FFAD4F"/>
<path opacity="0.24" d="M207.784 164.802L146.106 200.426L146.391 200.92L208.069 165.296L207.784 164.802Z" fill="#FFAD4F"/>
</g>
<path d="M168.72 131.974C168.135 132.734 167.565 133.73 166.668 134.193C166.44 134.307 166.159 134.406 165.954 134.193C165.67 133.753 165.534 133.234 165.566 132.711C165.566 132.468 165.156 132.278 164.996 132.506C164.236 133.616 163.742 134.885 162.876 135.926C162.526 136.352 161.987 136.937 161.356 136.891C161.163 136.866 160.984 136.778 160.847 136.64C160.709 136.503 160.621 136.324 160.596 136.131L160.885 135.744C161.577 134.934 162.095 133.989 162.405 132.97C162.524 132.506 162.461 132.013 162.23 131.594C162.181 131.528 162.12 131.472 162.049 131.431C161.978 131.39 161.9 131.364 161.818 131.355C161.737 131.345 161.654 131.353 161.576 131.377C161.498 131.401 161.425 131.442 161.363 131.495C160.699 132.169 160.272 133.042 160.147 133.98C159.987 134.598 159.941 135.239 160.011 135.873C159.881 136.055 159.752 136.238 159.615 136.412C159.162 137.009 158.653 137.561 158.095 138.062C157.936 138.191 157.662 138.464 157.434 138.464C157.434 138.464 157.351 138.214 157.335 138.122C157.335 137.902 156.902 137.697 156.743 137.91C156.465 138.313 156.228 138.743 156.036 139.194C156 138.954 155.9 138.728 155.747 138.54C155.299 138.054 154.546 138.297 154.105 138.662C153.883 138.862 153.686 139.09 153.52 139.338C153.655 138.616 153.637 137.873 153.467 137.157C153.428 136.992 153.355 136.837 153.251 136.703C153.148 136.569 153.017 136.458 152.867 136.378C152.718 136.298 152.553 136.251 152.384 136.24C152.214 136.229 152.045 136.254 151.886 136.314C151.126 136.64 150.678 137.621 150.366 138.358C150.168 138.85 150.013 139.359 149.903 139.878C149.81 140.191 149.772 140.517 149.789 140.843L149.545 140.912C149.439 140.912 149.454 141.14 149.545 141.155C149.715 141.208 149.894 141.223 150.07 141.2C150.091 141.2 150.112 141.194 150.131 141.185C150.15 141.175 150.167 141.162 150.181 141.145C150.195 141.129 150.205 141.11 150.21 141.089C150.216 141.068 150.217 141.047 150.214 141.026C150.287 140.347 150.462 139.684 150.731 139.057C150.952 138.266 151.383 137.549 151.977 136.982C152.57 136.542 152.836 137.058 152.897 137.621C152.939 138.509 152.862 139.398 152.669 140.266C152.509 140.986 152.41 141.718 152.373 142.454C152.369 142.495 152.369 142.536 152.373 142.576V142.644C152.373 142.948 153.049 143.062 153.034 142.713C153.072 141.566 153.48 140.462 154.197 139.566C154.341 139.376 154.957 138.654 155.245 138.905C155.382 139.019 155.367 139.437 155.382 139.597C155.382 139.908 155.382 140.22 155.428 140.532C155.444 140.598 155.478 140.658 155.526 140.706C155.575 140.754 155.636 140.787 155.702 140.802C155.768 140.817 155.838 140.814 155.902 140.791C155.967 140.769 156.023 140.729 156.066 140.676C156.416 140.076 156.636 139.414 156.971 138.814C157.081 138.941 157.23 139.028 157.395 139.061C157.56 139.094 157.732 139.071 157.883 138.996C158.527 138.668 159.083 138.188 159.501 137.598C159.76 137.302 160.003 136.99 160.261 136.671C160.259 136.694 160.259 136.717 160.261 136.739C160.453 137.053 160.752 137.287 161.103 137.397C161.453 137.508 161.832 137.487 162.169 137.34C163.02 136.858 163.709 136.136 164.153 135.265C164.495 134.718 164.791 134.132 165.118 133.57C165.315 134.33 165.764 135.09 166.699 134.854C167.258 134.619 167.761 134.267 168.175 133.823C168.589 133.379 168.904 132.853 169.1 132.278C169.138 132.05 168.842 131.784 168.72 131.974ZM161.553 132.149C161.61 132.094 161.664 132.036 161.713 131.974C161.762 132.204 161.78 132.439 161.766 132.673C161.544 133.57 161.12 134.404 160.527 135.113C160.577 134.4 160.741 133.699 161.014 133.038C161.141 132.718 161.315 132.418 161.531 132.149H161.553Z" fill="#455A64"/>
<path d="M193.534 117.838C193.162 118.081 192.774 118.294 192.379 118.499C192.174 118.621 191.946 118.699 191.709 118.729C191.473 118.759 191.232 118.74 191.003 118.674C190.707 118.569 190.388 118.538 190.077 118.584C189.766 118.631 189.47 118.753 189.217 118.94C188.404 119.586 188.199 120.741 187.454 121.425C187.173 120.931 187.211 120.285 186.808 119.837C186.779 119.804 186.743 119.778 186.703 119.76C186.663 119.743 186.62 119.733 186.576 119.733C186.533 119.733 186.489 119.743 186.449 119.76C186.409 119.778 186.374 119.804 186.344 119.837C185.732 120.782 185.005 121.648 184.178 122.413C183.882 122.656 183.418 122.945 183.038 122.801L183.266 122.459C183.798 121.699 184.49 120.779 184.452 119.791C184.452 119.176 184.125 118.271 183.327 118.507C183.007 118.662 182.732 118.895 182.526 119.184C182.32 119.474 182.19 119.811 182.149 120.164C181.883 121.046 181.939 121.994 182.309 122.839C182.172 123.044 182.035 123.257 181.891 123.462C181.51 124.072 181.027 124.612 180.462 125.058C180.226 125.256 179.926 125.361 179.618 125.354C179.223 125.309 178.965 124.944 178.775 124.594C178.684 124.458 178.44 124.298 178.304 124.473C177.832 125.138 177.489 125.885 177.293 126.677C177.174 126.456 177.017 126.258 176.829 126.092C176.781 126.043 176.715 126.016 176.647 126.016C176.578 126.016 176.513 126.043 176.464 126.092C175.823 126.724 175.352 127.508 175.096 128.372C174.975 127.482 174.716 126.616 173.865 126.426C173.48 126.377 173.09 126.434 172.735 126.591C172.38 126.748 172.075 126.998 171.851 127.315C171.228 128.075 171.015 129.23 170.225 129.876C170.156 129.937 170.225 130.142 170.316 130.089C171.745 129.39 171.692 127.125 173.485 126.867C174.876 126.662 174.61 129.147 174.777 130.006C174.823 130.241 175.256 130.408 175.294 130.089C175.405 128.816 175.906 127.608 176.73 126.631C176.895 126.897 177.03 127.18 177.133 127.475C177.202 127.634 177.559 127.779 177.627 127.536C177.826 126.682 178.148 125.863 178.585 125.104C178.744 125.353 178.973 125.551 179.243 125.673C179.513 125.794 179.812 125.834 180.105 125.788C180.823 125.564 181.443 125.099 181.86 124.473C182.186 124.065 182.488 123.638 182.765 123.196C182.999 123.317 183.264 123.362 183.525 123.325C184.317 123.136 185.012 122.663 185.478 121.995C185.888 121.512 186.269 121.004 186.618 120.475C186.671 120.658 186.702 120.855 186.755 121.022C186.837 121.359 187.011 121.667 187.256 121.912C187.305 121.97 187.373 122.01 187.448 122.024C187.523 122.038 187.6 122.025 187.667 121.988C188.609 121.349 188.761 120.065 189.612 119.35C189.842 119.14 190.137 119.016 190.448 119.001C190.836 119.001 191.208 119.198 191.604 119.214C192.428 119.135 193.188 118.733 193.716 118.096C193.8 118.066 193.671 117.754 193.534 117.838ZM182.529 121.235C182.552 120.637 182.705 120.051 182.978 119.518C183.092 119.312 183.327 119.001 183.586 118.97C183.844 118.94 183.76 118.97 183.821 119.115C183.889 119.323 183.92 119.542 183.912 119.761C183.789 120.549 183.449 121.288 182.932 121.896L182.628 122.352C182.517 121.991 182.484 121.61 182.529 121.235Z" fill="#455A64"/>
<path d="M176.001 143.572C175.165 144.248 174.732 145.221 174.025 145.996C173.853 145.785 173.7 145.558 173.569 145.32C173.549 145.275 173.519 145.236 173.481 145.205C173.444 145.175 173.399 145.154 173.351 145.144C173.304 145.135 173.254 145.137 173.208 145.15C173.161 145.163 173.118 145.187 173.083 145.221C172.938 145.38 172.794 145.517 172.672 145.677C172.591 145.515 172.54 145.34 172.52 145.16C172.513 145.099 172.49 145.041 172.452 144.993C172.415 144.944 172.365 144.907 172.308 144.885C172.25 144.863 172.188 144.857 172.128 144.868C172.067 144.879 172.011 144.906 171.965 144.947C170.803 146.292 170.134 148.58 168.454 149.264C168.619 148.778 168.679 148.262 168.629 147.751C168.579 147.24 168.421 146.745 168.165 146.3C168.082 146.163 167.846 146.011 167.709 146.178C166.683 147.394 166.425 149.165 165.156 150.176C165.019 149.947 164.956 149.682 164.973 149.416C164.973 149.165 164.54 148.945 164.419 149.241C164.297 149.538 164.175 150.047 164.054 150.45C163.963 150.904 163.782 151.335 163.522 151.719C163.081 152.228 162.914 151.248 162.899 150.959C162.899 150.381 162.967 149.811 162.937 149.241C162.937 148.99 162.496 148.77 162.382 149.066C161.809 150.484 161.144 151.863 160.391 153.193C160.292 153.383 159.828 154.432 159.517 154.394C159.205 154.356 158.916 153.474 158.817 153.292C158.719 153.11 158.475 153.041 158.346 153.163C157.97 153.551 157.675 154.011 157.48 154.516C157.435 154.3 157.364 154.09 157.267 153.892C157.246 153.843 157.214 153.799 157.174 153.763C157.134 153.728 157.087 153.701 157.036 153.685C156.984 153.669 156.93 153.664 156.877 153.671C156.824 153.678 156.773 153.697 156.727 153.725C155.519 154.9 154.408 156.171 153.406 157.525C152.864 158.209 152.236 158.82 151.537 159.342C151.392 159.44 150.982 159.744 150.777 159.668C150.571 159.592 150.632 159.41 150.617 159.273C150.644 158.224 150.931 157.197 151.453 156.286C151.691 155.763 151.963 155.255 152.266 154.766C152.524 154.283 152.894 153.869 153.345 153.558C153.551 153.444 153.832 153.353 153.938 153.642C153.988 153.956 153.956 154.278 153.847 154.576C153.718 155.07 153.52 155.557 153.361 156.043L152.996 155.998C152.859 155.998 152.882 156.218 152.996 156.256C153.146 156.288 153.293 156.332 153.437 156.385C153.497 156.385 153.551 156.385 153.589 156.385C154.029 155.671 155.109 153.664 154.007 153.056C152.905 152.448 151.825 154.265 151.4 155.017C150.686 156.158 150.216 157.433 150.017 158.764C149.971 159.258 150.017 159.896 150.503 160.162C151.141 160.512 151.894 159.934 152.365 159.547C154.121 158.11 155.223 156.066 156.857 154.516C156.936 155.134 156.936 155.759 156.857 156.378V156.446C156.857 156.735 157.381 156.887 157.465 156.575C157.643 155.634 157.996 154.734 158.506 153.923C158.659 154.306 158.924 154.634 159.266 154.865C159.722 155.101 160.087 154.797 160.353 154.432C160.866 153.656 161.316 152.84 161.698 151.992C161.911 151.574 162.116 151.164 162.306 150.738C162.304 150.957 162.322 151.176 162.359 151.392C162.465 151.916 162.914 152.57 163.529 152.433C164.145 152.296 164.289 151.673 164.434 151.24C164.533 150.951 164.609 150.655 164.685 150.358C164.787 150.525 164.931 150.661 165.103 150.754C165.141 150.778 165.186 150.791 165.232 150.791C165.277 150.791 165.322 150.778 165.361 150.754C166.699 149.819 167.01 148.185 167.877 146.9C168.203 147.835 168.287 149.401 167.2 149.484C166.851 149.484 167.018 149.986 167.291 150.009C167.317 150.005 167.342 150.005 167.367 150.009C169.944 150.108 170.78 147.607 172.049 145.806C172.148 146.014 172.285 146.202 172.452 146.361C172.573 146.475 172.847 146.566 172.923 146.361C172.987 146.191 173.088 146.038 173.219 145.912C173.384 146.161 173.567 146.397 173.767 146.619C173.843 146.703 174.055 146.802 174.162 146.695C174.983 145.897 175.401 144.795 176.191 143.974C176.411 143.777 176.153 143.442 176.001 143.572Z" fill="#455A64"/>
<path d="M193.8 133.304C193.313 133.771 192.939 134.343 192.706 134.976C192.445 135.65 191.99 136.232 191.399 136.648C190.737 136.998 190.357 136.534 190.35 135.934C190.722 135.31 191.11 134.672 191.497 134.087C191.657 133.859 191.307 133.593 191.095 133.661C190.711 133.845 190.384 134.131 190.151 134.488C189.918 134.844 189.787 135.257 189.772 135.683C189.355 136.473 188.811 137.189 188.161 137.803C187.994 137.955 187.697 138.214 187.439 138.16C187.181 138.107 187.097 137.644 187.059 137.4C186.937 136.496 186.17 136.64 185.539 137.074C184.642 137.712 184.437 138.905 183.867 139.81C183.677 139.506 183.563 139.156 183.365 138.86C183.321 138.791 183.255 138.74 183.177 138.714C183.1 138.688 183.017 138.688 182.94 138.715C181.792 139.316 181.785 140.577 181.42 141.649C181.42 141.284 181.42 140.889 181.42 140.577C181.445 140.242 181.398 139.905 181.283 139.589C181.168 139.273 180.986 138.986 180.751 138.746C179.527 137.856 178.38 140.015 177.985 140.866C177.795 141.276 177.392 142.044 177.802 142.447C177.977 142.606 178.083 142.318 177.969 142.181C177.855 142.044 178.182 141.558 178.228 141.421C178.406 141.064 178.606 140.719 178.828 140.387C179.04 140.061 179.279 139.754 179.543 139.468C179.707 139.25 179.931 139.086 180.189 138.996C180.857 138.913 180.85 140.167 180.857 140.562C180.801 141.258 180.837 141.958 180.964 142.644C180.982 142.698 181.013 142.746 181.054 142.784C181.095 142.822 181.145 142.849 181.2 142.863C181.254 142.877 181.312 142.876 181.366 142.862C181.42 142.848 181.47 142.82 181.511 142.781C182.271 141.824 182.081 140.136 183.031 139.361C183.187 139.753 183.42 140.109 183.715 140.41C183.745 140.443 183.781 140.469 183.822 140.487C183.862 140.505 183.906 140.514 183.951 140.514C183.995 140.514 184.039 140.505 184.079 140.487C184.12 140.469 184.156 140.443 184.186 140.41C184.87 139.566 185.007 138.328 185.828 137.59C185.924 137.507 186.028 137.433 186.139 137.37C186.2 137.37 186.322 137.302 186.405 137.256C186.489 137.21 186.405 137.37 186.405 137.378C186.423 137.723 186.551 138.053 186.77 138.32C187.887 139.498 189.21 137.606 189.856 136.61C189.951 136.823 190.108 137.003 190.305 137.127C190.502 137.251 190.732 137.315 190.965 137.309C191.885 137.347 192.485 136.549 192.926 135.835C193.263 135.082 193.673 134.364 194.15 133.692C194.378 133.502 193.975 133.16 193.8 133.304Z" fill="#455A64"/>
<path d="M157.191 168.401C156.911 168.224 156.594 168.114 156.265 168.078C155.936 168.043 155.602 168.083 155.291 168.196C154.647 168.387 154.029 168.657 153.452 169.001C153.011 169.244 152.053 169.7 152.137 170.301C152.137 170.377 152.251 170.529 152.342 170.445C153.116 169.795 153.995 169.281 154.941 168.925C155.412 168.692 155.939 168.595 156.461 168.644C157.054 168.773 157.176 169.457 157.145 169.966C157.006 170.893 156.568 171.75 155.899 172.406C155.203 173.203 154.376 173.874 153.452 174.39C153.452 174.253 153.49 174.116 153.513 173.979C153.589 173.538 153.657 173.105 153.733 172.664C153.809 172.224 153.877 171.798 153.953 171.372C154.058 170.893 154.114 170.404 154.121 169.913C154.121 169.792 153.923 169.586 153.832 169.761C153.677 170.16 153.572 170.576 153.52 171C153.414 171.456 153.315 171.92 153.231 172.383C153.148 172.847 153.064 173.272 152.981 173.713L152.867 174.374C152.867 174.488 152.821 174.595 152.806 174.709C152.351 174.942 151.841 175.047 151.331 175.012C150.82 174.978 150.329 174.804 149.91 174.511C149.69 174.344 149.705 174.64 149.773 174.77C149.945 175.017 150.171 175.221 150.435 175.366C150.699 175.511 150.993 175.593 151.293 175.606C151.855 175.638 152.418 175.55 152.943 175.347C154.185 174.88 155.301 174.131 156.203 173.158C157.069 172.378 157.658 171.338 157.883 170.194C157.922 169.862 157.879 169.524 157.759 169.212C157.638 168.899 157.444 168.621 157.191 168.401Z" fill="#455A64"/>
<path d="M176.138 160.178C175.925 160.938 174.382 163.719 173.379 162.458C173.244 162.285 173.148 162.085 173.098 161.872C173.605 161.052 174.013 160.175 174.314 159.258C174.458 158.779 174.618 158.072 174.124 157.738C173.63 157.404 173.022 157.738 172.786 158.262C172.497 158.987 172.362 159.763 172.391 160.542C172.375 160.942 172.406 161.343 172.482 161.736C172.383 161.903 172.292 162.07 172.186 162.23C171.9 162.715 171.588 163.184 171.251 163.636C171.122 163.803 170.772 164.32 170.491 164.297C170.21 164.274 170.172 163.461 170.103 163.256C170.035 163.05 169.792 162.876 169.632 163.058C168.971 163.818 168.986 164.981 168.416 165.802C168.142 166.197 167.656 166.303 167.466 165.802C167.323 165.307 167.238 164.796 167.215 164.282C167.177 164.099 166.774 163.879 166.706 164.145C166.569 164.646 166.432 165.156 166.28 165.665C166.143 166.258 165.923 166.828 165.627 167.36C165.536 167.504 165.406 167.679 165.201 167.648C164.996 167.618 164.89 167.337 164.829 167.162C164.661 166.661 164.601 166.13 164.654 165.604C164.654 165.315 164.183 165.042 164.076 165.391C163.86 166.099 163.586 166.788 163.256 167.451C162.952 168.074 162.496 169.062 161.804 169.343C161.736 169.369 161.664 169.382 161.591 169.381C161.698 169.13 161.789 168.88 161.872 168.621C162.169 167.717 162.511 166.258 161.644 165.536C161.592 165.479 161.522 165.442 161.446 165.431C161.37 165.42 161.293 165.435 161.226 165.475C160.734 165.953 160.439 166.598 160.398 167.284C160.398 167.428 160.398 167.58 160.36 167.74C159.813 167.063 159.03 167.93 158.696 168.5C158.255 169.26 157.723 170.559 158.11 171.441C158.498 172.322 159.532 172.072 160.109 171.57C160.634 171.081 161.06 170.495 161.363 169.845C161.52 169.897 161.686 169.914 161.85 169.896C162.014 169.878 162.172 169.824 162.313 169.738C162.944 169.27 163.433 168.636 163.727 167.907C163.894 167.58 164.038 167.246 164.183 166.904C164.218 167.04 164.261 167.175 164.312 167.306C164.353 167.451 164.422 167.586 164.517 167.704C164.611 167.821 164.728 167.918 164.861 167.989C164.993 168.06 165.139 168.104 165.289 168.117C165.439 168.13 165.59 168.113 165.733 168.066C166.258 167.838 166.493 167.01 166.638 166.546C166.752 166.22 166.843 165.885 166.926 165.558C166.971 165.725 167.034 165.886 167.116 166.037C167.23 166.269 167.428 166.448 167.67 166.539C167.911 166.629 168.178 166.624 168.416 166.524C168.918 166.28 169.176 165.604 169.328 165.125C169.48 164.646 169.586 164.266 169.776 163.864C169.951 164.434 170.24 165.004 170.894 164.692C171.547 164.38 172.041 163.484 172.414 162.86C172.512 162.716 172.604 162.564 172.695 162.412C172.695 162.412 172.695 162.412 172.695 162.458C173.994 164.662 176.305 161.948 176.578 160.428C176.708 160.17 176.229 159.866 176.138 160.178ZM161.485 166.128C161.667 166.692 161.667 167.298 161.485 167.861C161.395 168.226 161.278 168.585 161.135 168.933C161.03 168.622 160.981 168.295 160.991 167.968C160.967 167.319 161.139 166.678 161.485 166.128ZM158.772 171.448C158.278 171.167 158.726 169.928 158.87 169.541C159.015 169.153 159.775 167.261 160.39 168.082C160.388 168.534 160.523 168.977 160.778 169.351L160.869 169.457C160.711 169.782 160.528 170.095 160.322 170.392C160.064 170.78 159.326 171.76 158.772 171.479V171.448ZM173.136 159.091C173.174 158.924 173.485 157.806 173.85 158.065C174.025 158.194 173.782 158.908 173.721 159.076C173.517 159.669 173.263 160.243 172.961 160.793C172.953 160.231 173.011 159.67 173.136 159.121V159.091Z" fill="#455A64"/>
<path d="M195.373 149.294C194.613 149.69 192.827 149.34 193.093 148.223C193.131 148.071 192.858 147.744 192.751 147.957C192.402 148.656 192.067 149.37 191.672 150.047C191.408 150.557 191.084 151.034 190.707 151.468C190.437 151.775 190.116 152.032 189.757 152.228C189.673 152.274 189.468 152.388 189.377 152.35C189.286 152.312 189.377 151.924 189.377 151.802C189.377 151.681 189.134 151.354 188.974 151.514C188.138 152.38 187.758 153.604 186.838 154.394C186.738 154.324 186.655 154.231 186.599 154.123C186.542 154.014 186.512 153.893 186.512 153.771C186.512 153.566 186.177 153.307 186.01 153.52C185.25 154.523 185.189 155.975 184.308 156.917C183.684 157.586 183.586 156.53 183.601 156.074C183.616 155.618 183.684 155.215 183.738 154.789V154.622C183.738 154.447 183.738 154.28 183.738 154.113C183.738 153.946 183.312 153.702 183.304 154.014C183.294 154.269 183.268 154.522 183.228 154.774C183.12 155.303 182.939 155.815 182.689 156.294C182.364 157.025 181.836 157.647 181.169 158.088C181.032 158.164 181.169 158.468 181.275 158.407C182.09 158.016 182.753 157.367 183.16 156.56C183.228 157.145 183.616 157.852 184.308 157.632C184.999 157.411 185.303 156.537 185.554 155.975C185.805 155.412 185.942 154.873 186.208 154.364C186.361 154.624 186.588 154.833 186.861 154.964C186.901 154.985 186.945 154.995 186.99 154.995C187.035 154.995 187.08 154.985 187.12 154.964C187.88 154.228 188.512 153.37 188.989 152.426C189.015 152.52 189.065 152.605 189.134 152.673C189.204 152.741 189.29 152.79 189.384 152.813C189.787 152.927 190.243 152.593 190.54 152.357C190.965 152.026 191.327 151.622 191.611 151.164C192.109 150.448 192.535 149.685 192.88 148.884C192.995 149.125 193.158 149.341 193.36 149.516C193.561 149.69 193.797 149.821 194.053 149.9C194.308 149.979 194.577 150.003 194.842 149.972C195.107 149.941 195.363 149.855 195.594 149.72C195.738 149.538 195.548 149.196 195.373 149.294Z" fill="#455A64"/>
<path d="M177.582 174.131C177.582 173.926 177.224 173.744 177.11 173.964C176.831 174.553 176.608 175.166 176.442 175.796C176.3 176.518 175.981 177.195 175.514 177.764C174.929 178.304 174.754 177.43 174.754 176.966C175.02 176.344 175.152 175.674 175.142 174.998C175.142 174.777 174.77 174.519 174.633 174.792C174.347 175.43 174.207 176.123 174.222 176.822C174.005 177.345 173.751 177.853 173.462 178.342C172.702 177.825 172.193 178.813 171.745 179.451C171.643 179.083 171.62 178.697 171.676 178.319C171.676 178.114 171.35 177.848 171.19 178.06C170.934 178.474 170.737 178.922 170.605 179.39C170.468 179.755 170.255 180.576 169.845 180.728C169.085 180.994 169.374 178.136 169.351 177.734C169.351 177.544 169.016 177.247 168.857 177.483C167.899 178.934 167.854 180.812 166.79 182.21C166.721 182.309 166.584 182.4 166.531 182.499C166.537 182.524 166.537 182.55 166.531 182.575C166.535 182.55 166.535 182.524 166.531 182.499C166.448 182.636 166.493 182.423 166.531 182.499C166.479 182.322 166.438 182.141 166.41 181.959C166.375 181.42 166.375 180.879 166.41 180.34C166.41 180.112 166.007 179.884 165.87 180.112C165.362 181.143 164.91 182.201 164.517 183.282C164.092 184.239 163.385 185.607 162.176 185.653C161.713 185.653 161.591 185.311 161.622 184.893C161.927 184.696 162.215 184.472 162.48 184.224C163.224 183.594 163.754 182.75 164 181.807C164.092 181.344 164 180.599 163.385 180.584C162.769 180.568 162.237 181.572 161.986 182.104C161.704 182.655 161.475 183.233 161.302 183.829C161.214 184.117 161.151 184.412 161.112 184.71C160.652 184.998 160.132 185.175 159.592 185.227C159.425 185.227 159.494 185.554 159.646 185.554C160.171 185.548 160.69 185.429 161.166 185.204C161.185 185.341 161.223 185.474 161.28 185.6C161.414 185.846 161.631 186.037 161.892 186.141C162.152 186.245 162.441 186.255 162.708 186.17C163.357 186.01 163.923 185.614 164.297 185.06C164.971 183.985 165.509 182.832 165.9 181.625C165.946 182.468 166.159 183.32 166.858 183.069C167.156 182.907 167.398 182.658 167.55 182.354C167.82 181.924 168.041 181.465 168.211 180.986C168.469 180.295 168.659 179.565 168.933 178.874C168.914 179.142 168.914 179.411 168.933 179.679C168.986 180.264 169.13 181.123 169.83 181.252C170.529 181.382 170.772 180.705 170.977 180.257C171.114 179.96 171.205 179.626 171.319 179.299C171.386 179.604 171.562 179.874 171.813 180.059C171.853 180.091 171.903 180.108 171.954 180.108C172.005 180.108 172.054 180.091 172.094 180.059C172.307 179.793 172.467 179.497 172.664 179.216C172.862 178.934 173.158 178.539 173.516 178.919C173.537 178.949 173.566 178.973 173.599 178.99C173.632 179.007 173.669 179.015 173.706 179.015C173.743 179.015 173.779 179.007 173.812 178.99C173.845 178.973 173.874 178.949 173.896 178.919C174.101 178.577 174.306 178.205 174.504 177.825C174.569 178.051 174.717 178.245 174.918 178.369C175.119 178.492 175.358 178.537 175.59 178.494C176.35 178.349 176.723 177.293 176.951 176.647C177.072 176.312 177.164 175.97 177.262 175.628C177.274 176.847 177.131 178.063 176.837 179.246H176.768C175.75 179.77 174.412 179.869 174.01 181.123C173.652 182.218 174.716 182.826 175.644 182.354C176.375 181.897 176.903 181.176 177.118 180.34C177.435 179.335 177.621 178.293 177.673 177.24C177.713 176.203 177.682 175.164 177.582 174.131ZM161.948 183.418C162.099 183.002 162.277 182.596 162.48 182.202C162.647 181.802 162.907 181.447 163.24 181.169C163.453 181.04 163.438 181.093 163.446 181.359C163.334 182.266 162.9 183.102 162.222 183.715C162.053 183.9 161.87 184.073 161.675 184.232C161.766 183.92 161.88 183.586 161.948 183.418ZM175.742 181.382C175.522 181.632 174.747 182.278 174.458 181.868C174.283 181.617 174.504 181.169 174.633 180.956C174.823 180.683 175.086 180.469 175.393 180.34C175.773 180.166 176.153 180.044 176.533 179.862C176.495 179.96 176.472 180.059 176.434 180.158C176.275 180.602 176.041 181.016 175.742 181.382Z" fill="#455A64"/>
<path d="M184.68 169.784C184.503 169.456 184.225 169.193 183.887 169.036C183.548 168.878 183.168 168.834 182.803 168.91C182.369 168.988 181.955 169.153 181.587 169.396C181.367 169.544 181.174 169.729 181.017 169.944C180.972 169.845 180.918 169.761 180.865 169.67C180.691 169.406 180.476 169.173 180.227 168.978C180.03 168.786 179.785 168.65 179.517 168.586C179.25 168.521 178.969 168.531 178.707 168.614C178.46 168.754 178.271 168.979 178.175 169.246C178.079 169.514 178.082 169.807 178.182 170.073C178.415 170.697 178.751 171.278 179.178 171.79C179.625 172.306 180.036 172.852 180.409 173.424C180.427 173.456 180.451 173.483 180.48 173.504C180.509 173.525 180.542 173.54 180.577 173.548C180.612 173.556 180.648 173.557 180.683 173.55C180.719 173.543 180.752 173.529 180.782 173.508C181.29 173.147 181.835 172.841 182.408 172.596C183.087 172.283 183.719 171.876 184.285 171.388C184.517 171.2 184.681 170.942 184.752 170.652C184.823 170.363 184.798 170.058 184.68 169.784ZM182.074 172.064C181.58 172.284 181.103 172.538 180.645 172.824C179.955 171.995 179.327 171.116 178.768 170.194C178.6 169.822 178.517 169.358 178.973 169.146C179.429 168.933 179.9 169.328 180.181 169.594C180.421 169.806 180.615 170.065 180.751 170.354C180.751 170.392 180.751 170.453 180.797 170.498C180.791 170.549 180.799 170.6 180.819 170.646C180.839 170.693 180.871 170.733 180.911 170.764C180.945 170.775 180.983 170.775 181.017 170.764C181.017 170.764 181.184 170.688 181.154 170.673C181.124 170.658 181.412 170.324 181.443 170.286C181.543 170.165 181.655 170.056 181.777 169.959C182.043 169.755 182.344 169.602 182.666 169.51C182.936 169.397 183.235 169.377 183.517 169.452C183.799 169.528 184.048 169.696 184.224 169.928C184.43 170.324 184.057 170.726 183.738 170.992C183.232 171.412 182.682 171.774 182.096 172.072L182.074 172.064Z" fill="#455A64"/>
<path d="M159.6 186.398C159.38 186.557 159.228 186.633 159.015 186.443C158.772 186.193 158.587 185.892 158.475 185.562C158.221 185.031 158.079 184.454 158.057 183.867C158.057 183.555 157.48 183.403 157.472 183.776C157.485 184.66 157.429 185.544 157.305 186.42C157.241 186.87 157.126 187.311 156.963 187.735C156.872 187.963 156.735 188.366 156.499 188.495C156.264 188.624 156.021 188.001 155.937 187.788C155.728 187.289 155.615 186.756 155.603 186.215C155.603 186.215 155.603 186.17 155.603 186.139C155.603 185.843 154.949 185.714 154.957 186.056V186.132C154.956 186.862 154.82 187.586 154.554 188.267C154.409 188.702 154.199 189.112 153.931 189.483C153.991 188.488 154.06 187.34 153.133 186.808C151.696 185.987 150.579 187.933 150.495 189.134C150.495 189.278 150.761 189.552 150.83 189.324C150.988 188.731 151.268 188.177 151.651 187.697C151.977 187.302 152.623 186.854 153.064 187.355C153.323 187.772 153.425 188.268 153.353 188.754C153.353 189.225 153.269 189.688 153.269 190.16C153.27 190.219 153.285 190.277 153.313 190.33C153.342 190.382 153.382 190.426 153.432 190.459C153.481 190.492 153.538 190.513 153.597 190.519C153.656 190.525 153.716 190.516 153.771 190.494C154.446 190.038 154.937 189.356 155.154 188.571C155.231 188.372 155.297 188.169 155.352 187.963C155.373 188.007 155.391 188.053 155.405 188.1C155.618 188.556 155.998 189.141 156.575 189.111C157.335 189.065 157.617 188.009 157.776 187.431C157.911 186.934 157.992 186.425 158.019 185.911L158.179 186.238C158.559 186.922 159.372 187.583 160.049 186.846C160.254 186.58 159.813 186.246 159.6 186.398Z" fill="#455A64"/>
<path d="M206.188 103.535C205.937 103.314 205.481 103.079 205.155 103.307C204.465 103.932 203.9 104.683 203.49 105.518C202.928 106.408 200.549 111.864 199.508 114.152C199.394 114.395 199.249 114.73 198.991 114.661C198.901 114.636 198.821 114.582 198.763 114.509L196.612 112.419C196.057 113.012 195.449 113.772 195.693 114.54C195.836 114.896 196.076 115.207 196.384 115.436C196.823 115.832 197.296 116.188 197.798 116.5C198.209 116.801 198.677 117.013 199.173 117.124C199.379 117.15 199.588 117.129 199.785 117.062C199.981 116.995 200.159 116.883 200.306 116.736C201.225 115.71 205.557 108.216 206.013 107.388C206.532 106.697 206.85 105.877 206.933 105.017C206.857 104.453 206.595 103.932 206.188 103.535Z" fill="#FFAD4F"/>
<path d="M206.188 134.908C205.937 134.687 205.481 134.452 205.155 134.687C204.462 135.309 203.896 136.061 203.49 136.899C202.928 137.78 200.549 143.237 199.508 145.532C199.394 145.776 199.249 146.102 198.991 146.042C198.902 146.01 198.823 145.955 198.763 145.882L196.612 143.8C196.057 144.385 195.449 145.145 195.693 145.92C195.836 146.277 196.076 146.587 196.384 146.817C196.824 147.21 197.297 147.563 197.798 147.873C198.208 148.176 198.676 148.39 199.173 148.504C199.38 148.531 199.59 148.51 199.787 148.441C199.983 148.373 200.161 148.259 200.306 148.109C201.225 147.09 205.557 139.597 206.013 138.768C206.529 138.076 206.847 137.256 206.933 136.397C206.859 135.831 206.596 135.307 206.188 134.908Z" fill="#FFAD4F"/>
<path d="M193.223 138.723C192.918 138.536 192.559 138.459 192.204 138.502C192.082 138.526 191.969 138.585 191.878 138.671C191.788 138.757 191.724 138.868 191.695 138.989C190.388 139.468 189.088 139.969 187.766 140.425C186.147 140.972 184.521 141.489 182.909 142.052C179.695 143.176 176.533 144.423 173.379 145.692C167.048 148.246 160.725 150.814 154.25 152.996C152.73 153.49 151.293 153.953 149.842 154.516C148.892 154.896 147.911 155.146 146.977 155.542C146.829 155.583 146.703 155.682 146.627 155.815C146.6 155.906 146.607 156.004 146.646 156.09C146.685 156.177 146.754 156.247 146.84 156.286C147.433 156.613 148.611 156.104 149.196 155.906C150.442 155.488 151.658 155.025 152.92 154.63C156.256 153.588 159.555 152.433 162.8 151.21C169.191 148.823 175.446 146.064 181.868 143.739C183.73 143.07 185.615 142.462 187.492 141.831C189.378 141.257 191.23 140.577 193.04 139.794C193.14 139.752 193.227 139.685 193.294 139.6C193.361 139.515 193.406 139.415 193.424 139.308C193.442 139.202 193.433 139.092 193.398 138.99C193.363 138.888 193.302 138.796 193.223 138.723Z" fill="#FFAD4F"/>
<path d="M172.832 182.096C170.932 183.137 163.453 187.705 161.508 188.776C158.186 190.608 154.934 192.5 151.681 194.446C151.521 194.545 151.339 194.659 151.293 194.841C151.149 195.464 152.053 195.024 152.236 194.94C152.752 194.704 153.269 194.454 153.756 194.18C154.766 193.656 160.109 190.616 161.789 189.704C163.757 188.632 171.41 184.042 173.356 182.962C173.873 182.696 173.28 181.853 172.832 182.096Z" fill="#FFAD4F"/>
<path d="M189.073 172.756C188.313 173.151 180.949 177.696 179.231 178.706C179.068 178.788 178.925 178.905 178.813 179.048C178.758 179.12 178.727 179.208 178.727 179.299C178.727 179.39 178.758 179.478 178.813 179.55C178.988 179.725 179.284 179.618 179.505 179.504C182.795 177.81 185.972 175.917 189.149 174.025C189.325 173.933 189.484 173.812 189.62 173.668C189.939 173.28 189.605 172.52 189.073 172.756Z" fill="#FFAD4F"/>
<path opacity="0.2" d="M78.417 199.318V248.467L119.138 224.96V175.803L78.417 199.318Z" fill="black"/>
<path d="M123.819 227.384C123.819 227.384 99.7805 240.844 96.7557 242.524C93.7309 244.203 91.7625 239.339 91.7397 236.39C88.6997 238.321 82.5285 239.529 82.2169 235.676L80.0509 207.678L120.772 184.163L123.819 227.384Z" fill="#455A64"/>
<path d="M120.772 184.163L80.0509 207.67V200.131L120.772 176.616V184.163Z" fill="#37474F"/>
<path d="M83.4938 237.736L94.643 242.653L91.1698 233.571L83.4938 237.736Z" fill="#37474F"/>
<path d="M237.257 229.36C237.115 226.702 236.347 224.114 235.016 221.808C233.684 219.502 231.828 217.543 229.596 216.091C227.506 214.882 225.614 214.761 224.23 215.528H224.185L126.16 271.936L137.043 290.67L234.984 234.316C236.406 233.51 237.257 231.8 237.257 229.36Z" fill="#FFAD4F"/>
<path opacity="0.7" d="M237.257 229.36C237.115 226.702 236.347 224.114 235.016 221.808C233.684 219.502 231.828 217.543 229.596 216.091C227.506 214.882 225.614 214.761 224.23 215.528H224.185L126.16 271.936L137.043 290.67L234.984 234.316C236.406 233.51 237.257 231.8 237.257 229.36Z" fill="white"/>
<path d="M235.015 221.806C233.729 219.467 231.863 217.499 229.596 216.091C227.506 214.882 225.614 214.761 224.23 215.528H224.185L126.16 271.936L131.602 281.306L234.962 221.821L235.015 221.806Z" fill="#FFAD4F"/>
<path opacity="0.8" d="M235.015 221.806C233.729 219.467 231.863 217.499 229.596 216.091C227.506 214.882 225.614 214.761 224.23 215.528H224.185L126.16 271.936L131.602 281.306L234.962 221.821L235.015 221.806Z" fill="white"/>
<path opacity="0.3" d="M129.55 277.719L232.545 218.439C231.683 217.507 230.69 216.706 229.596 216.06C229.383 215.931 229.17 215.825 228.965 215.726L127.467 274.14L129.55 277.719Z" fill="white"/>
<path d="M131.625 272.46C133.86 273.917 135.719 275.88 137.052 278.192C138.385 280.503 139.152 283.096 139.293 285.76C139.293 290.647 135.858 292.6 131.625 290.183C129.396 288.728 127.541 286.768 126.211 284.463C124.88 282.158 124.11 279.571 123.964 276.914C123.964 271.996 127.399 270.021 131.625 272.46Z" fill="#E0E0E0"/>
<path d="M228.905 237.88C230.288 237.074 231.139 235.364 231.139 232.925C230.999 230.263 230.233 227.673 228.901 225.364C227.57 223.055 225.712 221.094 223.478 219.64C221.388 218.432 219.496 218.302 218.113 219.078L220.294 217.808C221.67 217.048 223.57 217.162 225.66 218.371C227.886 219.825 229.74 221.782 231.07 224.085C232.401 226.387 233.172 228.97 233.32 231.625C233.32 234.065 232.462 235.782 231.078 236.58L228.905 237.88Z" fill="#FFAD4F"/>
<path opacity="0.05" d="M137.074 290.67L235.015 234.316C236.398 233.51 237.249 231.8 237.249 229.36C237.245 228.455 237.14 227.553 236.938 226.67L134.338 285.95L137.074 290.67Z" fill="black"/>
<path d="M139.916 286.087C139.916 280.805 136.207 274.383 131.625 271.738C129.345 270.416 127.27 270.294 125.773 271.16L92.135 290.578L103.953 310.84L137.484 291.483C138.981 290.594 139.916 288.732 139.916 286.087Z" fill="#455A64"/>
<path opacity="0.15" d="M135.029 274.565L101.452 293.945C100.469 292.836 99.3171 291.887 98.04 291.133L131.624 271.738C132.9 272.497 134.049 273.451 135.029 274.565Z" fill="white"/>
<path d="M139.916 286.087C139.916 288.739 138.989 290.594 137.476 291.46L103.96 310.84C105.435 309.974 106.339 308.127 106.339 305.52C106.275 303.332 105.758 301.182 104.819 299.204L138.404 279.809C139.334 281.776 139.849 283.913 139.916 286.087Z" fill="#37474F"/>
<path d="M98.0402 291.133C102.6 293.77 106.332 300.2 106.332 305.482C106.332 310.764 102.6 312.907 98.0402 310.262C93.4802 307.618 89.7562 301.196 89.7562 295.914C89.7562 290.632 93.4802 288.488 98.0402 291.133Z" fill="#37474F"/>
<path d="M98.04 310.262C102.6 312.907 106.332 310.764 106.332 305.482C106.233 302.596 105.395 299.783 103.9 297.312C105.42 300.702 106.332 306.31 104.348 308.91C102.364 311.509 99.8488 310.718 98.04 310.262Z" fill="#263238"/>
<path d="M98.0401 294.523C95.0989 292.836 92.7201 294.211 92.7201 297.616C92.82 299.467 93.3535 301.268 94.2776 302.875C95.2017 304.481 96.4905 305.848 98.0401 306.865C100.989 308.568 103.36 307.184 103.36 303.78C103.261 301.928 102.728 300.125 101.803 298.517C100.879 296.909 99.5902 295.541 98.0401 294.523ZM98.0401 305.011C96.9515 304.302 96.0456 303.346 95.3959 302.22C94.7462 301.095 94.3711 299.833 94.3009 298.536C94.3009 296.157 95.9805 295.192 98.0401 296.385C99.1308 297.092 100.039 298.048 100.69 299.173C101.341 300.298 101.717 301.562 101.787 302.86C101.787 305.246 100.115 306.204 98.0401 305.011Z" fill="#263238"/>
<path d="M112.541 297.107L110.474 298.308L112.541 299.501L114.616 298.308L112.541 297.107Z" fill="#455A64"/>
<path d="M143.291 285.046L141.216 283.852C140.919 283.712 140.589 283.654 140.262 283.683C139.935 283.712 139.621 283.829 139.354 284.02L112.564 299.493V306.668L139.354 291.202C140.122 290.702 140.762 290.03 141.223 289.237C141.684 288.445 141.952 287.556 142.006 286.642V286.376L142.249 286.528L143.291 285.046Z" fill="#455A64"/>
<path d="M144.058 286.756V287.82C144.002 288.734 143.733 289.622 143.273 290.414C142.812 291.206 142.173 291.879 141.406 292.38L114.616 307.876V300.694L141.406 285.228C142.88 284.392 144.058 285.076 144.058 286.756Z" fill="#37474F"/>
<path d="M110.474 305.482V298.308L114.608 300.702L114.616 307.876L110.474 305.482Z" fill="#263238"/>
<path d="M205.519 162.61L208.141 164.935L207.107 170.027L198.907 172.778L193.146 169.959L190.524 167.641L205.519 162.61Z" fill="#FFAD4F"/>
<path opacity="0.1" d="M205.519 162.61L208.141 164.935L207.107 170.027L198.907 172.778L193.146 169.959L190.524 167.641L205.519 162.61Z" fill="black"/>
<path d="M204.485 167.709L196.277 170.46L190.524 167.641L205.519 162.61L204.485 167.709Z" fill="#FFAD4F"/>
<path opacity="0.1" d="M196.277 170.46L198.907 172.778L193.146 169.959L190.524 167.641L196.277 170.46Z" fill="black"/>
<path d="M230.842 169.571C227.354 170.742 223.911 169.83 219.815 169.138C215.718 168.446 212.215 169.64 206.75 171.479C206.32 171.578 205.87 171.559 205.449 171.426C205.028 171.292 204.651 171.048 204.356 170.719C203.482 169.861 202.824 168.808 202.434 167.647C202.044 166.486 201.935 165.25 202.114 164.038C202.157 163.601 202.316 163.182 202.573 162.826C202.831 162.469 203.179 162.187 203.581 162.009C209.083 160.162 212.625 158.969 215.422 156.005C218.219 153.041 220.468 150.184 223.957 149.013L230.842 169.571Z" fill="#263238"/>
<path d="M230.842 169.571L231.678 169.29L319.838 139.734L327.476 137.172L326.678 134.756L326.025 132.787L324.717 128.866L324.064 126.89L322.764 122.968L321.48 119.031L320.72 116.614L318.25 117.435L224.663 148.785C224.641 148.778 224.617 148.778 224.595 148.785L224.147 148.937C224.127 148.93 224.105 148.93 224.086 148.937C222.855 149.462 221.867 150.693 221.358 152.547C221.284 152.779 221.223 153.015 221.175 153.254C220.939 154.506 220.885 155.786 221.016 157.054C221.155 158.44 221.458 159.805 221.92 161.12C222.718 163.673 224.154 165.98 226.092 167.823C227.726 169.32 229.406 169.86 230.842 169.571Z" fill="#37474F"/>
<path d="M221.016 157.077C221.156 158.455 221.46 159.813 221.92 161.12L324.094 126.92L322.795 122.998L321.48 119.031L320.72 116.614L318.25 117.435L224.664 148.785C224.641 148.778 224.617 148.778 224.595 148.785L224.147 148.937C224.127 148.93 224.106 148.93 224.086 148.937C222.855 149.462 221.867 150.693 221.358 152.547C221.284 152.779 221.223 153.015 221.175 153.254C220.937 154.514 220.883 155.802 221.016 157.077Z" fill="#455A64"/>
<path opacity="0.2" d="M321.48 119.031L221.358 152.593C221.284 152.825 221.223 153.061 221.175 153.3C220.939 154.552 220.885 155.832 221.016 157.1L322.787 122.983L321.48 119.031Z" fill="white"/>
<path d="M317.467 121.038C317.08 123.671 317.32 126.358 318.166 128.882C319.013 131.405 320.442 133.694 322.338 135.561C326.002 138.799 329.756 137.537 330.699 132.749C331.083 130.116 330.843 127.429 329.996 124.906C329.15 122.383 327.722 120.094 325.827 118.226C322.194 114.988 318.44 116.28 317.467 121.038Z" fill="#E0E0E0"/>
<path d="M322.194 136.268C318.234 132.772 315.878 125.734 316.927 120.559C317.452 117.967 318.736 116.333 320.378 115.786L357.2 103.444L364.534 125.696L327.826 138.001C326.184 138.556 324.178 138.024 322.194 136.268Z" fill="#FFAD4F"/>
<path opacity="0.3" d="M316.791 124.974L353.552 112.647C353.368 111.177 353.419 109.686 353.704 108.232L316.92 120.551C316.651 122.01 316.607 123.502 316.791 124.974Z" fill="white"/>
<path opacity="0.1" d="M322.194 136.268C324.178 138.024 326.184 138.548 327.834 138.001L364.534 125.704C362.908 126.228 360.924 125.704 358.971 123.956C357.365 122.461 356.087 120.65 355.216 118.636L318.44 130.971C319.309 132.979 320.588 134.783 322.194 136.268Z" fill="black"/>
<path d="M353.696 108.232C352.647 113.415 355.003 120.445 358.963 123.948C362.923 127.452 366.989 126.084 368.037 120.908C369.086 115.733 366.73 108.695 362.771 105.192C358.811 101.688 354.753 103.056 353.696 108.232Z" fill="#FFAD4F"/>
<path opacity="0.15" d="M353.696 108.232C352.647 113.415 355.003 120.445 358.963 123.948C362.923 127.452 366.989 126.084 368.037 120.908C369.086 115.733 366.73 108.695 362.771 105.192C358.811 101.688 354.753 103.056 353.696 108.232Z" fill="black"/>
<path opacity="0.2" d="M358.507 107.396C357.428 107.745 356.592 108.802 356.227 110.489C355.959 112.324 356.127 114.197 356.717 115.956C357.307 117.715 358.303 119.31 359.624 120.612C360.878 121.722 362.155 122.079 363.211 121.744C364.268 121.41 365.134 120.346 365.491 118.659C365.761 116.821 365.595 114.946 365.006 113.185C364.418 111.424 363.422 109.826 362.102 108.52C360.84 107.411 359.556 107.061 358.507 107.396ZM359.214 109.554C359.662 109.45 360.129 109.466 360.569 109.599C361.009 109.733 361.406 109.979 361.722 110.314C362.647 111.227 363.345 112.346 363.759 113.579C364.172 114.812 364.289 116.126 364.1 117.412C364.1 117.89 363.95 118.355 363.671 118.742C363.392 119.129 362.999 119.419 362.546 119.571C362.094 119.723 361.605 119.729 361.149 119.589C360.693 119.448 360.292 119.168 360.004 118.788C359.081 117.874 358.386 116.757 357.974 115.525C357.562 114.293 357.445 112.982 357.633 111.697C357.681 111.231 357.853 110.787 358.131 110.41C358.409 110.033 358.783 109.738 359.214 109.554Z" fill="black"/>
<path d="M348.574 123.059L350.846 122.299L350.368 124.64L348.103 125.4L348.574 123.059Z" fill="#FFAD4F"/>
<path d="M319.2 138.107L319.679 135.759C319.772 135.444 319.947 135.159 320.186 134.933C320.425 134.708 320.719 134.549 321.039 134.474L350.36 124.64L355.741 129.398L326.42 139.224C325.532 139.469 324.599 139.502 323.696 139.32C322.793 139.138 321.945 138.746 321.222 138.176L321.024 137.993L320.978 138.274L319.2 138.107Z" fill="#FFAD4F"/>
<path d="M319.96 139.84L320.758 140.539C321.479 141.112 322.325 141.506 323.227 141.689C324.129 141.873 325.062 141.841 325.949 141.596L355.277 131.761L349.904 127.011L320.56 136.8C318.957 137.37 318.691 138.7 319.96 139.84Z" fill="#FFAD4F"/>
<path opacity="0.15" d="M319.96 139.84L320.758 140.539C321.479 141.112 322.325 141.506 323.227 141.689C324.129 141.873 325.062 141.841 325.949 141.596L355.277 131.761L349.904 127.011L320.56 136.8C318.957 137.37 318.691 138.7 319.96 139.84Z" fill="black"/>
<path d="M356.219 127.049L350.846 122.299L349.896 126.988L355.269 131.738L356.219 127.049Z" fill="#FFAD4F"/>
<path opacity="0.2" d="M356.219 127.049L350.846 122.299L349.896 126.988L355.269 131.738L356.219 127.049Z" fill="black"/>
<path d="M300.694 139.437C307.792 138.677 310.574 140.684 310.794 147.037C311.022 153.117 307.26 162.648 307.26 162.648L300.694 139.437Z" fill="#FFE6B6"/>
<path d="M259.16 301.439C258.689 301.401 258.757 302.807 258.932 303.407C259.107 304.008 261.052 306.006 264.488 306.683C267.923 307.359 272.657 306.683 274.687 306.561C276.716 306.44 280.235 307.405 282.287 307.678C284.339 307.952 287.964 307.222 289.127 306.067C289.32 305.837 289.463 305.568 289.546 305.279C289.628 304.989 289.649 304.686 289.605 304.388C289.552 303.035 289.423 302.769 289.271 302.784L259.16 301.439Z" fill="#455A64"/>
<path d="M288.739 298.771C288.8 299.037 288.861 299.303 288.914 299.569C289.226 300.926 289.323 302.324 289.203 303.711C288.946 304.174 288.596 304.577 288.175 304.897C287.754 305.216 287.27 305.444 286.756 305.566C284.354 306.326 282.522 306.204 279.862 305.702C278.144 305.309 276.381 305.143 274.618 305.208C272.521 305.345 269.64 305.748 267.543 305.558C265.762 305.481 264.005 305.122 262.337 304.494C261 303.947 259.882 302.971 259.16 301.72C259.065 300.757 259.266 299.788 259.735 298.942C260.205 298.096 260.922 297.413 261.79 296.985C263.42 296.164 265.233 295.774 267.056 295.853C269.04 295.853 270.537 296.111 272.293 295.974C273.504 295.94 274.693 295.647 275.781 295.116C276.288 294.709 276.668 294.166 276.876 293.55C277.157 292.927 277.256 292.364 277.818 292.304C277.818 292.304 286.117 292.098 286.938 292.174C287.911 292.25 288.086 295.602 288.207 296.256C288.298 296.765 288.314 297.32 288.45 297.814C288.572 298.11 288.663 298.437 288.739 298.771Z" fill="#FFAD4F"/>
<g opacity="0.3">
<path opacity="0.3" d="M288.739 298.771C288.8 299.037 288.861 299.303 288.914 299.569C289.226 300.926 289.323 302.324 289.203 303.711C288.946 304.174 288.596 304.577 288.175 304.897C287.754 305.216 287.27 305.444 286.756 305.566C284.354 306.326 282.522 306.204 279.862 305.702C278.144 305.309 276.381 305.143 274.618 305.208C272.521 305.345 269.64 305.748 267.543 305.558C265.762 305.481 264.005 305.122 262.337 304.494C261 303.947 259.882 302.971 259.16 301.72C259.065 300.757 259.266 299.788 259.735 298.942C260.205 298.096 260.922 297.413 261.79 296.985C263.42 296.164 265.233 295.774 267.056 295.853C269.04 295.853 270.537 296.111 272.293 295.974C273.504 295.94 274.693 295.647 275.781 295.116C276.288 294.709 276.668 294.166 276.876 293.55C277.157 292.927 277.256 292.364 277.818 292.304C277.818 292.304 286.117 292.098 286.938 292.174C287.911 292.25 288.086 295.602 288.207 296.256C288.298 296.765 288.314 297.32 288.45 297.814C288.572 298.11 288.663 298.437 288.739 298.771Z" fill="black"/>
</g>
<path d="M275.242 295.344C274.059 296.367 273.316 297.807 273.167 299.364C273.22 300.375 271.434 300.466 271.381 299.448C271.627 298.155 272.165 296.936 272.954 295.883C273.623 295.424 274.439 295.232 275.242 295.344Z" fill="#FAFAFA"/>
<path d="M271.358 295.982C270.369 296.893 269.697 298.097 269.442 299.417C269.442 300.177 267.862 300.101 267.922 299.349C267.922 299.349 268.135 296.955 269.845 295.936C270.294 295.594 271.19 295.686 271.358 295.982Z" fill="#FAFAFA"/>
<path d="M268.28 295.853C267.466 295.853 265.749 296.978 264.928 299.501C264.446 301.353 264.338 303.283 264.609 305.178C262.903 304.976 261.306 304.236 260.049 303.065C259.582 302.667 259.192 302.185 258.901 301.644C258.772 300.981 258.777 300.298 258.918 299.637C259.06 298.976 259.333 298.351 259.722 297.798C260.9 296.362 262.724 295.42 265.627 295.237C268.872 295.04 269.161 295.898 269.161 295.898L268.28 295.853Z" fill="#FAFAFA"/>
<path d="M311.151 192.409C310.84 187.089 307.625 182.575 304.532 175.727C304.532 175.727 276.739 164.259 274.968 176.905C272.635 193.572 274.968 234.772 275.424 238.921C276.032 244.758 276.055 251.21 276.571 261.584C277.149 273.098 277.993 292.638 277.993 292.638L278.076 293.337C278.076 293.991 280.029 295.252 282.515 295.222C286.056 295.169 287.143 294.249 287.075 293.565C287.075 293.489 287.075 293.398 287.075 293.292C287.075 293.292 292.037 264.518 291.999 257.762C291.939 248.885 290.297 243.557 290.297 243.557L292.851 211.736" fill="#FFE6B6"/>
<path d="M295.594 272.171C295.549 273.767 295.419 275.211 296.126 276.929C297.137 279.391 299.067 280.448 300.223 281.382C301.516 282.47 302.658 283.725 303.62 285.114C304.578 286.637 305.78 287.992 307.177 289.127C308.271 289.978 311.212 289.887 312.603 289.248C313.994 288.61 314.442 288.017 314.237 285.76C314.032 283.503 307.131 283.07 307.131 283.07L295.594 272.171Z" fill="#455A64"/>
<path d="M313.013 279.042C313.606 279.239 313.811 280.349 314.017 282.56C314.169 284.24 314.997 286.664 312.732 287.835C310.908 288.785 307.899 288.367 306.561 286.847C304.889 284.947 303.734 283.26 301.37 280.964C299.318 278.973 297.251 278.365 296.179 274.231C295.488 271.571 295.868 270.431 297.639 269.572C300.071 268.386 304.152 271.654 306.128 272.103C307.8 272.49 312.413 278.852 313.013 279.042Z" fill="#FFAD4F"/>
<path opacity="0.3" d="M313.013 279.042C313.606 279.239 313.811 280.349 314.017 282.56C314.169 284.24 314.997 286.664 312.732 287.835C310.908 288.785 307.899 288.367 306.561 286.847C304.889 284.947 303.734 283.26 301.37 280.964C299.318 278.973 297.251 278.365 296.179 274.231C295.488 271.571 295.868 270.431 297.639 269.572C300.071 268.386 304.152 271.654 306.128 272.103C307.8 272.49 312.413 278.852 313.013 279.042Z" fill="black"/>
<path d="M306.128 272.08C306.021 272.08 305.907 272.019 305.786 271.981C304.661 272.101 303.587 272.516 302.673 273.183C301.759 273.85 301.037 274.746 300.58 275.781C300.291 276.541 301.34 277.05 301.917 276.45C302.406 275.438 303.137 274.561 304.045 273.898C304.953 273.236 306.01 272.807 307.123 272.65C306.833 272.395 306.494 272.201 306.128 272.08Z" fill="#FAFAFA"/>
<path d="M307.8 273.288C306.744 273.458 305.749 273.891 304.905 274.547C304.062 275.203 303.397 276.062 302.974 277.043C302.677 277.803 303.734 278.304 304.304 277.704C304.716 276.827 305.318 276.051 306.066 275.434C306.813 274.816 307.688 274.372 308.628 274.132C308.339 273.828 308.066 273.547 307.8 273.288Z" fill="#FAFAFA"/>
<path d="M297.471 277.263C297.471 277.263 297.418 272.278 304.106 271.252L304.509 271.449C303.697 270.255 302.47 269.404 301.066 269.063C298.786 268.569 297.069 269.238 295.967 270.811C294.865 272.384 296.263 276.351 297.471 277.263Z" fill="#FAFAFA"/>
<path d="M293.648 207.67C293.648 207.67 294.576 221.289 295.928 230.584C296.878 237.082 297.927 239.795 299.918 250.61C301.651 259.996 305.474 279.102 305.474 279.102C306.409 281.192 311.714 281.17 313.135 279.954L313.196 276.853C313.196 276.853 315.749 252.449 314.381 244.31C313.013 236.17 310.87 232.454 310.87 232.454C310.87 232.454 310.908 220.856 310.824 210.049C310.756 201.81 310.824 197.266 310.513 191.923" fill="#FFE6B6"/>
<path d="M312.489 219.062C312.489 219.062 311.964 220.742 305.231 221.472C301.48 221.926 297.676 221.611 294.051 220.544L293.42 215.019L293.025 222.49C293.025 222.49 288.739 224.405 281.458 223.934C280.265 223.858 279.224 223.759 278.304 223.638C277.666 223.554 276.548 214.791 276.404 211.934C275.887 215.734 275.477 223.136 275.036 223.022C273.76 222.74 272.546 222.224 271.456 221.502C271.456 221.502 272.072 205.094 272.71 197.235C273.554 186.869 274.99 176.898 274.99 176.898L304.554 175.727C305.497 177.498 306.774 179.603 307.876 181.518C308.058 181.83 308.233 182.149 308.4 182.484C308.514 182.689 308.62 182.902 308.727 183.114C309.999 185.56 310.93 188.168 311.493 190.866C311.701 192.155 311.84 193.454 311.911 194.758C311.911 195.138 311.964 195.518 311.987 195.92C312.405 203.68 312.489 219.062 312.489 219.062Z" fill="#FFAD4F"/>
<path opacity="0.2" d="M296.149 204.022C297.766 203.334 299.205 202.288 300.359 200.964C301.514 199.64 302.353 198.072 302.814 196.376C298.893 201.332 294.515 202.266 294.515 202.266L293.421 215.019L294.052 220.544C294.652 220.739 295.264 220.899 295.883 221.023C296.043 215.08 296.149 204.022 296.149 204.022Z" fill="#263238"/>
<path d="M297.16 131.541L297.228 139.141C298.877 139.81 298.383 142.181 297.266 143.556V145.791L286.072 145.107L285.433 132.24L297.16 131.541Z" fill="#FFE6B6"/>
<path d="M307.336 144.848C306.409 141.504 303.126 139.688 300.025 139.338C298.923 139.217 297.198 139.126 297.198 139.126C296.035 141.018 287.804 140.547 285.798 139.559L278.829 139.825C278.38 140.235 276.275 143.382 271.51 153.277C269.465 157.502 270.856 162.967 274.808 164.798C274.922 167.527 274.976 176.905 274.976 176.905C280.501 180.546 300.124 181.678 304.54 175.727C304.623 171.304 305.649 168.804 306.82 164.449C308.932 156.674 308.446 148.831 307.336 144.848Z" fill="#455A64"/>
<path d="M279.68 115.383C279.68 115.383 272.202 110.641 279.125 103.687C284.103 98.6936 291.437 99.9552 300.063 103.77C304.099 105.564 309.799 110.268 309.67 118.469C309.563 124.792 291.635 128.007 291.688 132.346L279.68 115.383Z" fill="#263238"/>
<path d="M277.901 118.56C277.901 118.56 275.211 122.185 275.515 122.603C276.085 123.011 276.723 123.315 277.4 123.5L277.901 118.56Z" fill="#FFDB95"/>
<path d="M286.155 107.031C283.67 108.148 279.361 110.23 277.795 119.077C276.191 128.159 278.053 131.45 279.239 132.719C280.037 133.57 284.361 134.102 286.664 133.524C289.545 132.764 295.853 130.097 298.984 125.537C302.677 120.164 303.779 112.799 300.025 109.691C294.758 105.306 288.26 106.081 286.155 107.031Z" fill="#FFE6B6"/>
<path d="M285.502 133.707C283.533 133.895 281.547 133.654 279.68 133C281.707 133.171 283.741 132.766 285.547 131.83L285.502 133.707Z" fill="#FFDB95"/>
<path d="M285.395 117.8C283.902 117.095 282.629 115.998 281.711 114.626C280.793 113.254 280.264 111.659 280.181 110.01C279.756 104.128 287.211 102.258 287.211 102.258L285.395 117.8Z" fill="#263238"/>
<path d="M309.943 117.253C309.966 116.191 309.851 115.131 309.601 114.099C309.072 112.152 308.104 110.352 306.771 108.838C305.437 107.324 303.774 106.137 301.91 105.366C292.121 101.506 285.418 107.373 285.418 107.373C284.556 110.334 284.143 113.409 284.194 116.493C283.985 116.431 283.767 116.403 283.548 116.409L283.221 120.399C283.175 120.98 283.361 121.556 283.739 122.001C284.116 122.445 284.654 122.722 285.235 122.77L285.425 120.49C286.033 119.639 287.462 118.112 289.499 118.91C290.315 119.27 290.963 119.929 291.309 120.751C291.655 121.574 291.674 122.497 291.361 123.333C291.08 124.256 290.539 125.079 289.803 125.704C288.701 126.654 287.781 126.266 286.429 126.038C286.309 125.993 286.176 125.993 286.056 126.038C285.881 126.152 285.904 126.411 285.95 126.616C286.23 128.06 286.653 129.473 287.211 130.834C287.773 132.205 288.735 133.375 289.97 134.193C291.385 134.925 292.94 135.345 294.53 135.424C295.374 135.692 296.281 135.678 297.116 135.384C297.951 135.091 298.668 134.534 299.159 133.798L304.593 127.718C306.32 125.978 307.771 123.984 308.894 121.805C309.535 120.37 309.891 118.824 309.943 117.253Z" fill="#263238"/>
<path d="M305.903 105.245C309.491 103.684 311.133 99.5112 309.573 95.924C308.012 92.3368 303.839 90.6938 300.252 92.2543C296.665 93.8149 295.022 97.9879 296.583 101.575C298.143 105.162 302.316 106.805 305.903 105.245Z" fill="#263238"/>
<path d="M312.36 105.397C312.337 106.301 312.045 107.177 311.522 107.915C311 108.653 310.269 109.219 309.424 109.541C308.579 109.863 307.658 109.926 306.777 109.723C305.895 109.52 305.095 109.059 304.476 108.4C303.857 107.74 303.448 106.912 303.302 106.019C303.155 105.127 303.277 104.211 303.652 103.388C304.027 102.566 304.638 101.873 305.408 101.398C306.178 100.923 307.071 100.688 307.975 100.723C309.174 100.768 310.306 101.285 311.127 102.159C311.948 103.034 312.391 104.197 312.36 105.397Z" fill="#263238"/>
<path d="M300.534 98.5948C300.511 99.4987 300.219 100.375 299.697 101.113C299.174 101.851 298.444 102.417 297.599 102.739C296.754 103.061 295.832 103.124 294.951 102.921C294.07 102.718 293.269 102.257 292.65 101.598C292.031 100.938 291.623 100.11 291.476 99.2172C291.329 98.3249 291.451 97.4092 291.826 96.5863C292.201 95.7635 292.813 95.0707 293.582 94.5961C294.352 94.1215 295.245 93.8864 296.149 93.9208C297.348 93.9664 298.48 94.4825 299.301 95.3574C300.122 96.2324 300.565 97.3955 300.534 98.5948Z" fill="#263238"/>
<g opacity="0.2">
<path opacity="0.2" d="M311.965 195.928C311.773 196.257 311.516 196.544 311.209 196.769C310.901 196.994 310.551 197.152 310.179 197.235H310.141C308.712 197.311 306.029 195.016 304.555 193.633C304.243 193.348 304.032 192.969 303.954 192.554L302.305 184.049C302.298 184 302.301 183.949 302.315 183.901C302.328 183.853 302.35 183.807 302.381 183.768C302.409 183.725 302.447 183.689 302.492 183.666C302.538 183.642 302.588 183.63 302.64 183.631C304.604 183.588 306.546 183.202 308.378 182.491C308.492 182.696 308.598 182.909 308.704 183.122C306.906 183.83 305.003 184.233 303.073 184.315L304.638 192.424C304.696 192.692 304.834 192.936 305.034 193.124C307.314 195.274 309.274 196.582 310.11 196.536C310.68 196.49 311.319 195.723 311.881 194.765C311.919 195.145 311.942 195.533 311.965 195.928Z" fill="#263238"/>
<path opacity="0.2" d="M293.253 184.961C289.524 185.657 285.718 185.849 281.937 185.531C281.842 185.521 281.746 185.548 281.671 185.607C281.601 185.67 281.558 185.757 281.549 185.85L280.903 193.96C280.862 194.487 280.935 195.018 281.118 195.515C281.3 196.012 281.587 196.464 281.96 196.84C283.67 198.611 286.003 200.678 287.531 200.594H287.629C289.149 200.42 291.429 198.018 293.124 196.034C293.701 195.346 294.005 194.47 293.975 193.572L293.702 185.334C293.699 185.284 293.686 185.235 293.664 185.191C293.641 185.146 293.609 185.107 293.571 185.075C293.532 185.044 293.487 185.021 293.439 185.008C293.391 184.995 293.341 184.992 293.291 184.999L293.253 184.961ZM293.253 193.557C293.281 194.282 293.037 194.992 292.569 195.548C290.381 198.17 288.541 199.736 287.538 199.857C286.535 199.979 284.726 198.672 282.454 196.316C282.163 196.015 281.939 195.657 281.796 195.264C281.654 194.871 281.595 194.453 281.625 194.036L282.241 186.276C285.834 186.55 289.447 186.369 292.995 185.736L293.253 193.557Z" fill="#263238"/>
</g>
<path d="M280.386 139.772C270.696 139.414 270.202 141.375 264.89 149.781C262.025 154.341 257.412 161.895 254.706 166.44C250.336 164.821 242.934 161.88 240.19 159.6C239.514 159.03 238.526 158.331 238.404 157.449C238.085 155.032 236.755 154.409 235.904 152.319C235.25 150.716 235.379 149.659 234.954 149.644C234.399 149.644 233.434 150.016 233.282 151.536C233.27 152.542 233.382 153.545 233.616 154.523C232.929 154.114 232.368 153.522 231.997 152.813C231.397 151.63 231.043 150.337 230.956 149.013C230.847 148.237 230.875 147.447 231.04 146.68L231.883 146.399C231.541 145.92 230.363 145.95 229.816 146.026C229.185 146.1 228.607 146.416 228.205 146.908C227.893 147.311 227.711 147.812 227.369 148.192C226.86 148.77 226.016 149.059 225.704 149.766C225.582 150.333 225.491 150.906 225.431 151.483C225.218 151.939 224.963 152.374 224.671 152.783C224.302 153.533 224.208 154.388 224.405 155.2C224.523 155.741 224.699 156.269 224.929 156.773C225.024 157.034 225.138 157.288 225.271 157.533C225.4 157.738 225.575 157.936 225.72 158.133C226.449 159.072 227.257 159.947 228.136 160.748C228.6 161.196 229.079 161.629 229.558 162.07C231.328 163.712 234.566 166.113 237.044 167.907C243.382 172.467 254.379 178.076 256.355 178.547C258.78 179.102 259.882 177.513 261.675 175.309C265.11 171.175 273.303 158.407 273.303 158.407C280.189 155.253 281.2 144.666 280.386 139.772Z" fill="#FFE6B6"/>
</svg>
