<svg width="113" height="182" viewBox="0 0 113 182" fill="none" xmlns="http://www.w3.org/2000/svg">
<path d="M147.406 91C147.406 122.152 122.152 147.406 91 147.406C59.8477 147.406 34.5937 122.152 34.5937 91C34.5937 59.8477 59.8477 34.5937 91 34.5937C122.152 34.5937 147.406 59.8477 147.406 91ZM91 148.406C122.705 148.406 148.406 122.705 148.406 91C148.406 59.2954 122.705 33.5937 91 33.5937C59.2954 33.5937 33.5937 59.2954 33.5937 91C33.5937 122.705 59.2954 148.406 91 148.406ZM164.453 91C164.453 131.567 131.567 164.453 91 164.453C50.4329 164.453 17.5468 131.567 17.5468 91C17.5468 50.4329 50.4329 17.5468 91 17.5468C131.567 17.5468 164.453 50.4329 164.453 91ZM91 165.453C132.119 165.453 165.453 132.119 165.453 91C165.453 49.8806 132.119 16.5468 91 16.5468C49.8806 16.5468 16.5468 49.8806 16.5468 91C16.5468 132.119 49.8806 165.453 91 165.453ZM181.5 91C181.5 140.982 140.982 181.5 91 181.5C41.0182 181.5 0.5 140.982 0.5 91C0.5 41.0182 41.0182 0.5 91 0.5C140.982 0.5 181.5 41.0182 181.5 91Z" stroke="black" stroke-opacity="0.15"/>
</svg>
