<svg width="150" height="149" viewBox="0 0 150 149" fill="none" xmlns="http://www.w3.org/2000/svg">
<path d="M12.8936 36.0995L15.1348 32.5814L13.9482 30.1124L14.6463 26.666L12.9482 23.7125L9.4763 20.7611L10.0591 17.6454L12.6546 17.6243L16.1076 19.9795L22.0953 15.6061L22.5984 13.7207L28.9027 12.2671L30.5569 8.52779L35.6766 4.19234L39.0729 4.54836L42.5154 2.99366L44.0249 3.13271L46.004 5.46054L50.5199 4.57364L51.6374 0.897566L52.6437 0.571045L53.7192 1.56959L54.8409 1.05977L53.7486 5.81868L55.5474 8.09176L56.9856 7.99055L58.7551 12.2102L62.3066 14.519L63.9251 13.9902L65.6631 15.3659L68.3614 14.9951L68.7912 18.4711L70.005 17.5757L72.393 19.4338L72.8584 21.0243L73.7117 20.4387L75.7684 21.6057L76.7642 23.3901L78.02 23.1078L79.3807 19.9584L82.3536 21.2034L83.6408 19.9078L85.1776 19.8635L88.0016 16.9142L91.0478 16.0968L91.5699 14.7043L93.6433 15.448L97.0544 18.9197L95.7923 21.0411L99.5744 22.9434L101.036 25.7115L102.537 26.2002L102.017 30.0048L105.497 35.56L107.833 35.2777L107.751 33.0026L109.13 33.5945L110.361 31.6206L111.594 32.6507L112.957 30.7401L115.609 31.252L119.242 28.9768L118.888 27.6728L122.561 26.4193L122.2 31.1066L123.326 33.6472L119.282 36.0298L119.393 38.543L118.485 39.6532L119.886 41.3196L123.047 38.522L124.29 39.4552L125.794 40.1757L125.49 42.335L129.031 44.3047L126.63 47.749L126.72 51.2903L125.538 53.241L129.936 53.0576L132.284 54.6819L131.467 57.7955L132.479 59.6915L134.695 60.4646L138.362 65.6153L140.1 66.0219L136.603 76.6941L138.067 78.2151L137.482 79.3822L138.492 81.9249L140.48 82.0366L142.738 85.8812L137.276 90.8697L137.712 92.5929L139.129 92.298L141.174 94.2466L140.339 96.8968L142.568 97.9227L142.645 100.548L146.065 104.194L146.448 105.941L149.038 108.355L150 111.574L144.505 111.985L142.195 109.941L141.155 106.973L134.687 107.506L134.106 106.109L132.391 105.365L129.834 106.889L126.894 107.04L125.754 104.963L124.672 104.16L123.71 104.78L121.9 102.568L119.357 102.705L119.139 103.842L118.07 103.571L116.47 105.435L112.749 105.612L110.114 107.704L107.577 107.986L106.887 109.543L104.277 108.321L101.325 109.555L99.3647 113.318L97.5114 114.302L98.5953 117.066L97.3269 119.027L98.2368 119.857L95.8992 118.658L94.614 119.551L95.0983 121.458L97.2934 121.38L97.0187 124.717L95.0501 123.56L95.0459 126.185L92.5825 129.309L94.8992 132.271L94.5616 133.537L96.5659 134.664L96.6959 136.929L94.3918 137.999L95.8111 139.802L97.6288 139.763L97.9517 141.321L97.4506 142.432L92.1779 145.469L87.8779 146.561L87.0854 147.873L87.6054 148.891L86.2007 148.242L84.7499 145.617L83.7415 147.46L80.6512 147.673L82.2718 146.047L82.1481 144.783L79.9572 147.146L77.563 144.951L76.0116 145.373L73.4245 143.805L71.2672 144.014L70.5103 141.692L68.1266 140.898L67.2691 139.583L69.2859 137.938L69.0364 133.299L65.747 130.531L63.8538 129.986L62.9502 130.662L61.8747 128.882L62.2856 126.979L61.4596 127.771L60.3464 127.137L58.08 122.741L55.8996 124.097L54.2895 122.802L54.0442 121.045L52.2747 122.271L49.761 119.353L45.2619 117.266L44.7755 114.74L45.9495 111.835L44.3499 110.939L44.3981 108.112L46.3751 106.566L45.96 105.841L43.9683 106.393L44.8908 104.62L43.5259 103.12L41.9661 104.392L42.0626 102.924L41.226 104.034L41.0583 102.968L39.9304 103.465L38.9723 101.575L37.4083 102.981L38.1609 101.79L35.1315 97.4148L34.4249 94.8342L34.2509 96.1572L32.3494 96.8376L33.2635 99.3761L31.4772 99.9302L31.4814 101.112L26.0724 101.752L25.7852 99.9702L24.414 98.9253L25.2254 96.2393L18.6088 84.2673L15.0572 75.4637L17.2355 75.6006L13.858 68.6087L9.01925 66.304L4.87444 62.8281L3.09869 62.017L0.867964 62.5943L0 61.7832L3.64588 57.4814L1.81981 56.4197L1.92253 53.8517L6.91853 51.823L11.6357 46.3415L15.5122 44.3929L11.9481 39.6551L12.8936 36.0995Z" fill="#CECECE"/>
</svg>
