<svg width="193" height="75" viewBox="0 0 193 75" fill="none" xmlns="http://www.w3.org/2000/svg">
<path d="M11.6957 5.84783C11.6957 9.07749 9.07749 11.6957 5.84783 11.6957C2.61816 11.6957 0 9.07749 0 5.84783C0 2.61816 2.61816 0 5.84783 0C9.07749 0 11.6957 2.61816 11.6957 5.84783Z" fill="white" fill-opacity="0.1"/>
<path d="M35.087 5.84783C35.087 9.07749 32.4688 11.6957 29.2391 11.6957C26.0095 11.6957 23.3913 9.07749 23.3913 5.84783C23.3913 2.61816 26.0095 0 29.2391 0C32.4688 0 35.087 2.61816 35.087 5.84783Z" fill="white" fill-opacity="0.1"/>
<path d="M58.4783 5.84783C58.4783 9.07749 55.8601 11.6957 52.6304 11.6957C49.4008 11.6957 46.7826 9.07749 46.7826 5.84783C46.7826 2.61816 49.4008 0 52.6304 0C55.8601 0 58.4783 2.61816 58.4783 5.84783Z" fill="white" fill-opacity="0.1"/>
<path d="M81.8696 5.84783C81.8696 9.07749 79.2514 11.6957 76.0217 11.6957C72.7921 11.6957 70.1739 9.07749 70.1739 5.84783C70.1739 2.61816 72.7921 0 76.0217 0C79.2514 0 81.8696 2.61816 81.8696 5.84783Z" fill="white" fill-opacity="0.1"/>
<path d="M105.261 5.84783C105.261 9.07749 102.643 11.6957 99.413 11.6957C96.1834 11.6957 93.5652 9.07749 93.5652 5.84783C93.5652 2.61816 96.1834 0 99.413 0C102.643 0 105.261 2.61816 105.261 5.84783Z" fill="white" fill-opacity="0.1"/>
<path d="M128.652 5.84783C128.652 9.07749 126.034 11.6957 122.804 11.6957C119.575 11.6957 116.957 9.07749 116.957 5.84783C116.957 2.61816 119.575 0 122.804 0C126.034 0 128.652 2.61816 128.652 5.84783Z" fill="white" fill-opacity="0.1"/>
<path d="M152.043 5.84783C152.043 9.07749 149.425 11.6957 146.196 11.6957C142.966 11.6957 140.348 9.07749 140.348 5.84783C140.348 2.61816 142.966 0 146.196 0C149.425 0 152.043 2.61816 152.043 5.84783Z" fill="white" fill-opacity="0.1"/>
<path d="M175.435 5.84783C175.435 9.07749 172.817 11.6957 169.587 11.6957C166.357 11.6957 163.739 9.07749 163.739 5.84783C163.739 2.61816 166.357 0 169.587 0C172.817 0 175.435 2.61816 175.435 5.84783Z" fill="white" fill-opacity="0.1"/>
<path d="M198.826 5.84783C198.826 9.07749 196.208 11.6957 192.978 11.6957C189.749 11.6957 187.13 9.07749 187.13 5.84783C187.13 2.61816 189.749 0 192.978 0C196.208 0 198.826 2.61816 198.826 5.84783Z" fill="white" fill-opacity="0.1"/>
<path d="M222.217 5.84783C222.217 9.07749 219.599 11.6957 216.37 11.6957C213.14 11.6957 210.522 9.07749 210.522 5.84783C210.522 2.61816 213.14 0 216.37 0C219.599 0 222.217 2.61816 222.217 5.84783Z" fill="white" fill-opacity="0.1"/>
<path d="M245.609 5.84783C245.609 9.07749 242.991 11.6957 239.761 11.6957C236.531 11.6957 233.913 9.07749 233.913 5.84783C233.913 2.61816 236.531 0 239.761 0C242.991 0 245.609 2.61816 245.609 5.84783Z" fill="white" fill-opacity="0.1"/>
<path d="M269 5.84783C269 9.07749 266.382 11.6957 263.152 11.6957C259.923 11.6957 257.304 9.07749 257.304 5.84783C257.304 2.61816 259.923 0 263.152 0C266.382 0 269 2.61816 269 5.84783Z" fill="white" fill-opacity="0.1"/>
<path d="M11.6957 26.9C11.6957 30.1297 9.07749 32.7478 5.84783 32.7478C2.61816 32.7478 0 30.1297 0 26.9C0 23.6703 2.61816 21.0522 5.84783 21.0522C9.07749 21.0522 11.6957 23.6703 11.6957 26.9Z" fill="white" fill-opacity="0.1"/>
<path d="M35.087 26.9C35.087 30.1297 32.4688 32.7478 29.2391 32.7478C26.0095 32.7478 23.3913 30.1297 23.3913 26.9C23.3913 23.6703 26.0095 21.0522 29.2391 21.0522C32.4688 21.0522 35.087 23.6703 35.087 26.9Z" fill="white" fill-opacity="0.1"/>
<path d="M58.4783 26.9C58.4783 30.1297 55.8601 32.7478 52.6304 32.7478C49.4008 32.7478 46.7826 30.1297 46.7826 26.9C46.7826 23.6703 49.4008 21.0522 52.6304 21.0522C55.8601 21.0522 58.4783 23.6703 58.4783 26.9Z" fill="white" fill-opacity="0.1"/>
<path d="M81.8696 26.9C81.8696 30.1297 79.2514 32.7478 76.0217 32.7478C72.7921 32.7478 70.1739 30.1297 70.1739 26.9C70.1739 23.6703 72.7921 21.0522 76.0217 21.0522C79.2514 21.0522 81.8696 23.6703 81.8696 26.9Z" fill="white" fill-opacity="0.1"/>
<path d="M105.261 26.9C105.261 30.1297 102.643 32.7478 99.413 32.7478C96.1834 32.7478 93.5652 30.1297 93.5652 26.9C93.5652 23.6703 96.1834 21.0522 99.413 21.0522C102.643 21.0522 105.261 23.6703 105.261 26.9Z" fill="white" fill-opacity="0.1"/>
<path d="M128.652 26.9C128.652 30.1297 126.034 32.7478 122.804 32.7478C119.575 32.7478 116.957 30.1297 116.957 26.9C116.957 23.6703 119.575 21.0522 122.804 21.0522C126.034 21.0522 128.652 23.6703 128.652 26.9Z" fill="white" fill-opacity="0.1"/>
<path d="M152.043 26.9C152.043 30.1297 149.425 32.7478 146.196 32.7478C142.966 32.7478 140.348 30.1297 140.348 26.9C140.348 23.6703 142.966 21.0522 146.196 21.0522C149.425 21.0522 152.043 23.6703 152.043 26.9Z" fill="white" fill-opacity="0.1"/>
<path d="M175.435 26.9C175.435 30.1297 172.817 32.7478 169.587 32.7478C166.357 32.7478 163.739 30.1297 163.739 26.9C163.739 23.6703 166.357 21.0522 169.587 21.0522C172.817 21.0522 175.435 23.6703 175.435 26.9Z" fill="white" fill-opacity="0.1"/>
<path d="M198.826 26.9C198.826 30.1297 196.208 32.7478 192.978 32.7478C189.749 32.7478 187.13 30.1297 187.13 26.9C187.13 23.6703 189.749 21.0522 192.978 21.0522C196.208 21.0522 198.826 23.6703 198.826 26.9Z" fill="white" fill-opacity="0.1"/>
<path d="M222.217 26.9C222.217 30.1297 219.599 32.7478 216.37 32.7478C213.14 32.7478 210.522 30.1297 210.522 26.9C210.522 23.6703 213.14 21.0522 216.37 21.0522C219.599 21.0522 222.217 23.6703 222.217 26.9Z" fill="white" fill-opacity="0.1"/>
<path d="M245.609 26.9C245.609 30.1297 242.991 32.7478 239.761 32.7478C236.531 32.7478 233.913 30.1297 233.913 26.9C233.913 23.6703 236.531 21.0522 239.761 21.0522C242.991 21.0522 245.609 23.6703 245.609 26.9Z" fill="white" fill-opacity="0.1"/>
<path d="M269 26.9C269 30.1297 266.382 32.7478 263.152 32.7478C259.923 32.7478 257.304 30.1297 257.304 26.9C257.304 23.6703 259.923 21.0522 263.152 21.0522C266.382 21.0522 269 23.6703 269 26.9Z" fill="white" fill-opacity="0.1"/>
<path d="M11.6957 47.9522C11.6957 51.1818 9.07749 53.8 5.84783 53.8C2.61816 53.8 0 51.1818 0 47.9522C0 44.7225 2.61816 42.1043 5.84783 42.1043C9.07749 42.1043 11.6957 44.7225 11.6957 47.9522Z" fill="white" fill-opacity="0.1"/>
<path d="M35.087 47.9522C35.087 51.1818 32.4688 53.8 29.2391 53.8C26.0095 53.8 23.3913 51.1818 23.3913 47.9522C23.3913 44.7225 26.0095 42.1043 29.2391 42.1043C32.4688 42.1043 35.087 44.7225 35.087 47.9522Z" fill="white" fill-opacity="0.1"/>
<path d="M58.4783 47.9522C58.4783 51.1818 55.8601 53.8 52.6304 53.8C49.4008 53.8 46.7826 51.1818 46.7826 47.9522C46.7826 44.7225 49.4008 42.1043 52.6304 42.1043C55.8601 42.1043 58.4783 44.7225 58.4783 47.9522Z" fill="white" fill-opacity="0.1"/>
<path d="M81.8696 47.9522C81.8696 51.1818 79.2514 53.8 76.0217 53.8C72.7921 53.8 70.1739 51.1818 70.1739 47.9522C70.1739 44.7225 72.7921 42.1043 76.0217 42.1043C79.2514 42.1043 81.8696 44.7225 81.8696 47.9522Z" fill="white" fill-opacity="0.1"/>
<path d="M105.261 47.9522C105.261 51.1818 102.643 53.8 99.413 53.8C96.1834 53.8 93.5652 51.1818 93.5652 47.9522C93.5652 44.7225 96.1834 42.1043 99.413 42.1043C102.643 42.1043 105.261 44.7225 105.261 47.9522Z" fill="white" fill-opacity="0.1"/>
<path d="M128.652 47.9522C128.652 51.1818 126.034 53.8 122.804 53.8C119.575 53.8 116.957 51.1818 116.957 47.9522C116.957 44.7225 119.575 42.1043 122.804 42.1043C126.034 42.1043 128.652 44.7225 128.652 47.9522Z" fill="white" fill-opacity="0.1"/>
<path d="M152.043 47.9522C152.043 51.1818 149.425 53.8 146.196 53.8C142.966 53.8 140.348 51.1818 140.348 47.9522C140.348 44.7225 142.966 42.1043 146.196 42.1043C149.425 42.1043 152.043 44.7225 152.043 47.9522Z" fill="white" fill-opacity="0.1"/>
<path d="M175.435 47.9522C175.435 51.1818 172.817 53.8 169.587 53.8C166.357 53.8 163.739 51.1818 163.739 47.9522C163.739 44.7225 166.357 42.1043 169.587 42.1043C172.817 42.1043 175.435 44.7225 175.435 47.9522Z" fill="white" fill-opacity="0.1"/>
<path d="M198.826 47.9522C198.826 51.1818 196.208 53.8 192.978 53.8C189.749 53.8 187.13 51.1818 187.13 47.9522C187.13 44.7225 189.749 42.1043 192.978 42.1043C196.208 42.1043 198.826 44.7225 198.826 47.9522Z" fill="white" fill-opacity="0.1"/>
<path d="M222.217 47.9522C222.217 51.1818 219.599 53.8 216.37 53.8C213.14 53.8 210.522 51.1818 210.522 47.9522C210.522 44.7225 213.14 42.1043 216.37 42.1043C219.599 42.1043 222.217 44.7225 222.217 47.9522Z" fill="white" fill-opacity="0.1"/>
<path d="M245.609 47.9522C245.609 51.1818 242.991 53.8 239.761 53.8C236.531 53.8 233.913 51.1818 233.913 47.9522C233.913 44.7225 236.531 42.1043 239.761 42.1043C242.991 42.1043 245.609 44.7225 245.609 47.9522Z" fill="white" fill-opacity="0.1"/>
<path d="M269 47.9522C269 51.1818 266.382 53.8 263.152 53.8C259.923 53.8 257.304 51.1818 257.304 47.9522C257.304 44.7225 259.923 42.1043 263.152 42.1043C266.382 42.1043 269 44.7225 269 47.9522Z" fill="white" fill-opacity="0.1"/>
<path d="M11.6957 69.0043C11.6957 72.234 9.07749 74.8522 5.84783 74.8522C2.61816 74.8522 0 72.234 0 69.0043C0 65.7747 2.61816 63.1565 5.84783 63.1565C9.07749 63.1565 11.6957 65.7747 11.6957 69.0043Z" fill="white" fill-opacity="0.1"/>
<path d="M35.087 69.0043C35.087 72.234 32.4688 74.8522 29.2391 74.8522C26.0095 74.8522 23.3913 72.234 23.3913 69.0043C23.3913 65.7747 26.0095 63.1565 29.2391 63.1565C32.4688 63.1565 35.087 65.7747 35.087 69.0043Z" fill="white" fill-opacity="0.1"/>
<path d="M58.4783 69.0043C58.4783 72.234 55.8601 74.8522 52.6304 74.8522C49.4008 74.8522 46.7826 72.234 46.7826 69.0043C46.7826 65.7747 49.4008 63.1565 52.6304 63.1565C55.8601 63.1565 58.4783 65.7747 58.4783 69.0043Z" fill="white" fill-opacity="0.1"/>
<path d="M81.8696 69.0043C81.8696 72.234 79.2514 74.8522 76.0217 74.8522C72.7921 74.8522 70.1739 72.234 70.1739 69.0043C70.1739 65.7747 72.7921 63.1565 76.0217 63.1565C79.2514 63.1565 81.8696 65.7747 81.8696 69.0043Z" fill="white" fill-opacity="0.1"/>
<path d="M105.261 69.0043C105.261 72.234 102.643 74.8522 99.413 74.8522C96.1834 74.8522 93.5652 72.234 93.5652 69.0043C93.5652 65.7747 96.1834 63.1565 99.413 63.1565C102.643 63.1565 105.261 65.7747 105.261 69.0043Z" fill="white" fill-opacity="0.1"/>
<path d="M128.652 69.0043C128.652 72.234 126.034 74.8522 122.804 74.8522C119.575 74.8522 116.957 72.234 116.957 69.0043C116.957 65.7747 119.575 63.1565 122.804 63.1565C126.034 63.1565 128.652 65.7747 128.652 69.0043Z" fill="white" fill-opacity="0.1"/>
<path d="M152.043 69.0043C152.043 72.234 149.425 74.8522 146.196 74.8522C142.966 74.8522 140.348 72.234 140.348 69.0043C140.348 65.7747 142.966 63.1565 146.196 63.1565C149.425 63.1565 152.043 65.7747 152.043 69.0043Z" fill="white" fill-opacity="0.1"/>
<path d="M175.435 69.0043C175.435 72.234 172.817 74.8522 169.587 74.8522C166.357 74.8522 163.739 72.234 163.739 69.0043C163.739 65.7747 166.357 63.1565 169.587 63.1565C172.817 63.1565 175.435 65.7747 175.435 69.0043Z" fill="white" fill-opacity="0.1"/>
<path d="M198.826 69.0043C198.826 72.234 196.208 74.8522 192.978 74.8522C189.749 74.8522 187.13 72.234 187.13 69.0043C187.13 65.7747 189.749 63.1565 192.978 63.1565C196.208 63.1565 198.826 65.7747 198.826 69.0043Z" fill="white" fill-opacity="0.1"/>
<path d="M222.217 69.0043C222.217 72.234 219.599 74.8522 216.37 74.8522C213.14 74.8522 210.522 72.234 210.522 69.0043C210.522 65.7747 213.14 63.1565 216.37 63.1565C219.599 63.1565 222.217 65.7747 222.217 69.0043Z" fill="white" fill-opacity="0.1"/>
<path d="M245.609 69.0043C245.609 72.234 242.991 74.8522 239.761 74.8522C236.531 74.8522 233.913 72.234 233.913 69.0043C233.913 65.7747 236.531 63.1565 239.761 63.1565C242.991 63.1565 245.609 65.7747 245.609 69.0043Z" fill="white" fill-opacity="0.1"/>
<path d="M269 69.0043C269 72.234 266.382 74.8522 263.152 74.8522C259.923 74.8522 257.304 72.234 257.304 69.0043C257.304 65.7747 259.923 63.1565 263.152 63.1565C266.382 63.1565 269 65.7747 269 69.0043Z" fill="white" fill-opacity="0.1"/>
</svg>
