<svg width="250" height="268" viewBox="0 0 250 268" fill="none" xmlns="http://www.w3.org/2000/svg">
<path d="M199.296 134C199.296 180.003 162.003 217.296 116 217.296C69.9967 217.296 32.7038 180.003 32.7038 134C32.7038 87.9969 69.9967 50.704 116 50.704C162.003 50.704 199.296 87.9969 199.296 134ZM116 218.296C162.555 218.296 200.296 180.556 200.296 134C200.296 87.4446 162.555 49.704 116 49.704C69.4445 49.704 31.7038 87.4446 31.7038 134C31.7038 180.556 69.4445 218.296 116 218.296ZM224.398 134C224.398 193.867 175.867 242.398 116 242.398C56.1336 242.398 7.60212 193.867 7.60212 134C7.60212 74.1335 56.1336 25.602 116 25.602C175.867 25.602 224.398 74.1335 224.398 134ZM116 243.398C176.419 243.398 225.398 194.419 225.398 134C225.398 73.5812 176.419 24.602 116 24.602C55.5813 24.602 6.60212 73.5812 6.60212 134C6.60212 194.419 55.5813 243.398 116 243.398ZM249.5 134C249.5 207.73 189.73 267.5 116 267.5C42.27 267.5 -17.5 207.73 -17.5 134C-17.5 60.27 42.27 0.5 116 0.5C189.73 0.5 249.5 60.27 249.5 134Z" stroke="white" stroke-opacity="0.15"/>
</svg>
