<?xml version="1.0" encoding="utf-8"?>
<!-- Generator: Adobe Illustrator 25.0.0, SVG Export Plug-In . SVG Version: 6.00 Build 0)  -->
<svg version="1.1" id="Layer_1" xmlns="http://www.w3.org/2000/svg" xmlns:xlink="http://www.w3.org/1999/xlink" x="0px" y="0px"
	 viewBox="0 0 399 836" style="enable-background:new 0 0 399 836;" xml:space="preserve">
<style type="text/css">
	.st0{fill:#263238;}
</style>
<path class="st0" d="M334.5,0h-270C28.9,0,0,28.9,0,64.5v707C0,807.1,28.9,836,64.5,836h270c35.6,0,64.5-28.9,64.5-64.5v-707
	C399,28.9,370.1,0,334.5,0z M381.3,772.3c0,23.5-19,42.5-42.5,42.5H60.1c-23.5,0-42.5-19-42.5-42.5c0,0,0,0,0,0V69.9
	c0-23.5,19-42.5,42.5-42.5h64.3c5.3,0,9.6,4.3,9.6,9.6v15.2c0,7.6,6.1,13.7,13.7,13.7h103.4c7.6,0,13.7-6.2,13.7-13.7V37.1
	c0-5.3,4.3-9.6,9.6-9.6h64.3c23.5,0,42.5,19,42.5,42.5V772.3z"/>
</svg>
