<svg id="Layer_1" data-name="Layer 1" xmlns="http://www.w3.org/2000/svg" width="777" height="836" viewBox="0 0 777 836"><defs><style>.cls-1{fill:#fff8ed;}.cls-2{fill:#263238;}</style></defs><path class="cls-1" d="M-54-18V854H801V-18ZM527.8,814.8H249.1a42.46,42.46,0,0,1-42.5-42.5V69.9a42.46,42.46,0,0,1,42.5-42.5h64.3A9.6,9.6,0,0,1,323,37V52.2a13.66,13.66,0,0,0,13.7,13.7H440.1a13.72,13.72,0,0,0,13.7-13.7V37.1a9.6,9.6,0,0,1,9.6-9.6h64.3A42.46,42.46,0,0,1,570.2,70V772.3h.1A42.46,42.46,0,0,1,527.8,814.8Z"/><path class="cls-2" d="M523.5,0h-270A64.53,64.53,0,0,0,189,64.5v707A64.53,64.53,0,0,0,253.5,836h270A64.53,64.53,0,0,0,588,771.5V64.5A64.53,64.53,0,0,0,523.5,0Zm4.3,814.8H249.1a42.46,42.46,0,0,1-42.5-42.5V69.9a42.46,42.46,0,0,1,42.5-42.5h64.3A9.6,9.6,0,0,1,323,37V52.2a13.66,13.66,0,0,0,13.7,13.7H440.1a13.72,13.72,0,0,0,13.7-13.7V37.1a9.6,9.6,0,0,1,9.6-9.6h64.3A42.46,42.46,0,0,1,570.2,70V772.3h.1A42.46,42.46,0,0,1,527.8,814.8Z"/></svg>