<?xml version="1.0" encoding="utf-8"?>
<!-- Generator: Adobe Illustrator 25.0.0, SVG Export Plug-In . SVG Version: 6.00 Build 0)  -->
<svg version="1.1" id="Layer_1" xmlns="http://www.w3.org/2000/svg" xmlns:xlink="http://www.w3.org/1999/xlink" x="0px" y="0px"
	 viewBox="0 0 399 836" style="enable-background:new 0 0 399 836;" xml:space="preserve">
<style type="text/css">
	.st0{fill:#FFF8ED;}
	.st1{fill:#263238;}
</style>
<path class="st0" d="M-13-18v872h425V-18H-13z M338.8,814.8H60.1c-23.5,0-42.5-19-42.5-42.4c0,0,0-0.1,0-0.1V69.9
	c0-23.5,19-42.5,42.4-42.5c0,0,0.1,0,0.1,0h64.3c5.3,0,9.6,4.3,9.6,9.6v15.2c0,7.5,6.1,13.7,13.6,13.7c0,0,0.1,0,0.1,0h103.4
	c7.6,0,13.7-6.1,13.7-13.7V37.1c0-5.3,4.3-9.6,9.6-9.6l0,0h64.3c23.5,0,42.5,19,42.5,42.4c0,0,0,0.1,0,0.1v702.3h0.1
	C381.3,795.8,362.3,814.8,338.8,814.8C338.9,814.8,338.8,814.8,338.8,814.8z"/>
<path class="st1" d="M334.5,0h-270C28.9,0,0,28.9,0,64.5v707C0,807.1,28.9,836,64.5,836h270c35.6,0,64.5-28.9,64.5-64.5v-707
	C399,28.9,370.1,0,334.5,0z M338.8,814.8H60.1c-23.5,0-42.5-19-42.5-42.4c0,0,0-0.1,0-0.1V69.9c0-23.5,19-42.5,42.4-42.5
	c0,0,0.1,0,0.1,0h64.3c5.3,0,9.6,4.3,9.6,9.6v15.2c0,7.5,6.1,13.7,13.6,13.7c0,0,0.1,0,0.1,0h103.4c7.6,0,13.7-6.1,13.7-13.7V37.1
	c0-5.3,4.3-9.6,9.6-9.6l0,0h64.3c23.5,0,42.5,19,42.5,42.4c0,0,0,0.1,0,0.1v702.3h0.1C381.3,795.8,362.3,814.8,338.8,814.8
	C338.9,814.8,338.8,814.8,338.8,814.8z"/>
</svg>
