<svg width="109" height="171" viewBox="0 0 109 171" fill="none" xmlns="http://www.w3.org/2000/svg">
<path d="M2.7298 70.548L2.03276 70.0419L2.90943 69.8562L2.83825 68.8827L4.58255 68.0085L5.12482 67.214L5.66257 68.3094L6.65786 68.3561L8.37617 67.5092L8.9546 65.7733L7.89492 65.5783L8.59534 64.6038L9.05176 65.5852L9.47992 65.5647L9.01447 64.3667L10.8684 60.929L10.0651 60.5289L8.97155 61.0623L8.45413 60.6224L10.0256 59.1987L11.3146 59.7743L11.2378 58.3005L11.8783 57.2826L11.6467 56.2249L9.73976 55.5729L9.70926 55.0019L8.10278 54.7237L7.64298 55.3119L7.99545 54.7328L7.38766 53.9019L7.44527 52.5638L7.86215 52.2822L8.30162 52.9228L8.47785 52.1921L7.85198 52.0394L7.76273 50.7617L6.75615 50.593L6.84087 49.5147L6.10429 50.1724L5.73488 49.7062L6.50648 49.4953L6.28505 48.4763L7.17753 49.5272L7.53905 48.2563L8.39538 48.1674L8.3242 48.6199L8.97041 48.8877L9.29125 47.6316L10.9226 46.9854L11.0401 45.6004L11.5281 46.4451L12.7912 46.2821L13.3266 48.2916L14.7998 47.7035L14.9523 46.9363L16.0775 46.9934L15.3714 46.1738L16.2142 45.2471L16.2628 44.2509L19.9706 42.874L21.5985 42.8957L21.3183 40.7653L22.5509 40.2216L22.6254 39.54L21.6742 39.0385L21.9431 38.6566L24.1167 38.643L24.1551 39.0374L25.539 38.4674L26.7387 40.3299H27.8866L27.734 41.1107L28.5068 41.1529L30.0895 40.3129L30.224 38.3159L31.5683 38.3718L32.7376 37.7802L33.5951 38.1005L34.4672 37.5579L35.049 38.61L36.8893 38.0959L37.0181 37.0017L37.8157 37.1179L37.8428 37.9489L38.6551 38.4094L39.3544 38.1802L39.299 36.3087L38.6257 36.2916L39.4448 35.6362L39.4471 34.8588L38.2529 32.9735L39.0596 32.0263L39.0065 30.7075L37.731 29.668L37.9005 28.698L37.2317 28.5122L37.0837 27.6892L37.9648 27.4669L38.4325 25.3377L39.4245 25.8244L39.7464 26.9517L40.831 26.7215L42.3753 28.0072L42.9051 26.6976L43.7852 27.6185L44.3828 26.8355L44.5342 28.4176L45.421 29.1516L48.3391 28.4016L48.9108 29.0035L49.9151 28.1018L50.9059 28.7344L51.2041 29.8207L51.1228 28.5395L52.8264 27.8967L53.5709 28.9932L55.1728 28.511L55.3773 29.4879L56.0732 29.4582L56.6968 28.0289L55.6078 27.8864L55.8722 26.4115L54.9379 26.4639L54.8701 25.5565L55.9162 24.9422L55.1694 24.9206L55.7049 24.2287L55.0881 23.7226L54.8904 22.422L56.8765 22.1895L57.1849 21.1887L58.6174 20.7841L58.5473 19.4687L59.4296 19.4265L59.4308 18.3391L60.6034 18.3117L60.6023 19.7525L61.5773 18.1066L62.7296 20.1093L63.3769 20.3065L63.5565 19.1586L64.2536 18.8862L63.9723 17.7692L65.0851 17.6404L65.6861 16.659L64.4874 15.8976L64.5631 14.8763L66.0318 15.616L68.7194 14.45L68.7488 11.5047L69.622 11.3439L69.4413 10.4936L69.944 9.91L68.8629 9.43585L69.6096 7.72038L70.4083 7.63034L71.2613 8.27432L71.4714 7.74773L72.0589 8.53196L73.2699 8.52291L72.9547 7.46513L74.2426 6.92825L74.7284 5.32223L75.5712 5.39522L75.3159 4.52664L76.4897 3.0802L76.3755 2.12845L78.2012 1L78.7853 1.58815L79.4371 1.15388L79.4394 2.32791L80.394 2.63223L79.1807 4.57795L81.0153 4.6817L81.7011 5.84547L82.7608 5.38382L82.7438 4.67714L83.7007 5.06125L84.9547 5.39522L84.0396 7.32955L84.8316 8.54345L84.8982 9.852L83.6013 10.9907L84.7016 12.0781L85.9771 12.5009L86.1477 13.096L85.9251 13.6681L85.4461 13.3843L85.2767 14.7521L84.5344 14.6188L84.8067 15.5603L84.2407 15.501L83.6962 16.8654L83.1347 16.6477L82.7777 17.2803L82.6263 17.7499L84.0803 18.2081L83.9865 18.6321L81.3452 20.0216L81.0989 22.7549L82.284 23.1322L82.5585 23.7637L83.1686 22.9601L83.6646 23.5517L84.644 23.2199L84.6892 23.9689L86.9091 24.6414L86.8707 25.4563L86.0212 25.2489L86.1319 24.7006L85.8404 25.3788L85.1434 25.5304L85.1355 26.1699L84.2509 25.9214L84.2362 26.5346L82.7596 26.5916L83.3595 27.1673L83.1822 27.9617L82.4987 28.4097L81.3746 28.0028L80.9589 30.0453L81.4435 30.3531L79.6902 31.7483L80.1262 32.0207L79.2089 33.1901L81.6356 34.6184L82.5055 37.0177L81.4175 39.4547L81.8378 42.6736L81.0425 42.5732L80.7081 44.2727L81.735 44.3365L81.6932 45.1697L80.5465 45.5527L80.934 46.1762L81.796 45.9471L81.6728 47.4984L79.9534 47.968L80.5183 49.1398L79.6619 49.3153L79.3592 49.973L77.712 49.7918L77.6024 50.2329L76.2592 50.3708L77.4296 51.9791L78.8078 52.5547L80.4347 52.9753L82.3913 52.6516L84.6881 53.5977L84.6576 54.8503L84.0588 54.5825L83.3211 55.4488L82.5506 55.3211L82.2275 55.7668L82.2558 56.396L82.7755 56.42L82.1338 58.0192L82.2061 59.0758L82.7438 59.3778L82.3021 61.1777L82.7596 61.8775L82.7438 63.8847L76.5823 62.974L74.0879 63.3969L72.2554 64.4159L71.2217 66.0812L72.2057 66.2944L71.7166 68.4794L73.6495 70.3373L73.4416 71.1728L72.6192 70.489L71.3856 70.9574L71.3223 74.2515L70.0287 74.0954L69.9926 74.475L71.3404 75.8462L72.1481 78.6331L73.2858 78.4997L73.4213 79.4207L74.1895 79.5233L74.5736 80.1765L73.5501 81.1065L74.4313 81.7802L74.42 82.8824L73.8145 83.0363L74.333 83.5811L72.5548 86.5413L71.6601 86.4079L71.799 85.8243L70.7066 85.8153L70.2603 86.2872L67.7749 85.837L65.8883 84.3118L65.3517 84.7883L65.5957 86.1322L65.1043 87.28L66.6204 87.7428L67.4846 87.4236L67.1129 91.3492L65.4952 91.9556L65.9143 93.0509L65.0184 96.3018L65.9538 98.1221L66.6124 98.2361L67.6213 99.5743L70.0615 99.3337L69.3611 100.146L69.3091 101.262L68.6358 100.919L67.9275 101.489L67.8326 102.562L69.5113 103.844L68.9148 104.379L69.221 105.163L71.8645 105.177L72.4724 105.915L73.1762 105.819L73.3377 104.003L74.2889 102.773L76.1756 103.426L77.3392 102.935L77.3019 104.282L79.1852 104.448L79.0937 105.409L79.7647 106.344L80.5194 105.851L79.5569 103.814L79.8088 103.087L81.1498 103.458L81.4424 104.378L82.4252 104.388L82.5235 107.342L79.9059 106.992L79.5987 107.865L78.914 107.993L78.8384 108.685L79.9071 108.134L80.0426 108.504L78.4045 110.472L79.7568 110.853L79.5738 111.786L80.8741 111.795L80.3319 112.593L80.7984 113.25L79.9579 113.967L79.924 113.531L78.9287 113.559L79.0575 111.463L78.1052 110.425L74.176 111.237L73.5558 110.001L71.2523 109.73L70.8885 108.634L71.1607 106.809L69.3114 106.404L69.2007 106.976L68.1229 107.145L67.9399 107.829L68.9645 107.922L70.0999 109.437L69.0617 110.477L71.5392 112.85L71.668 113.538L71.1009 113.637L69.9452 115.566L70.5168 117.319L70.963 117.558L71.3166 116.613L72.1142 117.409L72.9468 116.871L74.6335 117.023L74.5307 115.411L73.6235 114.711L74.5375 114.525L74.3827 113.479L74.8809 113.049L74.9227 114.456L75.5407 113.935L75.6966 114.417L76.2242 113.599L76.6173 114.953L77.9527 114.518L78.2622 115.288L79.1953 114.801L80.734 115.059L80.359 115.935L81.5124 115.989L81.3305 118.949L82.1157 118.853L82.2196 118.192L82.8093 118.707L82.9833 117.287L83.8442 117.956L84.7796 117.294L85.3863 117.69L85.7523 117.498L85.1309 117.005L86.0449 116.506L86.5442 116.465L86.3906 117.082L87.143 116.859L87.4548 117.558L87.5519 116.15L89.1042 115.604L89.0466 115.042L90.2689 114.439L89.7639 113.266L90.0464 112.624L91.6709 112.714L92.2527 113.544L93.5497 112.241L93.8242 113.639L92.9825 113.959L93.0322 115.432L93.5338 115.426L93.9925 114.413L95.2375 114.627L95.3166 113.799L97.0292 114.919L97.1399 116.479L96.3525 117.54L96.9309 118.108L96.836 118.738L95.8588 118.646L95.7233 119.163L96.2531 119.936L98.0268 119.61L98.1397 120.227L98.9305 120.404L98.6775 121.861L99.7281 121.11L103.585 121.331L102.742 126.768L103.741 127.322L103.022 127.622L103.596 128.021L104.381 127.646L104.654 128.151L105.5 127.918L106.66 129.193L107.484 128.125L108 129.036L107.792 130.443L107.136 130.857L107.801 131.605L106.374 132.503L106.828 133.045L106.213 133.427L106.276 134.131L105.022 134.647L105.172 136.308L104.339 136.178L104.649 137.831L103.29 137.964L102.512 137.164L101.511 139.132L100.044 139.126L99.5609 141.431L97.1964 141.007L95.4476 139.249L94.6952 139.163L94.3778 140.389L93.9033 140.385L93.056 139.079L92.5645 139.945L92.1963 139.743L92.7927 138.914L92.3973 138.371L89.2556 139.455L89.6013 140.597L87.9914 143.583L87.3384 143.346L86.7363 143.946L86.1669 143.335L84.6542 143.738L84.8316 144.626L84.174 146.158L84.374 147.395L85.0327 147.57L84.2995 148.333L85.4778 148.118L85.3569 149.789L84.9728 151.115L83.5279 152.816L81.8129 153.346L81.7056 154.792L87.8705 155.64L88.8658 157.137L86.9972 159.455L86.3115 161.195L82.1473 161.334L81.97 162.701L81.3994 162.396L81.4819 163.594L80.6064 165.736L79.1931 165.056L78.4034 165.535L77.4273 164.581L76.4083 164.482L76.0604 164.935L73.1219 165.434L73.2756 166.651L72.3842 166.355L72.0272 165.094L71.2184 165.395L71.4386 164.93L70.7947 164.468L70.0457 164.515L69.7339 165.385L68.3172 164.946L66.6339 168.315L67.1638 169.339L66.8418 170L66.3504 169.451L64.6885 169.128L60.286 169.138L59.8205 167.677L58.9642 167.01L57.7147 168.049L57.055 167.947L56.4155 166.936L56.9476 166.548L56.6822 165.67L54.9638 166.219L53.4749 164.453L52.2096 164.538L51.3939 162.995L49.5976 163.3L49.5942 160.406L46.9112 161.553L44.1275 161.131L42.8893 160.075L42.3053 157.969L40.3508 158.189L39.9859 157.262L39.0596 157.483L38.4133 156.241L37.0362 156.038L34.8106 152.753L33.307 152.747L33.3601 150.797L32.0406 149.82L32.0643 148.738L33.3861 148.533L33.1963 147.643L31.4542 148.63L31.313 147.799L30.0421 147.121L29.9404 146.005L31.147 145.495L29.937 144.852L28.6649 146.042L28.1577 144.525L27.1579 144.721L26.7749 144.325L26.9568 143.28L25.4305 142.759L25.3594 143.522L24.5245 143.676L24.5686 142.348L23.562 142.481L23.6817 142.149L23.0332 141.979L23.597 141.236L23.2106 140.507L20.2496 141.382L19.1594 139.002L16.1837 126.945L15.6053 119.97L14.0948 114.288L13.2272 112.333L12.3133 111.885L11.6049 110.474L10.8819 106.543L10.1916 105.558L8.10957 98.7249L9.04271 98.0308L8.366 97.4802L8.16152 98.2565L7.06457 98.2906L6.71096 96.3108L6.11898 95.6907L6.48049 95.3647L6.04668 93.533L5.2909 92.7225L4.5882 93.4589L2 91.4779L2.66315 91.3274L2.84051 90.3118L2.39314 90.2981L2.04519 89.099L3.03822 88.4903L3.89003 88.773L3.81321 87.7403L4.75201 88.4675L6.13028 87.3562L5.93144 86.7646L6.89284 85.5587L6.32573 84.1829L6.5912 83.0214L7.35491 82.0172L6.99565 81.0552L5.83316 80.2082L7.8226 79.3409L7.50854 77.5126L6.4274 76.9871L6.42401 75.6466L5.80492 74.5045L6.53585 73.6064L5.75634 72.6261L6.093 71.5501L5.77894 70.4513L5.21859 70.1481L4.78477 70.5789L4.23912 69.7924L3.84371 70.5049L2.7298 70.5482V70.548Z" fill="#CECECE" stroke="#CBCBCB"/>
</svg>
