<svg width="97" height="175" viewBox="0 0 97 175" fill="none" xmlns="http://www.w3.org/2000/svg">
<path d="M1 2.39756L5.70308 1L6.31675 2.16461L5.42137 3.35116L6.45135 3.62225L6.26114 4.15186L7.85992 3.93887L7.78994 6.05897L9.11598 5.81323L9.22903 4.59581L11.6532 5.42749L11.3644 7.09625L11.9727 7.72772L13.5607 7.41463L14.3664 9.83679L16.3868 7.93696L18.3086 8.96333L16.3922 9.77858L16.5537 11.5601L18.5724 12.6429L18.7967 13.9695L21.5636 12.3936L21.8651 13.8148L19.7657 14.1406L19.728 15.8693L21.8238 17.4288L21.7395 20.5425L24.1278 20.5516L27.6627 25.7961L29.8501 26.12L30.8765 28.1036L32.3479 27.7506L32.9274 29.2301L36.0317 28.8788L36.9594 32.2417L38.9261 33.9269L43.3474 34.6001L47.6091 32.7694L47.6145 37.3898L50.4675 36.9021L51.7631 39.3662L53.7728 39.2314L56.1378 42.0502L58.8671 41.1731L59.2887 42.5761L58.4436 43.1948L59.4592 44.809L59.5094 46.2029L57.8281 46.2374L56.7048 47.7715L54.7436 48.483L53.7315 47.3802L52.034 48.4794L52.5723 52.5266L53.9971 51.9515L55.6067 53.1053L56.0875 52.563L58.9693 53.5329L60.3958 55.5474L62.6909 56.8885L63.7693 56.6975L63.8446 58.9849L60.3223 61.3743L60.5609 63.3142L61.8708 62.4425L66.9561 63.1031L69.732 61.3397L70.8069 62.2078L69.5149 64.6899L71.3021 65.5853L71.2411 68.4313L73.3208 68.6279L70.0927 69.0519L67.9376 73.1846L74.2628 75.5886L75.1223 77.6739L76.9203 77.9742L77.2666 79.0952L75.6894 82.773L76.3317 84.5381L73.7909 84.6564L74.7204 86.247L73.8788 92.7964L75.0811 94.9218L74.3418 97.4004L75.0506 98.0773L76.0178 97.5987L75.9424 98.4831L77.5645 100.11L80.0174 100.73L82.5618 99.211L83.0625 97.7752L87.2362 95.4368L89.4595 95.6679L89.1724 96.9946L90.5271 98.9981L90.3764 100.272L91.6504 100.785L90.8734 104.174L88.1693 105.196L90.4338 107.975L90.8447 110.545L89.9314 110.95L88.5946 113.902L89.5169 114.553L88.9624 115.878L89.9027 116.877L88.9947 117.209L88.9355 119.445L88.2483 119.682L86.8199 123.887L88.4744 123.958L90.694 125.463L92.5458 124.386L93.3156 125.53L93.9203 124.308L94.2828 126.946L96 128.087L95.3361 129.845L93.6709 130.6L92.8096 134.558L91.7886 134.576L91.139 135.978V139.124L90.005 140.262L90.5738 141.648L88.4744 143.739L87.9576 145.73L86.0824 146.676L87.8858 149.16L87.8948 150.358L88.8063 150.294L90.2436 152.521L89.1795 155.72L87.7476 157.28L86.9509 157.182L91.0762 164.841L90.4141 166.222L88.1209 166.528L88.984 168.657L86.1793 170.921L87.1124 173.449L85.6948 173.048L84.7385 174L80.1718 170.668L67.2845 153.402L64.0707 150.869L63.0372 146.421L56.2455 131.181L52.4683 110.084L53.064 109.924L54.6592 112.987L57.0978 115.611L57.1014 120.264L58.2085 121.041L56.9668 126.982L57.9465 127.705V126.955L62.402 126.753L59.1775 125.421L59.7086 123.683L59.3748 122.18L58.675 122.297L59.0931 120.399L57.9232 120.142L57.7258 113.944L56.328 111.842L55.7125 112.044L56.1521 113.209L55.5259 113.025L52.9276 107.604L53.4911 105.702L51.2786 103.096L52.698 109.482L51.9676 109.631L47.2825 94.1119L40.1768 78.2618L38.2047 69.5469L33.6255 56.6301L31.6319 52.9633L29.179 51.8477L26.3618 43.9372L21.2083 37.8919L19.3404 37.064L15.9795 31.4026L14.6553 30.6984L13.5589 31.4227L12.8178 27.9505L4.99251 12.3132L1 2.39734V2.39756Z" fill="#CECECE" stroke="#CECECE"/>
</svg>
