<svg width="277" height="52" viewBox="0 0 277 52" fill="none" xmlns="http://www.w3.org/2000/svg">
<path d="M66.4469 44.8714H65.2944V41.0192H61.1536V44.8714H60V36.1357H61.1536V40.0837H65.2944V36.1357H66.4469V44.8714ZM78.6997 41.2833C78.7313 42.2652 78.3839 43.2202 77.733 43.9414C77.4109 44.2901 77.0201 44.5647 76.5866 44.7468C76.1531 44.929 75.6867 45.0146 75.2184 44.998C74.7632 45.013 74.3102 44.9263 73.891 44.7438C73.4717 44.5614 73.0963 44.2875 72.7909 43.9414C72.1599 43.21 71.8263 42.2589 71.8585 41.2833V39.7292C71.8272 38.7539 72.1608 37.8031 72.7909 37.0712C73.0953 36.7234 73.4704 36.4482 73.8898 36.2649C74.3092 36.0816 74.7627 35.9947 75.2184 36.0102C75.6869 35.9926 76.1537 36.0779 76.5874 36.2603C77.021 36.4428 77.4116 36.7181 77.733 37.0679C78.3837 37.7902 78.7309 38.7457 78.6997 39.7281V41.2822V41.2833ZM77.5461 39.7171C77.5741 39.0039 77.349 38.3044 76.9123 37.7481C76.7056 37.4954 76.4452 37.2946 76.1511 37.161C75.8569 37.0275 75.5367 36.9647 75.2152 36.9777C74.9063 36.9663 74.5991 37.0302 74.319 37.1641C74.0389 37.298 73.7939 37.4982 73.604 37.7481C73.1861 38.3128 72.9734 39.0091 73.0024 39.7171V41.2833C72.9717 41.9953 73.1845 42.696 73.604 43.2645C73.7939 43.5144 74.0389 43.7145 74.319 43.8485C74.5991 43.9824 74.9063 44.0463 75.2152 44.0349C75.5372 44.0479 75.8578 43.9852 76.1525 43.8516C76.4472 43.7181 76.7082 43.5173 76.9156 43.2645C77.3518 42.7036 77.5754 41.9999 77.545 41.2833V39.7171H77.5461ZM88.3401 43.2326H88.3756L91.0974 36.1346H92.5325V44.8714H91.3821V38.327L91.3466 38.3204L88.7687 44.8703H87.9684L85.311 38.1025L85.2745 38.1091V44.8714H84.1219V36.1357H85.6386L88.3487 43.2337L88.3401 43.2326ZM102.934 40.8211H99.4327V43.9469H103.532V44.8703H98.2802V36.1346H103.467V37.0646H99.4381V39.8899H102.94V40.82L102.934 40.8211ZM115.083 43.2326H115.121L117.842 36.1346H119.277V44.8714H118.124V38.327L118.088 38.3204L115.51 44.8703H114.71L112.052 38.1025L112.016 38.1091V44.8714H110.864V36.1357H112.38L115.09 43.2337L115.083 43.2326ZM129.532 42.6206H126.324L125.563 44.8703H124.382L127.455 36.1346H128.445L131.453 44.8703H130.271L129.519 42.6206H129.532ZM126.659 41.63H129.205L127.964 37.8802H127.929L126.66 41.63H126.659ZM136.464 44.8692V36.1335H139.149C139.643 36.111 140.137 36.1931 140.599 36.3747C141.061 36.5563 141.482 36.8335 141.834 37.189C142.174 37.5481 142.44 37.9742 142.614 38.4415C142.789 38.9088 142.869 39.4076 142.85 39.9075V41.1017C142.869 41.6021 142.79 42.1013 142.615 42.5691C142.441 43.0368 142.175 43.4633 141.834 43.8225C141.48 44.1758 141.059 44.451 140.598 44.631C140.136 44.811 139.643 44.8921 139.149 44.8692H136.464ZM137.616 37.0635V43.9458H139.145C139.494 43.963 139.842 43.9003 140.165 43.7623C140.488 43.6243 140.776 43.4144 141.009 43.1478C141.478 42.5768 141.721 41.8471 141.692 41.1017V39.891C141.72 39.1496 141.477 38.424 141.009 37.8571C140.776 37.5902 140.488 37.38 140.165 37.2418C139.843 37.1035 139.494 37.0408 139.145 37.058L137.616 37.0635ZM152.989 40.8189H149.488V43.9447H153.587V44.8681H148.334V36.1324H153.522V37.0624H149.488V39.8877H152.989V40.8178V40.8189ZM165.664 41.0049H162.061V44.8681H160.907V36.1324H166.253V37.0624H162.064V40.0748H165.659V41.0049H165.664ZM177.796 41.2811C177.826 42.2628 177.479 43.2175 176.829 43.9392C176.507 44.288 176.116 44.5626 175.683 44.7447C175.249 44.9269 174.783 45.0125 174.314 44.9958C173.859 45.0108 173.406 44.9241 172.987 44.7416C172.568 44.5592 172.192 44.2853 171.887 43.9392C171.256 43.2078 170.922 42.2567 170.954 41.2811V39.727C170.923 38.7517 171.257 37.8009 171.887 37.069C172.191 36.7212 172.566 36.446 172.986 36.2627C173.405 36.0794 173.859 35.9925 174.314 36.008C174.783 35.9904 175.25 36.0757 175.683 36.2581C176.117 36.4406 176.508 36.7159 176.829 37.0657C177.48 37.788 177.827 38.7435 177.796 39.7259V41.28V41.2811ZM176.642 39.7149C176.67 39.0017 176.445 38.3022 176.008 37.7459C175.802 37.4932 175.541 37.2924 175.247 37.1588C174.953 37.0253 174.633 36.9625 174.311 36.9755C174.002 36.9641 173.695 37.028 173.415 37.1619C173.135 37.2958 172.89 37.496 172.7 37.7459C172.282 38.3106 172.069 39.0069 172.098 39.7149V41.2811C172.068 41.9931 172.28 42.6938 172.7 43.2623C172.89 43.5122 173.135 43.7123 173.415 43.8463C173.695 43.9802 174.002 44.0441 174.311 44.0327C174.633 44.0457 174.954 43.983 175.248 43.8494C175.543 43.7159 175.804 43.5151 176.011 43.2623C176.448 42.7014 176.671 41.9977 176.641 41.2811V39.7149H176.642ZM189.72 41.2811C189.75 42.2628 189.403 43.2175 188.753 43.9392C188.431 44.2879 188.04 44.5625 187.607 44.7446C187.173 44.9268 186.707 45.0124 186.238 44.9958C185.783 45.0108 185.33 44.9241 184.911 44.7416C184.492 44.5592 184.116 44.2853 183.811 43.9392C183.18 43.2078 182.846 42.2567 182.878 41.2811V39.727C182.847 38.7517 183.181 37.8009 183.811 37.069C184.115 36.7212 184.49 36.446 184.91 36.2627C185.329 36.0794 185.783 35.9925 186.238 36.008C186.707 35.9904 187.174 36.0757 187.607 36.2581C188.041 36.4406 188.432 36.7159 188.753 37.0657C189.404 37.788 189.751 38.7435 189.72 39.7259V41.28V41.2811ZM188.566 39.7149C188.594 39.0017 188.369 38.3022 187.932 37.7459C187.726 37.4932 187.465 37.2924 187.171 37.1588C186.877 37.0253 186.557 36.9625 186.235 36.9755C185.926 36.9641 185.619 37.028 185.339 37.1619C185.059 37.2958 184.814 37.496 184.624 37.7459C184.206 38.3106 183.993 39.0069 184.022 39.7149V41.2811C183.992 41.9931 184.204 42.6938 184.624 43.2623C184.814 43.5122 185.059 43.7123 185.339 43.8463C185.619 43.9802 185.926 44.0441 186.235 44.0327C186.557 44.0457 186.878 43.983 187.172 43.8494C187.467 43.7159 187.728 43.5151 187.935 43.2623C188.372 42.7014 188.595 41.9977 188.565 41.2811V39.7149H188.566ZM195.133 44.8681V36.1324H197.819C198.313 36.1099 198.807 36.192 199.269 36.3736C199.731 36.5552 200.151 36.8324 200.504 37.1879C200.844 37.547 201.109 37.9731 201.284 38.4404C201.458 38.9077 201.538 39.4065 201.519 39.9064V41.1006C201.539 41.601 201.459 42.1002 201.285 42.568C201.11 43.0357 200.844 43.4622 200.504 43.8214C200.15 44.1747 199.729 44.4499 199.267 44.6299C198.805 44.8099 198.312 44.891 197.819 44.8681H195.133ZM196.286 37.0624V43.9447H197.814C198.163 43.9619 198.512 43.8992 198.835 43.7612C199.157 43.6232 199.446 43.4133 199.679 43.1467C200.148 42.5757 200.391 41.846 200.361 41.1006V39.8899C200.39 39.1485 200.146 38.4229 199.679 37.856C199.446 37.5891 199.157 37.3789 198.835 37.2407C198.512 37.1024 198.164 37.0397 197.814 37.0569L196.286 37.0624ZM213.756 42.6668C213.759 42.4799 213.724 42.2944 213.652 42.1225C213.581 41.9506 213.474 41.7963 213.34 41.6697C212.91 41.328 212.408 41.0936 211.875 40.9851C211.134 40.8276 210.44 40.4952 209.847 40.0143C209.614 39.8191 209.428 39.5726 209.302 39.2932C209.175 39.0138 209.112 38.7087 209.118 38.4008C209.113 38.0736 209.181 37.7495 209.317 37.4533C209.453 37.1572 209.653 36.8966 209.902 36.6915C210.478 36.2162 211.204 35.9731 211.943 36.008C212.333 35.9871 212.724 36.0455 213.093 36.1798C213.461 36.3141 213.801 36.5217 214.091 36.7906C214.342 37.0188 214.541 37.3005 214.675 37.6158C214.809 37.9312 214.874 38.2727 214.866 38.6165L214.849 38.6528H213.749C213.755 38.4224 213.713 38.1934 213.625 37.9811C213.538 37.7689 213.407 37.5783 213.241 37.4223C212.888 37.0923 212.422 36.918 211.945 36.937C211.498 36.9053 211.056 37.0489 210.708 37.3387C210.567 37.4702 210.455 37.6318 210.381 37.8122C210.307 37.9927 210.272 38.1875 210.279 38.3832C210.278 38.5685 210.32 38.7515 210.402 38.9167C210.484 39.0819 210.603 39.2246 210.75 39.333C211.213 39.6552 211.733 39.8825 212.281 40.0022C213.009 40.1604 213.684 40.5076 214.243 41.0104C214.461 41.2212 214.634 41.4763 214.75 41.7595C214.866 42.0427 214.923 42.3477 214.917 42.6547C214.925 42.9836 214.856 43.3097 214.714 43.6052C214.573 43.9007 214.365 44.1569 214.106 44.3519C213.491 44.803 212.746 45.0297 211.99 44.9958C211.207 45.0071 210.441 44.7584 209.807 44.287C209.509 44.0779 209.268 43.7936 209.107 43.4615C208.947 43.1293 208.873 42.7606 208.892 42.3906L208.904 42.3542H210.005C209.993 42.6011 210.043 42.8469 210.15 43.0688C210.256 43.2907 210.415 43.4814 210.613 43.6233C211.013 43.92 211.496 44.0767 211.99 44.0701C212.451 44.0959 212.908 43.9635 213.287 43.6937C213.442 43.5747 213.565 43.4192 213.648 43.2407C213.731 43.0621 213.771 42.8656 213.764 42.6679L213.756 42.6668ZM224.948 40.8178H221.447V43.9436H225.545V44.867H220.294V36.1313H225.482V37.0613H221.447V39.8866H224.948V40.8167V40.8178ZM231.815 41.0819V44.8714H230.663V36.1423H233.578C234.341 36.0888 235.098 36.3142 235.714 36.7785C235.966 37.0086 236.164 37.2945 236.292 37.6145C236.42 37.9345 236.476 38.2801 236.454 38.6253C236.463 39.0423 236.342 39.4514 236.111 39.7942C235.856 40.148 235.511 40.4223 235.113 40.5866C235.529 40.7036 235.888 40.9741 236.121 41.3461C236.338 41.7419 236.444 42.1912 236.429 42.6448V43.4659C236.425 43.7132 236.454 43.9599 236.517 44.1989C236.567 44.4011 236.672 44.5844 236.821 44.7272V44.8703H235.632C235.468 44.7121 235.364 44.4995 235.339 44.2704C235.296 44.0012 235.275 43.7288 235.276 43.456V42.6569C235.294 42.237 235.149 41.8268 234.872 41.5167C234.731 41.3714 234.562 41.2581 234.375 41.1838C234.189 41.1095 233.989 41.0759 233.789 41.0852L231.815 41.0819ZM231.815 40.1508H233.46C233.958 40.1963 234.457 40.062 234.869 39.7711C235.02 39.6222 235.137 39.4408 235.211 39.24C235.286 39.0392 235.315 38.824 235.299 38.6099C235.311 38.4001 235.281 38.1898 235.209 37.993C235.137 37.7961 235.025 37.617 234.881 37.4675C234.513 37.1672 234.047 37.0223 233.578 37.0624H231.815V40.1519V40.1508ZM244.518 42.5722L244.712 43.2975H244.747L244.941 42.5722L247.141 36.128H248.388L245.223 44.8637H244.231L241.066 36.128H242.317L244.519 42.5722H244.518ZM254.54 44.8637H253.381V36.128H254.54V44.8714V44.8637ZM266.486 42.0692L266.498 42.1033C266.514 42.4888 266.447 42.8733 266.301 43.2291C266.156 43.5849 265.935 43.9033 265.655 44.1615C265.026 44.733 264.205 45.0307 263.365 44.9914C262.921 45.005 262.479 44.9178 262.072 44.7361C261.664 44.5544 261.301 44.2826 261.008 43.9403C260.389 43.2012 260.064 42.2501 260.099 41.2767V39.7226C260.065 38.7487 260.39 37.7972 261.008 37.0569C261.301 36.714 261.664 36.4418 262.071 36.2598C262.479 36.0779 262.921 35.9908 263.365 36.0047C264.202 35.9595 265.024 36.2411 265.667 36.7928C265.949 37.0553 266.171 37.3795 266.315 37.7415C266.459 38.1034 266.521 38.4939 266.498 38.884L266.486 38.9203H265.38C265.393 38.6543 265.354 38.3884 265.263 38.1387C265.173 37.8891 265.033 37.661 264.854 37.4686C264.653 37.2819 264.418 37.1383 264.162 37.0464C263.906 36.9545 263.635 36.9162 263.365 36.9337C263.064 36.9255 262.765 36.9943 262.497 37.1338C262.228 37.2733 261.997 37.4791 261.826 37.7327C261.429 38.3115 261.228 39.0071 261.252 39.7138V41.28C261.227 41.9906 261.428 42.6902 261.826 43.2733C261.998 43.5262 262.229 43.7313 262.497 43.8702C262.766 44.0091 263.064 44.0774 263.365 44.069C263.635 44.0866 263.906 44.0488 264.161 43.9577C264.417 43.8666 264.652 43.7241 264.854 43.5385C265.034 43.3439 265.174 43.1134 265.265 42.8613C265.355 42.6092 265.394 42.3407 265.38 42.0725L266.486 42.0692ZM276.403 40.8134H272.901V43.9392H277V44.8626H271.749V36.1269H276.936V37.0569H272.901V39.8822H276.403V40.8123V40.8134Z" fill="currentColor"/>
<path fill-rule="evenodd" clip-rule="evenodd" d="M10.9233 14.8458L10.9392 7.66226C10.946 4.41487 14.6367 5.11117 14.6367 7.7038L14.6896 12.4503C13.3626 13.1296 12.102 13.9314 10.9241 14.845L10.9233 14.8458ZM20.0104 10.4882C20.1199 6.73185 19.9772 4.29555 17.8047 2.17342C16.7136 1.05548 15.2884 0.322696 13.7442 0.0856541C12.1999 -0.151388 10.6205 0.120172 9.24416 0.859356C8.07494 1.50033 7.10483 2.45082 6.44021 3.60659C5.77559 4.76237 5.44212 6.0788 5.47638 7.41153L5.46128 20.79C2.95568 24.6586 1.62614 29.1708 1.63382 33.7796C1.63382 34.1036 1.64214 34.4253 1.65498 34.7455C1.90258 28.5666 4.53199 22.7232 8.99245 18.4393C13.4529 14.1553 19.3984 11.7631 25.5835 11.7638C31.7685 11.7629 37.714 14.1548 42.1745 18.4385C46.6351 22.7221 49.2648 28.5653 49.5128 34.744C49.5249 34.4238 49.5339 34.1021 49.5339 33.7781C49.5417 29.1693 48.2125 24.6572 45.7073 20.7885L45.6921 7.40927C45.7264 6.07654 45.3929 4.7601 44.7283 3.60432C44.0637 2.44855 43.0936 1.49806 41.9244 0.857086C40.548 0.117901 38.9686 -0.153658 37.4244 0.0833839C35.8801 0.320426 34.4549 1.05321 33.3638 2.17115C31.1914 4.29479 31.0493 6.72958 31.1589 10.4867C29.3331 10.0518 27.4627 9.83226 25.5858 9.83273C23.7089 9.83195 21.8384 10.0512 20.0127 10.486L20.0104 10.4882ZM36.4774 12.4518C37.8043 13.1316 39.0649 13.9336 40.2429 14.8473L40.2271 7.66302C40.2195 4.41563 36.5295 5.11192 36.5295 7.70455L36.4774 12.451V12.4518Z" fill="currentColor"/>
<path fill-rule="evenodd" clip-rule="evenodd" d="M22.718 23.7398C22.718 20.2417 28.4498 20.4215 28.4498 23.7398V36.3737C28.4498 39.6966 22.718 39.8718 22.718 36.3737V23.7398ZM32.071 32.7472C32.0612 41.0371 30.6358 50.5376 39.3089 51.9061C46.9291 52.7217 49.3085 48.096 50.4068 43.0966C52.4795 35.5128 50.3766 25.754 43.4635 18.8741C38.6043 14.3353 32.2336 11.7606 25.5847 11.6482C18.9359 11.7596 12.565 14.3332 7.70512 18.871C0.792756 25.7502 -1.31018 35.5097 0.761796 43.0935C1.8601 48.093 4.23648 52.7187 11.8596 51.903C20.535 50.5346 19.1074 41.0341 19.0976 32.7442L19.1467 21.6313C19.1467 18.6105 22.3774 17.1084 25.5839 17.1386C28.7904 17.1084 32.0212 18.6105 32.0212 21.6313L32.0703 32.7442L32.071 32.7472ZM6.61513 41.4472C5.78423 35.4871 6.47464 28.1336 12.6067 23.733V43.595C12.6067 46.4648 7.44528 47.4088 6.61513 41.4479V41.4472ZM44.5844 41.4472C45.4153 35.4871 44.7249 28.1336 38.5928 23.733V43.595C38.5928 46.4648 43.7543 47.4088 44.5844 41.4479V41.4472Z" fill="url(#paint0_linear)"/>
<path d="M76.9403 20.7721V17.2294H73.4325V20.7721H76.9403ZM61 7.00077V31H64.4964V10.5258H84.8001V7L61 7.00077ZM97.5496 7.00077C94.3949 7.00441 91.3703 8.26979 89.1395 10.5193C86.9088 12.7688 85.6539 15.8187 85.6503 19C85.6537 22.1814 86.9085 25.2315 89.1393 27.4812C91.3701 29.7309 94.3947 30.9964 97.5496 31C100.705 30.9966 103.73 29.7312 105.96 27.4815C108.191 25.2318 109.446 22.1815 109.45 19C109.446 15.8186 108.191 12.7685 105.96 10.519C103.729 8.2695 100.705 7.00421 97.5496 7.00077ZM97.5496 27.475C95.3215 27.4729 93.1852 26.5795 91.6096 24.9907C90.0341 23.4019 89.148 21.2476 89.146 19.0008C89.148 16.7539 90.0341 14.5996 91.6096 13.0108C93.1852 11.4221 95.3215 10.5286 97.5496 10.5266C99.7778 10.5286 101.914 11.4221 103.49 13.0108C105.065 14.5996 105.951 16.7539 105.953 19.0008C105.951 21.2476 105.065 23.4019 103.49 24.9907C101.914 26.5795 99.7778 27.4729 97.5496 27.475ZM123.9 7.00077C120.745 7.00441 117.72 8.26979 115.49 10.5193C113.259 12.7688 112.004 15.8187 112 19C112.004 22.1814 113.259 25.2315 115.489 27.4812C117.72 29.7309 120.745 30.9964 123.9 31C127.054 30.9955 130.078 29.7297 132.308 27.4801C134.538 25.2305 135.793 22.1809 135.796 19C135.792 15.8186 134.537 12.7685 132.306 10.519C130.076 8.2695 127.051 7.00421 123.896 7.00077H123.9ZM123.9 27.475C121.672 27.4729 119.535 26.5795 117.96 24.9907C116.384 23.4019 115.498 21.2476 115.496 19.0008C115.498 16.7539 116.384 14.5996 117.96 13.0108C119.535 11.4221 121.672 10.5286 123.9 10.5266C126.128 10.5286 128.264 11.4221 129.84 13.0108C131.415 14.5996 132.301 16.7539 132.303 19.0008C132.301 21.2476 131.415 23.4019 129.84 24.9907C128.264 26.5795 126.128 27.4729 123.9 27.475ZM151.1 7.00077H139.2V31H151.1C154.255 30.9966 157.28 29.7312 159.511 27.4815C161.742 25.2318 162.997 22.1815 163 19C162.996 15.8186 161.741 12.7685 159.511 10.519C157.28 8.2695 154.255 7.00421 151.1 7.00077ZM151.1 27.475H142.698V10.5266H151.101C153.33 10.5286 155.466 11.4221 157.041 13.0108C158.617 14.5996 159.503 16.7539 159.505 19.0008C159.503 21.2476 158.617 23.4019 157.041 24.9907C155.466 26.5795 153.33 27.4729 151.101 27.475H151.1Z" fill="currentColor"/>
<path d="M192.655 7V27.4141C190.136 27.1656 187.781 26.0326 185.994 24.2098C184.976 23.1772 184.168 21.9496 183.619 20.598C183.069 19.2463 182.788 17.7973 182.792 16.3347V13.9156H179.327V16.3431C179.333 17.8059 179.052 19.2553 178.503 20.6072C177.953 21.959 177.145 23.1864 176.126 24.2182C174.34 26.0419 171.984 27.1751 169.465 27.4225V7.00841H166V30.9999H168.387C170.28 31.0057 172.155 30.6295 173.904 29.8931C175.653 29.1567 177.241 28.0748 178.575 26.7099C179.56 25.7121 180.398 24.5749 181.064 23.3336C181.725 24.5757 182.56 25.7131 183.544 26.7099C184.879 28.0742 186.467 29.1558 188.216 29.8922C189.965 30.6285 191.84 31.005 193.732 30.9999H196.12V7.00841L192.655 7ZM211.29 7C208.163 7.00344 205.165 8.26832 202.954 10.5171C200.743 12.7659 199.499 15.815 199.496 18.9954V30.9915H202.961V18.9954C202.963 16.7492 203.841 14.5957 205.403 13.0074C206.964 11.4191 209.082 10.5259 211.29 10.5239C213.498 10.5259 215.616 11.4191 217.177 13.0074C218.739 14.5957 219.617 16.7492 219.619 18.9954V30.9915H223.084V18.9954C223.081 15.815 221.837 12.7659 219.626 10.5171C217.415 8.26832 214.417 7.00344 211.29 7ZM213.031 25.6969V22.1607H209.549V25.6969H213.031ZM229.919 27.4676V7H226.453V30.9915H250.042V27.4668L229.919 27.4676ZM265.206 7C262.08 7.00344 259.082 8.26832 256.871 10.5171C254.659 12.7659 253.416 15.815 253.412 18.9954V30.9915H256.877V18.9954C256.879 16.7492 257.758 14.5957 259.319 13.0074C260.881 11.4191 262.998 10.5259 265.206 10.5239C267.415 10.5261 269.532 11.4194 271.093 13.0077C272.655 14.5959 273.533 16.7494 273.535 18.9954V30.9915H277V18.9954C276.996 15.815 275.753 12.7659 273.542 10.5171C271.33 8.26832 268.333 7.00344 265.206 7H265.206ZM266.948 25.6969V22.1607H263.466V25.6969H266.948Z" fill="url(#paint1_linear)"/>
<defs>
<linearGradient id="paint0_linear" x1="0" y1="31.8241" x2="51.169" y2="31.8241" gradientUnits="userSpaceOnUse">
<stop stop-color="#DD8B3E"/>
<stop offset="1" stop-color="#E6A730"/>
</linearGradient>
<linearGradient id="paint1_linear" x1="166" y1="19" x2="277" y2="19" gradientUnits="userSpaceOnUse">
<stop stop-color="#DD8B3E"/>
<stop offset="1" stop-color="#E6A730"/>
</linearGradient>
</defs>
</svg>
