<svg width="48" height="48" viewBox="0 0 48 48" fill="none" xmlns="http://www.w3.org/2000/svg">
<g clip-path="url(#clip0)">
<path d="M38.2106 8.21971C35.2975 3.19246 30.1233 0.121111 24.3694 0.00373584C24.1238 -0.00132666 23.8765 -0.00132666 23.6308 0.00373584C17.877 0.121111 12.7028 3.19246 9.78958 8.21971C6.81189 13.3583 6.73042 19.5308 9.57161 24.7312L21.4744 46.5175C21.4797 46.5272 21.4851 46.5368 21.4906 46.5464C22.0143 47.4566 22.9525 48 24.0003 48C25.048 48 25.9862 47.4565 26.5098 46.5464C26.5153 46.5368 26.5207 46.5272 26.526 46.5175L38.4288 24.7312C41.2698 19.5308 41.1883 13.3583 38.2106 8.21971ZM24.0001 21.75C20.2781 21.75 17.2501 18.722 17.2501 15C17.2501 11.278 20.2781 8.24999 24.0001 8.24999C27.7221 8.24999 30.7501 11.278 30.7501 15C30.7501 18.722 27.7222 21.75 24.0001 21.75Z" fill="#F8AE6A"/>
</g>
<defs>
<clipPath id="clip0">
<rect width="48" height="48" fill="white"/>
</clipPath>
</defs>
</svg>
