<svg width="167" height="139" viewBox="0 0 167 139" fill="none" xmlns="http://www.w3.org/2000/svg">
<path d="M30.301 1.7406L31.4084 2.36552L33.2138 2.1422L33.4635 1.44577L34.5293 1.18721L35.2118 0.286064L36.3811 0.145996L36.4344 1.3635L37.3414 1.72983L38.0316 2.7338L37.5486 4.96508L37.7025 6.73111L38.5359 6.91523L38.6676 7.71159L43.3731 9.27972L45.618 8.84875L48.7766 10.2808L49.9392 12.5884L52.0621 13.6551L53.6787 13.5513L53.7242 14.1292L54.9294 13.8226L55.6796 14.2663L57.0977 14.0204L58.7134 14.4955L59.9447 14.0028L61.2515 14.3231L65.6018 13.901L67.2358 14.0244L68.9308 14.9284L69.8688 14.4632L71.0953 16.9746L70.7952 17.435L71.3683 18.5242L71.2492 18.9081L70.1776 19.0413L71.3663 20.7897L73.1804 20.5703L73.5783 20.9935L75.495 20.9494L77.0419 20.1296L77.7446 18.3538L80.5006 18.4282L81.2653 16.4653L80.5248 15.3125L83.7599 12.4347L83.9148 11.9234L83.3301 11.2055L83.8345 10.8215L83.9864 9.56383L84.7609 9.6618L85.1384 9.18086L86.1306 9.49233L89.6 6.81442L91.3318 7.02305L91.6096 6.71844L92.3376 7.44815L92.686 6.92413L93.8728 6.78502L93.9348 5.93974L97.7691 5.74873L99.1205 7.29438L99.711 8.91639L99.7042 10.3288L100.436 10.7637L99.6229 11.0487L97.4042 10.4611L96.5823 10.9753L97.015 12.2937L97.6433 12.6433L98.0024 14.378L99.9762 14.668L100.389 14.6131L100.323 14.0313L101.324 14.0352L101.653 14.5142L102.137 13.9539L102.423 14.7865L103.003 14.6631L103.328 14.2027L104.21 14.093L104.33 13.6219L106.002 14.379L107.155 14.1772L111.828 11.7334L112.063 10.414L113.853 10.1505L113.79 9.63338L114.559 10.1349L115.222 9.71565L115.711 9.98404L116.087 9.09856L116.959 9.46492L117.111 11.6619L118.702 11.0762L119.876 11.3553L120.248 11.9871L122.981 12.4739L123.522 11.8343L124.044 12.42L124.296 11.9391L126.225 12.0302L126.547 11.6884L127.278 11.9773L127.456 11.4004L126.723 10.4983L127.197 10.3788L126.901 9.67551L128.546 9.09663L128.852 9.47569L130.444 9.52663L131.654 8.1808L133.114 8.39433L133.293 6.79092L135.731 7.7792L136.657 7.8742L137.084 7.50396L138.559 7.88399L139.532 10.7324L141.778 10.4483L143.503 9.45314L146.025 11.0233L147.215 11.1653L147.632 10.4561L148.79 10.941L150.209 10.5051L151.249 9.3552L152.734 8.75965L154.194 9.0672L156.431 11.2427L157.256 13.0557L156.806 13.7296L157.095 14.4054L157.845 14.5024L158.006 13.8402L158.76 13.9421L160.941 15.5377L162.226 15.4064L162.559 16.1176L161.796 17.1695L158.189 18.8611L157.703 20.5155L157.988 21.8368L157.51 22.4284L158.154 24.12L159.902 24.0808L159.977 27.7568L160.678 29.5375L159.208 30.1703L158.682 30.9881L159.296 31.6845L160.418 31.09L161.533 31.2761L160.797 35.8082L161.441 37.155L159.906 37.7378L159.274 38.5469L156.683 39.1532L157.311 40.2717L156.745 40.8673L156.904 41.2747L159.015 41.3854L159.873 42.0172L159.991 42.9751L159.978 44.6785L159.468 45.8999L158.66 45.9665L157.914 45.4268L157.156 45.8636L157.184 46.4396L158.704 46.5914L159.005 47.2447L157.671 48.5122L156.98 48.3829L156.922 48.8521L158.092 48.8883L158.612 49.332L158.431 48.1997L159.916 48.3163L159.86 49.284L162.416 51.0677L162.234 52.7984L163.534 52.8826L164.454 53.7495L165.694 53.8719L166.054 54.5958L166.737 54.8152L167 55.969L164.89 56.8114L166.046 58.2336L164.105 59.835L162.875 59.9046L162.537 58.977L161.286 59.3942L160.428 57.3697L158.559 58.7919L157.777 60.3904L156.689 60.8635L156.756 61.9448L155.504 62.9694L155.449 64.4073L154.346 66.2947L154.345 67.5563L155.983 69.815L154.525 71.0874L153.828 71.1971L154.342 72.0963L153.012 72.537L152.75 73.0072L152.124 72.5694L151.166 72.9954L149.171 71.0463L147.543 70.6662L146.773 69.6661L147.685 69.0618L147.594 65.5543L147.221 65.0008L146.076 65.2751L146.045 63.7765L147.771 62.3425L147.305 61.1387L148.148 59.6039L148.375 57.3687L147.71 55.9964L145.441 54.4292L144.574 53.2049L143.66 52.9982L141.621 53.6064L140.777 55.1462L139.854 54.7946L139.654 54.1794L138.191 55.2833L136.136 53.6887L135.026 53.8121L134.835 53.2793L133.599 52.7945L133.453 54.6486L132.849 55.4087L133.175 55.9249L132.261 56.0777L130.743 54.6232L129.03 54.3646L128.513 53.8866L127.737 54.1079L128.264 53.389L128.028 52.0011L126.954 51.6004L125.796 51.8473L125.529 49.6385L124.298 49.1968L122.912 49.4563L120.626 48.3583L119.058 48.2673L118.402 48.8853L118.043 48.3818L116.452 47.9479L116.178 47.0203L115.207 46.9341L114.868 46.2338L114.354 47.6629L115.263 47.8872L115.846 49.1468L115.391 50.6072L114.186 51.1244L113.86 51.6993L114.696 52.9756L114.699 53.6769L114.049 53.9708L114.653 56.1717L112.085 57.1365L112.388 58.8653L111.839 60.9261L110.06 60.5284L109.43 60.8086L109.32 60.1807L107.358 58.6596L105.574 59.5049L105.596 59.8937L106.483 60.2581L105.706 60.5167L105.284 61.7744L105.524 62.1241L104.97 63.0967L105.316 64.0801L104.394 63.8234L104.283 64.9156L103.564 64.6844L103.477 65.4063L103.678 66.423L104.687 66.4024L104.597 67.1125L105.428 67.0508L105.16 67.9333L105.992 67.9931L107.228 69.8502L105.098 70.1695L104.064 72.824L103.48 72.3293L102.978 72.9993L103.052 75.6057L101.452 76.1983L101.275 75.6507L100.231 75.7605L100.307 77.3365L99.8107 77.1308L99.196 77.5686L99.9868 77.9545L98.7855 78.3424L99.3789 78.5471L98.6549 80.0193L99.6161 80.6922L99.2725 81.2632L98.4525 80.9331L98.4671 81.5404L97.5591 81.9371L96.9715 80.9371L95.3994 80.8479L96.4391 79.1759L95.6211 78.9144L95.6191 77.9055L95.0606 78.2787L94.5601 77.7733L92.9958 78.743L93.0936 79.5609L92.0878 80.8038L92.3066 81.5502L91.5844 81.4875L91.1682 82.8676L90.0646 83.3289L90.3347 84.2379L89.297 84.2457L88.7936 83.5718L88.6136 84.0243L87.8827 83.4709L87.1983 83.5483L86.5585 85.0224L87.4849 85.4299L87.0541 85.9314L87.209 86.6621L86.4607 86.8002L86.4355 89.3312L84.1326 90.3332L82.8742 89.6975L82.8093 90.5751L83.8364 91.2294L83.3214 92.0728L82.3679 92.1835L82.6089 93.1434L82.0117 93.3774L81.8578 94.3638L81.3031 94.1944L80.3157 92.4734L79.4803 93.8878L79.4813 92.6497L78.4765 92.6732L78.4755 93.6077L77.7195 93.6439L77.7795 94.7742L76.552 95.122L76.2878 95.982L74.586 96.1818L74.7554 97.2994L75.2839 97.7343L74.8251 98.3288L75.4649 98.3474L74.5686 98.8753L74.6266 99.655L75.4272 99.6099L75.2007 100.877L76.1339 101L75.5995 102.228L75.009 102.26L74.8338 101.421L73.4612 101.835L72.8232 100.893L71.3634 101.446L71.4331 102.546L71.1776 101.613L70.3286 101.069L69.4681 101.844L68.9782 101.327L66.4778 101.971L65.7179 101.341L65.5882 99.9812L65.0761 100.654L64.3221 99.8627L63.8681 100.988L62.5448 99.8832L61.6155 100.081L61.3396 99.1124L60.4897 98.6941L60.0889 100.524L59.3338 100.715L59.4607 101.422L60.0337 101.582L59.8885 102.415L60.9814 103.309L61.0269 104.442L60.3358 105.256L61.359 106.876L61.357 107.544L60.6552 108.107L61.2321 108.122L61.2796 109.73L60.6804 109.927L59.9844 109.531L59.9611 108.817L59.2777 108.717L59.1674 109.658L57.5904 110.099L57.0919 109.195L56.3446 109.661L55.6099 109.386L54.608 109.895L53.456 109.847L53.3408 111.563L51.9846 112.285L51.3225 112.248L51.4532 111.577H50.4697L49.4417 109.977L48.2558 110.467L48.2229 110.128L46.3604 110.139L46.13 110.468L46.9451 110.899L46.8812 111.484L45.8251 111.951L46.0652 113.782L44.6703 113.763L41.4932 114.947L41.4516 115.803L40.7295 116.599L41.3345 117.303L40.3703 117.254L40.2397 117.914L38.9773 118.419L38.5185 116.692L37.4363 116.832L37.0181 116.106L36.9174 117.296L35.5196 117.852L35.2447 118.931L34.691 118.701L34.7519 118.312L34.0182 118.389L33.7084 119.481L32.9437 118.578L33.1334 119.453L32.4722 119.635L32.7888 120.035L33.4199 119.47L33.3473 120.397L34.2098 120.542L34.2863 121.64L34.8226 121.771L34.6716 122.399L34.295 121.848L33.9378 122.09L33.8885 123.24L34.4093 123.954L34.1072 124.452L34.5012 123.946L35.8778 124.185L35.9039 124.676L37.5379 125.236L37.7364 126.145L37.1875 127.02L37.2533 128.286L36.1488 127.792L34.8023 129.015L35.2456 129.393L36.1827 128.935L36.8709 129.279L35.2824 132.233L35.6812 133.262L35.3144 133.28L34.9233 132.436L34.3231 133.274L35.2311 133.441L34.7355 134.933L33.2631 135.661L32.4103 135.621L31.9495 134.679L31.4849 135.362L29.9902 136.113L30.0512 136.95L29.3 137.11L29.8973 137.544L27.909 138.511L27.3175 138.372L26.7212 137.67L26.2372 135.612L24.9623 135.445L24.6187 134.427L23.9604 135.691L20.8628 135.974L20.221 135.523L20.7495 135.346L19.0439 131.993L17.4118 131.463L16.8716 129.373L16.3082 128.985L16.5561 128.625L15.9084 125.915L14.9569 122.464L14.5348 122.423L15.2947 121.546L14.4903 121.705L14.4729 120.808L13.4874 119.237L13.5155 118.327L14.0218 118.114L13.4981 117.377L13.9656 116.584L13.6055 116.514L13.3858 112.997L12.6937 111.181L13.0421 109.18L12.5697 109.169L12.8282 108.623L12.2319 108.298L13.1206 107.209L12.4681 106.474L11.6066 103.197L10.9144 102.503L11.5795 102.42L11.6917 102.876L12.0238 102.325L11.2755 100.682L10.4653 100.238L11.2474 99.5139L10.8476 99.4541L10.808 98.0887L9.86219 97.0191L10.4933 96.4501L9.65407 95.2805L9.3898 94.0562L9.81766 93.587L8.87191 91.6192L8.61829 89.7219L8.36563 89.8532L7.68414 88.7101L7.85258 87.8482L6.87294 86.329L7.13722 85.8882L6.4896 84.6795L6.82745 83.3278L5.67937 82.7852L5.7694 81.4737L6.3599 81.503L6.70257 82.3199L8.47599 82.7431L8.20591 83.5002L8.86416 84.2613L8.70637 82.552L8.18364 81.7116L6.93393 81.646L6.08401 80.2983L5.33476 79.8996L5.58257 79.2198L4.95723 77.3696L5.6271 75.8817L4.14119 72.5495L4.42772 70.2301L5.37929 70.4936L5.87492 69.7286L6.478 70.5484L6.72484 70.1233L6.84874 68.9088L5.58838 69.232L5.21085 68.1301L6.21954 67.9919L5.84781 67.1731L6.17985 66.5805L6.65804 66.8264L7.73255 66.0388L7.13625 65.9869L6.93393 64.7469L6.32021 64.7655L6.17403 65.4247L5.23989 66.2092L4.28349 65.9575L3.92919 67.651L3.18091 68.369L3.50133 67.2798L2.85953 67.0829L3.32128 65.4354L3.56328 65.6215L3.79948 65.1719L3.34935 65.1004L3.56909 63.9916L2.62237 62.4342L2.58268 59.9992L3.00473 58.8718L2.16643 57.907L1.90216 56.0274L2.62237 55.4142L2.74627 54.663L2.3126 55.1321L1.36684 54.3877L1.25455 53.1497L1.76663 53.1076L0.736665 48.8556L0 47.8741L0.0222596 47.4647L0.618565 47.3168L0.274915 45.8525L1.32813 44.9964L1.15388 42.8689L1.7618 41.434L3.06282 41.6848L3.06669 41.1744L3.7414 41.2576L3.72688 40.3644L4.53517 39.4946L6.47896 39.7874L6.80809 40.6788L6.53511 41.5583L6.85939 41.9394L7.4315 41.4682L7.28436 42.0011L8.14783 42.9277L8.30659 42.2469L9.90478 42.5682L10.8438 43.2489L11.4604 41.7493L12.9347 41.1519L13.3819 39.9001L14.227 40.0891L14.5261 39.7659L14.6626 40.2155L15.7894 39.9207L15.6577 36.751L15.0072 35.9224L15.7855 35.3964L17.224 32.6578L16.8407 32.5911L16.8203 31.7135L16.0004 31.4628L15.2376 30.4284L15.9917 29.9436L16.2705 28.9504L16.8561 28.8035L17.1766 30.1924L17.9858 29.7477L19.3817 30.5655L19.979 31.8085L20.6663 32.1768L21.28 31.8281L22.2364 32.0681L24.0621 31.0142L24.2054 29.8956L23.7455 29.3128L24.5751 29.302L25.0204 28.5331L25.7358 28.6663L26.3166 28.2569L26.2266 26.1236L25.2121 23.9412L25.4435 23.0019L23.6187 22.7208L23.4426 22.1409L22.7766 22.4064L22.1144 21.422L22.3255 20.1428L20.4485 20.2672L18.9964 18.9664L19.5008 18.7872L19.9712 19.7363L20.8812 19.3102L22.0031 19.6139L22.1038 18.9831L23.7436 18.8783L23.9382 16.789L25.1511 16.8987L26.2963 16.1308L26.3844 13.8358L26.7057 14.0612L28.3233 13.4617L28.7008 12.0943L29.5479 12.8368L29.9515 12.4969L31.8498 12.5958L31.9805 12.1453L32.3987 12.5116L33.9804 11.7917L33.9988 10.7965L33.5351 10.2695L32.814 10.918L32.1654 10.6006L31.5613 11.013L31.117 10.392L28.7551 10.3939L24.52 11.7907L23.7843 9.54372L23.037 8.95701L25.0233 8.5182L25.2411 7.30755L23.9208 5.93431L24.1995 5.3241L23.5016 4.60712L30.301 1.74012V1.7406Z" fill="#CECECE"/>
</svg>
