<svg width="181" height="243" viewBox="0 0 181 243" fill="none" xmlns="http://www.w3.org/2000/svg">
<path d="M134.979 121.5C134.979 163.186 101.186 196.979 59.4996 196.979C17.8135 196.979 -15.9797 163.186 -15.9797 121.5C-15.9797 79.8135 17.8135 46.0203 59.4996 46.0203C101.186 46.0203 134.979 79.8135 134.979 121.5ZM59.4996 197.979C101.738 197.979 135.979 163.738 135.979 121.5C135.979 79.2613 101.738 45.0203 59.4996 45.0203C17.2613 45.0203 -16.9797 79.2613 -16.9797 121.5C-16.9797 163.738 17.2613 197.979 59.4996 197.979ZM157.74 121.5C157.74 175.756 113.756 219.74 59.5001 219.74C5.24386 219.74 -38.7395 175.756 -38.7395 121.5C-38.7395 67.2439 5.24386 23.2605 59.5001 23.2605C113.756 23.2605 157.74 67.2439 157.74 121.5ZM59.5001 220.74C114.309 220.74 158.74 176.309 158.74 121.5C158.74 66.6916 114.309 22.2605 59.5001 22.2605C4.69157 22.2605 -39.7395 66.6916 -39.7395 121.5C-39.7395 176.309 4.69157 220.74 59.5001 220.74ZM180.5 121.5C180.5 188.326 126.326 242.5 59.5 242.5C-7.32646 242.5 -61.5 188.326 -61.5 121.5C-61.5 54.6735 -7.32646 0.5 59.5 0.5C126.326 0.5 180.5 54.6735 180.5 121.5Z" stroke="black" stroke-opacity="0.15"/>
</svg>
