<svg width="263" height="75" viewBox="0 0 263 75" fill="none" xmlns="http://www.w3.org/2000/svg">
<path d="M257.304 69.0039C257.304 65.7742 259.923 63.1561 263.152 63.1561C266.382 63.1561 269 65.7742 269 69.0039C269 72.2335 266.382 74.8517 263.152 74.8517C259.923 74.8517 257.304 72.2335 257.304 69.0039Z" fill="black" fill-opacity="0.1"/>
<path d="M233.913 69.0039C233.913 65.7742 236.531 63.1561 239.761 63.1561C242.991 63.1561 245.609 65.7742 245.609 69.0039C245.609 72.2335 242.991 74.8517 239.761 74.8517C236.531 74.8517 233.913 72.2335 233.913 69.0039Z" fill="black" fill-opacity="0.1"/>
<path d="M210.522 69.0039C210.522 65.7742 213.14 63.1561 216.37 63.1561C219.599 63.1561 222.217 65.7742 222.217 69.0039C222.217 72.2335 219.599 74.8517 216.37 74.8517C213.14 74.8517 210.522 72.2335 210.522 69.0039Z" fill="black" fill-opacity="0.1"/>
<path d="M187.13 69.0039C187.13 65.7742 189.749 63.156 192.978 63.156C196.208 63.156 198.826 65.7742 198.826 69.0039C198.826 72.2335 196.208 74.8517 192.978 74.8517C189.749 74.8517 187.13 72.2335 187.13 69.0039Z" fill="black" fill-opacity="0.1"/>
<path d="M163.739 69.0039C163.739 65.7742 166.357 63.156 169.587 63.156C172.817 63.156 175.435 65.7742 175.435 69.0039C175.435 72.2335 172.817 74.8517 169.587 74.8517C166.357 74.8517 163.739 72.2335 163.739 69.0039Z" fill="black" fill-opacity="0.1"/>
<path d="M140.348 69.0039C140.348 65.7742 142.966 63.156 146.196 63.156C149.425 63.156 152.043 65.7742 152.043 69.0039C152.043 72.2335 149.425 74.8517 146.196 74.8517C142.966 74.8517 140.348 72.2335 140.348 69.0039Z" fill="black" fill-opacity="0.1"/>
<path d="M116.957 69.0039C116.957 65.7742 119.575 63.156 122.804 63.156C126.034 63.156 128.652 65.7742 128.652 69.0039C128.652 72.2335 126.034 74.8517 122.804 74.8517C119.575 74.8517 116.957 72.2335 116.957 69.0039Z" fill="black" fill-opacity="0.1"/>
<path d="M93.5652 69.0039C93.5652 65.7742 96.1834 63.156 99.413 63.156C102.643 63.156 105.261 65.7742 105.261 69.0039C105.261 72.2335 102.643 74.8517 99.413 74.8517C96.1834 74.8517 93.5652 72.2335 93.5652 69.0039Z" fill="black" fill-opacity="0.1"/>
<path d="M70.1739 69.0039C70.1739 65.7742 72.7921 63.156 76.0217 63.156C79.2514 63.156 81.8696 65.7742 81.8696 69.0039C81.8696 72.2335 79.2514 74.8517 76.0217 74.8517C72.7921 74.8517 70.1739 72.2335 70.1739 69.0039Z" fill="black" fill-opacity="0.1"/>
<path d="M46.7826 69.0039C46.7826 65.7742 49.4008 63.156 52.6304 63.156C55.8601 63.156 58.4783 65.7742 58.4783 69.0039C58.4783 72.2335 55.8601 74.8517 52.6304 74.8517C49.4008 74.8517 46.7826 72.2335 46.7826 69.0039Z" fill="black" fill-opacity="0.1"/>
<path d="M23.3913 69.0039C23.3913 65.7742 26.0095 63.156 29.2391 63.156C32.4688 63.156 35.087 65.7742 35.087 69.0039C35.087 72.2335 32.4688 74.8517 29.2391 74.8517C26.0095 74.8517 23.3913 72.2335 23.3913 69.0039Z" fill="black" fill-opacity="0.1"/>
<path d="M0 69.0039C2.82347e-07 65.7742 2.61816 63.156 5.84783 63.156C9.07749 63.156 11.6957 65.7742 11.6957 69.0039C11.6957 72.2335 9.07749 74.8517 5.84783 74.8517C2.61816 74.8517 -2.82345e-07 72.2335 0 69.0039Z" fill="black" fill-opacity="0.1"/>
<path d="M257.304 47.9517C257.304 44.722 259.923 42.1039 263.152 42.1039C266.382 42.1039 269 44.722 269 47.9517C269 51.1814 266.382 53.7995 263.152 53.7995C259.923 53.7995 257.304 51.1814 257.304 47.9517Z" fill="black" fill-opacity="0.1"/>
<path d="M233.913 47.9517C233.913 44.722 236.531 42.1039 239.761 42.1039C242.991 42.1039 245.609 44.722 245.609 47.9517C245.609 51.1814 242.991 53.7995 239.761 53.7995C236.531 53.7995 233.913 51.1814 233.913 47.9517Z" fill="black" fill-opacity="0.1"/>
<path d="M210.522 47.9517C210.522 44.722 213.14 42.1039 216.37 42.1039C219.599 42.1039 222.217 44.722 222.217 47.9517C222.217 51.1814 219.599 53.7995 216.37 53.7995C213.14 53.7995 210.522 51.1814 210.522 47.9517Z" fill="black" fill-opacity="0.1"/>
<path d="M187.13 47.9517C187.13 44.722 189.749 42.1039 192.978 42.1039C196.208 42.1039 198.826 44.722 198.826 47.9517C198.826 51.1814 196.208 53.7995 192.978 53.7995C189.749 53.7995 187.13 51.1814 187.13 47.9517Z" fill="black" fill-opacity="0.1"/>
<path d="M163.739 47.9517C163.739 44.722 166.357 42.1039 169.587 42.1039C172.817 42.1039 175.435 44.722 175.435 47.9517C175.435 51.1814 172.817 53.7995 169.587 53.7995C166.357 53.7995 163.739 51.1814 163.739 47.9517Z" fill="black" fill-opacity="0.1"/>
<path d="M140.348 47.9517C140.348 44.722 142.966 42.1039 146.196 42.1039C149.425 42.1039 152.043 44.722 152.043 47.9517C152.043 51.1814 149.425 53.7995 146.196 53.7995C142.966 53.7995 140.348 51.1814 140.348 47.9517Z" fill="black" fill-opacity="0.1"/>
<path d="M116.957 47.9517C116.957 44.722 119.575 42.1039 122.804 42.1039C126.034 42.1039 128.652 44.722 128.652 47.9517C128.652 51.1814 126.034 53.7995 122.804 53.7995C119.575 53.7995 116.957 51.1814 116.957 47.9517Z" fill="black" fill-opacity="0.1"/>
<path d="M93.5652 47.9517C93.5652 44.722 96.1834 42.1039 99.413 42.1039C102.643 42.1039 105.261 44.722 105.261 47.9517C105.261 51.1814 102.643 53.7995 99.413 53.7995C96.1834 53.7995 93.5652 51.1814 93.5652 47.9517Z" fill="black" fill-opacity="0.1"/>
<path d="M70.1739 47.9517C70.1739 44.722 72.7921 42.1039 76.0218 42.1039C79.2514 42.1039 81.8696 44.722 81.8696 47.9517C81.8696 51.1814 79.2514 53.7995 76.0217 53.7995C72.7921 53.7995 70.1739 51.1814 70.1739 47.9517Z" fill="black" fill-opacity="0.1"/>
<path d="M46.7826 47.9517C46.7826 44.722 49.4008 42.1039 52.6304 42.1039C55.8601 42.1039 58.4783 44.722 58.4783 47.9517C58.4783 51.1814 55.8601 53.7995 52.6304 53.7995C49.4008 53.7995 46.7826 51.1814 46.7826 47.9517Z" fill="black" fill-opacity="0.1"/>
<path d="M23.3913 47.9517C23.3913 44.722 26.0095 42.1039 29.2391 42.1039C32.4688 42.1039 35.087 44.722 35.087 47.9517C35.087 51.1814 32.4688 53.7995 29.2391 53.7995C26.0095 53.7995 23.3913 51.1814 23.3913 47.9517Z" fill="black" fill-opacity="0.1"/>
<path d="M1.84044e-06 47.9517C2.12279e-06 44.722 2.61816 42.1039 5.84783 42.1039C9.07749 42.1039 11.6957 44.722 11.6957 47.9517C11.6957 51.1814 9.07749 53.7995 5.84783 53.7995C2.61816 53.7995 1.55809e-06 51.1813 1.84044e-06 47.9517Z" fill="black" fill-opacity="0.1"/>
<path d="M257.304 26.8995C257.304 23.6699 259.923 21.0517 263.152 21.0517C266.382 21.0517 269 23.6699 269 26.8995C269 30.1292 266.382 32.7474 263.152 32.7474C259.923 32.7474 257.304 30.1292 257.304 26.8995Z" fill="black" fill-opacity="0.1"/>
<path d="M233.913 26.8995C233.913 23.6699 236.531 21.0517 239.761 21.0517C242.991 21.0517 245.609 23.6699 245.609 26.8995C245.609 30.1292 242.991 32.7474 239.761 32.7474C236.531 32.7474 233.913 30.1292 233.913 26.8995Z" fill="black" fill-opacity="0.1"/>
<path d="M210.522 26.8995C210.522 23.6699 213.14 21.0517 216.37 21.0517C219.599 21.0517 222.217 23.6699 222.217 26.8995C222.217 30.1292 219.599 32.7474 216.37 32.7474C213.14 32.7474 210.522 30.1292 210.522 26.8995Z" fill="black" fill-opacity="0.1"/>
<path d="M187.13 26.8995C187.13 23.6699 189.749 21.0517 192.978 21.0517C196.208 21.0517 198.826 23.6699 198.826 26.8995C198.826 30.1292 196.208 32.7474 192.978 32.7474C189.749 32.7474 187.13 30.1292 187.13 26.8995Z" fill="black" fill-opacity="0.1"/>
<path d="M163.739 26.8995C163.739 23.6699 166.357 21.0517 169.587 21.0517C172.817 21.0517 175.435 23.6699 175.435 26.8995C175.435 30.1292 172.817 32.7474 169.587 32.7474C166.357 32.7474 163.739 30.1292 163.739 26.8995Z" fill="black" fill-opacity="0.1"/>
<path d="M140.348 26.8995C140.348 23.6699 142.966 21.0517 146.196 21.0517C149.425 21.0517 152.043 23.6699 152.043 26.8995C152.043 30.1292 149.425 32.7473 146.196 32.7473C142.966 32.7473 140.348 30.1292 140.348 26.8995Z" fill="black" fill-opacity="0.1"/>
<path d="M116.957 26.8995C116.957 23.6699 119.575 21.0517 122.804 21.0517C126.034 21.0517 128.652 23.6699 128.652 26.8995C128.652 30.1292 126.034 32.7473 122.804 32.7473C119.575 32.7473 116.957 30.1292 116.957 26.8995Z" fill="black" fill-opacity="0.1"/>
<path d="M93.5652 26.8995C93.5652 23.6699 96.1834 21.0517 99.413 21.0517C102.643 21.0517 105.261 23.6699 105.261 26.8995C105.261 30.1292 102.643 32.7473 99.413 32.7473C96.1834 32.7473 93.5652 30.1292 93.5652 26.8995Z" fill="black" fill-opacity="0.1"/>
<path d="M70.1739 26.8995C70.1739 23.6699 72.7921 21.0517 76.0218 21.0517C79.2514 21.0517 81.8696 23.6699 81.8696 26.8995C81.8696 30.1292 79.2514 32.7473 76.0218 32.7473C72.7921 32.7473 70.1739 30.1292 70.1739 26.8995Z" fill="black" fill-opacity="0.1"/>
<path d="M46.7826 26.8995C46.7826 23.6699 49.4008 21.0517 52.6304 21.0517C55.8601 21.0517 58.4783 23.6699 58.4783 26.8995C58.4783 30.1292 55.8601 32.7473 52.6304 32.7473C49.4008 32.7473 46.7826 30.1292 46.7826 26.8995Z" fill="black" fill-opacity="0.1"/>
<path d="M23.3913 26.8995C23.3913 23.6698 26.0095 21.0517 29.2391 21.0517C32.4688 21.0517 35.087 23.6698 35.087 26.8995C35.087 30.1292 32.4688 32.7473 29.2391 32.7473C26.0095 32.7473 23.3913 30.1292 23.3913 26.8995Z" fill="black" fill-opacity="0.1"/>
<path d="M3.68088e-06 26.8995C3.96323e-06 23.6698 2.61817 21.0517 5.84783 21.0517C9.0775 21.0517 11.6957 23.6698 11.6957 26.8995C11.6957 30.1292 9.07749 32.7473 5.84783 32.7473C2.61816 32.7473 3.39853e-06 30.1292 3.68088e-06 26.8995Z" fill="black" fill-opacity="0.1"/>
<path d="M257.304 5.84736C257.304 2.61769 259.923 -0.000466069 263.152 -0.000465787C266.382 -0.000465505 269 2.6177 269 5.84736C269 9.07703 266.382 11.6952 263.152 11.6952C259.923 11.6952 257.304 9.07702 257.304 5.84736Z" fill="black" fill-opacity="0.1"/>
<path d="M233.913 5.84736C233.913 2.61769 236.531 -0.000468114 239.761 -0.000467832C242.991 -0.00046755 245.609 2.61769 245.609 5.84736C245.609 9.07702 242.991 11.6952 239.761 11.6952C236.531 11.6952 233.913 9.07702 233.913 5.84736Z" fill="black" fill-opacity="0.1"/>
<path d="M210.522 5.84736C210.522 2.61769 213.14 -0.000470159 216.37 -0.000469877C219.599 -0.000469595 222.217 2.61769 222.217 5.84736C222.217 9.07702 219.599 11.6952 216.37 11.6952C213.14 11.6952 210.522 9.07702 210.522 5.84736Z" fill="black" fill-opacity="0.1"/>
<path d="M187.13 5.84735C187.13 2.61769 189.749 -0.000472204 192.978 -0.000471922C196.208 -0.000471639 198.826 2.61769 198.826 5.84735C198.826 9.07702 196.208 11.6952 192.978 11.6952C189.749 11.6952 187.13 9.07702 187.13 5.84735Z" fill="black" fill-opacity="0.1"/>
<path d="M163.739 5.84735C163.739 2.61769 166.357 -0.000474249 169.587 -0.000473967C172.817 -0.000473684 175.435 2.61769 175.435 5.84735C175.435 9.07702 172.817 11.6952 169.587 11.6952C166.357 11.6952 163.739 9.07702 163.739 5.84735Z" fill="black" fill-opacity="0.1"/>
<path d="M140.348 5.84735C140.348 2.61768 142.966 -0.000476294 146.196 -0.000476012C149.425 -0.000475729 152.043 2.61769 152.043 5.84735C152.043 9.07702 149.425 11.6952 146.196 11.6952C142.966 11.6952 140.348 9.07701 140.348 5.84735Z" fill="black" fill-opacity="0.1"/>
<path d="M116.957 5.84735C116.957 2.61768 119.575 -0.000478339 122.804 -0.000478057C126.034 -0.000477774 128.652 2.61768 128.652 5.84735C128.652 9.07701 126.034 11.6952 122.804 11.6952C119.575 11.6952 116.957 9.07701 116.957 5.84735Z" fill="black" fill-opacity="0.1"/>
<path d="M93.5652 5.84735C93.5652 2.61768 96.1834 -0.000480384 99.413 -0.000480102C102.643 -0.000479819 105.261 2.61768 105.261 5.84735C105.261 9.07701 102.643 11.6952 99.413 11.6952C96.1834 11.6952 93.5652 9.07701 93.5652 5.84735Z" fill="black" fill-opacity="0.1"/>
<path d="M70.1739 5.84734C70.1739 2.61768 72.7921 -0.000482429 76.0218 -0.000482146C79.2514 -0.000481864 81.8696 2.61768 81.8696 5.84734C81.8696 9.07701 79.2514 11.6952 76.0218 11.6952C72.7921 11.6952 70.1739 9.07701 70.1739 5.84734Z" fill="black" fill-opacity="0.1"/>
<path d="M46.7826 5.84734C46.7826 2.61768 49.4008 -0.000484474 52.6304 -0.000484191C55.8601 -0.000483909 58.4783 2.61768 58.4783 5.84734C58.4783 9.07701 55.8601 11.6952 52.6304 11.6952C49.4008 11.6952 46.7826 9.07701 46.7826 5.84734Z" fill="black" fill-opacity="0.1"/>
<path d="M23.3913 5.84734C23.3913 2.61767 26.0095 -0.000486519 29.2391 -0.000486236C32.4688 -0.000485954 35.087 2.61768 35.087 5.84734C35.087 9.07701 32.4688 11.6952 29.2391 11.6952C26.0095 11.6952 23.3913 9.077 23.3913 5.84734Z" fill="black" fill-opacity="0.1"/>
<path d="M5.52132e-06 5.84734C5.80367e-06 2.61767 2.61817 -0.000488564 5.84783 -0.000488281C9.0775 -0.000487999 11.6957 2.61767 11.6957 5.84734C11.6957 9.077 9.0775 11.6952 5.84783 11.6952C2.61817 11.6952 5.23897e-06 9.077 5.52132e-06 5.84734Z" fill="black" fill-opacity="0.1"/>
</svg>
