<svg width="37" height="37" viewBox="0 0 37 37" fill="none" xmlns="http://www.w3.org/2000/svg">
<path d="M13.4408 37H2.81795C1.26458 37 0.000976562 35.7364 0.000976562 34.183V23.5602C0.000976562 22.0068 1.26458 20.7432 2.81795 20.7432H13.4408C14.9941 20.7432 16.2577 22.0068 16.2577 23.5602V34.183C16.2575 35.7364 14.9941 37 13.4408 37Z" fill="#F8AE6A"/>
<path d="M34.183 37H23.5601C22.0068 37 20.7432 35.7364 20.7432 34.183V23.5602C20.7432 22.0068 22.0068 20.7432 23.5601 20.7432H34.183C35.7363 20.7432 36.9999 22.0068 36.9999 23.5602V34.183C36.9999 35.7364 35.7363 37 34.183 37Z" fill="#F8AE6A"/>
<path d="M13.4398 16.2568H2.81697C1.2636 16.2568 0 14.9933 0 13.4399V2.81711C0 1.26373 1.2636 0.000133514 2.81697 0.000133514H13.4398C14.9932 0.000133514 16.2568 1.26373 16.2568 2.81711V13.4399C16.2565 14.9933 14.9932 16.2568 13.4398 16.2568Z" fill="#F8AE6A"/>
<path d="M34.183 16.2568H23.5601C22.0068 16.2568 20.7432 14.9932 20.7432 13.4398V2.81697C20.7432 1.2636 22.0068 -3.8147e-06 23.5601 -3.8147e-06H34.183C35.7363 0.000120163 36.9999 1.26372 36.9999 2.8171V13.4399C36.9999 14.9933 35.7363 16.2568 34.183 16.2568Z" fill="#F8AE6A"/>
</svg>
