<svg width="25" height="25" viewBox="0 0 25 25" fill="none" xmlns="http://www.w3.org/2000/svg">
<g clip-path="url(#clip0)">
<path d="M21.0226 20.4546H3.98157C3.66809 20.4546 3.41396 20.7087 3.41337 21.0222L3.41113 22.679C3.4106 23.2988 3.65137 23.8814 4.08917 24.3198C4.52751 24.7587 5.10955 25 5.72937 25H19.2725C20.5509 25 21.5908 23.9602 21.5908 22.6818V21.0227C21.5908 20.7087 21.3367 20.4546 21.0226 20.4546Z" fill="#F8AE6A"/>
<path d="M18.75 2.27275C18.4021 2.27275 18.0448 2.30769 17.6663 2.37816C16.3663 0.862234 14.5031 0 12.5 0C8.74028 0 5.68184 3.05844 5.68184 6.81819C5.68184 7.13166 5.42717 7.38639 5.11364 7.38639C4.80016 7.38639 4.54544 7.13172 4.54544 6.81819C4.54544 5.58804 4.82845 4.39784 5.38663 3.28093C5.48598 3.0823 5.46041 2.84425 5.3217 2.67113C5.18299 2.49913 4.95602 2.42253 4.74077 2.47527C1.94926 3.17163 0 5.65851 0 8.52273C0 10.8842 1.33168 13.031 3.42241 14.0924L3.41628 18.7494C3.41628 18.8998 3.47568 19.0446 3.58221 19.1517C3.68928 19.2582 3.83358 19.3182 3.98448 19.3182H21.0228C21.3368 19.3182 21.591 19.064 21.591 18.75V14.0841C23.6739 13.0199 25.0001 10.8764 25.0001 8.52268C25 5.07646 22.1963 2.27275 18.75 2.27275ZM8.3152 15.7804C8.2092 15.8669 8.08163 15.9091 7.95512 15.9091C7.7909 15.9091 7.62774 15.8381 7.51513 15.7016C7.32758 15.4724 5.68184 13.4239 5.68184 11.9318C5.68184 11.6178 5.93598 11.3636 6.25004 11.3636C6.5641 11.3636 6.81824 11.6178 6.81824 11.9318C6.81824 12.7542 7.78482 14.2379 8.39404 14.9802C8.59262 15.2233 8.55768 15.5812 8.3152 15.7804ZM13.0682 15.3409C13.0682 15.655 12.814 15.9091 12.5 15.9091C12.1859 15.9091 11.9318 15.655 11.9318 15.3409V11.9318C11.9318 11.6178 12.186 11.3636 12.5 11.3636C12.8141 11.3636 13.0682 11.6178 13.0682 11.9318V15.3409H13.0682ZM17.4849 15.7016C17.3723 15.8381 17.2097 15.9091 17.0455 15.9091C16.9184 15.9091 16.7908 15.8669 16.6854 15.7804C16.4429 15.5812 16.4074 15.2233 16.606 14.9808C17.2153 14.2367 18.1818 12.7514 18.1818 11.9318C18.1818 11.6178 18.4359 11.3636 18.75 11.3636C19.0641 11.3636 19.3182 11.6178 19.3182 11.9318C19.3182 13.4238 17.6725 15.4724 17.4849 15.7016Z" fill="#F8AE6A"/>
</g>
<defs>
<clipPath id="clip0">
<rect width="25" height="25" fill="white"/>
</clipPath>
</defs>
</svg>
