<svg width="130" height="151" viewBox="0 0 130 151" fill="none" xmlns="http://www.w3.org/2000/svg">
<path d="M85.1318 0.215088L84.2153 3.65794L87.6698 8.245L83.9125 10.1316L79.3403 15.4386L74.4979 17.4028L74.3984 19.8891L76.1683 20.917L72.6345 25.0819L73.4758 25.8671L75.6379 25.3083L77.3591 26.0935L81.3765 29.4588L86.0665 31.6902L89.3402 38.4596L87.2289 38.327L90.6712 46.8505L97.0844 58.4415L96.298 61.042L97.627 62.0536L97.9054 63.7791L103.148 63.1591L103.144 62.0149L104.875 61.4785L103.989 59.0207L105.833 58.362L106.001 57.0811L106.686 59.5796L109.622 63.8159L108.893 64.9682L110.409 63.6078L111.337 65.4373L112.431 64.956L112.593 65.988L113.404 64.9131L113.311 66.3348L114.822 65.1028L116.145 66.555L115.251 68.2724L117.182 67.738L117.584 68.4396L115.668 69.9367L115.621 72.6738L117.172 73.5406L116.034 76.3533L116.505 78.7987L120.866 80.82L123.302 83.6448L123.268 85.1235L125.765 87.2998L126.576 89.2802L125.783 90.6998L124.292 90.5652L124.42 89.6147L123.278 90.0471L122.855 88.958L119.933 90.8854L121.449 94.0549L124.345 95.3684L125.428 94.5526L126.066 96.0374L127.232 94.8769L127.078 96.786L129.411 98.8052L128.202 101.732L129.703 102.835L128.366 104.485L128.362 106.629L130 109.213L127.998 110.639V109.332L125.964 106.984L124.944 108.069L122.792 106.739L120.337 108.968L120.813 110.37L121.969 110.641L120.976 111.956L119.25 112.299L116.495 115.022L113.849 115.301L113.207 117.159L115.395 115.715L116.588 116.972L116.259 117.749L117.732 118.202L117.212 123.129L116.121 124.378L115.089 124.629L114.158 123.468L111.87 124.555L111.433 123.548L109.785 123.372L108.003 118.381L106.761 119.317L107.639 120.572L107.143 122.055L104.416 120.988L105.398 122.048L104.29 123.003L101.238 122.473L99.2263 120.513L99.5697 121.685L98.6613 121.69L101.401 123.182L98.9926 126.454L99.718 126.984L98.6755 127.511L99.2263 131.055L97.627 131.814L98.4073 133.776L100.848 134.735L95.5055 138.292L93.8575 137.833L92.0713 140.725L91.3032 140.266L89.0598 141.474L85.4183 140.705L83.2806 137.511L81.8784 137.766L80.838 136.872L78.0439 137.692L77.6842 140.307L74.6178 139.426L74.1017 140.737L72.2098 140.923L71.6835 139.787L69.7835 140.07L66.9142 137.731L64.1283 142.455L62.2811 143.309L62.9232 145L61.5313 144.441L59.9503 147.403L60.9684 148.459L60.6107 149.455L57.522 150.525L57.4265 147.576L55.3883 146.428L54.7299 144.831L56.323 143.607L56.256 141.775L57.841 140.462L55.7724 136.222L54.6262 137.146L54.5693 139.044L51.8525 137.788L52.5718 136.817L51.4725 135.698L52.4499 134.531L51.6228 132.477L50.8019 134.243L47.5872 135.351L44.4313 130.809L43.1349 131.302L42.9743 129.866L41.6189 130.319L39.5584 128.677L36.2746 130.184L34.8623 129.821L32.6961 132.116L32.9989 132.989L27.557 131.092L0.847375 129.783L1.00385 126.016L4.06009 122.367L4.04384 118.738L3.68416 115.461L0 110.2L1.3676 107.826L2.40802 107.622L2.72502 105.552L3.8894 105.815L4.78351 103.698L6.92329 101.938L8.77857 102.277L8.36606 101.018L9.41867 100.009L9.34959 98.1607L10.1096 98.5116L10.5119 97.2042L11.8978 97.1817L15.3523 92.8843L17.4657 92.3601L16.6305 90.4918L18.1282 89.7637L17.6323 88.9315L18.9247 86.5574L20.9182 86.6451L21.0259 84.683L23.1778 83.6632L25.4944 80.6936L28.3678 79.329L29.2294 75.6598L31.9584 76.6755L34.0718 75.9556L35.0167 74.2749L34.2892 72.5291L32.3262 72.992L31.9138 72.2109L30.6762 72.3925L30.3816 74.2852L28.955 74.7625L28.5933 72.9717L26.9413 72.1375L27.2196 65.4904L28.953 64.1912L32.7896 56.1532L32.1251 54.8213L29.5464 54.0728L31.1639 52.4595L31.0379 50.7768L27.4798 43.0386L27.5143 41.925L28.949 41.5232L29.144 37.7438L31.0135 34.8842L31.9625 35.1168L33.5476 33.2709L35.3927 32.9364L35.6446 31.2823L36.7826 32.3123L37.2845 31.5679L39.8978 31.4231L40.29 29.304L42.2773 27.9782L42.5882 26.6444L44.8662 25.8856L48.2252 27.7355L52.96 25.0249L55.0103 25.7694L56.3251 23.328L58.1885 24.8087L63.4617 17.4029L63.6263 15.6897L61.7263 12.2427L65.6686 12.8995L68.103 12.1061L67.912 13.2381L68.8691 13.6072L69.3385 15.3246L70.5273 11.6614L78.2837 8.17577L79.7468 5.24693L82.23 4.70847L85.1318 0.215088Z" fill="#CECECE"/>
</svg>
