<svg width="34" height="33" viewBox="0 0 34 33" fill="none" xmlns="http://www.w3.org/2000/svg">
<g clip-path="url(#clip0)">
<path d="M7.33536 0.516607C6.5875 0.0333614 5.68923 -0.112696 4.84668 0.0861934L19.6532 14.8928L24.4521 10.0939L7.33536 0.516607Z" fill="currentColor"/>
<path d="M3.00905 1.28979C2.59608 1.83882 2.3584 2.51294 2.3584 3.22605V29.6008C2.3584 30.314 2.59614 30.9881 3.00905 31.5371L18.1326 16.4135L3.00905 1.28979Z" fill="currentColor"/>
<path d="M30.715 13.5982L26.4021 11.1851L21.1738 16.4134L26.4024 21.6419L30.7157 19.2286C31.7491 18.6496 32.3659 17.5973 32.3659 16.4134C32.3659 15.2294 31.7491 14.1772 30.715 13.5982Z" fill="currentColor"/>
<path d="M19.6533 17.9341L4.84766 32.7397C5.0904 32.7968 5.33744 32.8276 5.58448 32.8276C6.195 32.8276 6.8034 32.654 7.3355 32.3102L24.4523 22.733L19.6533 17.9341Z" fill="currentColor"/>
</g>
<defs>
<clipPath id="clip0">
<rect width="32.8276" height="32.8276" fill="currentColor" transform="translate(0.948242)"/>
</clipPath>
</defs>
</svg>
