<svg width="28" height="28" viewBox="0 0 28 28" fill="none" xmlns="http://www.w3.org/2000/svg">
<g clip-path="url(#clip0)">
<path d="M5.44789 0.440612C4.81002 0.0284324 4.04384 -0.0961457 3.3252 0.073495L15.9543 12.7026L20.0474 8.6095L5.44789 0.440612Z" fill="currentColor"/>
<path d="M1.75761 1.1001C1.40536 1.56839 1.20264 2.14337 1.20264 2.75161V25.2477C1.20264 25.856 1.40542 26.431 1.75761 26.8993L14.6571 13.9997L1.75761 1.1001Z" fill="currentColor"/>
<path d="M25.389 11.5985L21.7104 9.54024L17.251 13.9997L21.7106 18.4593L25.3896 16.4009C26.271 15.9071 26.7972 15.0095 26.7972 13.9997C26.7972 12.9898 26.271 12.0923 25.389 11.5985Z" fill="currentColor"/>
<path d="M15.954 15.2967L3.32568 27.925C3.53273 27.9737 3.74344 28 3.95415 28C4.47489 28 4.99382 27.8519 5.44767 27.5587L20.0473 19.3899L15.954 15.2967Z" fill="currentColor"/>
</g>
<defs>
<clipPath id="clip0">
<rect width="28" height="28" fill="currentColor"/>
</clipPath>
</defs>
</svg>
