<svg width="209" height="757" viewBox="0 0 209 757" fill="none" xmlns="http://www.w3.org/2000/svg">
<path d="M-48.3043 5.84783C-48.3043 9.07749 -50.9225 11.6957 -54.1522 11.6957C-57.3818 11.6957 -60 9.07749 -60 5.84783C-60 2.61816 -57.3818 0 -54.1522 0C-50.9225 0 -48.3043 2.61816 -48.3043 5.84783Z" fill="white" fill-opacity="0.1"/>
<path d="M-24.913 5.84783C-24.913 9.07749 -27.5312 11.6957 -30.7609 11.6957C-33.9905 11.6957 -36.6087 9.07749 -36.6087 5.84783C-36.6087 2.61816 -33.9905 0 -30.7609 0C-27.5312 0 -24.913 2.61816 -24.913 5.84783Z" fill="white" fill-opacity="0.1"/>
<path d="M-1.52174 5.84783C-1.52174 9.07749 -4.1399 11.6957 -7.36957 11.6957C-10.5992 11.6957 -13.2174 9.07749 -13.2174 5.84783C-13.2174 2.61816 -10.5992 0 -7.36957 0C-4.1399 0 -1.52174 2.61816 -1.52174 5.84783Z" fill="white" fill-opacity="0.1"/>
<path d="M21.8696 5.84783C21.8696 9.07749 19.2514 11.6957 16.0217 11.6957C12.7921 11.6957 10.1739 9.07749 10.1739 5.84783C10.1739 2.61816 12.7921 0 16.0217 0C19.2514 0 21.8696 2.61816 21.8696 5.84783Z" fill="white" fill-opacity="0.1"/>
<path d="M45.2609 5.84783C45.2609 9.07749 42.6427 11.6957 39.413 11.6957C36.1834 11.6957 33.5652 9.07749 33.5652 5.84783C33.5652 2.61816 36.1834 0 39.413 0C42.6427 0 45.2609 2.61816 45.2609 5.84783Z" fill="white" fill-opacity="0.1"/>
<path d="M68.6522 5.84783C68.6522 9.07749 66.034 11.6957 62.8043 11.6957C59.5747 11.6957 56.9565 9.07749 56.9565 5.84783C56.9565 2.61816 59.5747 0 62.8043 0C66.034 0 68.6522 2.61816 68.6522 5.84783Z" fill="white" fill-opacity="0.1"/>
<path d="M92.0435 5.84783C92.0435 9.07749 89.4253 11.6957 86.1956 11.6957C82.966 11.6957 80.3478 9.07749 80.3478 5.84783C80.3478 2.61816 82.966 0 86.1956 0C89.4253 0 92.0435 2.61816 92.0435 5.84783Z" fill="white" fill-opacity="0.1"/>
<path d="M115.435 5.84783C115.435 9.07749 112.817 11.6957 109.587 11.6957C106.357 11.6957 103.739 9.07749 103.739 5.84783C103.739 2.61816 106.357 0 109.587 0C112.817 0 115.435 2.61816 115.435 5.84783Z" fill="white" fill-opacity="0.1"/>
<path d="M138.826 5.84783C138.826 9.07749 136.208 11.6957 132.978 11.6957C129.749 11.6957 127.13 9.07749 127.13 5.84783C127.13 2.61816 129.749 0 132.978 0C136.208 0 138.826 2.61816 138.826 5.84783Z" fill="white" fill-opacity="0.1"/>
<path d="M162.217 5.84783C162.217 9.07749 159.599 11.6957 156.37 11.6957C153.14 11.6957 150.522 9.07749 150.522 5.84783C150.522 2.61816 153.14 0 156.37 0C159.599 0 162.217 2.61816 162.217 5.84783Z" fill="white" fill-opacity="0.1"/>
<path d="M185.609 5.84783C185.609 9.07749 182.991 11.6957 179.761 11.6957C176.531 11.6957 173.913 9.07749 173.913 5.84783C173.913 2.61816 176.531 0 179.761 0C182.991 0 185.609 2.61816 185.609 5.84783Z" fill="white" fill-opacity="0.1"/>
<path d="M209 5.84783C209 9.07749 206.382 11.6957 203.152 11.6957C199.923 11.6957 197.304 9.07749 197.304 5.84783C197.304 2.61816 199.923 0 203.152 0C206.382 0 209 2.61816 209 5.84783Z" fill="white" fill-opacity="0.1"/>
<path d="M-48.3043 26.9C-48.3043 30.1297 -50.9225 32.7478 -54.1522 32.7478C-57.3818 32.7478 -60 30.1297 -60 26.9C-60 23.6703 -57.3818 21.0522 -54.1522 21.0522C-50.9225 21.0522 -48.3043 23.6703 -48.3043 26.9Z" fill="white" fill-opacity="0.1"/>
<path d="M-24.913 26.9C-24.913 30.1297 -27.5312 32.7478 -30.7609 32.7478C-33.9905 32.7478 -36.6087 30.1297 -36.6087 26.9C-36.6087 23.6703 -33.9905 21.0522 -30.7609 21.0522C-27.5312 21.0522 -24.913 23.6703 -24.913 26.9Z" fill="white" fill-opacity="0.1"/>
<path d="M-1.52174 26.9C-1.52174 30.1297 -4.1399 32.7478 -7.36957 32.7478C-10.5992 32.7478 -13.2174 30.1297 -13.2174 26.9C-13.2174 23.6703 -10.5992 21.0522 -7.36957 21.0522C-4.1399 21.0522 -1.52174 23.6703 -1.52174 26.9Z" fill="white" fill-opacity="0.1"/>
<path d="M21.8696 26.9C21.8696 30.1297 19.2514 32.7478 16.0217 32.7478C12.7921 32.7478 10.1739 30.1297 10.1739 26.9C10.1739 23.6703 12.7921 21.0522 16.0217 21.0522C19.2514 21.0522 21.8696 23.6703 21.8696 26.9Z" fill="white" fill-opacity="0.1"/>
<path d="M45.2609 26.9C45.2609 30.1297 42.6427 32.7478 39.413 32.7478C36.1834 32.7478 33.5652 30.1297 33.5652 26.9C33.5652 23.6703 36.1834 21.0522 39.413 21.0522C42.6427 21.0522 45.2609 23.6703 45.2609 26.9Z" fill="white" fill-opacity="0.1"/>
<path d="M68.6522 26.9C68.6522 30.1297 66.034 32.7478 62.8043 32.7478C59.5747 32.7478 56.9565 30.1297 56.9565 26.9C56.9565 23.6703 59.5747 21.0522 62.8043 21.0522C66.034 21.0522 68.6522 23.6703 68.6522 26.9Z" fill="white" fill-opacity="0.1"/>
<path d="M92.0435 26.9C92.0435 30.1297 89.4253 32.7478 86.1956 32.7478C82.966 32.7478 80.3478 30.1297 80.3478 26.9C80.3478 23.6703 82.966 21.0522 86.1956 21.0522C89.4253 21.0522 92.0435 23.6703 92.0435 26.9Z" fill="white" fill-opacity="0.1"/>
<path d="M115.435 26.9C115.435 30.1297 112.817 32.7478 109.587 32.7478C106.357 32.7478 103.739 30.1297 103.739 26.9C103.739 23.6703 106.357 21.0522 109.587 21.0522C112.817 21.0522 115.435 23.6703 115.435 26.9Z" fill="white" fill-opacity="0.1"/>
<path d="M138.826 26.9C138.826 30.1297 136.208 32.7478 132.978 32.7478C129.749 32.7478 127.13 30.1297 127.13 26.9C127.13 23.6703 129.749 21.0522 132.978 21.0522C136.208 21.0522 138.826 23.6703 138.826 26.9Z" fill="white" fill-opacity="0.1"/>
<path d="M162.217 26.9C162.217 30.1297 159.599 32.7478 156.37 32.7478C153.14 32.7478 150.522 30.1297 150.522 26.9C150.522 23.6703 153.14 21.0522 156.37 21.0522C159.599 21.0522 162.217 23.6703 162.217 26.9Z" fill="white" fill-opacity="0.1"/>
<path d="M185.609 26.9C185.609 30.1297 182.991 32.7478 179.761 32.7478C176.531 32.7478 173.913 30.1297 173.913 26.9C173.913 23.6703 176.531 21.0522 179.761 21.0522C182.991 21.0522 185.609 23.6703 185.609 26.9Z" fill="white" fill-opacity="0.1"/>
<path d="M209 26.9C209 30.1297 206.382 32.7478 203.152 32.7478C199.923 32.7478 197.304 30.1297 197.304 26.9C197.304 23.6703 199.923 21.0522 203.152 21.0522C206.382 21.0522 209 23.6703 209 26.9Z" fill="white" fill-opacity="0.1"/>
<path d="M-48.3043 47.9522C-48.3043 51.1818 -50.9225 53.8 -54.1522 53.8C-57.3818 53.8 -60 51.1818 -60 47.9522C-60 44.7225 -57.3818 42.1043 -54.1522 42.1043C-50.9225 42.1043 -48.3043 44.7225 -48.3043 47.9522Z" fill="white" fill-opacity="0.1"/>
<path d="M-24.913 47.9522C-24.913 51.1818 -27.5312 53.8 -30.7609 53.8C-33.9905 53.8 -36.6087 51.1818 -36.6087 47.9522C-36.6087 44.7225 -33.9905 42.1043 -30.7609 42.1043C-27.5312 42.1043 -24.913 44.7225 -24.913 47.9522Z" fill="white" fill-opacity="0.1"/>
<path d="M-1.52174 47.9522C-1.52174 51.1818 -4.1399 53.8 -7.36957 53.8C-10.5992 53.8 -13.2174 51.1818 -13.2174 47.9522C-13.2174 44.7225 -10.5992 42.1043 -7.36957 42.1043C-4.1399 42.1043 -1.52174 44.7225 -1.52174 47.9522Z" fill="white" fill-opacity="0.1"/>
<path d="M21.8696 47.9522C21.8696 51.1818 19.2514 53.8 16.0217 53.8C12.7921 53.8 10.1739 51.1818 10.1739 47.9522C10.1739 44.7225 12.7921 42.1043 16.0217 42.1043C19.2514 42.1043 21.8696 44.7225 21.8696 47.9522Z" fill="white" fill-opacity="0.1"/>
<path d="M45.2609 47.9522C45.2609 51.1818 42.6427 53.8 39.413 53.8C36.1834 53.8 33.5652 51.1818 33.5652 47.9522C33.5652 44.7225 36.1834 42.1043 39.413 42.1043C42.6427 42.1043 45.2609 44.7225 45.2609 47.9522Z" fill="white" fill-opacity="0.1"/>
<path d="M68.6522 47.9522C68.6522 51.1818 66.034 53.8 62.8043 53.8C59.5747 53.8 56.9565 51.1818 56.9565 47.9522C56.9565 44.7225 59.5747 42.1043 62.8043 42.1043C66.034 42.1043 68.6522 44.7225 68.6522 47.9522Z" fill="white" fill-opacity="0.1"/>
<path d="M92.0435 47.9522C92.0435 51.1818 89.4253 53.8 86.1956 53.8C82.966 53.8 80.3478 51.1818 80.3478 47.9522C80.3478 44.7225 82.966 42.1043 86.1956 42.1043C89.4253 42.1043 92.0435 44.7225 92.0435 47.9522Z" fill="white" fill-opacity="0.1"/>
<path d="M115.435 47.9522C115.435 51.1818 112.817 53.8 109.587 53.8C106.357 53.8 103.739 51.1818 103.739 47.9522C103.739 44.7225 106.357 42.1043 109.587 42.1043C112.817 42.1043 115.435 44.7225 115.435 47.9522Z" fill="white" fill-opacity="0.1"/>
<path d="M138.826 47.9522C138.826 51.1818 136.208 53.8 132.978 53.8C129.749 53.8 127.13 51.1818 127.13 47.9522C127.13 44.7225 129.749 42.1043 132.978 42.1043C136.208 42.1043 138.826 44.7225 138.826 47.9522Z" fill="white" fill-opacity="0.1"/>
<path d="M162.217 47.9522C162.217 51.1818 159.599 53.8 156.37 53.8C153.14 53.8 150.522 51.1818 150.522 47.9522C150.522 44.7225 153.14 42.1043 156.37 42.1043C159.599 42.1043 162.217 44.7225 162.217 47.9522Z" fill="white" fill-opacity="0.1"/>
<path d="M185.609 47.9522C185.609 51.1818 182.991 53.8 179.761 53.8C176.531 53.8 173.913 51.1818 173.913 47.9522C173.913 44.7225 176.531 42.1043 179.761 42.1043C182.991 42.1043 185.609 44.7225 185.609 47.9522Z" fill="white" fill-opacity="0.1"/>
<path d="M209 47.9522C209 51.1818 206.382 53.8 203.152 53.8C199.923 53.8 197.304 51.1818 197.304 47.9522C197.304 44.7225 199.923 42.1043 203.152 42.1043C206.382 42.1043 209 44.7225 209 47.9522Z" fill="white" fill-opacity="0.1"/>
<path d="M-48.3043 69.0043C-48.3043 72.234 -50.9225 74.8522 -54.1522 74.8522C-57.3818 74.8522 -60 72.234 -60 69.0043C-60 65.7747 -57.3818 63.1565 -54.1522 63.1565C-50.9225 63.1565 -48.3043 65.7747 -48.3043 69.0043Z" fill="white" fill-opacity="0.1"/>
<path d="M-24.913 69.0043C-24.913 72.234 -27.5312 74.8522 -30.7609 74.8522C-33.9905 74.8522 -36.6087 72.234 -36.6087 69.0043C-36.6087 65.7747 -33.9905 63.1565 -30.7609 63.1565C-27.5312 63.1565 -24.913 65.7747 -24.913 69.0043Z" fill="white" fill-opacity="0.1"/>
<path d="M-1.52174 69.0043C-1.52174 72.234 -4.1399 74.8522 -7.36957 74.8522C-10.5992 74.8522 -13.2174 72.234 -13.2174 69.0043C-13.2174 65.7747 -10.5992 63.1565 -7.36957 63.1565C-4.1399 63.1565 -1.52174 65.7747 -1.52174 69.0043Z" fill="white" fill-opacity="0.1"/>
<path d="M21.8696 69.0043C21.8696 72.234 19.2514 74.8522 16.0217 74.8522C12.7921 74.8522 10.1739 72.234 10.1739 69.0043C10.1739 65.7747 12.7921 63.1565 16.0217 63.1565C19.2514 63.1565 21.8696 65.7747 21.8696 69.0043Z" fill="white" fill-opacity="0.1"/>
<path d="M45.2609 69.0043C45.2609 72.234 42.6427 74.8522 39.413 74.8522C36.1834 74.8522 33.5652 72.234 33.5652 69.0043C33.5652 65.7747 36.1834 63.1565 39.413 63.1565C42.6427 63.1565 45.2609 65.7747 45.2609 69.0043Z" fill="white" fill-opacity="0.1"/>
<path d="M68.6522 69.0043C68.6522 72.234 66.034 74.8522 62.8043 74.8522C59.5747 74.8522 56.9565 72.234 56.9565 69.0043C56.9565 65.7747 59.5747 63.1565 62.8043 63.1565C66.034 63.1565 68.6522 65.7747 68.6522 69.0043Z" fill="white" fill-opacity="0.1"/>
<path d="M92.0435 69.0043C92.0435 72.234 89.4253 74.8522 86.1956 74.8522C82.966 74.8522 80.3478 72.234 80.3478 69.0043C80.3478 65.7747 82.966 63.1565 86.1956 63.1565C89.4253 63.1565 92.0435 65.7747 92.0435 69.0043Z" fill="white" fill-opacity="0.1"/>
<path d="M115.435 69.0043C115.435 72.234 112.817 74.8522 109.587 74.8522C106.357 74.8522 103.739 72.234 103.739 69.0043C103.739 65.7747 106.357 63.1565 109.587 63.1565C112.817 63.1565 115.435 65.7747 115.435 69.0043Z" fill="white" fill-opacity="0.1"/>
<path d="M138.826 69.0043C138.826 72.234 136.208 74.8522 132.978 74.8522C129.749 74.8522 127.13 72.234 127.13 69.0043C127.13 65.7747 129.749 63.1565 132.978 63.1565C136.208 63.1565 138.826 65.7747 138.826 69.0043Z" fill="white" fill-opacity="0.1"/>
<path d="M162.217 69.0043C162.217 72.234 159.599 74.8522 156.37 74.8522C153.14 74.8522 150.522 72.234 150.522 69.0043C150.522 65.7747 153.14 63.1565 156.37 63.1565C159.599 63.1565 162.217 65.7747 162.217 69.0043Z" fill="white" fill-opacity="0.1"/>
<path d="M185.609 69.0043C185.609 72.234 182.991 74.8522 179.761 74.8522C176.531 74.8522 173.913 72.234 173.913 69.0043C173.913 65.7747 176.531 63.1565 179.761 63.1565C182.991 63.1565 185.609 65.7747 185.609 69.0043Z" fill="white" fill-opacity="0.1"/>
<path d="M209 69.0043C209 72.234 206.382 74.8522 203.152 74.8522C199.923 74.8522 197.304 72.234 197.304 69.0043C197.304 65.7747 199.923 63.1565 203.152 63.1565C206.382 63.1565 209 65.7747 209 69.0043Z" fill="white" fill-opacity="0.1"/>
<path d="M130.197 548C130.197 619.906 71.9058 678.197 0 678.197C-71.9058 678.197 -130.197 619.906 -130.197 548C-130.197 476.095 -71.9058 417.803 0 417.803C71.9058 417.803 130.197 476.095 130.197 548ZM0 679.197C72.4581 679.197 131.197 620.458 131.197 548C131.197 475.542 72.4581 416.803 0 416.803C-72.4581 416.803 -131.197 475.542 -131.197 548C-131.197 620.458 -72.4581 679.197 0 679.197ZM169.348 548C169.348 641.529 93.5285 717.349 -4.57764e-05 717.349C-93.5286 717.349 -169.349 641.529 -169.349 548C-169.349 454.472 -93.5286 378.652 -4.57764e-05 378.652C93.5285 378.652 169.348 454.472 169.348 548ZM-4.57764e-05 718.349C94.0808 718.349 170.348 642.081 170.348 548C170.348 453.919 94.0808 377.652 -4.57764e-05 377.652C-94.0809 377.652 -170.349 453.919 -170.349 548C-170.349 642.081 -94.0809 718.349 -4.57764e-05 718.349ZM208.5 548C208.5 663.151 115.151 756.5 0 756.5C-115.151 756.5 -208.5 663.151 -208.5 548C-208.5 432.849 -115.151 339.5 0 339.5C115.151 339.5 208.5 432.849 208.5 548Z" stroke="white" stroke-opacity="0.15"/>
</svg>
