<svg width="384" height="573" viewBox="0 0 384 573" fill="none" xmlns="http://www.w3.org/2000/svg">
<path d="M11.6957 503.848C11.6957 507.077 9.07749 509.696 5.84783 509.696C2.61816 509.696 0 507.077 0 503.848C0 500.618 2.61816 498 5.84783 498C9.07749 498 11.6957 500.618 11.6957 503.848Z" fill="white" fill-opacity="0.1"/>
<path d="M35.087 503.848C35.087 507.077 32.4688 509.696 29.2391 509.696C26.0095 509.696 23.3913 507.077 23.3913 503.848C23.3913 500.618 26.0095 498 29.2391 498C32.4688 498 35.087 500.618 35.087 503.848Z" fill="white" fill-opacity="0.1"/>
<path d="M58.4783 503.848C58.4783 507.077 55.8601 509.696 52.6304 509.696C49.4008 509.696 46.7826 507.077 46.7826 503.848C46.7826 500.618 49.4008 498 52.6304 498C55.8601 498 58.4783 500.618 58.4783 503.848Z" fill="white" fill-opacity="0.1"/>
<path d="M81.8696 503.848C81.8696 507.077 79.2514 509.696 76.0217 509.696C72.7921 509.696 70.1739 507.077 70.1739 503.848C70.1739 500.618 72.7921 498 76.0217 498C79.2514 498 81.8696 500.618 81.8696 503.848Z" fill="white" fill-opacity="0.1"/>
<path d="M105.261 503.848C105.261 507.077 102.643 509.696 99.413 509.696C96.1834 509.696 93.5652 507.077 93.5652 503.848C93.5652 500.618 96.1834 498 99.413 498C102.643 498 105.261 500.618 105.261 503.848Z" fill="white" fill-opacity="0.1"/>
<path d="M128.652 503.848C128.652 507.077 126.034 509.696 122.804 509.696C119.575 509.696 116.957 507.077 116.957 503.848C116.957 500.618 119.575 498 122.804 498C126.034 498 128.652 500.618 128.652 503.848Z" fill="white" fill-opacity="0.1"/>
<path d="M152.043 503.848C152.043 507.077 149.425 509.696 146.196 509.696C142.966 509.696 140.348 507.077 140.348 503.848C140.348 500.618 142.966 498 146.196 498C149.425 498 152.043 500.618 152.043 503.848Z" fill="white" fill-opacity="0.1"/>
<path d="M175.435 503.848C175.435 507.077 172.817 509.696 169.587 509.696C166.357 509.696 163.739 507.077 163.739 503.848C163.739 500.618 166.357 498 169.587 498C172.817 498 175.435 500.618 175.435 503.848Z" fill="white" fill-opacity="0.1"/>
<path d="M198.826 503.848C198.826 507.077 196.208 509.696 192.978 509.696C189.749 509.696 187.13 507.077 187.13 503.848C187.13 500.618 189.749 498 192.978 498C196.208 498 198.826 500.618 198.826 503.848Z" fill="white" fill-opacity="0.1"/>
<path d="M222.217 503.848C222.217 507.077 219.599 509.696 216.37 509.696C213.14 509.696 210.522 507.077 210.522 503.848C210.522 500.618 213.14 498 216.37 498C219.599 498 222.217 500.618 222.217 503.848Z" fill="white" fill-opacity="0.1"/>
<path d="M245.609 503.848C245.609 507.077 242.991 509.696 239.761 509.696C236.531 509.696 233.913 507.077 233.913 503.848C233.913 500.618 236.531 498 239.761 498C242.991 498 245.609 500.618 245.609 503.848Z" fill="white" fill-opacity="0.1"/>
<path d="M269 503.848C269 507.077 266.382 509.696 263.152 509.696C259.923 509.696 257.304 507.077 257.304 503.848C257.304 500.618 259.923 498 263.152 498C266.382 498 269 500.618 269 503.848Z" fill="white" fill-opacity="0.1"/>
<path d="M11.6957 524.9C11.6957 528.13 9.07749 530.748 5.84783 530.748C2.61816 530.748 0 528.13 0 524.9C0 521.67 2.61816 519.052 5.84783 519.052C9.07749 519.052 11.6957 521.67 11.6957 524.9Z" fill="white" fill-opacity="0.1"/>
<path d="M35.087 524.9C35.087 528.13 32.4688 530.748 29.2391 530.748C26.0095 530.748 23.3913 528.13 23.3913 524.9C23.3913 521.67 26.0095 519.052 29.2391 519.052C32.4688 519.052 35.087 521.67 35.087 524.9Z" fill="white" fill-opacity="0.1"/>
<path d="M58.4783 524.9C58.4783 528.13 55.8601 530.748 52.6304 530.748C49.4008 530.748 46.7826 528.13 46.7826 524.9C46.7826 521.67 49.4008 519.052 52.6304 519.052C55.8601 519.052 58.4783 521.67 58.4783 524.9Z" fill="white" fill-opacity="0.1"/>
<path d="M81.8696 524.9C81.8696 528.13 79.2514 530.748 76.0217 530.748C72.7921 530.748 70.1739 528.13 70.1739 524.9C70.1739 521.67 72.7921 519.052 76.0217 519.052C79.2514 519.052 81.8696 521.67 81.8696 524.9Z" fill="white" fill-opacity="0.1"/>
<path d="M105.261 524.9C105.261 528.13 102.643 530.748 99.413 530.748C96.1834 530.748 93.5652 528.13 93.5652 524.9C93.5652 521.67 96.1834 519.052 99.413 519.052C102.643 519.052 105.261 521.67 105.261 524.9Z" fill="white" fill-opacity="0.1"/>
<path d="M128.652 524.9C128.652 528.13 126.034 530.748 122.804 530.748C119.575 530.748 116.957 528.13 116.957 524.9C116.957 521.67 119.575 519.052 122.804 519.052C126.034 519.052 128.652 521.67 128.652 524.9Z" fill="white" fill-opacity="0.1"/>
<path d="M152.043 524.9C152.043 528.13 149.425 530.748 146.196 530.748C142.966 530.748 140.348 528.13 140.348 524.9C140.348 521.67 142.966 519.052 146.196 519.052C149.425 519.052 152.043 521.67 152.043 524.9Z" fill="white" fill-opacity="0.1"/>
<path d="M175.435 524.9C175.435 528.13 172.817 530.748 169.587 530.748C166.357 530.748 163.739 528.13 163.739 524.9C163.739 521.67 166.357 519.052 169.587 519.052C172.817 519.052 175.435 521.67 175.435 524.9Z" fill="white" fill-opacity="0.1"/>
<path d="M198.826 524.9C198.826 528.13 196.208 530.748 192.978 530.748C189.749 530.748 187.13 528.13 187.13 524.9C187.13 521.67 189.749 519.052 192.978 519.052C196.208 519.052 198.826 521.67 198.826 524.9Z" fill="white" fill-opacity="0.1"/>
<path d="M222.217 524.9C222.217 528.13 219.599 530.748 216.37 530.748C213.14 530.748 210.522 528.13 210.522 524.9C210.522 521.67 213.14 519.052 216.37 519.052C219.599 519.052 222.217 521.67 222.217 524.9Z" fill="white" fill-opacity="0.1"/>
<path d="M245.609 524.9C245.609 528.13 242.991 530.748 239.761 530.748C236.531 530.748 233.913 528.13 233.913 524.9C233.913 521.67 236.531 519.052 239.761 519.052C242.991 519.052 245.609 521.67 245.609 524.9Z" fill="white" fill-opacity="0.1"/>
<path d="M269 524.9C269 528.13 266.382 530.748 263.152 530.748C259.923 530.748 257.304 528.13 257.304 524.9C257.304 521.67 259.923 519.052 263.152 519.052C266.382 519.052 269 521.67 269 524.9Z" fill="white" fill-opacity="0.1"/>
<path d="M11.6957 545.952C11.6957 549.182 9.07749 551.8 5.84783 551.8C2.61816 551.8 0 549.182 0 545.952C0 542.723 2.61816 540.104 5.84783 540.104C9.07749 540.104 11.6957 542.723 11.6957 545.952Z" fill="white" fill-opacity="0.1"/>
<path d="M35.087 545.952C35.087 549.182 32.4688 551.8 29.2391 551.8C26.0095 551.8 23.3913 549.182 23.3913 545.952C23.3913 542.723 26.0095 540.104 29.2391 540.104C32.4688 540.104 35.087 542.723 35.087 545.952Z" fill="white" fill-opacity="0.1"/>
<path d="M58.4783 545.952C58.4783 549.182 55.8601 551.8 52.6304 551.8C49.4008 551.8 46.7826 549.182 46.7826 545.952C46.7826 542.723 49.4008 540.104 52.6304 540.104C55.8601 540.104 58.4783 542.723 58.4783 545.952Z" fill="white" fill-opacity="0.1"/>
<path d="M81.8696 545.952C81.8696 549.182 79.2514 551.8 76.0217 551.8C72.7921 551.8 70.1739 549.182 70.1739 545.952C70.1739 542.723 72.7921 540.104 76.0217 540.104C79.2514 540.104 81.8696 542.723 81.8696 545.952Z" fill="white" fill-opacity="0.1"/>
<path d="M105.261 545.952C105.261 549.182 102.643 551.8 99.413 551.8C96.1834 551.8 93.5652 549.182 93.5652 545.952C93.5652 542.723 96.1834 540.104 99.413 540.104C102.643 540.104 105.261 542.723 105.261 545.952Z" fill="white" fill-opacity="0.1"/>
<path d="M128.652 545.952C128.652 549.182 126.034 551.8 122.804 551.8C119.575 551.8 116.957 549.182 116.957 545.952C116.957 542.723 119.575 540.104 122.804 540.104C126.034 540.104 128.652 542.723 128.652 545.952Z" fill="white" fill-opacity="0.1"/>
<path d="M152.043 545.952C152.043 549.182 149.425 551.8 146.196 551.8C142.966 551.8 140.348 549.182 140.348 545.952C140.348 542.723 142.966 540.104 146.196 540.104C149.425 540.104 152.043 542.723 152.043 545.952Z" fill="white" fill-opacity="0.1"/>
<path d="M175.435 545.952C175.435 549.182 172.817 551.8 169.587 551.8C166.357 551.8 163.739 549.182 163.739 545.952C163.739 542.723 166.357 540.104 169.587 540.104C172.817 540.104 175.435 542.723 175.435 545.952Z" fill="white" fill-opacity="0.1"/>
<path d="M198.826 545.952C198.826 549.182 196.208 551.8 192.978 551.8C189.749 551.8 187.13 549.182 187.13 545.952C187.13 542.723 189.749 540.104 192.978 540.104C196.208 540.104 198.826 542.723 198.826 545.952Z" fill="white" fill-opacity="0.1"/>
<path d="M222.217 545.952C222.217 549.182 219.599 551.8 216.37 551.8C213.14 551.8 210.522 549.182 210.522 545.952C210.522 542.723 213.14 540.104 216.37 540.104C219.599 540.104 222.217 542.723 222.217 545.952Z" fill="white" fill-opacity="0.1"/>
<path d="M245.609 545.952C245.609 549.182 242.991 551.8 239.761 551.8C236.531 551.8 233.913 549.182 233.913 545.952C233.913 542.723 236.531 540.104 239.761 540.104C242.991 540.104 245.609 542.723 245.609 545.952Z" fill="white" fill-opacity="0.1"/>
<path d="M269 545.952C269 549.182 266.382 551.8 263.152 551.8C259.923 551.8 257.304 549.182 257.304 545.952C257.304 542.723 259.923 540.104 263.152 540.104C266.382 540.104 269 542.723 269 545.952Z" fill="white" fill-opacity="0.1"/>
<path d="M11.6957 567.004C11.6957 570.234 9.07749 572.852 5.84783 572.852C2.61816 572.852 0 570.234 0 567.004C0 563.775 2.61816 561.157 5.84783 561.157C9.07749 561.157 11.6957 563.775 11.6957 567.004Z" fill="white" fill-opacity="0.1"/>
<path d="M35.087 567.004C35.087 570.234 32.4688 572.852 29.2391 572.852C26.0095 572.852 23.3913 570.234 23.3913 567.004C23.3913 563.775 26.0095 561.157 29.2391 561.157C32.4688 561.157 35.087 563.775 35.087 567.004Z" fill="white" fill-opacity="0.1"/>
<path d="M58.4783 567.004C58.4783 570.234 55.8601 572.852 52.6304 572.852C49.4008 572.852 46.7826 570.234 46.7826 567.004C46.7826 563.775 49.4008 561.157 52.6304 561.157C55.8601 561.157 58.4783 563.775 58.4783 567.004Z" fill="white" fill-opacity="0.1"/>
<path d="M81.8696 567.004C81.8696 570.234 79.2514 572.852 76.0217 572.852C72.7921 572.852 70.1739 570.234 70.1739 567.004C70.1739 563.775 72.7921 561.157 76.0217 561.157C79.2514 561.157 81.8696 563.775 81.8696 567.004Z" fill="white" fill-opacity="0.1"/>
<path d="M105.261 567.004C105.261 570.234 102.643 572.852 99.413 572.852C96.1834 572.852 93.5652 570.234 93.5652 567.004C93.5652 563.775 96.1834 561.157 99.413 561.157C102.643 561.157 105.261 563.775 105.261 567.004Z" fill="white" fill-opacity="0.1"/>
<path d="M128.652 567.004C128.652 570.234 126.034 572.852 122.804 572.852C119.575 572.852 116.957 570.234 116.957 567.004C116.957 563.775 119.575 561.157 122.804 561.157C126.034 561.157 128.652 563.775 128.652 567.004Z" fill="white" fill-opacity="0.1"/>
<path d="M152.043 567.004C152.043 570.234 149.425 572.852 146.196 572.852C142.966 572.852 140.348 570.234 140.348 567.004C140.348 563.775 142.966 561.157 146.196 561.157C149.425 561.157 152.043 563.775 152.043 567.004Z" fill="white" fill-opacity="0.1"/>
<path d="M175.435 567.004C175.435 570.234 172.817 572.852 169.587 572.852C166.357 572.852 163.739 570.234 163.739 567.004C163.739 563.775 166.357 561.157 169.587 561.157C172.817 561.157 175.435 563.775 175.435 567.004Z" fill="white" fill-opacity="0.1"/>
<path d="M198.826 567.004C198.826 570.234 196.208 572.852 192.978 572.852C189.749 572.852 187.13 570.234 187.13 567.004C187.13 563.775 189.749 561.157 192.978 561.157C196.208 561.157 198.826 563.775 198.826 567.004Z" fill="white" fill-opacity="0.1"/>
<path d="M222.217 567.004C222.217 570.234 219.599 572.852 216.37 572.852C213.14 572.852 210.522 570.234 210.522 567.004C210.522 563.775 213.14 561.157 216.37 561.157C219.599 561.157 222.217 563.775 222.217 567.004Z" fill="white" fill-opacity="0.1"/>
<path d="M245.609 567.004C245.609 570.234 242.991 572.852 239.761 572.852C236.531 572.852 233.913 570.234 233.913 567.004C233.913 563.775 236.531 561.157 239.761 561.157C242.991 561.157 245.609 563.775 245.609 567.004Z" fill="white" fill-opacity="0.1"/>
<path d="M269 567.004C269 570.234 266.382 572.852 263.152 572.852C259.923 572.852 257.304 570.234 257.304 567.004C257.304 563.775 259.923 561.157 263.152 561.157C266.382 561.157 269 563.775 269 567.004Z" fill="white" fill-opacity="0.1"/>
<path d="M406.663 109C406.663 146.369 376.369 176.663 339 176.663C301.631 176.663 271.337 146.369 271.337 109C271.337 71.6311 301.631 41.3376 339 41.3376C376.369 41.3376 406.663 71.6311 406.663 109ZM339 177.663C376.921 177.663 407.663 146.921 407.663 109C407.663 71.0788 376.921 40.3376 339 40.3376C301.079 40.3376 270.337 71.0788 270.337 109C270.337 146.921 301.079 177.663 339 177.663ZM427.081 109C427.081 157.646 387.646 197.081 339 197.081C290.354 197.081 250.919 157.646 250.919 109C250.919 60.3542 290.354 20.9189 339 20.9189C387.646 20.9189 427.081 60.3542 427.081 109ZM339 198.081C388.198 198.081 428.081 158.198 428.081 109C428.081 59.802 388.198 19.9189 339 19.9189C289.802 19.9189 249.919 59.802 249.919 109C249.919 158.198 289.802 198.081 339 198.081ZM447.5 109C447.5 168.923 398.923 217.5 339 217.5C279.077 217.5 230.5 168.923 230.5 109C230.5 49.0771 279.077 0.5 339 0.5C398.923 0.5 447.5 49.0771 447.5 109Z" stroke="white" stroke-opacity="0.15"/>
</svg>
