<svg width="172" height="160" viewBox="0 0 172 160" fill="none" xmlns="http://www.w3.org/2000/svg">
<path d="M87.8289 0.917969L87.8364 2.61123L86.4287 4.31401L86.3566 6.07199L98.6592 6.68304L98.3849 7.49779L98.9456 7.61485L99.3349 8.46007L97.6053 10.2447L97.7372 11.2393L98.7921 11.3003L99.9836 10.6797L100.351 11.0366L99.5895 15.3568L100.527 16.1859L99.832 17.7459L99.1244 17.565L98.8557 17.9524L98.8988 18.5111L99.4183 18.6558L100.181 19.9407L100.162 20.7107L101.065 20.6451L101.228 19.7095L103.314 20.0816L104.97 18.988L106.655 19.8846L107.164 21.7653L107.907 21.9966L108.864 21.6464L109.612 22.8894L110.203 23.0189L111.608 22.0671L112.461 22.8323L114.338 21.5036L114.254 22.8095L114.848 23.0322L115.097 22.3859L115.835 22.2194L115.933 23.8784L115.159 24.9291L115.846 25.2509L115.541 26.5691L116.513 26.6957L116.6 27.7884L118.097 27.9188L118.202 28.7211L117.234 29.8347L118.141 31.864L117.851 32.9709L118.446 33.8161L118.971 36.8819L120.192 37.1617L120.409 38.4305L123.331 40.4236L123.175 41.5505L125.505 41.8655L126.155 42.4233L126.787 43.5578L128.042 44.403L127.895 45.2854L128.715 45.6794L128.559 46.1591L129.496 47.2318L128.95 47.4726L128.976 46.9491L128.219 46.8378L126.424 48.6186L127.325 48.9174L127.373 49.579L127.983 48.7233L128.374 49.0574L127.78 49.4942L127.873 49.894L127.088 50.0234L127.49 50.4898L126.822 50.6954L127.419 51.0628L126.954 52.1336L126.471 51.8157L126.179 52.2202L126.282 52.5857L127.233 52.7542L126.952 53.7536L128.649 54.1314L129.402 53.6698L131.064 55.0366L132.05 54.2866L131.459 53.7716L131.567 52.9845L130.937 52.6247L131.192 51.3284L130.712 50.7411L131.866 50.0073L131.15 49.3876L132.596 49.1259L133.201 49.3953L133.498 50.1358L134.362 49.9092L134.623 49.0526L133.503 48.4492L134.643 47.8333L133.144 46.7026L134.257 46.734L135.058 47.6172L136.903 47.2422L137.429 48.3244L136.707 48.2054L136.465 48.6261L137.427 49.2648L136.566 49.6036L138.227 49.8406L138.221 51.3797L139.412 50.4974L140.609 50.2909L140.436 48.5452L143.184 47.1861L143.377 45.964L144.34 45.6251L146.52 47.484L145.675 50.7715L145.684 52.4048L146.07 52.5352L145.832 54.4369L145.383 54.4721L144.998 56.7517L145.595 57.4256L144.936 57.458L145.361 58.3717L145.98 58.0015L146.691 58.4031L147.142 56.51L148.821 56.5833L148.588 56.016L147.674 55.6943L148.019 54.7549L149.748 55.7314L150.237 55.3869L150.221 54.8548L150.809 55.01L150.574 55.542L151.067 54.7121L151.81 55.522L152.413 54.8434L152.673 55.0566L153.228 55.4725L153.101 57.0249L153.863 57.5284L153.977 58.4955L153.366 59.4197L154.129 59.828L153.743 60.3267L153.835 61.2452L154.762 61.547L155.036 62.4121L155.686 62.7643L155.404 63.5829L155.732 64.1682L157.012 64.5661L158.527 65.7853L159.302 65.4132L158.862 66.3688L159.891 67.7441L159.799 68.2258L160.456 68.6027L160.095 69.1547L159.126 69.3127L158.845 70.3235L157.035 70.9451L157.485 71.5675L158.352 71.3267L158.191 72.2424L159.562 72.7183L160.462 71.9159L161.055 73.0562L161.422 73.0552L161.503 72.3614L162.063 72.5565L161.697 73.3255L159.984 73.6453L155.546 76.0191L155.875 77.0823L155.667 78.1712L156.366 78.1835L156.053 78.6899L156.935 78.2407L156.693 77.7781L157.026 76.4427L157.471 77.0185L159.113 76.7796L161.294 75.7012L161.355 74.9217L162.031 74.4477L164.71 75.5204L164.902 74.7409L165.725 75.291L166.993 75.0502L167.294 76.1562L167.799 75.8459L167.69 74.9436L168.85 75.1758L169.044 74.1032L170.884 74.422L171.093 74.087L172 74.7637L171.302 75.6717L170.607 75.5394L170.973 76.7064L170.016 76.9072L170.313 77.6962L168.819 77.5734L169.137 78.5148L168.609 78.8812L168.542 80.1033L166.71 79.6684L165.841 80.5022L164.797 80.565L164.499 81.4949L163.343 81.9479L163.198 82.9464L161.853 83.1577L161.258 84.0657L160.352 83.9753L157.514 86.0426L155.649 86.2196L155.742 87.1476L153.826 87.319L152.95 88.6819L151.248 89.9678L149.699 89.9555L149.066 90.9958L147.95 91.1938L146.995 92.2874L145.07 93.1497L143.946 94.5555L144.139 94.9591L143.474 96.244L142.487 96.4924L142.614 96.9255L142.045 97.3557L140.336 97.2168L139.953 98.0534L139.289 97.9801L138.047 99.6581L138.072 101.067L137.127 101.415L137.036 101.922L137.684 102.411L137.87 105.552L138.732 107.472L139.215 107.712L139.481 108.644L141.02 109.598L142.699 109.801L142.765 110.328L144.193 109.926L145.177 110.104L146.129 111.135L146.461 110.657L147.743 110.571L148.748 109.725L151.289 110.345L151.584 108.985L152.813 107.885L153.25 107.604L154.349 108.118L153.861 110.035L154.554 110.152L154.12 111.214L155.232 112.21L155.459 112.939L154.925 113.045L155.077 114.684L153.203 115.328L152.408 114.554L150.592 114.675L149.512 115.651L148.783 115.895L147.146 115.414L144.416 116.937L145.137 118.918L145.719 118.982L145.581 119.612L146.268 119.94L145.83 120.444L143.971 120.653L143.381 121.098L144.277 122.615L145.494 122.693L146.323 122.285L146.72 123.022L147.792 123.476L148.434 124.968L148.537 126.549L148.255 127.495L147.896 127.445L147.298 128.553L146.59 128.924L145.597 128.34L145.562 127.123L144.91 127.521L144.648 126.997L143.636 127.323L144.356 128.744L144.138 131.582L144.804 133.052L146.181 134.46L145.626 134.841L145.309 136.092L144.447 135.922L143.372 136.325L142.469 135.202L141.413 135.216L140.885 134.739L141.44 133.536L141.253 132.748L139.752 133.231L139.706 133.68L139.198 133.519L139.38 133.946L138.761 134.579L139.035 135.016L138.088 135.391L136.884 133.914L136.556 134.231L135.976 134.011L135.796 134.435L134.081 133.431L133.216 134.255L131.9 134.231L131.49 132.753L131.716 132.185L131.31 131.738L130.478 132.743L130.703 133.646L130.053 134.675L130.315 136.87L128.596 137.296L126.896 138.387L127.202 140.391L125.297 141.439L124.945 141.2L123.643 141.661L123.307 142.105L122.773 141.321L121.843 141.018L121.761 141.601L122.369 142.011L122.148 142.859L121.551 142.855L121.493 144.124L120.853 143.23L119.496 143.264L118.977 142.71L119.372 142.373L119.066 141.973L117.027 140.655L117.189 139.356L118.16 137.881L119.191 138.445L119.522 139.113L120.519 138.941L121.194 138.21L121.806 139.608L123.013 138.982L123.358 137.59L124.419 137.3L124.459 136.521L123.554 136.555L123.292 135.921L122.65 135.908L123.238 134.143L124.284 133.588L123.977 132.348L123.073 132.191L122.541 131.381L122.325 130.134L122.881 130.045L122.752 129.63L123.583 128.612L124.683 129.836L125.893 129.026L125.948 128.236L125.542 127.862L126.207 127.344L125.846 126.936L126.057 126.515L125.001 125.612L124.509 125.988L124.309 125.602L124.713 124.736L124.289 124.335L124.517 123.062L122.967 122.301L120.1 123.966L119.484 123.219L116.936 123.861L113.319 123L112.333 123.225L111.717 122.228L112.127 121.315L113.018 120.721L112.027 119.692L112.162 119.13L112.46 119.566L112.98 119.442L112.538 120.24L113.548 120.364L114.073 121.24L116.255 120.136L116.394 119.506L114.47 119.631L114.182 120.014L113.205 119.573L113.825 118.842L113.301 117.995L113.488 117.671L114.232 119.339L114.695 117.969L114.332 117.02L114.971 116.613L114.854 116.226L111.2 116.168L111.303 117.345L110.35 117.919L110.411 119.587L109.186 119.742L108.933 120.238L106.517 119.526L106.377 118.727L105.823 118.261L105.481 118.54L105.072 117.724L104.626 118.725L105.259 120.369L105.121 121.691L105.311 121.246L106.456 121.811L108.221 121.617L108.479 122.562L107.953 122.563L108.08 123.528L107.341 123.695L106.963 124.576L105.983 124.687L104.151 121.627L103.68 123.981L104.499 124.331L103.84 125.092L103.97 125.659L103.144 125.963L103.317 126.883L102.439 127.833L103.752 128.433L104.494 128.264L104.522 128.899L105.303 128.782L103.909 130.866L103.844 132.058L103.239 132.8L105.529 132.843L106.011 133.256L106.238 133.864L105.754 134.303L107.945 138.293L106.541 140.331L106.234 141.671L106.917 144.681L106.272 145.807L106.901 146.942L106.242 147.103L105.054 148.589L104.221 149.024L103.87 148.722L102.864 149.75L102.218 149.68L101.317 150.529L100.508 150.595L99.7355 151.433L99.6719 152.4L98.6442 153.458L99.3331 154.455L99.6944 154.058L101.152 154.946L102.227 154.678L102.638 155.318L102.107 155.737L103.101 155.529L103.099 155.973L102.509 156.348L101.6 156.203L100.403 157.423L99.1814 157.697L98.5263 158.63L96.1535 158.13L94.8132 159.191L94.0251 158.496L94.1356 157.985L93.31 156.487L92.5556 156.406L92.0745 157.263L90.9776 156.69L91.1105 154.737L90.4815 154.169L89.3602 154.162L89.129 153.38L88.3081 153.266L87.9216 152.413L87.4564 152.491L87.2916 153.184L86.4174 153.277L85.1997 150.911L84.2385 151.173L83.8791 150.656L83.1228 151.647L82.6932 150.716L81.6945 151.046L81.2939 150.788L81.7965 149.672L81.379 148.722L81.8424 147.104L80.2063 146.402L78.9567 147.236L78.8594 145.364L78.2866 145.242L77.1344 143.72L76.2611 143.994L76.0018 143.544L75.9906 141.931L77.2167 140.431L76.832 139.143L77.0024 137.829L76.1385 137.028L76.2133 136.156L75.4627 136.44L75.4103 137.338L74.5978 138.343L73.7124 138.705L72.7933 137.821L73.2809 136.806L71.1328 135.929L70.516 134.922L71.7356 132.253L72.4348 132.391L72.6763 131.476L73.031 131.68L73.4307 131.017L73.0301 130.784L72.2261 131.322L70.561 130.369L71.0187 129.676L70.7453 128.186L69.8964 128.828L69.1467 128.455L68.9024 128.711L68.177 130.602L68.7283 131.032L67.4048 131.851L66.3116 130.992L63.6553 131.091L62.8896 129.829L62.9636 129.003L60.8333 128.67L59.9731 127.922L59.1101 129.154L59.2505 130.033L58.4072 130.093L57.8587 128.931L57.972 127.979L56.9536 128.097L56.3153 126.928L55.0845 127.235L54.2206 126.326L54.7737 125.894L55.6901 126.18L56.2339 125.499L55.4757 125.7L53.8087 125.177L53.4297 125.619L52.5433 125.578L50.9661 124.744L50.9727 123.778L50.3306 123.586L48.2087 125.31L47.737 124.425L46.8825 124.255L46.5277 125.802L45.6142 125.418L45.3643 124.356L42.6715 125.168L41.7907 124.353L39.2767 124.283L37.2147 125.421L36.5866 124.733L35.543 125.727L31.8084 124.135L28.6411 118.593L27.6386 114.011L25.133 111.363L24.6978 110.136L23.3256 108.636L23.5933 105.828L23.1646 101.875L22.2053 101.667L20.6225 102.325L17.9465 102.61L15.5944 101.785L11.9984 96.4343L11.7335 93.5789L13.4987 89.7984L13.7196 84.4511L13.4023 83.0358L11.4134 81.9593L7.75181 82.3638L6.49853 82.1183L4.66681 80.7505L0.468927 78.6518L0 77.3697L0.5775 72.6878L1.8495 69.3793L7.41111 64.0882L8.86657 61.8696L10.4343 60.6646L12.2277 55.9465L13.1908 54.4408L17.2904 50.5336L19.5939 49.9549L21.1392 50.2738L23.2845 52.6418L23.408 54.3294L24.9608 57.0582L27.4402 57.4789L35.0572 54.2647L37.737 53.7298L42.6069 53.6583L47.2915 51.6748L47.9953 47.8685L49.2215 46.0687L52.9158 42.6688L55.2183 35.7483L56.8394 33.5077L63.2388 29.6358L67.7539 27.5466L68.8968 24.8215L70.6443 22.5106L74.2122 15.5062L76.5643 6.80866L80.8708 4.87364L84.3199 3.86663L87.8289 0.917969Z" fill="#CECECE"/>
</svg>
