<svg width="193" height="258" viewBox="0 0 193 258" fill="none" xmlns="http://www.w3.org/2000/svg">
<path d="M209.17 129C209.17 173.276 173.276 209.169 129 209.169C84.7238 209.169 48.8307 173.276 48.8307 129C48.8307 84.7236 84.7238 48.8305 129 48.8305C173.276 48.8305 209.17 84.7236 209.17 129ZM129 210.169C173.829 210.169 210.17 173.829 210.17 129C210.17 84.1713 173.829 47.8305 129 47.8305C84.1715 47.8305 47.8307 84.1713 47.8307 129C47.8307 173.829 84.1715 210.169 129 210.169ZM233.335 129C233.335 186.623 186.623 233.335 129 233.335C71.3776 233.335 24.6653 186.623 24.6653 129C24.6653 71.3776 71.3776 24.6653 129 24.6653C186.623 24.6653 233.335 71.3776 233.335 129ZM129 234.335C187.175 234.335 234.335 187.175 234.335 129C234.335 70.8253 187.175 23.6653 129 23.6653C70.8253 23.6653 23.6653 70.8253 23.6653 129C23.6653 187.175 70.8253 234.335 129 234.335ZM257.5 129C257.5 199.969 199.969 257.5 129 257.5C58.0314 257.5 0.5 199.969 0.5 129C0.5 58.0314 58.0314 0.5 129 0.5C199.969 0.5 257.5 58.0314 257.5 129Z" stroke="black" stroke-opacity="0.15"/>
</svg>
