<svg width="143" height="286" viewBox="0 0 143 286" fill="none" xmlns="http://www.w3.org/2000/svg">
<path d="M88.9243 143C88.9243 192.112 49.1115 231.924 3.05176e-05 231.924C-49.1115 231.924 -88.9242 192.112 -88.9242 143C-88.9242 93.8886 -49.1115 54.0759 3.05176e-05 54.0759C49.1115 54.0759 88.9243 93.8886 88.9243 143ZM3.05176e-05 232.924C49.6638 232.924 89.9243 192.664 89.9243 143C89.9243 93.3363 49.6638 53.0759 3.05176e-05 53.0759C-49.6638 53.0759 -89.9242 93.3363 -89.9242 143C-89.9242 192.664 -49.6638 232.924 3.05176e-05 232.924ZM115.712 143C115.712 206.906 63.906 258.712 -3.05176e-05 258.712C-63.9061 258.712 -115.712 206.906 -115.712 143C-115.712 79.094 -63.9061 27.2879 -3.05176e-05 27.2879C63.906 27.2879 115.712 79.094 115.712 143ZM-3.05176e-05 259.712C64.4583 259.712 116.712 207.458 116.712 143C116.712 78.5417 64.4583 26.2879 -3.05176e-05 26.2879C-64.4584 26.2879 -116.712 78.5417 -116.712 143C-116.712 207.458 -64.4584 259.712 -3.05176e-05 259.712ZM142.5 143C142.5 221.701 78.7006 285.5 0 285.5C-78.7006 285.5 -142.5 221.701 -142.5 143C-142.5 64.2994 -78.7006 0.5 0 0.5C78.7006 0.5 142.5 64.2994 142.5 143Z" stroke="white" stroke-opacity="0.15"/>
</svg>
