<svg width="133" height="179" viewBox="0 0 133 179" fill="none" xmlns="http://www.w3.org/2000/svg">
<path d="M99.16 137.695L99.8847 138.239L99.2299 139.179L99.593 139.843L103.215 143.185L98.727 140.328L96.0501 140.095L95.7234 139.343L96.2354 138.867L97.7364 138.832L99.16 137.695ZM64.4407 26.655L64.6488 27.8761L63.4608 28.9808L65.8323 28.6365L66.6603 29.9064L69.1366 31.2468L72.0399 31.0647L71.9777 29.602L72.9606 29.5683L73.1156 28.2585L73.6594 28.3137L73.8326 28.257L74.1 29.0359L74.8399 28.843L74.7731 26.9396L75.9307 26.0629L77.3223 21.2186L77.9893 21.2247L76.9395 19.2708L78.1306 17.9962L79.4873 18.4384L79.7638 16.7477L81.1493 17.0981L85.2847 15.7653L85.4716 17.9366L86.8313 17.9718L85.8392 17.4332L86.5047 16.3667L88.5784 16.0806L91.424 18.1171L94.0842 18.3405L95.2358 15.8144L96.1701 15.1839L96.1716 14.1497L97.7319 13.9645L99.0217 15.412L100.505 14.3394L100.289 13.2515L102.706 12.4543L102.638 11.7658L103.397 11.4965L103.098 11.0696L102.294 11.6479L102.745 9.38491L101.141 8.67497L102.867 8.00331L106.267 8.41339L106.679 9.85005L107.681 10.5616L110.489 9.36656L110.641 11.0819L111.364 10.9365L111.132 11.8026L112.216 11.3297L112.902 12.2095L114.19 11.2761L112.166 9.68181L113.21 8.68266L114.027 9.36053L114.679 8.63214L116.297 8.66116L118.661 7.59777L119.553 6.35076L118.883 5.36227L119.861 4.91864L119.817 3.82615L120.884 3.55835L121.218 2.63262L122.177 2.73968L122.072 2.17202L120.718 1.90126L120.844 1.26168L123.24 1L125.868 2.92331L128.357 2.98912L129.809 5.85957L130.958 6.50519L130.956 4.77014L132 9.65113L130.543 14.0271L129.139 25.6588L126.029 35.8782L117.371 49.0676L115.87 53.1131L114.606 52.3649L112.666 54.1979L111.992 52.2395L113.164 51.8477L112.595 51.3657L111.677 51.9166L110.825 50.5533L109.723 51.6258L111.461 52.0895L110.797 53.2432L111.683 53.4987L112.283 54.7075L111.981 55.2461L110.946 54.279L110.188 55.549L111.612 56.4395L113.075 55.7158L113.149 56.8894L114.091 56.3753L114.684 57.4126L113.306 65.363L115.885 72.1458L116.406 84.4339L114.717 84.1034L114.144 84.7155L112.507 84.0759L112.94 85.4912L111.607 85.2158L112.346 86.9785L114.957 87.9516L115.095 89.6806L116.3 89.6912L117.192 106.433L115.805 107.116L112.854 107.125L101.494 105.777L98.6055 107.592L96.5119 111.356L96.4937 113.045L97.7304 114.795L94.1602 118.206L93.1012 120.718L89.0372 125.437L87.1473 128.691L85.9896 132.804L87.2977 135.19L91.2462 138.602L95.2829 139.209L92.2094 139.909L87.8006 139.505L85.1951 140.016L80.5659 141.556L80.2742 142.156L78.3478 142.084L77.8526 142.686L78.3296 143.206L75.8122 144.057L70.4857 144.682L64.073 149.597L62.7908 152.083L62.4292 155.644L63.3741 155.483L64.743 156.378L62.809 156.53L60.7595 159.507L60.4937 161.77L61.8367 161.529L61.5723 164.479L59.4955 166.963L59.0018 168.232L59.5578 168.544L51.1928 172.482L49.3728 174.761L43.9308 176.1L43.1439 178L35.6707 176.572L28.6898 170.879L29.4995 170.079L30.6997 170.415L29.9097 168.29L32.2843 166.387L31.5536 164.596L33.4952 164.339L34.0557 163.178L30.563 156.738L31.2375 156.821L32.4499 155.509L33.3508 152.819L32.1339 150.947L31.3621 151L31.3545 149.993L29.8277 147.905L31.4153 147.109L31.8528 145.435L33.6304 143.677L33.1488 142.511L34.1089 141.555V138.909L34.6589 137.731L35.5233 137.716L36.2526 134.388L37.6624 133.753L38.2246 132.275L36.7706 131.316L36.4638 129.097L35.9518 130.125L35.3 129.163L33.7321 130.069L31.8528 128.803L30.4521 128.744L31.6614 125.208L32.2433 125.009L32.2934 123.128L33.0622 122.85L32.2661 122.01L32.7355 120.896L31.9546 120.348L33.0865 117.866L33.8598 117.525L33.5119 115.364L31.5946 113.028L33.8841 112.168L34.5419 109.319L33.4632 108.888L33.5909 107.817L32.4438 106.132L32.6869 105.016L30.8046 104.822L27.2708 106.788L26.8469 107.996L24.6926 109.273L22.6158 108.751L21.2424 107.383L21.3062 106.64L20.4874 107.042L19.8873 106.473L20.5132 104.389L19.4953 102.602L20.2078 97.0953L19.4209 95.7579L21.5721 95.6584L21.0282 94.1743L22.3636 91.082L22.0704 90.1395L20.5481 89.887L19.8204 88.1336L14.4651 86.1123L16.2897 82.6374L19.0228 82.2809L17.262 82.1157L17.3137 79.7227L15.8005 78.9698L16.8944 76.8828L15.9843 76.1529L13.634 77.6356L9.3285 77.0802L8.21945 77.8131L8.0174 76.1821L10.9997 74.173L10.9359 72.2497L10.0228 72.4103L8.07969 71.2827L6.87189 69.5889L4.43198 68.7734L4.02481 69.2294L2.66207 68.2592L1.45578 68.7428L1 65.3398L2.43721 64.4157L3.29405 65.3429L4.95459 64.7446L5.90565 63.4548L7.32918 63.4258L7.28664 62.2538L8.17388 62.3899L9.85417 60.9961L11.0057 61.8911L11.6317 63.8527L17.5522 63.839L19.787 64.2721L20.4479 65.0096L20.8808 64.1221L20.1683 62.7481L22.432 58.2252L24.3371 58.8143L24.7565 57.6468L25.7637 57.5841L26.6297 58.2038L26.3334 58.8281L27.4212 58.4241L27.9013 60.1164L29.1 60.5142L28.8934 58.8801L32.8449 58.2099L33.3128 57.6025L34.6832 57.7357L35.9958 59.0163L37.0578 58.3721L38.9584 59.2856L40.1358 56.4106L40.0249 54.8025L40.7921 55.211L41.0306 53.3765L46.6305 53.1898L47.5527 50.8548L50.0656 47.7426L48.7271 45.7337L40.4366 44.5953L40.5809 42.6536L42.8871 41.9421L44.8302 39.6592L45.3468 37.8782L45.5093 35.6351L43.9248 35.9243L44.9108 34.9007L44.025 34.6651L43.7561 33.0049L44.6403 30.9485L44.4018 29.7565L46.4361 29.2148L47.2018 30.035L48.0115 29.2301L48.8897 29.5484L51.0546 25.5396L50.5897 24.0065L54.8147 22.5514L55.3465 23.2812L54.5443 24.3936L55.0396 24.6644L55.7004 23.5016L56.8399 25.255L57.478 25.2611L57.9049 23.6147L58.9167 23.7295L61.2685 26.0904L64.4407 26.655Z" fill="#CECECE" stroke="#CBCBCB"/>
</svg>
